<?xml version="1.0" standalone="no"?>
<!DOCTYPE svg PUBLIC "-//W3C//DTD SVG 1.1//EN" "http://www.w3.org/Graphics/SVG/1.1/DTD/svg11.dtd">
<svg xmlns="http://www.w3.org/2000/svg">
<metadata>Copyright (C) 2018 by original authors @ fontello.com</metadata>
<defs>
<font id="fontello" horiz-adv-x="1000" >
<font-face font-family="fontello" font-weight="400" font-stretch="normal" units-per-em="1000" ascent="850" descent="-150" />
<missing-glyph horiz-adv-x="1000" />
<glyph glyph-name="ic_mi_averageticket" unicode="&#xe800;" d="M193 103c-15 0-25 10-25 25v597c0 15 10 25 25 25h635c15 0 25-10 25-25v-355c0-15-10-25-25-25s-25 10-25 25v330h-585v-572c0-15-13-25-25-25z m635-153h-505c-15 0-25 10-25 25s10 25 25 25h480v68c0 15 10 25 25 25s25-10 25-25v-93c0-15-13-25-25-25z m-305 458h-215c-15 0-25 10-25 25s10 25 25 25h215c15 0 25-10 25-25s-13-25-25-25z m-78-103h-140c-15 0-25 10-25 25s10 25 25 25h140c15 0 25-10 25-25s-10-25-25-25z m268 103h-50c-15 0-25 10-25 25s10 25 25 25h50c15 0 25-10 25-25s-10-25-25-25z m-133 202h-145c-15 0-25 10-25 25s10 25 25 25h145c15 0 25-10 25-25s-10-25-25-25z m103-75h-348c-15 0-25 10-25 25s10 25 25 25h348c15 0 25-10 25-25s-10-25-25-25z m-490-585c-5 0-13 2-15 5-10 10-13 25-3 35l200 238c5 5 10 7 18 10 7 0 12-3 17-5l108-95 137 200c5 5 10 10 18 10 7 0 15 0 20-5l132-115 200 240c10 10 25 12 35 2 10-10 13-25 3-35l-218-260c-5-5-10-7-17-10-8 0-13 3-18 5l-132 113-138-200c-2-3-10-8-15-8-7 0-15 3-20 5l-110 98-185-218c-5-8-12-10-17-10z m865 370c-13 0-25 10-25 23l-5 82-78-22c-12-3-27 5-30 17-2 13 5 28 18 30l107 28c8 2 15 0 20-5 5-5 10-10 10-18l8-110c2-12-8-25-25-25 2 0 2 0 0 0z" horiz-adv-x="1250" />

<glyph glyph-name="ic_mi_business" unicode="&#xe801;" d="M238-50c-15 0-25 10-25 25v500c0 15 10 25 25 25s25-10 25-25v-500c0-15-10-25-25-25z m812 500h-850c-27 0-52 15-67 38-15 22-15 52-3 77l85 173c5 7 13 12 23 12h775c10 0 17-5 22-15l85-172c13-25 10-53-2-78-15-20-40-35-68-35z m-797 250l-78-157c-5-10-5-20 3-28 2-10 12-15 22-15h850c10 0 20 5 25 13 5 7 5 20 3 27l-80 160h-745z m35-250c-3 0-5 0-8 0-12 5-20 18-17 33l22 75c5 12 18 20 33 17 12-5 20-17 17-32l-22-75c-5-10-15-18-25-18z m47 150c-2 0-5 0-7 0-13 5-20 18-18 33l28 87c5 13 17 20 32 18 13-5 20-18 18-33l-28-87c-5-13-15-18-25-18z m628-150c-10 0-20 8-25 18l-75 237c-5 13 2 28 17 33 13 5 28-3 33-18l75-237c5-13-3-28-18-33-2 0-5 0-7 0z m-225 0c-13 0-23 10-25 23l-8 65c-2 12 8 25 23 27 12 3 25-7 27-22l8-65c2-13-8-25-23-28 0 0-2 0-2 0z m-15 163c-13 0-23 10-25 22l-10 75c-3 13 7 28 22 28 13 2 28-8 28-23l10-75c2-12-8-27-23-27 0 0 0 0-2 0z m-210-163c0 0-3 0-3 0-12 3-22 15-22 28l25 237c2 13 15 23 27 23 13-3 23-15 23-28l-25-237c-3-13-13-23-25-23z m500-500h-293c-15 0-25 10-25 25s10 25 25 25h270v475c0 15 10 25 25 25s25-10 25-25v-500c-2-15-12-25-27-25z m-425 75c-15 0-25 10-25 25v275h-175v-275c0-15-10-25-25-25s-25 10-25 25v300c0 15 10 25 25 25h225c15 0 25-10 25-25v-300c0-15-10-25-25-25z m25-25h-275c-15 0-25 10-25 25s10 25 25 25h275c15 0 25-10 25-25s-13-25-25-25z m25-75h-325c-15 0-25 10-25 25s10 25 25 25h325c15 0 25-10 25-25s-13-25-25-25z m275 200h-200c-15 0-25 10-25 25v200c0 15 10 25 25 25h200c15 0 25-10 25-25v-200c0-15-10-25-25-25z m-175 50h150v150h-150v-150z m-225 25h-75c-15 0-25 10-25 25s10 25 25 25h75c15 0 25-10 25-25s-13-25-25-25z m-25-75h-25c-15 0-25 10-25 25s10 25 25 25h25c15 0 25-10 25-25s-13-25-25-25z" horiz-adv-x="1250" />

<glyph glyph-name="ic_mi_chargebacks" unicode="&#xe802;" d="M983 78c-15 0-25 10-25 25s10 25 25 25c37 0 67 30 67 67v413c0 37-30 67-67 67h-715c-38 0-68-30-68-67v-413c0-37 30-67 68-67 15 0 25-10 25-25s-10-25-25-25c-65 0-118 52-118 117v413c0 65 53 117 118 117h715c65 0 117-52 117-117v-413c0-65-52-117-117-117z m-488 327h-320c-15 0-25 10-25 25v125c0 15 10 25 25 25h738c15 0 25-10 25-25s-10-25-25-25h-713v-75h295c15 0 25-10 25-25s-12-25-25-25z m580 0h-347c-15 0-25 10-25 25s10 25 25 25h322v75h-45c-15 0-25 10-25 25s10 25 25 25h70c15 0 25-10 25-25v-125c0-12-10-25-25-25z m-437 0h-63c-15 0-25 10-25 25s10 25 25 25h63c15 0 25-10 25-25s-10-25-25-25z m227-327h-505c-15 0-25 10-25 25s10 25 25 25h505c15 0 25-10 25-25s-12-25-25-25z m-380-103c-5 0-10 2-15 5l-125 103c-5 5-10 12-10 20s3 15 10 20l125 102c10 10 28 8 35-2 10-10 8-28-2-35l-103-83 103-82c10-10 12-26 2-36-7-10-12-12-20-12z" horiz-adv-x="1250" />

<glyph glyph-name="ic_mi_customerfemale" unicode="&#xe803;" d="M348-5l32 40-40 223c0 0-50 332 18 432-98-82-183-230-183-367 0-128 55-245 140-326 30-27 25 0 33-2z m540 685c22-187 17-442 17-442l-10-190 0-23 25-40c0 0 10 7 15 12 88 83 153 198 140 326-25 292-187 362-187 357z m-610-667c-8 0-15 2-20 10-90 107-128 250-100 387 12 63 35 123 70 175 7 13 22 15 35 8 12-8 15-23 7-35-32-48-52-100-62-155-23-125 10-250 90-348 10-10 7-27-3-35-5-5-10-7-17-7z m687-10c-5 0-12 2-17 5-10 10-13 25-3 35 50 57 85 127 98 202 20 110-3 225-68 318-7 12-5 27 8 35 12 7 27 5 35-8 72-105 97-230 75-355-15-82-53-162-110-225-5-2-13-7-18-7z m-230 57c-15 0-25 10-25 25v43c0 15 10 25 25 25s25-10 25-25v-43c0-15-12-25-25-25z m-215-27c-15 0-25 10-25 25v70c0 15 10 25 25 25s25-10 25-25v-70c0-15-10-25-25-25z m108 45c-138 0-243 142-243 272v100c0 15 10 25 25 25s25-10 25-25v-100c0-102 83-222 193-222 105 0 177 75 177 182 0 15 10 25 25 25s25-10 25-25c3-135-95-232-227-232z m-263-38c-12 0-25 10-25 25-2 63-12 123-22 178-5 27-10 52-13 77-12 83-12 133-12 215 0 100 45 178 85 213 100 90 237 120 362 77 95-32 168-100 185-180 38-167 25-290 8-420-8-50-10-102-10-152 0-15-10-25-25-25 0 0 0 0 0 0-13 0-25 10-25 25 0 52 2 107 10 160 17 130 30 242-5 402-13 63-70 118-150 143-110 35-228 10-315-68-8-5-68-65-68-175 0-82 3-130 13-210 2-22 7-47 12-75 10-55 23-117 23-185-3-12-13-25-28-25 0 0 0 0 0 0z m468 320c-15 0-25 10-25 25 0 203-68 225-68 225-15 3-25 15-22 28 2 12 15 22 27 22 13-2 113-20 113-275 0-12-13-25-25-25z m-98-327c-15 0-25 10-25 25v70c0 15 10 25 25 25s25-10 25-25v-70c0-15-12-25-25-25z m-115-146c-5 0-10 3-15 5l-165 118-15-5c-37-15-70-35-100-60-10-10-27-8-35 2-10 10-7 28 3 35 32 28 70 51 112 68l28 10c7 3 17 3 22-2l163-116 170 116c5 5 15 5 20 2l27-7c10-3 20-8 28-10 35-18 67-38 95-61 10-10 12-25 2-35-10-10-25-12-35-2-25 20-52 37-85 52-5 3-12 6-20 8l-15 5-175-118c-2-2-5-5-10-5z m8 316c-28 0-53 10-75 30-10 10-10 25-3 35 10 10 25 10 35 2 25-22 58-25 83-2 10 10 27 10 35-3 10-10 10-25-3-35-20-17-47-27-72-27z m-165 280c-28 0-48 2-50 2-13 3-23 13-23 28s15 22 28 22c2 0 247-22 302 110 5 13 20 20 33 13 12-5 20-20 12-33-52-125-220-142-302-142z" horiz-adv-x="1250" />

<glyph glyph-name="ic_mi_customerloyalty" unicode="&#xe804;" d="M800 78h-222c-15 0-25 10-25 25s10 25 25 25h222c10 0 20 7 20 20 0 20-15 35-35 35h-112c-5 0-10 0-13 2 0 0-12 8-25 15-17 10-35 20-55 25-20 5-45 8-70 3l-100-13c-15-2-25 8-27 23-3 12 7 25 22 27l100 13c33 5 63 2 90-5 25-8 48-18 70-30 5-5 13-8 18-10h105c47 0 85-38 85-85-5-40-35-70-73-70z m-97-171c-33 0-65 5-95 18l-210 80c-13 5-20 20-15 33 5 12 20 20 32 15l210-81c58-22 123-17 178 10l282 146c15 7 23 27 15 42-7 15-27 23-42 15l-233-105c-2-2-7-2-10-2h-30c-15 0-25 10-25 25s10 25 25 25h25l225 105c43 17 90 0 110-40 18-40 3-88-37-108l-283-145c-40-23-82-33-122-33z m-298 10h-280c-15 0-25 10-25 25v341c0 15 10 25 25 25h280c15 0 25-10 25-25v-343c0-13-10-23-25-23z m-255 50h230v291h-230v-291z m600 333c-10 0-17 3-27 10l-163 133c-15 12-27 25-35 35-32 42-50 95-50 147 0 95 73 175 163 175 37 0 72-15 100-45 2-5 7-12 12-20 25 40 68 65 113 65 90 0 162-77 162-175 0-55-17-107-50-147-10-13-20-23-35-35l-162-133c-10-7-18-10-28-10z m-112 450c-63 0-113-55-113-125 0-42 15-85 40-117 8-10 15-18 28-28l157-127 158 127c12 10 20 20 27 28 25 32 40 75 40 117 0 68-50 125-112 125-40 0-75-30-85-72-5-25-20-28-28-28-10 0-22 5-27 28-5 17-13 32-23 45-17 17-40 27-62 27z m52-252c-5 0-12 2-17 7-10 10-10 25 0 35l50 53c10 10 25 10 35 0 10-10 10-25 0-35l-50-53c-5-5-10-7-18-7z m68-45c-5 0-13 2-18 7-10 10-10 25 0 35l110 115c10 10 25 10 35 0 10-10 10-25 0-35l-110-115c-5-5-12-7-17-7z" horiz-adv-x="1250" />

<glyph glyph-name="ic_mi_customermale" unicode="&#xe805;" d="M450-93c0 8-7 90-2 96 5 5 15 7 22 5l50-3 3 123c-65 52-123 147-125 227-18 33-83 203-43 338-95-85-180-233-180-370 0-173 98-320 238-396l37-20z m473 753c2-7-35 25-35 18 22-188-23-280-55-303v-62c0-85-38-160-98-203v-102l60-3c8 3 10 5 15 0 5-5 0-70 0-80h28c142 75 237 225 237 395 0 138-60 258-152 340z m-188-600c-15 0-25 10-25 25v43c0 15 10 25 25 25s25-10 25-25v-43c0-15-12-25-25-25z m-215-27c-15 0-25 10-25 25v70c0 15 10 25 25 25s25-10 25-25v-70c0-15-10-25-25-25z m108 45c-138 0-243 142-243 272 0 15 10 25 25 25s25-10 25-25c0-102 83-222 193-222 105 0 177 75 177 182 0 15 10 25 25 25s25-10 25-25c3-135-95-232-227-232z m-215 245c-10 0-18 5-23 12-7 13-160 283 10 435 65 58 133 83 200 80 88-5 153-60 173-80 0 0 0 0 0 0 52 0 135-25 147-127 28-240-72-275-85-280-7-3-15 0-22 5s-10 12-10 20c0 150-35 200-55 217-55-75-150-72-198-60 0 0-7 3-22 3-23 0-60-5-73-35-20-43-22-130-22-160 0-13-8-23-18-25 3-5 0-5-2-5z m330 337c0 0 2 0 2 0 10-2 98-17 110-217 18 30 30 87 18 192-10 90-98 85-105 85-8 0-15 3-20 8l0 0c-5 7-143 157-313 5-85-75-67-195-40-280 5 27 10 52 20 75 38 85 148 62 153 62 5-2 110-27 152 55 5 10 13 15 23 15z m-115-457c-33 0-68 10-95 27-13 8-15 23-8 35 8 13 23 15 35 8 40-28 93-28 133-3l2 3c13 7 28 5 35-8 8-12 5-27-7-35l-3-2c-27-18-60-25-92-25z m47-338h-105c-15 0-25 10-25 25v105c0 15 10 25 25 25h105c15 0 25-10 25-25v-105c0-15-12-25-25-25z m-82 50h57v55h-55v-55z m-153-65c-5 0-12 2-15 5-5 5-10 12-10 20v133c0 7 3 15 10 20s13 7 20 5l133-28c12-2 20-13 20-25v-80c0-13-8-23-20-25l-133-25c-2 0-2 0-5 0z m133 52l0 0 0 0z m-108 75v-70l83 18v37l-83 15z m345-127c-2 0-2 0-5 0l-132 27c-13 3-20 13-20 25v80c0 13 7 23 20 26l132 27c8 3 15 0 20-5 5-5 10-12 10-20v-135c0-8-2-15-10-20-2-3-10-5-15-5z m-107 72l82-17v70l-82-18v-35z m-355 23c-5 0-10 2-15 5-140 110-208 285-175 460 12 63 35 123 70 175 7 13 22 15 35 8 12-8 15-23 7-35-32-48-52-100-62-155-30-155 30-313 155-411 10-7 12-25 5-35-5-10-13-12-20-12z m557 2c-7 0-15 3-20 10-7 10-7 28 5 35 80 63 135 156 153 256 20 110-3 225-68 317-7 13-5 28 8 35 12 8 27 5 35-7 72-105 97-230 75-355-20-113-83-213-173-286-5-2-10-5-15-5z" horiz-adv-x="1250" />

<glyph glyph-name="ic_mi_customersnew" unicode="&#xe806;" d="M765 698c0 0-147 167-327 7-148-132-5-382-5-382s-3 105 22 160c28 62 118 45 118 45s120-33 170 65c0 0 85-10 85-235 0 0 87 25 62 240-12 110-125 100-125 100z m-130-793c0 0-2 0 0 0-12 0-42 2-70 30-37 35-55 95-55 178 0 15 10 25 25 25s25-10 25-25c0-85 20-123 40-141 18-17 35-17 35-17 3 0 20 0 38 17 17 18 40 56 40 141 0 15 10 25 25 25s25-10 25-25c0-83-18-143-55-178-33-28-63-30-73-30z m-342 5c-8 0-15 2-20 7-10 10-8 28 2 35 53 45 138 83 233 106 12 2 27-5 30-20 2-13-5-28-20-30-85-21-165-56-210-96-3 0-10-2-15-2z m532 75c-2 0-5 0-7 2-25 10-50 18-78 23-12 3-22 18-17 30 2 13 17 23 30 18 27-8 57-15 82-25 13-5 20-20 15-33-5-8-15-15-25-15z m150-85c-5 0-12 2-17 7-15 15-33 28-55 40-13 8-15 23-10 35 7 13 22 15 35 10 25-15 47-30 65-47 10-10 10-25 0-35-5-8-10-10-18-10z m-340 165c-132 0-230 138-230 258 0 15 10 25 25 25s25-10 25-25c0-98 78-208 180-208 98 0 168 70 168 170 0 15 10 25 25 25s25-10 25-25c0-127-93-220-218-220z m-205 233c-10 0-17 5-22 12-5 10-150 270 10 413 60 55 125 80 190 75 82-5 142-55 165-78 0 0 0 0 0 0 50 0 127-25 140-122 27-228-70-263-80-265-8-3-15 0-23 5-7 5-10 12-10 20 0 137-32 187-52 202-53-70-143-67-185-57l0 0c0 0-70 12-90-33-18-40-20-122-20-150 0-12-8-22-18-25 0 3-2 3-5 3z m313 322c0 0 2 0 2 0 10 0 90-17 105-202 15 30 28 82 15 177-10 85-95 80-97 78-8 0-15 2-20 7 0 0-58 63-140 68-53 2-103-18-153-63-77-70-65-180-40-257 3 22 10 45 18 65 35 80 142 60 145 60 5-3 102-25 142 52 3 10 13 15 23 15z m-110-437c-33 0-63 10-90 27-13 8-15 23-8 35 8 13 23 15 35 8 38-25 88-25 125-3l3 3c12 7 27 5 35-8 7-12 5-27-8-35l-2-2c-28-15-58-25-90-25z m-373-78c-15 0-25 10-25 25v100c0 15 10 25 25 25s25-10 25-25v-100c0-12-12-25-25-25z m48 50h-98c-15 0-25 10-25 25s10 25 25 25h98c15 0 25-10 25-25s-10-25-25-25z m-133 250c-15 0-25 10-25 25v100c0 15 10 25 25 25s25-10 25-25v-100c0-15-12-25-25-25z m48 50h-98c-15 0-25 10-25 25s10 25 25 25h98c15 0 25-10 25-25s-10-25-25-25z m817-280c-15 0-25 10-25 25v175c0 15 10 25 25 25s25-10 25-25v-175c0-15-12-25-25-25z m85 88h-172c-15 0-25 10-25 25s10 25 25 25h172c15 0 25-10 25-25s-10-25-25-25z" horiz-adv-x="1250" />

<glyph glyph-name="ic_mi_discounts" unicode="&#xe807;" d="M563-130c-8 0-13 2-18 7l-442 443c-10 10-10 25 0 35l460 468c5 5 10 7 17 7h265c8 0 13-2 18-7l195-185c10-10 10-25 0-35-10-10-25-10-35 0l-188 177h-245l-435-442 408-408 460 468c10 10 25 10 35 0 10-10 10-25 0-35l-478-486c-5-5-10-7-17-7 0 0 0 0 0 0z m252 620c-32 0-65 15-82 45-30 45-18 108 27 140 28 18 63 23 93 10 12-5 20-20 15-32-5-13-20-20-33-15-15 5-32 5-47-5-13-10-20-20-23-33s0-27 8-37c10-18 30-25 50-20 12 2 27-5 30-20 2-13-5-28-20-30-5-3-13-3-18-3z m-305-92c-17 0-35 5-45 17-30 30-22 85 18 125 40 40 95 48 122 18 30-30 23-85-17-125l0 0c-23-23-50-35-78-35z m50 127c-10 0-27-5-42-20-23-22-25-45-18-52 8-8 33-3 53 17 22 23 25 45 17 53 0 2-5 2-10 2z m10-72l0 0 0 0z m-22-373c-18 0-35 5-45 18-15 15-23 37-18 62 5 23 18 43 35 60 40 40 95 48 123 18 15-15 22-38 17-63-5-22-17-42-35-60-25-22-52-35-77-35z m47 128c-10 0-27-5-42-20-10-10-18-23-20-35-3-8 0-15 2-18 8-7 33-5 53 18 10 10 17 22 20 35 2 7 0 15-3 17 0 3-5 3-10 3z m-290 60c-12 0-22 10-25 22-2 13 8 28 20 28l495 70c13 2 28-8 28-20s-8-28-20-28l-495-70c0-2 0-2-3-2z m738-63c-18 0-38 5-55 15-13 8-18 23-10 35 7 13 22 18 35 10 20-10 42-10 62 0 20 10 30 30 30 53 0 102-70 192-170 217l-125 30c-12 3-22 18-17 30 2 13 17 23 30 18l125-30c122-30 207-140 207-265 0-40-20-75-55-98-17-10-37-15-57-15z" horiz-adv-x="1250" />

<glyph glyph-name="ic_mi_employee" unicode="&#xe808;" d="M315 175c0 15 0 30 3 40-60 18-105 75-105 170 0 118 0 213 150 213 115 0 142-55 147-135l3-78c0-95-45-152-105-170 2-5 2-10 2-17l0-23c100-15 185-72 240-155v730h-492c-45 0-83-37-83-82v-635c0-5 0-8 0-13 55 83 140 140 240 155z m785-250h-950c-55 0-100 45-100 100v650c0 55 45 100 100 100h950c55 0 100-45 100-100v-650c0-55-45-100-100-100z m-950 800c-27 0-50-22-50-50v-650c0-28 23-50 50-50h950c28 0 50 22 50 50v650c0 28-22 50-50 50h-950z m213-650c0 0 0 0 0 0-8 0-33 3-55 23-28 25-40 67-40 127 0 15 10 25 25 25s25-10 25-25c0-80 27-100 45-100 17 0 45 23 45 100 0 15 10 25 25 25s25-10 25-25c0-60-13-102-40-127-23-20-48-23-55-23z m0 110c-88 0-175 63-175 203 0 117 0 237 175 237 142 0 167-85 172-157 0-15-10-25-22-28-15 0-25 10-28 23-5 72-27 112-122 112-120 0-125-57-125-187 0-95 47-153 125-153s125 58 125 153c0 15 10 25 25 25s25-10 25-25c0-140-88-203-175-203z m217-112c-7 0-12 2-17 7-33 33-75 55-123 68-12 2-22 17-17 30s17 22 30 17c57-15 107-42 147-80 10-10 10-25 0-35-7-5-15-7-20-7z m-432 0c-8 0-13 2-18 7-10 10-10 25 0 35 40 40 93 68 153 80 12 3 27-5 30-20 2-12-5-27-20-30-50-12-95-35-130-67-3-3-10-5-15-5z m815 190h-200c-15 0-25 10-25 25s10 25 25 25h200c15 0 25-10 25-25s-10-25-25-25z m-55 250h-145c-15 0-25 10-25 25s10 25 25 25h145c15 0 25-10 25-25s-10-25-25-25z m0-375h-145c-15 0-25 10-25 25s10 25 25 25h145c15 0 25-10 25-25s-10-25-25-25z m130 250h-275c-15 0-25 10-25 25s10 25 25 25h275c15 0 25-10 25-25s-10-25-25-25z" horiz-adv-x="1250" />

<glyph glyph-name="ic_mi_facebook" unicode="&#xe809;" d="M428 100c-15 0-28 5-38 15-10 10-15 23-15 38v395c0 15 5 27 15 37 10 10 23 15 38 15h392c15 0 28-5 38-15s15-22 15-37v-393c0-15-5-27-15-37s-20-18-35-18h-395z m197-200c-247 0-450 203-450 450s203 450 450 450c60 0 120-12 175-35 13-5 18-20 13-32s-20-18-33-13c-47 20-100 30-155 30-220 0-400-180-400-400s180-400 400-400 400 180 400 400c0 18 0 33-2 50-3 13 7 25 22 28 13 2 25-8 28-23 2-17 2-35 2-55 0-247-202-450-450-450z m375 625c-10 0-17 5-22 13-23 40-50 77-83 107-10 10-10 25-2 35 10 10 25 10 35 3 37-35 70-75 92-120 8-13 3-28-10-35-2-3-5-3-10-3z m-175-332c0-13-5-23-12-30s-18-13-30-13h-75v158h52l8 60h-63v37c0 10 3 18 5 23 5 5 13 7 25 7h33v53c-13 2-28 2-48 2-25 0-42-7-57-20-15-15-20-32-20-57v-45h-55v-60h55v-158h-175c-13 0-23 5-30 13s-13 17-13 30v315c0 12 5 22 13 30s17 12 30 12h315c12 0 22-5 30-12s12-18 12-30v-315z" horiz-adv-x="1250" />

<glyph glyph-name="ic_mi_funding" unicode="&#xe80a;" d="M650 675c-160 0-287-127-287-287 0-160 127-288 287-288s288 128 288 288c0 160-128 287-288 287z m0-430c-77 0-142 63-142 143s62 142 142 142 143-62 143-142-65-143-143-143z m375-270h-750c-35 0-62 28-62 63v700c0 35 27 62 62 62h750c35 0 63-27 63-62v-700c0-35-28-63-63-63z m-750 775c-7 0-12-5-12-12v-700c0-8 5-13 12-13h750c8 0 13 5 13 13v700c0 7-5 12-13 12h-750z m-87-237c-15 0-25 10-25 25v112c0 15 10 25 25 25s25-10 25-25v-112c0-15-10-25-25-25z m0-413c-15 0-25 10-25 25v113c0 15 10 25 25 25s25-10 25-25v-113c0-15-10-25-25-25z m175-200c-3 0-5 0-8 2-12 5-20 20-15 33l25 70c5 13 20 20 33 15 12-5 20-20 15-33l-25-70c-5-10-15-17-25-17z m575 0c-10 0-20 7-23 17l-25 70c-5 13 3 28 15 33 13 5 28-2 33-15l25-70c5-13-3-28-15-33-5-2-8-2-10-2z m-288 175c-7 0-17 0-25 0-82 8-160 45-212 110-55 63-80 145-73 228 8 82 45 160 110 212 60 55 143 80 225 75 50-5 100-20 140-47 13-8 15-23 8-35-8-13-23-15-35-8-35 23-75 35-118 40-70 5-137-17-190-62-52-45-85-110-92-180-5-70 17-138 62-190 45-53 110-85 180-93 70-5 138 18 190 63 53 45 85 110 93 180 5 60-13 120-48 170-7 12-5 27 5 35 13 7 28 5 35-5 43-60 60-133 55-203-7-82-45-160-110-212-55-53-125-78-200-78z m53 338c-5 0-13 2-18 7-10 10-10 25 0 35l38 40c10 10 25 10 35 0 10-10 10-25 0-35l-38-40c-5-5-10-7-17-7z m-53-118c-52 0-95 43-95 95s43 95 95 95 95-42 95-95-42-95-95-95z m0 135c-25 0-45-20-45-45s20-45 45-45 45 20 45 45-20 45-45 45z m0-220c-5 0-10 0-15 0-97 8-170 93-162 190 7 98 92 170 190 163 10 0 20-3 30-5 12-3 22-18 17-30-2-13-17-23-30-18-7 3-15 3-22 5-70 5-130-47-138-117-5-70 48-130 118-138 70-5 130 48 137 118 0 15 0 30-5 45-2 12 5 27 18 30 12 2 27-5 30-18 5-20 7-40 5-62-3-93-80-163-173-163z" horiz-adv-x="1250" />

<glyph glyph-name="ic_mi_listings" unicode="&#xe80b;" d="M425 525h-200c-15 0-25 10-25 25v200c0 15 10 25 25 25h200c15 0 25-10 25-25v-200c0-15-10-25-25-25z m-175 50h150v150h-150v-150z m475-50h-200c-15 0-25 10-25 25v200c0 15 10 25 25 25h200c15 0 25-10 25-25v-200c0-15-10-25-25-25z m-175 50h150v150h-150v-150z m475-50h-200c-15 0-25 10-25 25v200c0 15 10 25 25 25h200c15 0 25-10 25-25v-200c0-15-10-25-25-25z m-175 50h150v150h-150v-150z m-125-650h-200c-15 0-25 10-25 25v200c0 15 10 25 25 25h200c15 0 25-10 25-25v-200c0-15-10-25-25-25z m-175 50h150v150h-150v-150z m475-50h-200c-15 0-25 10-25 25v200c0 15 10 25 25 25h200c15 0 25-10 25-25v-200c0-15-10-25-25-25z m-175 50h150v150h-150v-150z m-425-50h-200c-15 0-25 10-25 25v200c0 15 10 25 25 25h200c15 0 25-10 25-25v-200c0-15-10-25-25-25z m-175 50h150v150h-150v-150z m475 250h-200c-15 0-25 10-25 25v200c0 15 10 25 25 25h200c15 0 25-10 25-25v-200c0-15-10-25-25-25z m-175 50h150v150h-150v-150z m475-50h-200c-15 0-25 10-25 25v200c0 15 10 25 25 25h200c15 0 25-10 25-25v-200c0-15-10-25-25-25z m-175 50h150v150h-150v-150z m-425-50h-200c-15 0-25 10-25 25v200c0 15 10 25 25 25h200c15 0 25-10 25-25v-200c0-15-10-25-25-25z m-175 50h150v150h-150v-150z" horiz-adv-x="1250" />

<glyph glyph-name="ic_mi_instagram" unicode="&#xe80c;" d="M875 455c0-20 0-55 0-105s0-82-2-105c0-20-5-40-10-55-8-17-18-35-30-47-15-15-30-25-48-30-15-5-35-8-55-10-22-3-57-3-105-3s-82 0-105 3c-20 0-40 5-55 10-17 5-35 15-47 30-15 15-25 30-30 47-5 15-8 35-10 55 0 20-3 55-3 105s0 83 3 105c0 20 5 40 10 55 7 18 17 35 30 48 15 15 30 25 47 30 15 5 35 7 55 10 20 0 55 2 105 2s83 0 105-2c20 0 40-5 55-10 18-8 35-18 48-30s25-30 30-48c7-15 10-35 12-55z m-250-555c-247 0-450 203-450 450 0 60 13 120 35 175 5 13 20 18 33 13 12-5 17-20 12-33-20-47-30-100-30-155 0-220 180-400 400-400s400 180 400 400-180 400-400 400c-17 0-32 0-50-2-12-3-25 7-27 22-3 13 7 25 22 28 18 2 35 2 55 2 248 0 450-202 450-450s-202-450-450-450z m-312 713c-5 0-13 2-18 7-10 10-10 25-2 35 35 38 75 70 120 93 12 7 27 2 35-10 7-13 2-28-10-35-40-23-78-50-108-83-5-5-12-7-17-7z m235-425c-8 0-15 0-20 2 0 0-3 0-3 0-7 3-12 3-17 5-8 3-15 8-23 15s-12 15-15 23c-2 5-2 10-5 17 0 0 0 3 0 3 0 5-2 12-2 20l-38 35c0-8 0-15 0-20 0-8 0-15 0-20 0-10 3-18 3-28 5-22 15-42 30-57 15-15 32-25 57-30 8-3 18-3 28-3 5 0 12 0 20 0 5 0 12 0 20 0l-35 38z m42-3h-12c-3 0-5 0-8 0-5 0-10 0-17 0-3 0-5 0-5 0-8 0-15 0-20 3 0 0-3 0-3 0-7 2-12 2-17 5-8 2-15 7-23 15s-12 15-15 22c-2 5-2 10-5 18 0 0 0 2 0 2 0 5-2 13-2 20 0 3 0 5 0 5 0 8 0 13 0 18 0 2 0 5 0 7v13l-38 40v-20c0-8 0-15 0-23 0-7 0-15 0-20 0-7 0-15 0-20 0-10 3-17 3-27l85-85c7-3 17-3 27-3 5 0 13 0 20 0 5 0 13 0 20 0 8 0 15 0 23 0h20l-33 30z m-125 65c0 0 0 0 0 0l-40 38c0 5 0 12 0 20 0 7 0 15 0 22v20c0 8 0 15 0 23 0 7 0 15 0 20l35-35v-8c0 0 0-5 0-12v-35c0-3 0-5 0-8 0-5 0-10 0-17 0-3 0-5 0-5 3-10 3-15 5-23z m205-100c-5 0-12 0-20 0-7 0-15 0-22 0h-20c-8 0-15 0-23 0-7 0-15 0-20 0l-40 40c0 0 3 0 3 0 5 0 12-2 20-2 2 0 5 0 5 0 7 0 12 0 17 0 3 0 5 0 8 0h35c7 0 10 0 12 0h8l37-38z m-210 220c0-5 0-7 0-12v-8c0 0 0-5 0-12v-35c0-3 0-5 0-8l-35 35v20c0 8 0 15 0 23 0 7 0 15 0 20 0 7 0 15 0 22 0 8 0 13 0 18 0 0 0 2 0 2l35-35c0-2 0-2 0-5v-25z m128-115c-13 5-25 13-35 23-10 10-18 22-23 35-2 7-5 17-5 27l93-92c-13 2-20 2-30 7z m122-102c0 0-2 0-2 0-5 0-10 0-18 0-7 0-12 0-22 0-5 0-13 0-20 0-8 0-15 0-23 0h-20l-35 35c3 0 5 0 8 0h35c7 0 10 0 12 0h8c2 0 7 0 12 0h33l32-35z m-277 320l30-30c0-5 0-13-3-20v0c0-8 0-15 0-20 0-3 0-3 0-5v-28c0-5 0-7 0-12v-8c0 0 0-5 0-12l-35 37c0 8 0 15 0 20 0 8 0 15 0 23 0 7 0 12 0 17 0 0 0 3 0 3 0 7 0 12 3 20 2 5 2 10 5 15z m222-223c-5-2-12-2-17-2-5 0-8 0-13 0-2 0-7 0-10 0-10 0-17 2-27 5-13 5-25 12-35 22-10 10-18 23-23 35-2 8-5 18-5 28 0 2 0 7 0 10 0 5 0 7 0 12 0 5 3 13 3 18l32-33c0-10 3-20 8-27 0 0 0 0 0 0 2-5 7-10 12-15 5-5 10-10 15-13 0 0 0 0 0 0 8-5 18-7 28-7l32-33z m93-92c-5-3-10-3-18-5-7 0-12-3-20-3 0 0-2 0-2 0-5 0-10 0-18 0-7 0-12 0-22 0-5 0-13 0-20 0l-35 35c7 0 10 0 12 0h8c2 0 7 0 12 0h33c5 0 12 0 20 0h0c7 0 12 0 20 3l30-30z m-300 345l25-25c-3-3-3-5-5-8 0-2-3-5-3-7 0-3-2-8-2-13 0-2 0-5 0-7 0-5 0-13-3-20v0c0-8 0-15 0-20 0-3 0-3 0-5v-15l-35 32c0 8 0 13 0 18 0 0 0 2 0 2 0 8 0 13 3 20 0 5 2 13 5 18 2 5 5 10 7 15 0 5 5 10 8 15z m235-238c-5-2-8-5-13-7-5-3-10-5-15-8-5-2-12-2-17-2-5 0-8 0-13 0-2 0-7 0-10 0-10 0-17 2-27 5l-60 60c-3 7-5 17-5 27 0 3 0 8 0 10 0 5 0 8 0 13 0 5 2 12 2 17 3 5 3 10 8 15 2 5 5 10 7 13l25-25c-2-5-5-10-5-15-2-5-2-10-2-18 0 0 0-2 0-2 0-10 2-20 7-28 0 0 0 0 0 0 3-5 8-10 13-15 5-5 10-10 15-12 0 0 0 0 0 0 7-5 17-8 27-8 0 0 3 0 3 0 5 0 12 0 17 3 5 0 10 2 15 5l28-28z m95-92c-5-3-8-5-13-8-5-2-10-5-15-7-5-3-10-3-17-5-8 0-13-3-20-3 0 0-3 0-3 0-5 0-10 0-17 0l-35 35h20c5 0 12 0 20 0h0c7 0 12 0 20 3 2 0 5 0 7 0 5 0 8 2 13 2 2 0 5 3 7 3 3 0 5 2 8 5l25-25z m-310 352l25-25c-3-2-5-5-10-7 0 0-3-3-3-3-5-5-7-7-10-12-2-3-2-5-5-8 0-2-2-5-2-7 0-3-3-8-3-13 0-2 0-5 0-7 0-5 0-13-2-20l-33 32c0 5 3 13 5 18 3 5 5 10 8 15 2 5 5 10 7 12 3 5 5 8 10 13 0 0 0 2 3 2 5 5 7 8 10 10z m92-95l25-25c-2-2-5-5-10-7 0 0-2-3-2-3-3-5-8-7-10-12-3-5-5-10-5-15-3-5-3-10-3-18 0 0 0-2 0-2 0-10 3-20 8-28l-43 43c0 5 3 12 3 17 2 5 2 10 7 15 3 5 5 10 8 13 2 5 5 7 10 12 0 0 2 3 2 3 5 2 8 5 10 7z m145-145c-2-2-5-5-7-7l-3-3c-5-2-7-7-12-10-5-2-8-5-13-7-5-3-10-5-15-8-5-2-12-2-17-2l-43 42c8-5 18-7 28-7 0 0 2 0 2 0 5 0 13 0 18 2 5 0 10 3 15 5 5 3 10 5 12 10 0 0 3 3 3 3 2 2 5 5 7 10l25-28z m95-92c-2-3-5-5-7-8 0 0-3-2-3-2-5-5-7-8-12-10-5-3-8-5-13-8-5-2-10-5-15-7-5-3-10-3-17-5l-33 32c8 0 13 0 20 3 3 0 5 0 8 0 5 0 7 2 12 2 3 0 5 3 8 3 2 0 5 2 7 5 5 2 10 5 13 10 0 0 2 2 2 2 3 3 5 5 8 10l22-27z m-305 347l30-30c-5 0-12-2-15-5 0 0 0 0 0 0-5-2-10-5-15-7-2-3-5-5-10-8 0 0-2-2-2-2-5-5-8-8-10-13-3-2-3-5-5-7 0-3-3-5-3-8l-27 28c2 5 5 10 7 12 3 5 5 8 10 13 0 0 0 2 3 2 2 3 5 5 7 8 5 2 10 7 13 10 7 2 12 5 17 7l0 0z m93-95l30-30c-5 0-13-2-18-5-5-2-10-5-15-7-2-3-5-5-10-8 0 0-2-2-2-2-3-5-8-8-10-13-3-5-5-10-5-15l-28 28c3 5 5 10 8 12 2 5 5 8 10 13 0 0 2 2 2 2 3 3 5 5 8 8 5 2 7 7 12 10 8 5 13 7 18 7z m132-132c-2-5-5-10-7-15-3-5-5-10-10-13-3-2-5-5-8-7l0-3c-5-2-7-7-12-10-5-2-8-5-13-7l-27 27c5 0 10 3 15 5 5 3 10 5 12 10 0 0 3 3 3 3 2 2 5 5 7 10 3 5 5 10 8 15 2 5 2 10 5 17l27-32z m95-93l0 0c-2-5-5-10-7-15-3-5-5-10-10-12-3-3-5-5-8-8 0 0-2-2-2-2-5-5-8-8-13-10-5-3-7-5-12-8l-28 28c3 0 5 2 8 2 2 0 5 3 7 5 5 3 10 5 13 10 0 0 2 3 2 3 3 2 5 5 8 10 2 5 5 10 7 15 0 0 0 0 0 0 3 5 3 10 5 15l30-33z m-262 293c-3 0-5 0-10 0-8 0-13 0-18-3 0 0-2 0-2 0-5 0-13-2-15-5 0 0 0 0 0 0-5-2-10-5-15-7-3-3-5-5-10-8 0 0-3-2-3-2l-25 25c0 0 0 2 3 2 2 3 5 5 7 8 5 2 10 7 13 10 5 2 10 5 12 7h0c5 3 10 5 18 5 5 3 10 3 17 3l35-35c0 0-2 0-7 0z m175-163c0-7 0-12-3-20 0-5-2-12-5-17-2-5-5-10-7-15-3-5-5-10-10-13-3-2-5-5-8-7l0-3-25 25c0 0 3 3 3 3 2 2 5 5 7 10 3 5 5 10 8 15 2 5 2 10 5 17 0 3 0 5 0 8 0 5 0 12-3 17-2 13-7 23-17 30-10 10-20 15-30 18-5 2-10 2-18 2-2 0-5 0-7 0-5 0-13-2-18-5-5-2-10-5-15-7-2-3-5-5-10-8 0 0-2-2-2-2l-25 25c0 0 2 2 2 2 3 3 5 5 8 8 5 2 7 7 12 10 5 2 10 5 15 7 5 3 13 5 18 5 5 0 12 3 20 3l105-108z m95-95c0-5-3-12-3-17-2-5-2-13-5-18v0c-2-5-5-10-7-12-3-5-5-10-10-13-3-2-5-5-8-7 0 0-2-3-2-3l-25 25c0 0 2 3 2 3 3 2 5 5 8 10 2 5 5 10 7 15 0 0 0 0 0 0 3 5 3 10 5 15 0 0 0 2 0 2 0 5 3 10 3 18 0 2 0 5 0 10 0 5 0 7 0 10l35-38z m-245 260c-5 0-10 0-15 0-3 0-8 0-10 0-3 0-5 0-10 0-8 0-13 0-18-2 0 0-2 0-2 0-5 0-13-3-15-5l-28 27c5 3 10 5 13 8h0c5 2 10 5 17 5 5 2 10 2 18 2 5 0 10 0 12 0 3 0 5 0 8 0 5 0 12 0 20 0l35-35c0 0 0 0 0 0h-25z m150-165l0 0c0-7 0-12-3-20 0-5-2-12-5-17-2-5-5-10-7-15l-25 27c2 5 2 10 5 18 0 2 0 5 0 7 0 5 0 13-3 18-2 12-7 22-17 30-10 10-20 15-30 17-5 3-10 3-18 3-2 0-5 0-7 0-5 0-13-3-18-5l-25 27c5 3 10 5 15 8 5 2 13 5 18 5 5 0 12 2 20 2h0c7 0 17 0 25-2 15-3 27-10 40-20 0 0 2-3 2-3l10-10c0 0 3-2 3-2 10-13 17-25 20-40 0-10 0-20 0-28z m97-55c0-7 0-15 0-20 0-2 0-5 0-7 0-5 0-10 0-13 0-5-2-12-2-17-3-5-3-13-5-18v0c-3-5-5-10-8-12l-27 27c2 5 2 10 5 15 0 0 0 3 0 3 0 5 2 10 2 17 0 3 0 5 0 10 0 5 0 8 0 10 0 5 0 10 0 15 0 3 0 5 0 8 0 5 0 12 0 20v0l35-38z m-220 220c0 0 0 0 0 0h-27c-5 0-10 0-15 0-3 0-8 0-10 0-3 0-5 0-10 0l-33 33c5 2 10 2 18 2 5 0 10 0 12 0 3 0 5 0 8 0 5 0 12 0 20 0 7 0 15 0 22 0 5 0 13 0 20 0l35-35h-2c-8 0-13 0-18 0h0c0 0-7 0-20 0z m123-165l0 0c0-7 0-12-3-20l-37 38c-3 12-8 22-18 30-10 10-20 15-30 17l-35 35c5 0 13 3 20 3h0c8 0 18 0 25-3 15-2 28-10 40-20 0 0 3-2 3-2 2-3 2-3 5-5 2-3 2-3 5-5 0 0 2-3 2-3 10-12 18-25 20-40 3-7 3-17 3-25z m-20 105l22-22c-5 0-10 2-15 7-5 5-7 10-7 15z m117-117c0-8 0-15 0-20 0-8 0-15 0-23 0-7 0-15 0-20 0-2 0-5 0-7 0-5 0-10 0-13 0-5-2-12-2-17l-33 32c0 3 0 5 0 10 0 5 0 8 0 10 0 5 0 10 0 15 0 3 0 5 0 8 0 5 0 12 0 20v0c0 12 0 17 0 20v2c0 3 0 10 0 18v2l35-37z m-180 177c-7 0-12 0-17 0h-3c0 0-7 0-20 0 0 0 0 0 0 0h-20l-35 35c5 0 13 0 20 0 8 0 15 0 23 0 5 0 12 0 20 0h22c8 0 15 0 20 0l35-35c-7 0-15 0-20 0h-25z m60-100c10-12 18-25 20-40l-75 75c15-2 28-10 40-20 0 0 3-2 3-2 2-3 2-3 5-5 2-3 2-3 5-5 0 0 2-3 2-3z m20 65l30-30c0-5-2-7-5-10 0 0 0 0-2-2-5-3-10-5-15-5 0 0-3 0-3 0-5 0-10 2-15 7-5 5-7 10-7 15 0 0 0 3 0 3 0 5 2 10 5 15 0 0 0 2 2 2 3 3 8 5 10 5z m100-120v-22c0-8 0-15 0-20 0-8 0-15 0-23 0-7 0-15 0-20l-35 35c0 5 0 13 0 20v0c0 13 0 18 0 20v3c0 2 0 10 0 17v3c0 10 0 17 0 22v3c0 5 0 12 0 20l35-35c0-8 0-15 0-23z m-110 153c-5 0-12 0-17 2-3 0-5 0-5 0-8 0-15 0-20 0h-28c-7 0-12 0-17 0l-35 35c5 0 12 0 20 0h22c8 0 15 0 20 0 8 0 15 0 23 0 7 0 15 0 20 0l42-42c-5 2-10 2-17 5 0-3-3 0-8 0z m35-38c5-5 8-10 8-17 0-3 0-5 0-5 0-5-3-8-5-10 0 0 0 0-3-3-5-2-10-5-15-5 0 0-2 0-2 0-5 0-10 3-15 8-5 5-8 10-8 15 0 0 0 2 0 2 0 5 3 10 5 15 0 0 0 3 3 3 2 2 7 5 10 5 2 0 5 0 5 0 5-3 12-5 17-8z m75-115v-22c0-8 0-15 0-20l-35 35c0 2 0 10 0 17v3c0 10 0 17 0 22v3c0 5 0 12 0 20 0 2 0 2 0 5 0 7 0 12-2 17 0 3 0 5 0 8 0 7-3 12-5 17l42-40c0-5 0-12 0-20 0-7 0-15 0-22 0-8 0-15 0-23z m-75 115c-5 5-10 8-17 8-3 0-5 0-5 0-5 0-8-3-10-5 0 0 0 0-3-3l33-32c0 0 0 0 2 2 3 3 5 8 5 10 0 3 0 5 0 5 0 3-2 10-5 15z m75-115c0 8 0 15 0 20 0 8 0 15 0 23 0 7 0 15 0 20 0 2 0 5 0 7 0 15-2 30-7 43l-68 67c-12 5-27 8-42 8-3 0-5 0-8 0-5 0-12 0-20 0-7 0-15 0-22 0-8 0-13 0-20 0l35-35h2c5 0 13 0 20 0 3 0 3 0 5 0 8 0 13 0 18-3 2 0 5 0 7 0 8 0 13-2 18-5 0 0 0 0 0 0 7-2 17-7 22-15 8-7 13-15 15-22 0 0 0 0 0 0 3-5 3-10 5-18 0-2 0-5 0-7 0-5 0-13 3-18 0-2 0-5 0-5 0-7 0-15 0-20v-2l37-38z m0 65c0 3 0 5 0 8 0 15-2 30-7 42-5 15-15 30-25 40s-25 20-40 25c-13 5-28 8-43 8-2 0-5 0-7 0-5 0-13 0-20 0l37-38c3 0 5 0 8 0 7 0 12-2 17-5 0 0 0 0 0 0 8-2 18-7 23-15 7-7 12-15 15-22 0 0 0 0 0 0 2-5 2-10 5-18 0-2 0-5 0-7l37-38c0 8 0 13 0 20z" horiz-adv-x="1250" />

<glyph glyph-name="ic_mi_listingsduplicates" unicode="&#xe80d;" d="M1038 138h-125c-15 0-25 10-25 25s10 25 25 25h100v550h-550v-100c0-15-10-25-25-25s-25 10-25 25v125c0 15 10 25 25 25h600c15 0 25-10 25-25v-600c0-15-10-25-25-25z m-200-201h-600c-15 0-25 10-25 25v601c0 15 10 25 25 25h600c15 0 25-10 25-25v-601c0-15-10-25-25-25z m-575 50h550v551h-550v-551z m337 126h-250c-15 0-25 10-25 25s10 25 25 25h250c15 0 25-10 25-25s-10-25-25-25z m-105 250h-145c-15 0-25 10-25 25s10 25 25 25h145c15 0 25-10 25-25s-10-25-25-25z m230-125h-375c-15 0-25 10-25 25s10 25 25 25h375c15 0 25-10 25-25s-10-25-25-25z" horiz-adv-x="1250" />

<glyph glyph-name="ic_mi_listingsinprogress" unicode="&#xe80e;" d="M725 323v127h-200v-200h128c17 30 42 55 72 73z m-300 202h-200c-15 0-25 10-25 25v200c0 15 10 25 25 25h200c15 0 25-10 25-25v-200c0-15-10-25-25-25z m-175 50h150v150h-150v-150z m475-50h-200c-15 0-25 10-25 25v200c0 15 10 25 25 25h200c15 0 25-10 25-25v-200c0-15-10-25-25-25z m-175 50h150v150h-150v-150z m475-50h-200c-15 0-25 10-25 25v200c0 15 10 25 25 25h200c15 0 25-10 25-25v-200c0-15-10-25-25-25z m-175 50h150v150h-150v-150z m-425-650h-200c-15 0-25 10-25 25v200c0 15 10 25 25 25h200c15 0 25-10 25-25v-200c0-15-10-25-25-25z m-175 50h150v150h-150v-150z m175 250h-200c-15 0-25 10-25 25v200c0 15 10 25 25 25h200c15 0 25-10 25-25v-200c0-15-10-25-25-25z m-175 50h150v150h-150v-150z m775 125c-15 0-25 10-25 25h-150c0-15-10-25-25-25s-25 10-25 25v25c0 15 10 25 25 25h200c15 0 25-10 25-25v-25c0-15-10-25-25-25z m-472-175h-28c-15 0-25 10-25 25v200c0 15 10 25 25 25h200c15 0 25-10 25-25v-27c0-15-10-25-25-25s-25 10-25 25v2h-150v-150h3c15 0 25-10 25-25s-13-25-25-25z m72-300h-100c-15 0-25 10-25 25v200c0 15 10 25 25 25h25c15 0 25-10 25-25s-10-25-25-25v-150h75c15 0 25-10 25-25s-10-25-25-25z m200 0c-125 0-225 100-225 225s100 225 225 225c83 0 158-45 198-117 7-13 2-28-10-35-13-8-28-3-35 10-30 57-88 92-153 92-97 0-175-77-175-175s78-175 175-175c45 0 88 17 120 48 10 10 25 10 35 0 10-10 10-26 0-36-42-40-97-62-155-62z m178 108c-5 0-8 0-13 2-12 8-17 23-10 33 5 12 10 25 15 37 3 13 18 23 30 18 13-3 23-18 18-30-5-18-10-33-18-48-5-7-12-12-22-12z m22 167h-125c-15 0-25 10-25 25s10 25 25 25h100v100c0 15 10 25 25 25s25-10 25-25v-125c0-15-10-25-25-25z" horiz-adv-x="1250" />

<glyph glyph-name="ic_mi_listingspublished" unicode="&#xe80f;" d="M725 323v127h-200v-200h128c17 30 42 55 72 73z m-300 202h-200c-15 0-25 10-25 25v200c0 15 10 25 25 25h200c15 0 25-10 25-25v-200c0-15-10-25-25-25z m-175 50h150v150h-150v-150z m475-50h-200c-15 0-25 10-25 25v200c0 15 10 25 25 25h200c15 0 25-10 25-25v-200c0-15-10-25-25-25z m-175 50h150v150h-150v-150z m475-50h-200c-15 0-25 10-25 25v200c0 15 10 25 25 25h200c15 0 25-10 25-25v-200c0-15-10-25-25-25z m-175 50h150v150h-150v-150z m-425-650h-200c-15 0-25 10-25 25v200c0 15 10 25 25 25h200c15 0 25-10 25-25v-200c0-15-10-25-25-25z m-175 50h150v150h-150v-150z m175 250h-200c-15 0-25 10-25 25v200c0 15 10 25 25 25h200c15 0 25-10 25-25v-200c0-15-10-25-25-25z m-175 50h150v150h-150v-150z m775 50c-15 0-25 10-25 25v75h-150c0-15-10-25-25-25s-25 10-25 25v25c0 15 10 25 25 25h200c15 0 25-10 25-25v-100c0-15-10-25-25-25z m-472-100h-28c-15 0-25 10-25 25v200c0 15 10 25 25 25h200c15 0 25-10 25-25v-27c0-15-10-25-25-25s-25 10-25 25v2h-150v-150h3c15 0 25-10 25-25s-13-25-25-25z m72-300h-100c-15 0-25 10-25 25v200c0 15 10 25 25 25h25c15 0 25-10 25-25s-10-25-25-25v-150h75c15 0 25-10 25-25s-10-25-25-25z m175 113c-7 0-12 2-17 7l-75 75c-10 10-10 25 0 35s25 10 35 0l57-57 108 107c10 10 25 10 35 0s10-25 0-35l-125-125c-5-5-10-7-18-7z m25-113c-125 0-225 100-225 225s100 225 225 225 225-100 225-225-100-225-225-225z m0 400c-97 0-175-77-175-175s78-175 175-175 175 78 175 175-77 175-175 175z" horiz-adv-x="1250" />

<glyph glyph-name="ic_mi_listingsunavailable" unicode="&#xe810;" d="M725 323v127h-200v-200h128c17 30 42 55 72 73z m-300 202h-200c-15 0-25 10-25 25v200c0 15 10 25 25 25h200c15 0 25-10 25-25v-200c0-15-10-25-25-25z m-175 50h150v150h-150v-150z m475-50h-200c-15 0-25 10-25 25v200c0 15 10 25 25 25h200c15 0 25-10 25-25v-200c0-15-10-25-25-25z m-175 50h150v150h-150v-150z m475-50h-200c-15 0-25 10-25 25v200c0 15 10 25 25 25h200c15 0 25-10 25-25v-200c0-15-10-25-25-25z m-175 50h150v150h-150v-150z m-425-650h-200c-15 0-25 10-25 25v200c0 15 10 25 25 25h200c15 0 25-10 25-25v-200c0-15-10-25-25-25z m-175 50h150v150h-150v-150z m175 250h-200c-15 0-25 10-25 25v200c0 15 10 25 25 25h200c15 0 25-10 25-25v-200c0-15-10-25-25-25z m-175 50h150v150h-150v-150z m775 50c-15 0-25 10-25 25v75h-150c0-15-10-25-25-25s-25 10-25 25v25c0 15 10 25 25 25h200c15 0 25-10 25-25v-100c0-15-10-25-25-25z m-472-100h-28c-15 0-25 10-25 25v200c0 15 10 25 25 25h200c15 0 25-10 25-25v-27c0-15-10-25-25-25s-25 10-25 25v2h-150v-150h3c15 0 25-10 25-25s-13-25-25-25z m72-300h-100c-15 0-25 10-25 25v200c0 15 10 25 25 25h25c15 0 25-10 25-25s-10-25-25-25v-150h75c15 0 25-10 25-25s-10-25-25-25z m200 0c-125 0-225 100-225 225s100 225 225 225 225-100 225-225-100-225-225-225z m0 400c-97 0-175-77-175-175s78-175 175-175 175 78 175 175-77 175-175 175z m70-270c-7 0-12 3-17 8l-140 137c-10 10-10 25 0 35s25 10 35 0l137-137c10-10 10-25 0-35-2-5-10-8-15-8z m-140 0c-7 0-12 3-17 8-10 10-10 25 0 35l137 137c10 10 25 10 35 0s10-25 0-35l-135-137c-5-5-12-8-20-8z" horiz-adv-x="1250" />

<glyph glyph-name="ic_mi_listingsunsubscribed" unicode="&#xe811;" d="M725 323v127h-200v-200h128c17 30 42 55 72 73z m-300 202h-200c-15 0-25 10-25 25v200c0 15 10 25 25 25h200c15 0 25-10 25-25v-200c0-15-10-25-25-25z m-175 50h150v150h-150v-150z m475-50h-200c-15 0-25 10-25 25v200c0 15 10 25 25 25h200c15 0 25-10 25-25v-200c0-15-10-25-25-25z m-175 50h150v150h-150v-150z m475-50h-200c-15 0-25 10-25 25v200c0 15 10 25 25 25h200c15 0 25-10 25-25v-200c0-15-10-25-25-25z m-175 50h150v150h-150v-150z m-425-650h-200c-15 0-25 10-25 25v200c0 15 10 25 25 25h200c15 0 25-10 25-25v-200c0-15-10-25-25-25z m-175 50h150v150h-150v-150z m175 250h-200c-15 0-25 10-25 25v200c0 15 10 25 25 25h200c15 0 25-10 25-25v-200c0-15-10-25-25-25z m-175 50h150v150h-150v-150z m775 50c-15 0-25 10-25 25v75h-150c0-15-10-25-25-25s-25 10-25 25v25c0 15 10 25 25 25h200c15 0 25-10 25-25v-100c0-15-10-25-25-25z m-472-100h-28c-15 0-25 10-25 25v200c0 15 10 25 25 25h200c15 0 25-10 25-25v-27c0-15-10-25-25-25s-25 10-25 25v2h-150v-150h3c15 0 25-10 25-25s-13-25-25-25z m-3-300h-25c-15 0-25 10-25 25v200c0 15 10 25 25 25h25c15 0 25-10 25-25s-10-25-25-25v-150c15 0 25-10 25-25s-10-25-25-25z m180 25c-5 0-7 0-12 2-73 40-118 116-118 198 0 125 100 225 225 225s225-100 225-225c0-57-22-112-62-155-10-10-25-10-35 0-10 10-10 25 0 35 30 33 47 75 47 120 0 98-77 175-175 175s-175-77-175-175c0-65 35-122 93-155 12-8 17-23 10-35-5-5-15-10-23-10z m145-20c-10 0-22 7-25 20-2 12 5 27 18 30 12 2 25 7 37 15 13 8 28 2 33-10 7-13 2-28-10-33-15-7-33-15-48-17-2-3-5-5-5-5z m-125-5h-125c-15 0-25 10-25 25s10 25 25 25h100v100c0 15 10 25 25 25s25-10 25-25v-125c0-15-10-25-25-25z" horiz-adv-x="1250" />

<glyph glyph-name="ic_mi_network" unicode="&#xe812;" d="M800 13c-102 0-187 85-187 187s85 188 187 188c5 0 13 0 18 0l70 157c5 13 20 18 32 13 13-5 18-20 13-33l-78-175c-5-10-17-17-27-15-10 3-18 3-28 3-75 0-137-63-137-138s62-137 137-137 138 62 138 137c0 15 10 25 25 25s25-10 25-25c0-102-85-187-188-187z m143 240c-10 0-18 5-23 12-7 15-17 25-27 38-10 10-10 25-3 35 10 10 25 10 35 2 15-15 30-32 40-50 8-12 3-27-10-35-2-2-7-2-12-2z m-568 172c-82 0-150 68-150 150s68 150 150 150 150-67 150-150-67-150-150-150z m0 250c-55 0-100-45-100-100s45-100 100-100 100 45 100 100-45 100-100 100z m575-175c-70 0-125 55-125 125s55 125 125 125 125-55 125-125-55-125-125-125z m0 200c-42 0-75-32-75-75s33-75 75-75 75 33 75 75-32 75-75 75z m-650-700c-70 0-125 55-125 125s55 125 125 125 125-55 125-125-55-125-125-125z m0 200c-42 0-75-32-75-75s33-75 75-75 75 33 75 75-32 75-75 75z m355-100h-242c-15 0-25 10-25 25s10 25 25 25h242c15 0 25-10 25-25s-10-25-25-25z m25 198c-5 0-10 2-15 5l-132 95c-10 7-15 22-5 35 7 10 22 15 35 5l132-95c10-8 15-23 5-35-2-5-12-10-20-10z m-75 267c-12 0-22 10-25 23-2 12 8 27 20 27l248 35c12 3 27-7 27-20 3-12-7-27-20-27l-245-35c-2-3-5-3-5-3z m-305-365c0 0-2 0-2 0-13 3-23 13-23 28l15 137c3 13 13 25 28 23 12-3 22-13 22-28l-15-137c-2-13-12-23-25-23z" horiz-adv-x="1250" />

<glyph glyph-name="ic_mi_performance" unicode="&#xe813;" d="M225 530v145c0 28 23 50 50 50h700c28 0 50-22 50-50v-145h-800z m750-580h-700c-42 0-75 32-75 75v650c0 43 33 75 75 75h700c43 0 75-32 75-75v-650c0-43-32-75-75-75z m-700 750c-15 0-25-10-25-25v-650c0-15 10-25 25-25h700c15 0 25 10 25 25v650c0 15-10 25-25 25h-700z m513-195h-563c-15 0-25 10-25 25s10 25 25 25h563c15 0 25-10 25-25s-10-25-25-25z m237 0h-120c-15 0-25 10-25 25s10 25 25 25h120c15 0 25-10 25-25s-10-25-25-25z m-600-417c-15 0-25 10-25 25v100c0 15 10 25 25 25s25-10 25-25v-100c0-15-10-25-25-25z m200 0c-15 0-25 10-25 25v200c0 15 10 25 25 25s25-10 25-25v-200c0-15-10-25-25-25z m200 0c-15 0-25 10-25 25v200c0 15 10 25 25 25s25-10 25-25v-200c0-15-10-25-25-25z m-100 0c-15 0-25 10-25 25v250c0 15 10 25 25 25s25-10 25-25v-250c0-15-10-25-25-25z m-200 0c-15 0-25 10-25 25v150c0 15 10 25 25 25s25-10 25-25v-150c0-15-10-25-25-25z" horiz-adv-x="1250" />

<glyph glyph-name="ic_mi_performancedesktop" unicode="&#xe814;" d="M188 263v-93c0-32 25-57 57-57h763c32 0 57 25 57 57v93h-877z m0 457v-82h875v82c0 25-20 43-43 43h-790c-22 0-42-20-42-43z m825-632h-775c-43 0-75 32-75 75v550c0 42 32 75 75 75h775c42 0 75-33 75-75v-550c0-43-33-75-75-75z m-775 650c-15 0-25-10-25-25v-550c0-15 10-25 25-25h775c15 0 25 10 25 25v550c0 15-10 25-25 25h-775z m825-125h-125c-15 0-25 10-25 25s10 25 25 25h125c15 0 25-10 25-25s-10-25-25-25z m-263 0h-612c-15 0-25 10-25 25s10 25 25 25h612c15 0 25-10 25-25s-10-25-25-25z m263-375h-875c-15 0-25 10-25 25s10 25 25 25h875c15 0 25-10 25-25s-10-25-25-25z m-238-251h-400c-15 0-25 10-25 26s10 25 25 25h400c15 0 25-10 25-25s-10-26-25-26z m-300 0c-15 0-25 10-25 26v100c0 15 10 25 25 25s25-10 25-25v-100c0-16-10-26-25-26z m200 0c-15 0-25 10-25 26v100c0 15 10 25 25 25s25-10 25-25v-100c0-16-10-26-25-26z m225-75h-650c-15 0-25 10-25 25s10 25 25 25h650c15 0 25-10 25-25s-10-25-25-25z m-525 413c-15 0-25 10-25 25v25c0 15 10 25 25 25s25-10 25-25v-25c0-15-10-25-25-25z m200 0c-15 0-25 10-25 25v125c0 15 10 25 25 25s25-10 25-25v-125c0-15-10-25-25-25z m200 0c-15 0-25 10-25 25v125c0 15 10 25 25 25s25-10 25-25v-125c0-15-10-25-25-25z m-100 0c-15 0-25 10-25 25v175c0 15 10 25 25 25s25-10 25-25v-175c0-15-10-25-25-25z m-200 0c-15 0-25 10-25 25v75c0 15 10 25 25 25s25-10 25-25v-75c0-15-10-25-25-25z" horiz-adv-x="1250" />

<glyph glyph-name="ic_mi_performancemobile" unicode="&#xe815;" d="M475 100v-92c0-33 25-58 58-58h412c33 0 58 25 58 58v92h-528z m0 608v-83h525v83c0 25-20 42-42 42h-440c-23 0-43-20-43-42z m475-783h-287c-15 0-25 10-25 25s10 25 25 25h287c15 0 25 10 25 25v700c0 15-10 25-25 25h-425c-15 0-25-10-25-25v-175c0-15-10-25-25-25s-25 10-25 25v175c0 43 33 75 75 75h425c43 0 75-32 75-75v-700c0-43-32-75-75-75z m45 675h-512c-15 0-25 10-25 25s10 25 25 25h512c15 0 25-10 25-25s-12-25-25-25z m5-525h-337c-15 0-25 10-25 25s10 25 25 25h337c15 0 25-10 25-25s-10-25-25-25z m-750 25l0-92c0-33 25-58 58-58l212 0c33 0 58 25 58 58l0 92-328 0z m0 383l0-83 325 0 0 83c0 25-20 42-42 42l-240 0c-23 0-43-20-43-42z m50-558c-20 0-37 7-52 22-13 13-23 33-23 53l0 475c0 20 8 40 23 53 15 15 32 22 52 22l225 0c0 0 0 0 0 0 43 0 75-32 75-75l0-75c0-7-2-12-7-17-5-3-10-8-18-8l-250 0c0 0 0 0 0 0-15 0-25 10-25 25 0 15 10 25 25 25l225 0 0 50c0 15-10 25-25 25 0 0 0 0 0 0l-225 0c-15 0-25-12-25-25l0-475c0-15 10-25 25-25 0 0 0 0 0 0l225 0c15 0 25 12 25 25l0 100c0 15 10 25 25 25 0 0 0 0 0 0 15 0 25-10 25-25l0-100c0-20-7-40-22-53-13-15-33-22-53-22l-225 0c0 0 0 0 0 0z m-50 150c-15 0-25 10-25 25 0 15 10 25 25 25l325 0c0 0 0 0 0 0 15 0 25-10 25-25 0-15-10-25-25-25l-325 0c0 0 0 0 0 0z m163 80c-15 0-25 10-25 25v25c0 15 10 25 25 25s25-10 25-25v-25c0-12-10-25-25-25z m200 0c-15 0-25 10-25 25v125c0 15 10 25 25 25s25-10 25-25v-125c0-12-10-25-25-25z m200 0c-15 0-25 10-25 25v238c0 15 10 25 25 25s25-10 25-25v-238c0-12-10-25-25-25z m-100 0c-15 0-25 10-25 25v175c0 15 10 25 25 25s25-10 25-25v-175c0-12-10-25-25-25z m-200 0c-15 0-25 10-25 25v75c0 15 10 25 25 25s25-10 25-25v-75c0-12-10-25-25-25z" horiz-adv-x="1250" />

<glyph glyph-name="ic_mi_placeholder" unicode="&#xe816;" d="M625-100c-115 0-230 45-317 133-85 85-133 197-133 317s48 233 133 318c175 175 460 175 637 0 43-43 75-93 100-150 5-13 0-28-15-33-12-5-27 0-32 15-20 50-50 95-88 133-155 155-410 155-565 0-75-75-117-175-117-283s42-207 117-282c155-156 410-156 565 0 13 12 23 25 33 37 7 10 25 13 35 5 10-7 12-25 5-35-13-15-25-30-38-42-90-88-205-133-320-133z m408 300c-3 0-5 0-8 0-12 5-20 18-17 30 12 43 20 90 17 135 0 15 10 25 25 25 15 0 25-10 25-25 3-52-5-102-20-152-2-5-12-13-22-13z" horiz-adv-x="1250" />

<glyph glyph-name="ic_mi_posadvanced" unicode="&#xe817;" d="M953 648v-300h-655v67l-123-92c0-53 45-98 98-98h702c55 0 98 43 98 98v415l-120-90z m-778-178c-15 0-25 10-25 25v63c0 15 10 25 25 25s25-10 25-25v-63c0-15-10-25-25-25z m825-270h-750c-55 0-100 45-100 100v113c0 15 10 25 25 25s25-10 25-25v-113c0-27 23-50 50-50h750c28 0 50 23 50 50v450c0 28-22 50-50 50h-750c-27 0-50-22-50-50v-112c0-15-10-25-25-25s-25 10-25 25v112c0 55 45 100 100 100h750c55 0 100-45 100-100v-450c0-55-45-100-100-100z m-50 120h-650c-15 0-25 10-25 25v370c0 15 10 25 25 25h650c15 0 25-10 25-25v-367c0-15-10-28-25-28z m-625 50h600v320h-600v-320z m290 60c-27 3-50 15-65 30l20 30c10-10 25-22 43-25v45c-28 8-58 18-58 58 0 30 23 55 58 57v30h25v-27c22-3 40-13 55-25l-18-30c-10 10-22 15-35 17v-40c28-7 60-20 60-57 0-33-20-58-60-60v-25h-25v22z m0 128v35c-12-3-20-10-20-18 0-10 8-15 20-17z m25-53v-37c13 2 20 10 20 20 0 10-7 15-20 17z m585-655h-1200c-15 0-25 10-25 25v350c0 15 10 25 25 25h75c15 0 25-10 25-25s-10-25-25-25h-50v-300h1150v300h-50c-15 0-25 10-25 25s10 25 25 25h75c15 0 25-10 25-25v-350c0-15-10-25-25-25z m-415 250h-117c-15 0-25 10-25 25s10 25 25 25h117c15 0 25-10 25-25s-12-25-25-25z m290-150h-950c-15 0-25 10-25 25v150c0 15 10 25 25 25h430c15 0 25-10 25-25s-10-25-25-25h-405v-100h900v100h-150c-15 0-25 10-25 25s10 25 25 25h175c15 0 25-10 25-25v-150c0-15-10-25-25-25z" horiz-adv-x="1250" />

<glyph glyph-name="ic_mi_postablet" unicode="&#xe818;" d="M1028 575v-505h-805v70l-173-97c0-56 45-98 98-98h952c55 0 98 45 98 98v625l-170-93z m75-645h-955c-68 0-123 55-123 123v605c0 67 55 122 123 122h955c67 0 122-55 122-122v-605c0-68-55-123-122-123z m-955 800c-40 0-73-32-73-72v-605c0-40 33-73 73-73h955c40 0 72 33 72 73v605c0 40-32 72-72 72h-955z m877-687h-800c-15 0-25 10-25 25v575c0 15 10 25 25 25h800c15 0 25-10 25-25v-220c0-15-10-25-25-25s-25 10-25 25v195h-750v-525h750v40c0 15 10 25 25 25s25-10 25-25v-65c0-13-10-25-25-25z m0 190c-15 0-25 10-25 25v45c0 15 10 25 25 25s25-10 25-25v-45c0-13-10-25-25-25z m-417-35c-48 2-83 22-108 47l35 50c18-17 43-35 73-40v73c-48 12-98 30-98 92 0 48 38 85 98 93v42h42v-45c38-5 68-17 93-40l-35-47c-18 15-35 25-58 30v-65c48-13 100-30 100-93 0-50-32-90-100-97v-43h-42v43z m0 202v55c-20-2-33-15-33-30 0-12 13-20 33-25z m42-82v-63c23 5 33 18 33 33 2 15-13 22-33 30z" horiz-adv-x="1250" />

<glyph glyph-name="ic_mi_postcompose" unicode="&#xe819;" d="M945 505l-75 68-182-183-143-70 70 143 180 180-85 77c-47 43-120 43-167 0l-318-287 400-265 400 265-80 72z m80-580h-800c-15 0-25 10-25 25v483c0 7 3 15 8 17l317 288c58 50 145 50 203 0 10-10 10-25 2-35-10-10-25-10-35-3-37 35-97 35-135 0l-310-280v-445h750v445l-72 65c-10 10-10 25-3 35 10 10 25 10 35 3l80-73c5-5 8-12 8-17v-483c2-15-8-25-23-25z m-400 218c-5 0-10 2-15 5l-400 265c-12 7-15 22-7 35s22 15 35 7l387-257 385 255c13 7 28 5 35-8 8-12 5-27-7-35l-400-265c-3-2-8-2-13-2z m-80 152c-7 0-12 3-17 8-8 7-10 20-5 30l70 142c0 3 2 5 5 8l257 255c30 30 78 30 105 0 0 0 0 0 0 0 30-30 30-78 0-105l-255-260c-2-3-5-3-7-5l-143-70c-2-3-5-3-10-3z m93 153l-38-73 70 35 258 258c10 10 10 25 0 35-10 10-25 10-35 0l-255-255z m232 102c-5 0-12 3-17 8l-75 67c-10 10-10 25-3 35 10 10 25 10 35 3l75-68c10-10 10-25 3-35-5-7-10-10-18-10z m50 50c-5 0-12 3-17 8l-75 67c-10 10-10 25-3 35 10 10 25 10 35 3l75-68c10-10 10-25 3-35-5-7-10-10-18-10z" horiz-adv-x="1250" />

<glyph glyph-name="ic_mi_postdraft" unicode="&#xe81a;" d="M225 433l400-265 400 265-317 287c-48 43-118 43-165 0l-318-287z m800-508h-800c-15 0-25 10-25 25v483c0 7 3 15 8 17l317 285c58 50 145 50 203 0l315-285c5-5 7-12 7-17v-483c0-15-10-25-25-25z m-775 50h750v445l-307 278c-38 35-98 35-135 0l-308-278v-445z m375 165c-5 0-10 3-15 5l-400 265c-12 8-15 23-7 35 7 13 22 15 35 8l387-258 385 255c13 8 28 5 35-7 8-13 5-28-7-35l-400-265c-3 0-8-3-13-3z m0 173c-15 0-25 10-25 25v280c0 15 10 25 25 25s25-10 25-25v-280c0-15-12-25-25-25z m0 0l0 0c-7 0-15 2-20 10l-102 125c-10 10-8 27 2 35 10 10 28 7 35-3l83-102 82 102c10 10 25 13 35 3 10-10 13-25 3-35l-103-125c0-8-7-10-15-10z" horiz-adv-x="1250" />

<glyph glyph-name="ic_mi_publish" unicode="&#xe81b;" d="M983 720c-120 30-195 28-313-7-15-5-45-15-45-15l0-625h0c13 5 23 7 35 12 120 38 198 43 320 10l95-22v625l-92 22z m92-672c-2 0-5 0-5 0l-95 22c-125 33-212 25-340-22-5-3-12-3-17 0-130 47-215 55-340 22l-95-22c-8-3-15 0-23 5-7 5-10 10-10 20v625c0 12 8 22 20 25l93 22c132 33 230 28 362-20 133 50 230 55 363 20l92-22c10-3 20-13 20-25v-625c0-8-2-15-10-20-5-5-10-5-15-5z m-660 92c68 0 133-12 210-42 135 50 230 55 363 20l62-15v575l-75 17 0 0c-127 33-212 25-340-22-5-3-12-3-20 0-127 50-215 55-340 22l-75-17v-573l63 15c55 13 105 20 152 20z m210 325c-15 0-25 10-25 25v195c0 15 10 25 25 25s25-10 25-25v-192c0-15-10-28-25-28z m0-415c-15 0-25 10-25 25v143c0 15 10 25 25 25s25-10 25-25v-143c0-12-10-25-25-25z m0 225c-15 0-25 10-25 25v93c0 15 10 25 25 25s25-10 25-25v-93c0-12-10-25-25-25z m350-17c-2 0-5 0-5 0-97 25-145 25-240 7-12-2-27 5-30 20-2 13 5 28 20 30 103 20 158 20 263-7 12-3 22-18 17-30-2-13-15-20-25-20z m0 250c-2 0-5 0-5 0-97 25-145 25-240 7-12-2-27 5-30 20-2 13 5 28 20 30 103 20 158 20 263-7 12-3 22-18 17-30-2-13-15-20-25-20z m0-125c-2 0-5 0-5 0-97 25-145 25-240 7-12-2-27 5-30 20-2 13 5 28 20 30 103 20 158 20 263-7 12-3 22-18 17-30-2-13-15-20-25-20z m-867-448c-13 0-25 5-35 12-15 10-25 28-25 48v603c0 15 10 25 25 25s25-10 25-25v-603c0-5 2-5 2-8 3 0 5-2 8-2 90 30 322 88 515 12 197 76 425 16 512-12 3 0 8 0 8 0 2 0 2 2 2 7v606c0 15 10 25 25 25s25-10 25-25v-603c0-20-10-38-25-48-15-10-35-15-52-7-85 27-303 83-488 10-5-3-12-3-20 0-180 73-402 17-490-10 0-5-5-5-12-5z m162 323c-10 0-22 7-25 20-2 12 5 27 18 30 105 25 160 27 262 7 13-2 23-15 20-30-2-12-15-22-30-20-95 20-142 18-240-7-2 0-5 0-5 0z m0 250c-10 0-22 7-25 20-2 12 5 27 18 30 105 25 160 27 262 7 13-2 23-15 20-30-2-12-15-22-30-20-95 20-142 18-240-7-2 0-5 0-5 0z m0-125c-10 0-22 7-25 20-2 12 5 27 18 30 105 25 160 27 262 7 13-2 23-15 20-30-2-12-15-22-30-20-95 20-142 18-240-7-2 0-5 0-5 0z" horiz-adv-x="1250" />

<glyph glyph-name="ic_mi_postsecheduled" unicode="&#xe81c;" d="M413 418h425v-113l187 125-317 290c-48 43-118 43-165 0l-318-290 188-125v113z m612-496h-87c-15 0-25 10-25 25s10 25 25 25h62v448l-307 278c-38 35-98 35-135 0l-308-278v-445h63c15 0 25-10 25-25s-10-25-25-25h-88c-15 0-25 10-25 25v480c0 8 3 15 8 18l317 287c58 50 145 50 203 0l315-285c5-5 7-12 7-17v-483c0-15-10-28-25-28z m-675 401c-5 0-10 2-15 5l-125 82c-12 8-15 23-7 35 7 13 22 15 35 8l125-83c12-7 15-22 7-35-5-7-12-12-20-12z m550 0c-7 0-15 5-20 10-7 12-5 27 8 35l125 82c12 8 27 5 35-7 7-13 5-28-8-35l-125-83c-5 0-10-2-15-2z m-362 45c-15 0-25 10-25 25v50c0 15 10 25 25 25s25-10 25-25v-50c0-15-10-25-25-25z m175 0c-15 0-25 10-25 25v50c0 15 10 25 25 25s25-10 25-25v-50c0-15-10-25-25-25z m-63 25h-50c-15 0-25 10-25 25s10 25 25 25h50c15 0 25-10 25-25s-10-25-25-25z m188-471h-425c-15 0-25 10-25 25v281c0 15 10 25 25 25s25-10 25-25v-256h375v256c0 15 10 25 25 25s25-10 25-25v-281c0-12-10-25-25-25z m0 356h-425c-15 0-25 10-25 25v115c0 15 10 25 25 25h62c15 0 25-10 25-25s-10-25-25-25h-37v-65h375v65h-38c-15 0-25 10-25 25s10 25 25 25h63c15 0 25-10 25-25v-115c0-13-10-25-25-25z m-300-88h-25c-15 0-25 10-25 25s10 25 25 25h25c15 0 25-10 25-25s-10-25-25-25z m0-90h-25c-15 0-25 10-25 25s10 25 25 25h25c15 0 25-10 25-25s-10-25-25-25z m0-87h-25c-15 0-25 10-25 25s10 25 25 25h25c15 0 25-10 25-25s-10-25-25-25z m100 177h-25c-15 0-25 10-25 25s10 25 25 25h25c15 0 25-10 25-25s-10-25-25-25z m0-90h-25c-15 0-25 10-25 25s10 25 25 25h25c15 0 25-10 25-25s-10-25-25-25z m0-87h-25c-15 0-25 10-25 25s10 25 25 25h25c15 0 25-10 25-25s-10-25-25-25z m100 177h-25c-15 0-25 10-25 25s10 25 25 25h25c15 0 25-10 25-25s-10-25-25-25z m0-90h-25c-15 0-25 10-25 25s10 25 25 25h25c15 0 25-10 25-25s-10-25-25-25z" horiz-adv-x="1250" />

<glyph glyph-name="ic_mi_returns" unicode="&#xe81e;" d="M325 350c0 165 135 300 300 300 78 0 148-30 200-77 63-55 100-135 100-223 0-165-135-300-300-300-72 0-140 25-190 68-42 35-75 80-92 132-13 33-18 65-18 100z m125 0c0 98 78 175 175 175 45 0 85-17 118-45 35-32 57-77 57-130 0-97-77-175-175-175-42 0-80 15-112 40-25 20-43 48-53 78-7 17-10 37-10 57z m-70-197c-7 0-15 2-20 10-17 25-30 50-40 77-15 38-20 73-20 110 0 180 145 325 325 325 80 0 158-30 218-82 70-63 107-150 107-243 0-15-10-25-25-25s-25 10-25 25c0 78-32 153-92 205-50 45-115 70-183 70-152 0-275-122-275-275 0-32 5-62 15-92 8-23 20-45 35-68 8-12 5-27-5-35-5 0-10-2-15-2z m748 472h-255c-15 0-25 10-25 25s10 25 25 25h255c15 0 25-10 25-25s-13-25-25-25z m-125-102c-8 0-15 2-20 10-10 10-8 27 2 35l103 82-103 83c-10 10-12 25-2 35 10 10 25 12 35 2l125-102c7-3 10-10 10-18s-3-15-10-20l-125-102c-5-3-10-5-15-5z m-378-498h-502c-15 0-25 10-25 25s10 25 25 25h502c80 0 155 35 208 95 10 10 25 13 35 3 10-10 12-25 2-35-60-73-150-113-245-113z m-377-103c-5 0-10 3-15 5l-125 103c-8 5-10 13-10 20s2 15 10 20l125 103c10 10 27 7 35-3 10-10 7-27-3-35l-102-85 102-83c10-10 13-25 3-35-5-7-13-10-20-10z m660 303c-3 0-5 0-8 3-12 5-20 20-15 32 3 8 5 13 8 20 2 13 17 20 30 18 12-3 22-18 17-30-2-8-5-18-7-25-5-10-15-18-25-18z m-283-75c-47 0-92 15-127 45-10 10-13 25-3 35 10 10 25 13 35 3 28-23 60-35 95-35 83 0 150 67 150 150 0 15 10 25 25 25s25-10 25-25c0-108-90-198-200-198z m-165 118c-10 0-20 7-22 17-8 20-13 43-13 65 0 110 90 200 200 200 50 0 98-17 133-50 10-10 10-25 2-35-10-10-25-10-35-2-27 25-62 37-100 37-82 0-150-67-150-150 0-17 3-35 8-50 5-12-3-27-15-32-3 0-5 0-8 0z" horiz-adv-x="1250" />

<glyph glyph-name="ic_mi_reviews" unicode="&#xe81f;" d="M200 210c0-67 55-122 123-122h40v-126l145 126h420c67 0 122 55 122 122v305l-850-305z m640 503h-45c-15 0-25 10-25 25s10 25 25 25h45c15 0 25-10 25-25s-10-25-25-25z m-477-776c-3 0-8 0-10 3-10 5-15 12-15 22v101h-15c-80 0-148 65-148 147v405c0 80 65 148 148 148h397c15 0 25-10 25-25s-10-25-25-25h-397c-55 0-98-43-98-98v-407c0-53 43-98 98-98h40c15 0 25-10 25-25v-70l105 90c5 5 10 5 17 5h420c53 0 98 43 98 98v407c0 53-43 98-98 98h-15c-15 0-25 10-25 25s10 25 25 25h15c80 0 148-65 148-148v-407c0-80-65-148-148-148h-412l-140-120c-3 0-10-3-15-3z m287 313h-300c-15 0-25 10-25 25s10 25 25 25h300c15 0 25-10 25-25s-10-25-25-25z m95 250h-395c-15 0-25 10-25 25s10 25 25 25h395c15 0 25-10 25-25s-10-25-25-25z m155-125h-550c-15 0-25 10-25 25s10 25 25 25h550c15 0 25-10 25-25s-10-25-25-25z" horiz-adv-x="1250" />

<glyph glyph-name="ic_mi_reviewsnegative" unicode="&#xe820;" d="M1050 210c0-67-55-122-122-122h-40v-126l-145 126h-420c-68 0-123 55-123 122l850 310v-310z m-595 503h-45c-15 0-25 10-25 25s10 25 25 25h45c15 0 25-10 25-25s-12-25-25-25z m433-776c-5 0-13 3-18 5l-140 121h-407c-80 0-148 65-148 147v405c0 80 65 148 148 148h15c15 0 25-10 25-25s-10-25-25-25h-15c-55 0-98-43-98-98v-407c0-53 43-98 98-98h420c5 0 12-2 17-5l105-90v70c0 15 10 25 25 25h40c53 0 98 43 98 98v407c0 53-43 98-98 98h-400c-15 0-25 10-25 25s10 25 25 25h398c80 0 147-65 147-148v-407c0-80-65-148-147-148h-15v-100c0-10-5-18-15-23-3 0-8 0-10 0z m-238 313h-300c-15 0-25 10-25 25s10 25 25 25h300c15 0 25-10 25-25s-10-25-25-25z m95 250h-395c-15 0-25 10-25 25s10 25 25 25h395c15 0 25-10 25-25s-10-25-25-25z m155-125h-550c-15 0-25 10-25 25s10 25 25 25h550c15 0 25-10 25-25s-10-25-25-25z" horiz-adv-x="1250" />

<glyph glyph-name="ic_mi_sales" unicode="&#xe821;" d="M763 440c10-27 17-57 17-90 0-110-67-200-150-200-72 0-132 70-147 160l-403-185c0 0-22-75 0-75h1100v583l-417-193z m417-415h-1100c-15 0-25 10-25 25v600c0 15 10 25 25 25h1100c15 0 25-10 25-25v-600c0-15-10-25-25-25z m-1075 50h1050v550h-1050v-550z m933 83h-308c-15 0-25 10-25 25s10 25 25 25h283v310c0 15 10 25 25 25s25-10 25-25v-333c0-15-10-27-25-27z m-508 0h-307c-15 0-25 10-25 25v335c0 15 10 25 25 25h325c15 0 25-10 25-25s-10-25-25-25h-300v-283h282c15 0 25-10 25-25s-10-27-25-27z m318 335h-133c-15 0-25 10-25 25s10 25 25 25h133c15 0 25-10 25-25s-13-25-25-25z m-218-368c-97 0-175 100-175 225 0 15 10 25 25 25s25-10 25-25c0-97 55-175 125-175s125 78 125 175-55 175-125 175c-40 0-75-25-100-70-7-12-22-17-35-10-12 8-17 23-10 35 33 60 85 95 143 95 97 0 175-100 175-225s-75-225-173-225z m-10 125c-27 3-50 15-65 30l20 30c10-10 25-22 43-25v45c-28 8-58 18-58 58 0 30 23 55 58 57v30h25v-27c22-3 40-13 55-25l-23-30c-10 10-22 15-35 17v-40c28-7 60-20 60-57 0-33-20-58-60-60v-25h-25v22z m0 128v35c-12-3-20-10-20-18 0-10 8-15 20-17z m25-53v-37c13 2 20 10 20 20 0 10-7 15-20 17z" horiz-adv-x="1250" />

<glyph glyph-name="ic_mi_salesnet" unicode="&#xe822;" d="M763 540c10-27 17-57 17-90 0-110-67-200-150-200-72 0-132 70-147 160l-403-185c0 0-22-75 0-75h1100v583l-417-193z m417-415h-1100c-15 0-25 10-25 25v600c0 15 10 25 25 25h1100c15 0 25-10 25-25v-600c0-15-10-25-25-25z m-1075 50h1050v550h-1050v-550z m933 83h-308c-15 0-25 10-25 25s10 25 25 25h283v310c0 15 10 25 25 25s25-10 25-25v-333c0-15-10-27-25-27z m-508 0h-307c-15 0-25 10-25 25v335c0 15 10 25 25 25h325c15 0 25-10 25-25s-10-25-25-25h-300v-283h282c15 0 25-10 25-25s-10-27-25-27z m318 335h-133c-15 0-25 10-25 25s10 25 25 25h133c15 0 25-10 25-25s-13-25-25-25z m-218-368c-97 0-175 100-175 225 0 15 10 25 25 25s25-10 25-25c0-97 55-175 125-175s125 78 125 175-55 175-125 175c-40 0-75-25-100-70-7-12-22-17-35-10-12 8-17 23-10 35 35 60 88 95 145 95 98 0 175-100 175-225s-77-225-175-225z m-10 125c-27 3-50 15-65 30l20 30c10-10 25-22 43-25v45c-28 8-58 18-58 58 0 30 23 55 58 57v30h25v-27c22-3 40-13 55-25l-23-30c-10 10-22 15-35 17v-40c28-7 60-20 60-57 0-33-20-58-60-60v-25h-25v22z m0 128v35c-12-3-20-10-20-18 0-10 8-15 20-17z m25-53v-37c13 2 20 10 20 20 0 10-7 15-20 17z m410-400h-155c-15 0-25 10-25 25s10 25 25 25h155c15 0 25-10 25-25s-10-25-25-25z m-305 0h-545c-15 0-25 10-25 25s10 25 25 25h545c15 0 25-10 25-25s-10-25-25-25z m180-100h-600c-15 0-25 10-25 25s10 25 25 25h600c15 0 25-10 25-25s-10-25-25-25z" horiz-adv-x="1250" />

<glyph glyph-name="ic_mi_salestotal" unicode="&#xe823;" d="M228 413h-170c-15 0-25 10-25 25s10 25 25 25h170c15 0 25-10 25-25s-13-25-25-25z m172 0h-82c-15 0-25 10-25 25s10 25 25 25h82c15 0 25-10 25-25s-12-25-25-25z m793 0h-83c-15 0-25 10-25 25s10 25 25 25h83c15 0 25-10 25-25s-10-25-25-25z m-245 0h-113c-15 0-25 10-25 25s10 25 25 25h113c15 0 25-10 25-25s-10-25-25-25z m-663-175h-227c-15 0-25 10-25 25s10 25 25 25h227c15 0 25-10 25-25s-12-25-25-25z m605 0h-40c-15 0-25 10-25 25s10 25 25 25h40c15 0 25-10 25-25s-10-25-25-25z m303 0h-170c-15 0-25 10-25 25s10 25 25 25h170c15 0 25-10 25-25s-10-25-25-25z m7-173h-280c-15 0-25 10-25 25s10 25 25 25h255v470h-255c-15 0-25 10-25 25s10 25 25 25h280c15 0 25-10 25-25v-520c0-15-10-25-25-25z m-870 0h-280c-15 0-25 10-25 25v520c0 15 10 25 25 25h280c15 0 25-10 25-25s-10-25-25-25h-255v-470h255c15 0 25-10 25-25s-10-25-25-25z m503-15h-418c-15 0-25 10-25 25v550c0 15 10 25 25 25h418c15 0 25-10 25-25v-550c0-15-10-25-25-25z m-393 50h368v500h-368v-500z m168 108c-43 5-75 20-98 42l33 45c15-17 37-30 65-35v65c-43 10-90 28-90 83 0 42 32 77 90 85v40h40v-40c32-3 62-18 85-38l-33-45c-15 15-32 23-52 28v-60c42-10 90-28 90-85 0-48-30-83-90-88v-37h-40v40z m0 182v50c-18-2-30-12-30-27 2-10 12-18 30-23z m40-75v-55c20 5 30 18 30 30 0 13-13 20-30 25z" horiz-adv-x="1250" />

<glyph glyph-name="ic_mi_sentimentpositive" unicode="&#xe824;" d="M783-113c-25 0-53 3-78 8-35 7-70 17-107 27-20 5-40 13-58 20l-25 8c-17 5-62 25-65 25-12 5-20 20-15 33 5 12 20 20 33 15 0 0 45-18 62-23l25-8c18-7 38-12 55-17 38-10 70-20 103-28 32-7 67-5 105-5l17 0c10 0 20 3 30 3 23 5 35 15 40 35 3 12 5 28 3 45-3 13 2 23 12 30 20 15 28 43 18 65-5 10-8 25 7 40 18 18 20 40 10 65-2 5-5 8-5 13l-2 5c-5 10-3 25 7 32 3 3 5 3 8 5 2 0 2 3 5 3 2 5 7 10 10 17 5 15 7 25 5 35-5 18-23 33-45 33-40 0-83 0-123 0l-60 0c-15 0-25 10-25 25 0 5 0 5 0 7 3 28 10 50 20 70 3 8 8 18 10 25l10 23c13 27 13 55 8 87-5 23-10 28-20 30-8 3-15 3-23 5-10-10-12-15-12-20-5-15-8-30-13-45l-5-17c-7-33-22-60-42-83-18-17-33-37-48-57-52-90-145-123-147-123-13-5-28 3-33 15s3 28 15 33c0 0 80 30 123 102 0 0 2 3 2 3 15 20 33 40 50 60 15 17 25 37 33 60l5 17c2 18 7 33 12 48 3 10 8 20 13 30l2 7c5 10 18 20 33 18l10 0c12-3 25-3 37-8 38-12 48-42 53-67 10-40 7-80-10-118-3-7-5-15-10-22-3-8-8-18-10-25-5-10-10-23-13-33l33 0c40 0 82 0 122 0 43 0 83-27 95-70 8-22 5-45-7-67-5-10-10-20-18-30 0 0-2-3-2-3 0 0 0-2 0-2 15-40 10-80-15-110 12-40 2-83-28-110 3-20 0-38-5-56-10-37-37-62-77-72-13-3-25-5-40-5l-18 0c-12-3-25-3-37-3z m175 143c0 0 0 0 0 0 0 0 0 0 0 0z m-243 608c0 0 0 0 0 0l0 0z m20 10l0 0c0 0 0 0 0 0z m-280-698h-210c-15 0-25 10-25 25v375c0 15 10 25 25 25h210c15 0 25-10 25-25v-87c0-15-10-25-25-25s-25 10-25 25v62h-160v-325h160v175c0 15 10 25 25 25s25-10 25-25v-200c0-13-12-25-25-25z m153 613h-88c-15 0-25 10-25 25s10 25 25 25h88c15 0 25-10 25-25s-13-25-25-25z m245 107c-8 0-13 3-18 8-10 10-10 25 0 35l50 50c10 10 25 10 35 0s10-25 0-35l-50-50c-5-5-12-8-17-8z m-210-7c-8 0-13 2-18 7l-57 58c-10 10-10 25 0 35s25 10 35 0l57-58c10-10 10-25 0-35-5-5-12-7-17-7z m100 47c-15 0-25 10-25 25v78c0 15 10 25 25 25s25-10 25-25v-78c0-15-10-25-25-25z m225-147h-93c-15 0-25 10-25 25s10 25 25 25h93c15 0 25-10 25-25s-10-25-25-25z" horiz-adv-x="1250" />

<glyph glyph-name="ic_mi_settingsmobile" unicode="&#xe825;" d="M868 405c-5 15-13 28-23 38l18 42-40 25-28-37c-5 0-12 2-20 2-7 0-12 0-20-2l-27 37-40-25 12-32 3-10c-10-10-18-23-23-38l-37-5v-50l40-5c0-2 2-5 2-7 5-10 10-20 20-28l-17-42 40-25 27 37c5 0 13-2 20-2 8 0 13 0 20 2l28-37 40 25-18 42c10 10 18 23 23 38l40 5v47l-40 5z m-93-72c-22 0-42 20-42 42s20 43 42 43c23 0 43-20 43-43s-20-42-43-42z m-300-233v-92c0-33 25-58 58-58h487c33 0 58 25 58 58v92h-603z m0 658v-83h600v83c0 25-20 42-42 42h-515c-23 0-43-20-43-42z m550-833h-362c-15 0-25 10-25 25s10 25 25 25h362c15 0 25 10 25 25v750c0 15-10 25-25 25h-500c-15 0-25-10-25-25v-175c0-15-10-25-25-25s-25 10-25 25v175c0 43 33 75 75 75h500c43 0 75-32 75-75v-750c0-43-32-75-75-75z m45 725h-587c-15 0-25 10-25 25s10 25 25 25h587c15 0 25-10 25-25s-12-25-25-25z m5-575h-412c-15 0-25 10-25 25s10 25 25 25h412c15 0 25-10 25-25s-10-25-25-25z m-825 25l0-92c0-33 25-58 58-58l212 0c33 0 58 25 58 58l0 92-328 0z m0 433l0-83 325 0 0 83c0 25-20 42-42 42l-240 0c-23 0-43-20-43-42z m50-608c-42 0-75 32-75 75l0 525c0 43 33 75 75 75l225 0c0 0 0 0 0 0 20 0 38-7 53-22 15-15 22-33 22-53v-75c0-15-10-25-25-25l-250 0c0 0 0 0 0 0-15 0-25 10-25 25 0 15 10 25 25 25l228 0v50c0 8-3 13-8 18-7 5-12 7-20 7 0 0 0 0 0 0l-225 0c-7 0-12-2-17-7-5-5-8-10-8-18l0-525c0-8 3-13 8-18 5-5 10-7 17-7 0 0 0 0 0 0l225 0c8 0 13 2 18 7s7 13 7 18l0 250c0 15 10 25 25 25 0 0 0 0 0 0 15 0 25-10 25-25l0-250c0-20-7-40-22-53-13-15-33-22-53-22l-225 0c0 0 0 0 0 0z m-50 150c-15 0-25 10-25 25 0 15 10 25 25 25l300 0c0 0 0 0 0 0 15 0 25-10 25-25 0-15-10-25-25-25l-300 0c0 0 0 0 0 0z m218 230c-3 8-8 15-13 23l10 25-25 15-15-23c-2 0-7 0-12 0s-8 0-13 0l-17 23-25-15 7-20 3-5c-5-8-10-15-13-23l-25-2v-30l25-3c0-2 0-2 3-5 2-7 7-12 12-17l-10-25 25-15 18 22c2 0 7 0 12 0s8 0 13 0l17-22 25 15-10 25c5 7 10 15 13 22l25 3v30l-30 2z m-55-42c-15 0-25 12-25 25s12 25 25 25 25-13 25-25-10-25-25-25z m162 62c-15 0-25 10-25 25v100c0 15 10 25 25 25s25-10 25-25v-100c0-15-10-25-25-25z" horiz-adv-x="1250" />

<glyph glyph-name="ic_mi_settingsweb" unicode="&#xe826;" d="M225 543v145c0 27 23 50 50 50h700c28 0 50-23 50-50v-145h-800z m750-581h-85c-15 0-25 10-25 25s10 26 25 26h85c15 0 25 10 25 25v650c0 15-10 25-25 25h-700c-15 0-25-10-25-25v-650c0-15 10-25 25-25h75c15 0 25-10 25-26s-10-25-25-25h-75c-42 0-75 33-75 76v650c0 42 33 75 75 75h700c43 0 75-33 75-75v-650c0-43-32-76-75-76z m-187 556h-563c-15 0-25 10-25 25s10 25 25 25h563c15 0 25-10 25-25s-10-25-25-25z m237 0h-120c-15 0-25 10-25 25s10 25 25 25h120c15 0 25-10 25-25s-10-25-25-25z m-477-581c-5 0-10 0-13 3l-67 42c-10 8-15 21-10 31l22 55c-10 12-20 27-25 42 0 0 0 0 0 3l-55 7c-12 3-22 13-22 25v83c0 12 10 22 22 25l55 7c8 15 15 30 28 45l-23 55c-5 13 0 25 10 30l68 43c10 7 25 5 32-8l38-52c15 2 27 2 42 0l38 52c7 10 22 13 32 8l68-43c10-7 15-20 10-30l-23-55c10-12 20-30 28-45l55-7c12-3 22-13 22-25v-83c0-12-10-22-22-25l-58-5c-7-15-15-30-27-45l22-55c5-12 0-25-10-30l-67-43c-10-7-25-5-33 8l-40 50c-15-3-27-3-42 0l-38-53c-2-7-10-10-17-10z m-38 78l30-18 33 46c5 7 15 12 25 10 17-3 37-3 55 0 10 2 20-3 25-10l32-46 30 18-20 50c-2 10-2 20 5 28 15 15 25 32 33 52 2 10 10 15 20 18l47 5v40l-47 5c-10 0-18 7-20 17-8 20-18 38-33 53-7 7-10 17-5 27l20 50-30 18-32-45c-5-8-15-13-25-10-18 2-38 2-55 0-10-3-20 2-25 10l-33 45-30-18 20-50c3-10 3-20-5-27-15-15-25-33-32-53-3-10-10-15-20-17l-48-5v-40l48-5c10 0 17-8 20-18 2-5 2-7 5-12 7-15 15-30 27-40 8-8 10-18 5-28l-20-50z m340 130l0 0 0 0z m-225 65c13 0 23-10 23-22s-10-23-23-23-22 10-22 23 10 22 22 22m0 50c-40 0-72-32-72-72s32-73 72-73 73 33 73 73-33 72-73 72l0 0z" horiz-adv-x="1250" />

<glyph glyph-name="ic_mi_settlement" unicode="&#xe827;" d="M478 148h-293c-65 0-117 52-117 117v413c0 65 52 117 117 117h715c65 0 118-52 118-117v-88c0-15-10-25-25-25s-25 10-25 25v88c0 37-30 67-68 67h-715c-37 0-67-30-67-67v-413c0-37 30-67 67-67h293c15 0 25-10 25-25s-13-25-25-25z m-68 327h-317c-15 0-25 10-25 25v125c0 15 10 25 25 25h737c15 0 25-10 25-25s-10-25-25-25h-712v-75h295c15 0 25-10 25-25s-13-25-28-25z m583 125h-70c-15 0-25 10-25 25s10 25 25 25h70c15 0 25-10 25-25s-13-25-25-25z m-198-125h-150c-15 0-25 10-25 25s10 25 25 25h150c15 0 25-10 25-25s-12-25-25-25z m-240 0h-62c-15 0-25 10-25 25s10 25 25 25h62c15 0 25-10 25-25s-12-25-25-25z m433-568c-20 0-40 0-60 5-28 5-53 13-83 23-15 5-30 10-45 15l-17 5c-15 5-50 20-50 20l17 48c0 0 35-13 48-18l20-8c15-5 27-10 42-12 28-8 53-15 80-20 25-5 50-5 78-5l15 0c7 0 15 0 20 2 17 5 22 15 25 23 2 10 2 20 0 33-3 10 2 22 12 27 13 10 18 28 10 43-5 12-2 25 8 35 15 15 10 35 7 42 0 3-2 5-5 8l-2 5c-5 10-3 25 7 32 3 0 3 3 5 3 0 0 0 0 3 0 2 2 5 7 7 12 5 10 5 18 3 23-3 10-15 22-30 22-33 0-63 0-95 0l-45 0c-15 0-25 10-25 25 0 3 0 5 0 5 2 20 7 40 15 55 2 8 5 13 7 20l8 18c7 20 10 40 5 62-5 18-8 18-10 18-5 0-8 2-13 2-2-2-2-5-2-7-3-13-5-23-8-35l-2-15c-5-25-18-48-35-65-13-15-25-30-35-43-40-70-113-95-118-97-12-5-27 2-32 15-5 12 2 27 15 32 0 0 60 23 90 75 0 0 2 3 2 3 13 15 25 30 38 47 12 13 20 28 22 45l3 15c2 13 5 25 10 38 2 10 7 17 10 22l2 5c5 10 18 20 30 18l8 0c10 0 20-3 30-5 35-10 42-45 45-55 7-33 5-65-8-93l-7-17c-3-8-5-13-8-20-2-5-5-13-7-18l17 0c30 0 63 0 93 0 35 0 67-22 77-57 5-18 3-38-5-58-5-7-10-17-15-25 0 0 0 0 0 0 13-30 8-62-10-87 10-30 0-63-22-85 0-16 0-28-3-43-7-33-30-53-62-60-10-3-20-3-33-5l-15 0c-10 7-17 7-27 7z m140 116c0 0 0 0 0 0 0 0 0 0 0 0z m-5 195l0 0 0 0z m-188 265c0 0 0 0 0 0l0 0z m20 10l0 0c0 0 0 0 0 0z m-220-538h-160c-15 0-25 10-25 25v288c0 15 10 25 25 25h163c15 0 25-10 25-25v-68c0-15-10-25-25-25s-25 10-25 25v43h-113v-238h113v128c0 15 10 25 25 25s25-10 25-25v-153c-3-15-13-25-28-25z" horiz-adv-x="1250" />

<glyph glyph-name="ic_mi_socialnetwork" unicode="&#xe828;" d="M598 648v-235l47-130h-47v-180c112 0 205 82 205 247 0 165 0 298-205 298z m0-718c0 0 0 0 0 0-10 0-40 2-68 27-35 33-52 91-52 171 0 15 10 25 25 25s25-10 25-25c0-80 20-118 37-133 18-15 33-15 33-15 2 0 20 0 35 15 17 18 37 53 37 133 0 15 10 25 25 25s25-10 25-25c0-80-17-138-52-171-30-25-60-27-70-27z m-325 5c-8 0-15 2-20 7-10 10-8 28 2 35 50 43 133 81 223 101 12 2 27-5 30-20 2-13-5-28-20-30-83-18-158-53-200-91-5-2-10-2-15-2z m507 70c-2 0-5 0-7 3-25 10-48 17-73 22-12 3-22 18-17 30s17 23 30 18c27-8 55-15 80-25 12-5 20-20 15-33-8-7-18-15-28-15z m143-83c-5 0-13 3-18 8-15 12-32 27-52 37-13 8-15 23-10 36 7 12 22 15 35 10 25-16 45-31 62-46 10-10 10-25 0-35-5-7-12-10-17-10z m-325 158c-140 0-230 108-230 273 0 165 0 322 230 322 185 0 220-107 227-210 0-15-10-25-22-27-15 0-25 10-28 22-7 105-40 165-177 165-173 0-180-92-180-272 0-138 70-223 180-223 110 0 180 85 180 223 0 15 10 25 25 25s25-10 25-25c0-165-90-273-230-273z m-358 498h-80c-32 0-60 27-60 60v77c0 35 28 63 60 63h78c35 0 62-28 62-63v-77c0-33-27-60-60-60z m-80 150c-5 0-10-5-10-13v-77c0-5 5-10 10-10h78c5 0 10 5 10 10v77c0 5-5 10-10 10h-78z m880-650h-77c-33 0-60 27-60 60v77c0 35 27 60 60 60h77c35 0 60-27 60-60v-77c0-33-27-60-60-60z m-80 150c-5 0-10-5-10-10v-78c0-5 5-10 10-10h78c5 0 10 5 10 10v78c0 5-5 10-10 10h-78z m-735-50h-100c-42 0-75 32-75 75v100c0 42 33 75 75 75h100c43 0 75-33 75-75v-100c0-43-32-75-75-75z m-100 200c-15 0-25-10-25-25v-100c0-15 10-25 25-25h100c15 0 25 10 25 25v100c0 15-10 25-25 25h-100z m988 100h-125c-48 0-88 40-88 87v125c0 48 40 88 88 88h125c47 0 87-40 87-88v-125c0-50-40-87-87-87z m-125 250c-20 0-38-18-38-38v-125c0-20 18-37 38-37h125c20 0 37 17 37 37v125c0 20-17 38-37 38h-125z" horiz-adv-x="1250" />

<glyph glyph-name="ic_mi_statements" unicode="&#xe829;" d="M813 478c-15 0-25 10-25 25v37c0 15 10 25 25 25s25-10 25-25v-37c0-15-10-25-25-25z m-350-491h-275c-15 0-25 10-25 26v750c0 15 10 25 25 25h625c15 0 25-10 25-25v-123c0-15-10-25-25-25s-25 10-25 25v98h-575v-700h250c15 0 25-10 25-25s-10-26-25-26z m237 648h-142c-15 0-25 10-25 25s10 25 25 25h142c15 0 25-10 25-25s-10-25-25-25z m-237-252h-163c-15 0-25 10-25 25s10 25 25 25h163c15 0 25-10 25-25s-10-25-25-25z m0-103h-163c-15 0-25 10-25 25s10 25 25 25h163c15 0 25-10 25-25s-10-25-25-25z m0-102h-163c-15 0-25 10-25 25s10 25 25 25h163c15 0 25-10 25-25s-10-25-25-25z m237 382h-92c-15 0-25 10-25 25s10 25 25 25h92c15 0 25-10 25-25s-10-25-25-25z m-12-202c-15 0-25 10-25 25v50c0 15 10 25 25 25s25-10 25-25v-50c0-15-10-25-25-25z m250 0c-15 0-25 10-25 25v50c0 15 10 25 25 25s25-10 25-25v-50c0-15-10-25-25-25z m-63 25h-125c-15 0-25 10-25 25s10 25 25 25h125c15 0 25-10 25-25s-10-25-25-25z m188-471h-500c-15 0-25 10-25 25v281c0 15 10 25 25 25s25-10 25-25v-256h450v256c0 15 10 25 25 25s25-10 25-25v-281c0-15-10-25-25-25z m0 356h-500c-15 0-25 10-25 25v115c0 15 10 25 25 25h62c15 0 25-10 25-25s-10-25-25-25h-37v-65h450v65h-38c-15 0-25 10-25 25s10 25 25 25h63c15 0 25-10 25-25v-115c0-13-10-25-25-25z m-388-88h-25c-15 0-25 10-25 25s10 25 25 25h25c15 0 25-10 25-25s-10-25-25-25z m0-90h-25c-15 0-25 10-25 25s10 25 25 25h25c15 0 25-10 25-25s-10-25-25-25z m0-87h-25c-15 0-25 10-25 25s10 25 25 25h25c15 0 25-10 25-25s-10-25-25-25z m100 177h-25c-15 0-25 10-25 25s10 25 25 25h25c15 0 25-10 25-25s-10-25-25-25z m0-90h-25c-15 0-25 10-25 25s10 25 25 25h25c15 0 25-10 25-25s-10-25-25-25z m0-87h-25c-15 0-25 10-25 25s10 25 25 25h25c15 0 25-10 25-25s-10-25-25-25z m100 177h-25c-15 0-25 10-25 25s10 25 25 25h25c15 0 25-10 25-25s-10-25-25-25z m0-90h-25c-15 0-25 10-25 25s10 25 25 25h25c15 0 25-10 25-25s-10-25-25-25z m0-87h-25c-15 0-25 10-25 25s10 25 25 25h25c15 0 25-10 25-25s-10-25-25-25z m100 177h-25c-15 0-25 10-25 25s10 25 25 25h25c15 0 25-10 25-25s-10-25-25-25z m0-90h-25c-15 0-25 10-25 25s10 25 25 25h25c15 0 25-10 25-25s-10-25-25-25z" horiz-adv-x="1250" />

<glyph glyph-name="ic_mi_tasks" unicode="&#xe82a;" d="M400 525h-200c-15 0-25 10-25 25v200c0 15 10 25 25 25h200c15 0 25-10 25-25v-200c0-15-10-25-25-25z m-175 50h150v150h-150v-150z m175-650h-200c-15 0-25 10-25 25v200c0 15 10 25 25 25h200c15 0 25-10 25-25v-200c0-15-10-25-25-25z m-175 50h150v150h-150v-150z m575 600h-300c-15 0-25 10-25 25s10 25 25 25h300c15 0 25-10 25-25s-10-25-25-25z m250 100h-550c-15 0-25 10-25 25s10 25 25 25h550c15 0 25-10 25-25s-10-25-25-25z m-400-400h-150c-15 0-25 10-25 25s10 25 25 25h150c15 0 25-10 25-25s-10-25-25-25z m400 100h-550c-15 0-25 10-25 25s10 25 25 25h550c15 0 25-10 25-25s-10-25-25-25z m-150-400h-400c-15 0-25 10-25 25s10 25 25 25h400c15 0 25-10 25-25s-10-25-25-25z m150 100h-550c-15 0-25 10-25 25s10 25 25 25h550c15 0 25-10 25-25s-10-25-25-25z m-745 188c-7 0-15 2-17 7l-55 63c-10 10-8 25 2 35 10 10 25 7 35-3l35-40 75 100c8 10 25 13 35 5 10-7 13-25 5-35l-95-125c-2-2-10-7-20-7 3 0 3 0 0 0z" horiz-adv-x="1250" />

<glyph glyph-name="ic_mi_taxfees" unicode="&#xe82b;" d="M975 238c-15 0-25 10-25 25v75c0 15 10 25 25 25s25-10 25-25v-75c0-15-10-25-25-25z m0-338h-700c-15 0-25 10-25 25v850c0 15 10 25 25 25h700c15 0 25-10 25-25v-352c0-15-10-25-25-25s-25 10-25 25v327h-650v-800h650v210c0 15 10 25 25 25s25-10 25-25v-235c0-15-10-25-25-25z m-362 533h-220c-15 0-25 10-25 25s10 25 25 25h220c15 0 25-10 25-25s-10-25-25-25z m-153-200h-67c-15 0-25 10-25 25s10 25 25 25h67c15 0 25-10 25-25s-12-25-25-25z m75 97h-142c-15 0-25 10-25 25s10 25 25 25h142c15 0 25-10 25-25s-12-25-25-25z m323 103h-53c-15 0-25 10-25 25s10 25 25 25h53c15 0 25-10 25-25s-10-25-25-25z m-160 202h-148c-15 0-25 10-25 25s10 25 25 25h148c15 0 25-10 25-25s-10-25-25-25z m105-75h-355c-15 0-25 10-25 25s10 25 25 25h355c15 0 25-10 25-25s-13-25-25-25z m12-542c-32 0-60 32-60 75s25 75 60 75c33 0 60-33 60-75s-25-75-60-75z m0 100c-2 0-10-10-10-25s8-25 10-25c3 0 10 10 10 25s-7 25-10 25z m-155 25c-32 0-60 32-60 75s25 75 60 75c33 0 60-33 60-75s-27-75-60-75z m0 100c-2 0-10-10-10-25s8-25 10-25c3 0 10 10 10 25s-10 25-10 25z m-10-225c-5 0-10 2-15 5-10 7-12 25-5 35l175 225c8 10 25 12 35 5 10-8 13-25 5-35l-175-225c-5-5-12-10-20-10z" horiz-adv-x="1250" />

<glyph glyph-name="ic_mi_timeclock" unicode="&#xe82c;" d="M828 155l-203 195v-280c80 0 150 33 203 85z m0 0c47 50 77 118 77 195 0 155-125 280-280 280v-280l203-195z m-203 170c-15 0-25 10-25 25v258c0 15 10 25 25 25s25-10 25-25v-258c0-15-10-25-25-25z m135-135c-7 0-12 3-17 8l-135 135c-10 10-10 25 0 35s25 10 35 0l135-135c10-10 10-25 0-35-5-5-13-8-18-8z m-135-273c-15 0-25 10-25 25v68c0 15 10 25 25 25s25-10 25-25v-68c0-12-10-25-25-25z m0 748c-15 0-25 10-25 25v68c0 15 10 25 25 25s25-10 25-25v-68c0-12-10-25-25-25z m-340-340h-67c-15 0-25 10-25 25s10 25 25 25h67c15 0 25-10 25-25s-12-25-25-25z m748 0h-68c-15 0-25 10-25 25s10 25 25 25h68c15 0 25-10 25-25s-13-25-25-25z m-120-287c-8 0-13 2-18 7l-47 48c-10 10-10 25 0 35s25 10 35 0l47-48c10-10 10-25 0-35-5-5-10-7-17-7z m-528 527c-7 0-12 3-17 8l-48 47c-10 10-10 25 0 35s25 10 35 0l48-47c10-10 10-25 0-35-5-5-13-8-18-8z m-47-527c-8 0-13 2-18 7-10 10-10 25 0 35l48 48c10 10 25 10 35 0s10-25 0-35l-48-48c-5-5-12-7-17-7z m527 527c-7 0-12 3-17 8-10 10-10 25 0 35l47 47c10 10 25 10 35 0s10-25 0-35l-47-47c-5-5-10-8-18-8z m-240 185c220 0 400-180 400-400s-180-400-400-400-400 180-400 400 180 400 400 400m0 50c-247 0-450-202-450-450s203-450 450-450 450 203 450 450-202 450-450 450l0 0z" horiz-adv-x="1250" />

<glyph glyph-name="ic_mi_tips" unicode="&#xe82d;" d="M250-13c0-12 10-25 23-30l0 0c230-62 475-62 705 0l0 0c12 3 22 15 22 30v563c0 20-20 35-37 30l0 0c-90-300-408-505-713-560v-33z m375-100c-120 0-242 15-360 48-25 7-40 27-40 52v563c0 18 8 33 23 43 12 10 30 15 47 10l70-18c88-22 180-35 270-35 0 0 0 0 0 0 13 0 25-10 25-25 0-15-10-25-25-25-95 0-192 10-285 35l-70 18c-2 0-2 0-5 0 0 0-2-3-2-5v-563c0-3 2-5 5-5 227-60 465-60 692 0 3 0 5 2 5 5v565c0 3 0 3-2 5s-3 3-5 0l-68-20c-25-7-50-12-75-17-12-3-27 7-30 20-2 12 8 27 20 30 25 5 48 10 73 17l70 18c17 5 35 0 47-10 13-10 23-28 23-43v-563c0-25-18-47-40-52-120-33-243-48-363-48z m0 776c-120 0-322 10-322 75 0 65 202 75 322 75s323-10 323-75c0-65-203-75-323-75z m-252 75c37-13 122-25 252-25s215 12 253 25c-38 12-123 25-253 25s-215-13-252-25z m527-10l0 0 0 0z m-637-180c-10 0-20 5-23 15-5 12 0 27 13 32 42 18 92 70 97 118 3 12 13 22 28 22 12 0 22-10 22-25-7-67-72-135-127-160-3 0-8-2-10-2z m725 0c-3 0-8 0-10 2-55 25-120 93-128 160-2 13 8 25 23 28 15 0 25-8 27-23 5-47 55-100 98-117 12-5 20-20 12-33-2-10-12-17-22-17z m-480-568c0 0 0 0 0 0-115 10-165 30-168 30-10 3-17 13-17 23v75c0 15 10 25 25 25s25-10 25-25v-55c22-5 67-15 137-23 13 0 25-12 23-27 0-13-13-23-25-23z m-160 195c-15 0-25 10-25 25v85c0 15 10 25 25 25s25-10 25-25v-85c0-12-10-25-25-25z m0 170c-15 0-25 10-25 25v60c0 15 10 25 25 25s25-10 25-25v-60c0-15-10-25-25-25z m220-25h-113c-15 0-25 10-25 25s10 25 25 25h113c15 0 25-10 25-25s-10-25-25-25z m-55-145c-15 0-25 10-25 25v145c0 15 10 25 25 25s25-10 25-25v-145c0-12-13-25-25-25z m135 0c-15 0-25 10-25 25v145c0 15 10 25 25 25s25-10 25-25v-145c0-12-10-25-25-25z m100 0c-15 0-25 10-25 25v145c0 15 10 25 25 25s25-10 25-25v-145c0-12-10-25-25-25z m57 58h-57c-15 0-25 10-25 25v87c0 15 10 25 25 25h57c35 0 65-30 65-65v-7c0-38-30-65-65-65z m-32 50h32c8 0 15 7 15 15v7c0 8-7 15-15 15h-32v-37z" horiz-adv-x="1250" />

<glyph glyph-name="ic_mi_transactions" unicode="&#xe82e;" d="M925 350c0-165-135-300-300-300-77 0-147 30-200 78-62 55-100 135-100 222 0 165 135 300 300 300 73 0 140-25 190-67 43-35 75-80 93-133 12-32 17-65 17-100z m-125 0c0-97-77-175-175-175-45 0-85 18-117 45-35 33-58 78-58 130 0 98 78 175 175 175 43 0 80-15 113-40 25-20 42-47 52-77 8-18 10-38 10-58z m-175-325c-80 0-157 30-217 83-70 62-108 150-108 242 0 15 10 25 25 25s25-10 25-25c0-77 33-152 93-205 50-45 115-70 182-70 153 0 275 123 275 275 0 33-5 63-15 93-7 22-20 45-35 67-7 13-5 28 5 35 13 8 28 5 35-5 18-25 30-50 40-77 13-35 18-70 18-108 2-185-143-330-323-330z m-247 0h-255c-15 0-25 10-25 25s10 25 25 25h255c15 0 25-10 25-25s-13-25-25-25z m-130-103c-5 0-10 3-15 5l-125 103c-8 5-10 13-10 20s2 15 10 20l125 103c10 10 27 7 35-3 10-10 7-27-3-35l-102-85 102-83c10-10 13-25 3-35-5-7-13-10-20-10z m150 601c-5 0-13 2-18 5-10 10-12 25-2 35 62 72 152 112 247 112h503c15 0 25-10 25-25s-10-25-25-25h-503c-80 0-155-35-207-95-5-5-13-7-20-7z m605 0c-8 0-15 2-20 10-10 10-8 27 2 35l103 82-103 83c-10 10-12 25-2 35 10 10 25 12 35 2l125-102c7-3 10-10 10-18s-3-15-10-20l-125-102c-5-3-10-5-15-5z m-668-120c-2 0-5 0-7 0-13 2-23 17-18 30 3 7 5 17 8 25 5 12 20 20 32 15 13-5 20-20 15-33-2-7-5-12-7-20 0-10-13-17-23-17z m280-153c-27 3-50 15-65 30l20 30c10-10 25-22 43-25v45c-28 8-58 18-58 58 0 30 23 55 58 57v30h25v-27c22-3 40-13 55-25l-18-30c-10 10-22 15-35 17v-40c28-7 60-20 60-57 0-33-20-58-60-60v-25h-25v22z m0 128v35c-12-3-20-10-20-18 0-10 8-15 20-17z m25-53v-37c13 2 20 10 20 20 0 10-7 15-20 17z m-15-175c-50 0-97 18-132 50-10 10-10 25-3 35s25 10 35 3c28-25 63-38 100-38 83 0 150 68 150 150 0 18-2 35-7 50-10 25-25 48-45 65-30 23-63 35-98 35-82 0-150-67-150-150 0-15-10-25-25-25s-25 10-25 25c0 110 90 200 200 200 48 0 93-15 128-45 27-22 50-52 62-87 8-23 13-45 13-68-3-110-93-200-203-200z" horiz-adv-x="1250" />

<glyph glyph-name="ic_mi_trending" unicode="&#xe82f;" d="M1050-38h-850c-15 0-25 10-25 25v593c0 15 10 25 25 25s25-10 25-25v-567h825c15 0 25-10 25-26s-10-25-25-25z m-167 601c-15 0-25 10-25 25v100h-100c-15 0-25 10-25 25s10 25 25 25h125c15 0 25-10 25-25v-125c0-15-10-25-25-25z m-583-408c-7 0-12 3-17 8-10 10-8 25 2 35l583 532c10 10 25 8 35-2 10-10 7-25-3-35l-582-530c-5-5-10-8-18-8z m583 180c-15 0-25 10-25 25v130c0 15 10 25 25 25s25-10 25-25v-130c0-12-10-25-25-25z m0-355c-15 0-25 10-25 25v235c0 15 10 25 25 25s25-10 25-25v-235c0-13-10-25-25-25z m-250 235c-15 0-25 10-25 25v50c0 15 10 25 25 25s25-10 25-25v-50c0-15-10-25-25-25z m0-235c-15 0-25 10-25 25v143c0 15 10 25 25 25s25-10 25-25v-143c0-13-10-25-25-25z m-250 0c-15 0-25 10-25 25v75c0 15 10 25 25 25s25-10 25-25v-75c0-13-10-25-25-25z m125 0c-15 0-25 10-25 25v38c0 15 10 25 25 25s25-10 25-25v-38c0-13-10-25-25-25z m0 143c-15 0-25 10-25 25v32c0 15 10 25 25 25s25-10 25-25v-32c0-15-10-25-25-25z m250-143c-15 0-25 10-25 25v63c0 15 10 25 25 25s25-10 25-25v-63c0-13-10-25-25-25z m0 175c-15 0-25 10-25 25v225c0 15 10 25 25 25s25-10 25-25v-225c0-12-10-25-25-25z m250-175c-15 0-25 10-25 25v575c0 15 10 25 25 25s25-10 25-25v-575c0-13-10-25-25-25z" horiz-adv-x="1250" />

<glyph glyph-name="ic_mi_trendingnegative" unicode="&#xe830;" d="M1053-30h-850c-15 0-25 10-25 25v593c0 15 10 25 25 25s25-10 25-25v-568h825c15 0 25-10 25-25s-13-25-25-25z m-210 203c-13 0-25 10-25 22 0 15 10 25 22 25l100 5-5 100c0 15 10 25 23 25 12 0 25-10 25-22l7-125c0-15-10-25-22-25l-125-5c2 0 2 0 0 0z m125 5c-5 0-10 2-15 5l-608 502c-10 10-12 25-2 35 7 13 22 13 32 5l608-502c10-10 12-25 2-35-2-8-10-10-17-10z m-645 165c-15 0-25 10-25 25v130c0 15 10 25 25 25s25-10 25-25v-130c0-13-10-25-25-25z m0-356c-15 0-25 10-25 26v235c0 15 10 25 25 25s25-10 25-25v-235c0-13-10-26-25-26z m250 236c-15 0-25 10-25 25v50c0 15 10 25 25 25s25-10 25-25v-50c0-15-10-25-25-25z m0-236c-15 0-25 10-25 26v142c0 15 10 25 25 25s25-10 25-25v-142c0-13-10-26-25-26z m250 0c-15 0-25 10-25 26v75c0 15 10 25 25 25s25-10 25-25v-75c0-13-10-26-25-26z m-125 0c-15 0-25 10-25 26v37c0 15 10 25 25 25s25-10 25-25v-37c0-13-10-26-25-26z m0 143c-15 0-25 10-25 25v33c0 15 10 25 25 25s25-10 25-25v-33c0-15-10-25-25-25z m-250-143c-15 0-25 10-25 26v62c0 15 10 25 25 25s25-10 25-25v-62c0-13-10-26-25-26z m0 176c-15 0-25 10-25 25v225c0 15 10 25 25 25s25-10 25-25v-225c0-13-10-25-25-25z" horiz-adv-x="1250" />

<glyph glyph-name="ic_mi_twitter" unicode="&#xe831;" d="M428 100c-15 0-28 5-38 15-10 10-15 23-15 38v395c0 15 5 27 15 37 10 10 23 15 38 15h392c15 0 28-5 38-15s15-22 15-37v-393c0-15-5-27-15-37s-20-18-35-18h-395z m197-200c-115 0-230 45-317 133-175 175-175 460 0 637 175 175 460 175 637 0 43-42 75-92 100-150 5-12 0-27-15-32-12-5-27 0-32 15-20 50-50 95-88 132-155 155-410 155-565 0-155-155-155-410 0-565 155-155 410-155 565 0 13 13 23 25 33 38 7 10 25 12 35 5 10-8 12-25 5-35-13-15-25-30-38-43-90-90-205-135-320-135z m158 650c12 0 22-5 30-12s12-18 12-30v-315c0-13-5-23-12-30s-18-13-30-13h-315c-13 0-23 5-30 13s-13 17-13 30v315c0 12 5 22 13 30s17 12 30 12h315z m-45-142c12 7 20 17 30 30-13-5-23-8-35-10 12 7 20 17 25 32-13-7-25-12-38-15-12 13-25 20-42 20-13 0-23-2-33-10-10-7-17-15-22-27-5-10-5-23-3-35-25 0-47 7-67 17-20 10-38 25-53 43-5-10-7-18-7-30s2-20 7-28c5-7 13-15 20-20-10 0-17 3-27 8v0c0-15 5-28 12-38 10-10 20-17 35-20-7 0-15 0-25 0 3-12 10-22 20-30 10-7 23-10 35-10-22-17-45-25-72-25h-15c27-17 57-25 90-25 35 0 65 8 90 25 25 15 42 38 55 63 12 25 20 50 20 77v8z m295-208c-3 0-5 0-8 0-12 5-20 18-17 30 12 43 20 90 17 135 0 15 10 25 25 25 13 0 25-10 25-25 3-52-5-102-20-152-2-5-12-13-22-13z" horiz-adv-x="1250" />

<glyph glyph-name="ic_mi_webexpiration" unicode="&#xe832;" d="M613 350v275c0 0 0 0 0 0-75 0-145-30-195-80l195-195z m0-25c-15 0-25 10-25 25v258c0 15 10 25 25 25s25-10 25-25v-258c0-15-10-25-25-25z m0 0c-8 0-13 3-18 8l-100 100c-10 10-10 25 0 35 10 10 25 10 35 0l100-100c10-10 10-25 0-35-5-5-10-8-17-8z m0 340c-15 0-25 10-25 25v68c0 15 10 25 25 25s25-10 25-25v-68c0-12-10-25-25-25z m-340-340h-68c-15 0-25 10-25 25s10 25 25 25h68c15 0 25-10 25-25s-13-25-25-25z m747 0h-67c-15 0-25 10-25 25s10 25 25 25h67c15 0 25-10 25-25s-12-25-25-25z m-647 240c-8 0-13 3-18 8l-47 47c-10 10-10 25 0 35s25 10 35 0l47-47c10-10 10-25 0-35-5-5-12-8-17-8z m-48-527c-7 0-12 2-17 7-10 10-10 25 0 35l47 48c10 10 25 10 35 0s10-25 0-35l-47-48c-5-5-13-7-18-7z m528 527c-8 0-13 3-18 8-10 10-10 25 0 35l48 47c10 10 25 10 35 0s10-25 0-35l-48-47c-5-5-10-8-17-8z m-460-605c-5 0-10 0-13 2-137 86-217 228-217 388 0 248 202 450 450 450s450-202 450-450c0-55-10-107-28-157-5-13-20-20-32-15-13 5-20 20-15 32 17 45 25 93 25 140 0 220-180 400-400 400s-400-180-400-400c0-140 72-270 192-342 13-8 15-23 8-36-3-7-13-12-20-12z m670-60h-550c-10 0-18 5-23 12-5 8-5 18 0 25l275 451c10 15 33 15 43 0l275-451c5-7 5-17 0-25-3-7-10-12-20-12z m-505 50h460l-230 378-230-378z m230 125c-15 0-25 10-25 25v100c0 15 10 25 25 25s25-10 25-25v-100c0-15-10-25-25-25z" horiz-adv-x="1250" />

<glyph glyph-name="ic_mi_weboutage" unicode="&#xe833;" d="M225 530v145c0 28 23 50 50 50h700c28 0 50-22 50-50v-145h-800z m750-580c-15 0-25 10-25 25s10 25 25 25c15 0 25 10 25 25v650c0 15-10 25-25 25h-700c-15 0-25-10-25-25v-650c0-15 10-25 25-25 15 0 25-10 25-25s-10-25-25-25c-42 0-75 32-75 75v650c0 43 33 75 75 75h700c43 0 75-32 75-75v-650c0-43-32-75-75-75z m50 555h-800c-15 0-25 10-25 25s10 25 25 25h800c15 0 25-10 25-25s-10-25-25-25z m-125-555h-550c-10 0-17 5-22 12-5 8-5 18 0 25l275 451c10 15 32 15 42 0l275-451c5-7 5-17 0-25s-10-12-20-12z m-505 50h460l-230 378-230-378z m230 125c-15 0-25 10-25 25v100c0 15 10 25 25 25s25-10 25-25v-100c0-15-10-25-25-25z" horiz-adv-x="1250" />

<glyph glyph-name="ic_mi_webserver" unicode="&#xe834;" d="M528 113c17 15 40 25 65 25h57c0 2 0 5 0 7 0 65 33 125 80 160-65-12-142-20-230-20-275 0-450 68-450 150v-175c0-82 175-150 450-150 10 3 18 3 28 3z m422 500c0-83-175-150-450-150-157 0-250 22-342 57-40 15 125 113 392 138 188 17 400-25 400-45z m-450-175c-285 0-475 70-475 175s190 175 475 175 475-70 475-175-190-175-475-175z m0 300c-292 0-425-73-425-125s133-125 425-125 425 72 425 125-132 125-425 125z m0-475c-285 0-475 70-475 175v175c0 15 10 25 25 25s25-10 25-25v-175c0-53 133-125 425-125 33 0 65 0 98 2 15 0 25-10 27-22 0-15-10-25-22-28-35-2-68-2-103-2z m450 150c-15 0-25 10-25 25v175c0 15 10 25 25 25s25-10 25-25v-175c0-15-10-25-25-25z m-587-496c0 0 0 0 0 0-213 20-338 86-338 171v175c0 15 10 25 25 25s25-10 25-25v-175c0-45 100-101 290-121 13-2 25-12 23-27 0-13-13-23-25-23z m27 176c0 0 0 0 0 0-225 15-365 80-365 170v175c0 15 10 25 25 25s25-10 25-25v-175c0-50 110-108 318-123 15 0 25-12 22-27 0-10-12-20-25-20z m685-181h-482c-70 0-125 55-125 126s55 125 125 125h32c8 117 105 207 225 207 100 0 185-65 215-157h10c83 0 150-68 150-150s-67-151-150-151z m-482 201c-43 0-75-33-75-75s32-76 75-76h482c55 0 100 46 100 101s-45 100-100 100h-30c-12 0-22 7-25 20-17 80-90 140-170 140-97 0-175-78-175-175l0-8c0-7-2-12-7-17-5-5-10-8-18-8h-57z" horiz-adv-x="1250" />

<glyph glyph-name="ic_mi_webspeed" unicode="&#xe835;" d="M928 443c77-78 122-183 122-300h-425l303 300z m-303-323c-7 0-12 3-17 8-10 10-10 25 0 35l150 150c10 10 25 10 35 0s10-25 0-35l-150-150c-5-8-10-8-18-8z m0 33c5 0 10-5 10-10s-5-10-10-10-10 5-10 10 5 10 10 10m0 50c-32 0-60-28-60-60s28-60 60-60 60 27 60 60-27 60-60 60l0 0z m0 257c-15 0-25 10-25 25v65c0 15 10 25 25 25s25-10 25-25v-67c0-13-10-23-25-23z m425-340h-85c-15 0-25 10-25 25s10 25 25 25h60c-12 210-187 375-400 375s-387-165-400-375h58c15 0 25-10 25-25s-10-25-25-25h-83c-15 0-25 10-25 25 0 248 203 450 450 450s450-202 450-450c0-15-10-25-25-25z m-665 240c-7 0-12 3-17 8l-48 47c-10 10-10 25 0 35s25 10 35 0l48-47c10-10 10-25 0-35-5-5-13-8-18-8z m480 0c-7 0-12 3-17 8-10 10-10 25 0 35l47 47c10 10 25 10 35 0s10-25 0-35l-47-47c-5-5-10-8-18-8z m-90-390h-300c-15 0-25 10-25 25s10 25 25 25h300c15 0 25-10 25-25s-10-25-25-25z m-547 548c-8 0-13 2-18 7-10 10-10 25 0 35 110 110 258 170 415 170 135 0 265-47 370-130 10-7 13-25 3-35-8-10-25-12-35-2-95 77-215 117-338 117-142 0-277-55-380-155-5-5-12-7-17-7z m667 7c-12 0-25 10-25 23 0 15 10 25 23 27l80 5-20 78c-3 12 5 27 17 30 13 2 28-5 30-18l28-107c2-8 0-15-5-20-5-5-10-10-18-10l-110-8c0 0 0 0 0 0z" horiz-adv-x="1250" />

<glyph glyph-name="ic_mi_webuptime" unicode="&#xe836;" d="M225 530v145c0 28 23 50 50 50h700c28 0 50-22 50-50v-145h-800z m750-580h-700c-42 0-75 32-75 75v650c0 43 33 75 75 75h700c43 0 75-32 75-75v-650c0-43-32-75-75-75z m-700 750c-15 0-25-10-25-25v-650c0-15 10-25 25-25h700c15 0 25 10 25 25v650c0 15-10 25-25 25h-700z m513-195h-563c-15 0-25 10-25 25s10 25 25 25h563c15 0 25-10 25-25s-10-25-25-25z m237 0h-120c-15 0-25 10-25 25s10 25 25 25h120c15 0 25-10 25-25s-10-25-25-25z m-250-255c-15 0-25 10-25 25v100h-100c-15 0-25 10-25 25s10 25 25 25h125c15 0 25-10 25-25v-125c0-15-10-25-25-25z m-300-175c-7 0-12 3-17 8-10 10-10 25 0 35l300 300c10 10 25 10 35 0s10-25 0-35l-300-300c-5-5-10-8-18-8z" horiz-adv-x="1250" />

<glyph glyph-name="ic_mi_widgetsettings" unicode="&#xe837;" d="M630 100c-17 18-30 38-40 60-2 5-5 13-7 18l-83 10v102l85 10c10 30 25 55 45 78l-7 20-10 25-413-213c0-67 55-122 123-122h40v-126l145 126h117l5 12z m80 368l25-35c13 2 25 5 40 5s28-3 40-5l58 80 82-50-35-88c20-22 38-47 45-77l85-10v352l-340-172z m-347-531c-3 0-8 0-10 3-10 5-15 12-15 22v101h-15c-80 0-148 65-148 147v405c0 80 65 148 148 148h607c80 0 148-65 148-148v-145c0-15-10-25-25-25s-25 10-25 25v145c0 53-43 98-98 98h-607c-55 0-98-43-98-98v-407c0-53 43-98 98-98h40c15 0 25-10 25-25v-70l105 90c5 5 10 5 17 5h28c15 0 25-10 25-25s-10-25-25-25h-20l-140-120c-3 0-10-3-15-3z m687 396c-15 0-25 10-25 25v17c0 15 10 25 25 25s25-10 25-25v-20c0-12-10-22-25-22z m-180-396c-7 0-15 3-20 10l-47 68c-18-2-38-2-55 0l-48-68c-7-10-22-12-32-7l-83 50c-10 7-15 20-10 30l30 73c-12 17-25 35-32 55 0 2-3 2-3 5l-70 10c-12 2-22 12-22 25v102c0 13 10 23 22 25l70 10c8 20 20 40 35 60l-30 73c-5 12 0 25 10 30l83 50c10 7 25 5 32-8l48-67c17 2 37 2 55 0l47 67c8 10 23 13 33 8l82-50c10-8 15-20 10-30l-30-73c15-17 28-37 35-60l70-10c13-2 23-12 23-25v-102c0-13-10-23-23-25l-70-10c-7-20-20-40-35-60l30-73c5-12 0-25-10-30l-82-50c-3-3-8-3-13-3z m-55 131c8 0 15-5 20-10l43-61 45 28-28 68c-2 10-2 20 5 27 18 20 33 43 40 68 3 10 10 15 20 17l63 8v57l-60 5c-10 0-18 8-20 18-8 25-23 47-40 67-8 8-10 18-5 28l27 67-45 28-42-60c-5-8-15-13-25-10-23 5-45 5-68 0-10-3-20 2-25 10l-42 60-45-28 27-67c3-10 3-20-5-28-17-20-32-42-40-67-2-10-10-15-20-18l-70-10v-57l63-8c10 0 17-7 20-17 2-5 2-10 5-15 7-20 20-38 35-53 7-7 10-17 5-27l-28-68 45-28 43 61c5 7 15 12 25 10 22-5 45-5 67 0 5 2 8 5 10 5z m235 120l0 0 0 0z m-275-63c-62 0-112 50-112 113s50 112 112 112 113-50 113-112-50-113-113-113z m0 175c-35 0-62-27-62-62s27-63 62-63 63 28 63 63-28 62-63 62z" horiz-adv-x="1250" />

<glyph glyph-name="ic_mi_ratingaverage" unicode="&#xe838;" d="M1075 163h-142c-53 0-103 32-123 82l-60 150c-45 110-200 110-245-2l-57-148c-20-50-68-82-123-82h-150v-201h900v201z m0-226h-900c-15 0-25 10-25 25v726c0 15 10 25 25 25s25-10 25-25v-701h875c15 0 25-10 25-25s-10-25-25-25z m0 201h-142c-65 0-120 37-145 97l-25 65c-5 13 0 28 15 33 12 5 27 0 32-15l25-65c18-40 55-68 100-68h140c15 0 25-10 25-25s-10-22-25-22z m-317 210c-10 0-20 5-23 15l-10 22c-5 13 0 28 15 33 13 5 28 0 33-15l7-20c5-13 0-28-15-33-2 0-5-2-7-2z m-433-210h-150c-15 0-25 10-25 25s10 25 25 25h150c45 0 83 27 100 67l58 148c5 12 20 20 32 15 13-5 20-20 15-33l-57-147c-25-63-83-100-148-100z" horiz-adv-x="1250" />

<glyph glyph-name="doc-text" unicode="&#xf0f6;" d="M819 638q16-16 27-42t11-50v-642q0-23-15-38t-38-16h-750q-23 0-38 16t-16 38v892q0 23 16 38t38 16h500q22 0 49-11t42-27z m-248 136v-210h210q-5 17-12 23l-175 175q-6 7-23 12z m215-853v572h-232q-23 0-38 16t-16 37v233h-429v-858h715z m-572 483q0 7 5 12t13 5h393q8 0 13-5t5-12v-36q0-8-5-13t-13-5h-393q-8 0-13 5t-5 13v36z m411-125q8 0 13-5t5-13v-36q0-8-5-13t-13-5h-393q-8 0-13 5t-5 13v36q0 8 5 13t13 5h393z m0-143q8 0 13-5t5-13v-36q0-8-5-13t-13-5h-393q-8 0-13 5t-5 13v36q0 8 5 13t13 5h393z" horiz-adv-x="857.1" />
</font>
</defs>
</svg>
