<?xml version="1.0" encoding="utf-8"?>
<!-- Generator: Adobe Illustrator 22.1.0, SVG Export Plug-In . SVG Version: 6.00 Build 0)  -->
<!DOCTYPE svg PUBLIC "-//W3C//DTD SVG 1.1//EN" "http://www.w3.org/Graphics/SVG/1.1/DTD/svg11.dtd">
<svg version="1.1" xmlns="http://www.w3.org/2000/svg" xmlns:xlink="http://www.w3.org/1999/xlink" x="0px" y="0px"
	 viewBox="0 0 50 40" style="enable-background:new 0 0 50 40;" xml:space="preserve">
<style type="text/css">
	.st0{fill:#DBF0F4;}
	.st1{fill:#194A77;}
	.st2{fill:#F69E24;}
	.st3{fill:#F7C6C9;}
	.st4{fill:#FFFFFF;}
	.st5{fill:#53BA82;}
	.st6{fill:#C12629;}
	.st7{fill:#FDBE13;}
	.st8{fill:none;stroke:#194A77;stroke-width:2;stroke-linecap:round;stroke-linejoin:round;stroke-miterlimit:10;}
	.st9{fill:#56C8E9;}
	.st10{fill:#1BB7EB;}
	.st11{fill:#4367B2;}
	.st12{fill:#FAAE28;}
	.st13{fill:#F89E28;}
	.st14{fill:#F68E27;}
	.st15{fill:#F47F25;}
	.st16{fill:#F26E24;}
	.st17{fill:#F05B24;}
	.st18{fill:#EE4524;}
	.st19{fill:#ED2724;}
	.st20{fill:#E62E35;}
	.st21{fill:#E03348;}
	.st22{fill:#DB3758;}
	.st23{fill:#D63B68;}
	.st24{fill:#D03D77;}
	.st25{fill:#CA4186;}
	.st26{fill:#C14397;}
	.st27{fill:#F05669;}
	.st28{fill:#F5887E;}
	.st29{display:none;}
	.st30{display:inline;}
</style>
<g id="Layer_1">
	<g>
		<polygon class="st0" points="11,37 39,3 39,37 		"/>
		<g>
			<path class="st1" d="M39,24.5c-0.6,0-1-0.4-1-1v-3c0-0.6,0.4-1,1-1s1,0.4,1,1v3C40,24.1,39.6,24.5,39,24.5z"/>
			<path class="st1" d="M39,38H11c-0.6,0-1-0.4-1-1V3c0-0.6,0.4-1,1-1h28c0.6,0,1,0.4,1,1v14.1c0,0.6-0.4,1-1,1s-1-0.4-1-1V4H12v32
				h26v-8.4c0-0.6,0.4-1,1-1s1,0.4,1,1V37C40,37.6,39.6,38,39,38z"/>
			<g>
				<g>
					<path class="st9" d="M24.5,16.7h-8.8c-0.6,0-1-0.4-1-1s0.4-1,1-1h8.8c0.6,0,1,0.4,1,1S25.1,16.7,24.5,16.7z"/>
					<path class="st9" d="M18.4,24.7h-2.7c-0.6,0-1-0.4-1-1s0.4-1,1-1h2.7c0.6,0,1,0.4,1,1S18.9,24.7,18.4,24.7z"/>
					<path class="st9" d="M21.4,20.8h-5.7c-0.6,0-1-0.4-1-1s0.4-1,1-1h5.7c0.6,0,1,0.4,1,1S21.9,20.8,21.4,20.8z"/>
				</g>
				<g>
					<path class="st9" d="M34.3,16.7h-2.1c-0.6,0-1-0.4-1-1s0.4-1,1-1h2.1c0.6,0,1,0.4,1,1S34.9,16.7,34.3,16.7z"/>
				</g>
			</g>
		</g>
		<path class="st1" d="M27.9,8.6h-5.9c-0.6,0-1-0.4-1-1s0.4-1,1-1h5.9c0.6,0,1,0.4,1,1S28.5,8.6,27.9,8.6z"/>
		<path class="st1" d="M32.1,11.6H17.9c-0.6,0-1-0.4-1-1s0.4-1,1-1h14.2c0.6,0,1,0.4,1,1S32.6,11.6,32.1,11.6z"/>
		<g>
			<path class="st1" d="M32.6,33.3c-1.3,0-2.4-1.3-2.4-3s1-3,2.4-3c1.3,0,2.4,1.3,2.4,3S34,33.3,32.6,33.3z M32.6,29.3
				c-0.1,0-0.4,0.4-0.4,1s0.3,1,0.4,1c0.1,0,0.4-0.4,0.4-1S32.7,29.3,32.6,29.3z"/>
			<path class="st1" d="M26.4,28.3c-1.3,0-2.4-1.3-2.4-3s1-3,2.4-3c1.3,0,2.4,1.3,2.4,3S27.7,28.3,26.4,28.3z M26.4,24.3
				c-0.1,0-0.4,0.4-0.4,1s0.3,1,0.4,1c0.1,0,0.4-0.4,0.4-1S26.4,24.3,26.4,24.3z"/>
			<path class="st1" d="M26,33.3c-0.2,0-0.4-0.1-0.6-0.2c-0.4-0.3-0.5-1-0.2-1.4l7-9c0.3-0.4,1-0.5,1.4-0.2c0.4,0.3,0.5,1,0.2,1.4
				l-7,9C26.6,33.1,26.3,33.3,26,33.3z"/>
		</g>
	</g>
</g>
<g id="nyt_x5F_exporter_x5F_info" class="st29">
</g>
</svg>
