<?xml version="1.0" encoding="utf-8"?>
<!-- Generator: Adobe Illustrator 22.1.0, SVG Export Plug-In . SVG Version: 6.00 Build 0)  -->
<!DOCTYPE svg PUBLIC "-//W3C//DTD SVG 1.1//EN" "http://www.w3.org/Graphics/SVG/1.1/DTD/svg11.dtd">
<svg version="1.1" xmlns="http://www.w3.org/2000/svg" xmlns:xlink="http://www.w3.org/1999/xlink" x="0px" y="0px"
	 viewBox="0 0 50 40" style="enable-background:new 0 0 50 40;" xml:space="preserve">
<style type="text/css">
	.st0{fill:#DBF0F4;}
	.st1{fill:#194A77;}
	.st2{fill:#F69E24;}
	.st3{fill:#F7C6C9;}
	.st4{fill:#FFFFFF;}
	.st5{fill:#53BA82;}
	.st6{fill:#C12629;}
	.st7{fill:#FDBE13;}
	.st8{fill:none;stroke:#194A77;stroke-width:2;stroke-linecap:round;stroke-linejoin:round;stroke-miterlimit:10;}
	.st9{fill:#56C8E9;}
	.st10{fill:#1BB7EB;}
	.st11{fill:#4367B2;}
	.st12{fill:#FAAE28;}
	.st13{fill:#F89E28;}
	.st14{fill:#F68E27;}
	.st15{fill:#F47F25;}
	.st16{fill:#F26E24;}
	.st17{fill:#F05B24;}
	.st18{fill:#EE4524;}
	.st19{fill:#ED2724;}
	.st20{fill:#E62E35;}
	.st21{fill:#E03348;}
	.st22{fill:#DB3758;}
	.st23{fill:#D63B68;}
	.st24{fill:#D03D77;}
	.st25{fill:#CA4186;}
	.st26{fill:#C14397;}
	.st27{fill:#F05669;}
	.st28{fill:#F5887E;}
	.st29{display:none;}
	.st30{display:inline;}
</style>
<g id="Layer_1">
	<g>
		<g>
			<path class="st0" d="M10,34.5c0,0.5,0.4,1,0.9,1.2l0,0c9.2,2.5,19,2.5,28.2,0l0,0c0.5-0.1,0.9-0.6,0.9-1.2V12
				c0-0.8-0.8-1.4-1.5-1.2l0,0C34.9,22.8,22.2,31,10,33.2V34.5z"/>
			<path class="st1" d="M25,38.5c-4.8,0-9.7-0.6-14.4-1.9c-1-0.3-1.6-1.1-1.6-2.1V12c0-0.7,0.3-1.3,0.9-1.7c0.5-0.4,1.2-0.6,1.9-0.4
				l2.8,0.7c3.5,0.9,7.2,1.4,10.8,1.4c0,0,0,0,0,0c0.5,0,1,0.4,1,1c0,0.6-0.4,1-1,1c-3.8,0-7.7-0.4-11.4-1.4l-2.8-0.7
				c-0.1,0-0.1,0-0.2,0c0,0-0.1,0.1-0.1,0.2v22.5c0,0.1,0.1,0.2,0.2,0.2c9.1,2.4,18.6,2.4,27.7,0c0.1,0,0.2-0.1,0.2-0.2V12
				c0-0.1,0-0.1-0.1-0.2s-0.1-0.1-0.2,0L36,12.6c-1,0.3-2,0.5-3,0.7c-0.5,0.1-1.1-0.3-1.2-0.8c-0.1-0.5,0.3-1.1,0.8-1.2
				c1-0.2,1.9-0.4,2.9-0.7l2.8-0.7c0.7-0.2,1.4,0,1.9,0.4c0.5,0.4,0.9,1.1,0.9,1.7v22.5c0,1-0.7,1.9-1.6,2.1
				C34.7,37.9,29.8,38.5,25,38.5z"/>
			<path class="st1" d="M25,7.5c-4.8,0-12.9-0.4-12.9-3c0-2.6,8.1-3,12.9-3s12.9,0.4,12.9,3C37.9,7.1,29.8,7.5,25,7.5z M14.9,4.5
				c1.5,0.5,4.9,1,10.1,1s8.6-0.5,10.1-1c-1.5-0.5-4.9-1-10.1-1S16.4,4,14.9,4.5z M36,4.9L36,4.9L36,4.9z"/>
			<path class="st1" d="M10.5,12.1c-0.4,0-0.8-0.2-0.9-0.6c-0.2-0.5,0-1.1,0.5-1.3c1.7-0.7,3.7-2.8,3.9-4.7c0.1-0.5,0.5-0.9,1.1-0.9
				C15.6,4.6,16,5,16,5.6c-0.3,2.7-2.9,5.4-5.1,6.4C10.8,12,10.6,12.1,10.5,12.1z"/>
			<path class="st1" d="M39.5,12.1c-0.1,0-0.3,0-0.4-0.1C36.9,11,34.3,8.3,34,5.6c-0.1-0.5,0.3-1,0.9-1.1c0.6,0,1,0.3,1.1,0.9
				c0.2,1.9,2.2,4,3.9,4.7c0.5,0.2,0.8,0.8,0.5,1.3C40.3,11.8,39.9,12.1,39.5,12.1z"/>
			<g>
				<path class="st1" d="M20.3,34.8C20.3,34.8,20.3,34.8,20.3,34.8c-4.6-0.4-6.6-1.2-6.7-1.2c-0.4-0.1-0.7-0.5-0.7-0.9v-3
					c0-0.6,0.4-1,1-1s1,0.4,1,1v2.2c0.9,0.2,2.7,0.6,5.5,0.9c0.5,0,1,0.5,0.9,1.1C21.3,34.4,20.8,34.8,20.3,34.8z"/>
				<path class="st1" d="M13.9,27c-0.6,0-1-0.4-1-1v-3.4c0-0.6,0.4-1,1-1s1,0.4,1,1V26C14.9,26.5,14.5,27,13.9,27z"/>
				<path class="st1" d="M13.9,20.2c-0.6,0-1-0.4-1-1v-2.4c0-0.6,0.4-1,1-1s1,0.4,1,1v2.4C14.9,19.8,14.5,20.2,13.9,20.2z"/>
			</g>
		</g>
		<g>
			<path class="st9" d="M22.7,21.2h-4.5c-0.6,0-1-0.4-1-1s0.4-1,1-1h4.5c0.6,0,1,0.4,1,1S23.3,21.2,22.7,21.2z"/>
			<path class="st9" d="M20.5,27c-0.6,0-1-0.4-1-1v-5.8c0-0.6,0.4-1,1-1s1,0.4,1,1V26C21.5,26.5,21,27,20.5,27z"/>
			<path class="st9" d="M25.9,27c-0.6,0-1-0.4-1-1v-5.8c0-0.6,0.4-1,1-1s1,0.4,1,1V26C26.9,26.5,26.5,27,25.9,27z"/>
			<g>
				<path class="st9" d="M29.9,27c-0.6,0-1-0.4-1-1v-5.8c0-0.6,0.4-1,1-1s1,0.4,1,1V26C30.9,26.5,30.5,27,29.9,27z"/>
				<path class="st9" d="M32.2,24.7h-2.3c-0.6,0-1-0.4-1-1v-3.5c0-0.6,0.4-1,1-1h2.3c1.4,0,2.6,1.2,2.6,2.6v0.3
					C34.8,23.6,33.6,24.7,32.2,24.7z M30.9,22.7h1.3c0.3,0,0.6-0.3,0.6-0.6v-0.3c0-0.3-0.3-0.6-0.6-0.6h-1.3V22.7z"/>
			</g>
		</g>
	</g>
</g>
<g id="nyt_x5F_exporter_x5F_info" class="st29">
</g>
</svg>
