<?xml version="1.0" encoding="utf-8"?>
<!-- Generator: Adobe Illustrator 22.1.0, SVG Export Plug-In . SVG Version: 6.00 Build 0)  -->
<!DOCTYPE svg PUBLIC "-//W3C//DTD SVG 1.1//EN" "http://www.w3.org/Graphics/SVG/1.1/DTD/svg11.dtd">
<svg version="1.1" xmlns="http://www.w3.org/2000/svg" xmlns:xlink="http://www.w3.org/1999/xlink" x="0px" y="0px"
	 viewBox="0 0 50 40" style="enable-background:new 0 0 50 40;" xml:space="preserve">
<style type="text/css">
	.st0{fill:#DBF0F4;}
	.st1{fill:#194A77;}
	.st2{fill:#F69E24;}
	.st3{fill:#F7C6C9;}
	.st4{fill:#FFFFFF;}
	.st5{fill:#53BA82;}
	.st6{fill:#C12629;}
	.st7{fill:#FDBE13;}
	.st8{fill:none;stroke:#194A77;stroke-width:2;stroke-linecap:round;stroke-linejoin:round;stroke-miterlimit:10;}
	.st9{fill:#56C8E9;}
	.st10{fill:#1BB7EB;}
	.st11{fill:#4367B2;}
	.st12{fill:#FAAE28;}
	.st13{fill:#F89E28;}
	.st14{fill:#F68E27;}
	.st15{fill:#F47F25;}
	.st16{fill:#F26E24;}
	.st17{fill:#F05B24;}
	.st18{fill:#EE4524;}
	.st19{fill:#ED2724;}
	.st20{fill:#E62E35;}
	.st21{fill:#E03348;}
	.st22{fill:#DB3758;}
	.st23{fill:#D63B68;}
	.st24{fill:#D03D77;}
	.st25{fill:#CA4186;}
	.st26{fill:#C14397;}
	.st27{fill:#F05669;}
	.st28{fill:#F5887E;}
	.st29{display:none;}
	.st30{display:inline;}
</style>
<g id="Layer_1">
	<g>
		<polygon class="st0" points="40.3,10.8 10.8,34.5 40.3,34.5 		"/>
		<path class="st1" d="M42,35.5H8c-0.6,0-1-0.4-1-1V10.8c0-0.6,0.4-1,1-1s1,0.4,1,1v22.7h33c0.6,0,1,0.4,1,1S42.6,35.5,42,35.5z"/>
		<g>
			<path class="st5" d="M35.3,11.5c-0.6,0-1-0.4-1-1v-4h-4c-0.6,0-1-0.4-1-1s0.4-1,1-1h5c0.6,0,1,0.4,1,1v5
				C36.3,11.1,35.9,11.5,35.3,11.5z"/>
			<path class="st5" d="M12,27.8c-0.3,0-0.5-0.1-0.7-0.3c-0.4-0.4-0.3-1,0.1-1.4L34.7,4.8c0.4-0.4,1-0.3,1.4,0.1
				c0.4,0.4,0.3,1-0.1,1.4L12.7,27.5C12.5,27.7,12.3,27.8,12,27.8z"/>
		</g>
		<path class="st1" d="M35.3,20.6c-0.6,0-1-0.4-1-1v-5.2c0-0.6,0.4-1,1-1s1,0.4,1,1v5.2C36.3,20.1,35.9,20.6,35.3,20.6z"/>
		<path class="st1" d="M35.3,34.8c-0.6,0-1-0.4-1-1v-9.4c0-0.6,0.4-1,1-1s1,0.4,1,1v9.4C36.3,34.3,35.9,34.8,35.3,34.8z"/>
		<path class="st1" d="M25.3,25.4c-0.6,0-1-0.4-1-1v-2c0-0.6,0.4-1,1-1s1,0.4,1,1v2C26.3,25,25.9,25.4,25.3,25.4z"/>
		<path class="st1" d="M25.3,34.8c-0.6,0-1-0.4-1-1v-5.7c0-0.6,0.4-1,1-1s1,0.4,1,1v5.7C26.3,34.3,25.9,34.8,25.3,34.8z"/>
		<path class="st1" d="M15.3,34.8c-0.6,0-1-0.4-1-1v-3c0-0.6,0.4-1,1-1s1,0.4,1,1v3C16.3,34.3,15.9,34.8,15.3,34.8z"/>
		<path class="st1" d="M20.3,34.8c-0.6,0-1-0.4-1-1v-1.5c0-0.6,0.4-1,1-1s1,0.4,1,1v1.5C21.3,34.3,20.9,34.8,20.3,34.8z"/>
		<path class="st1" d="M20.3,29.1c-0.6,0-1-0.4-1-1v-1.3c0-0.6,0.4-1,1-1s1,0.4,1,1v1.3C21.3,28.7,20.9,29.1,20.3,29.1z"/>
		<path class="st1" d="M30.3,34.8c-0.6,0-1-0.4-1-1v-2.5c0-0.6,0.4-1,1-1s1,0.4,1,1v2.5C31.3,34.3,30.9,34.8,30.3,34.8z"/>
		<path class="st1" d="M30.3,27.8c-0.6,0-1-0.4-1-1v-9c0-0.6,0.4-1,1-1s1,0.4,1,1v9C31.3,27.3,30.9,27.8,30.3,27.8z"/>
		<path class="st1" d="M40.3,34.8c-0.6,0-1-0.4-1-1v-23c0-0.6,0.4-1,1-1s1,0.4,1,1v23C41.3,34.3,40.9,34.8,40.3,34.8z"/>
	</g>
</g>
<g id="nyt_x5F_exporter_x5F_info" class="st29">
</g>
</svg>
