<?xml version="1.0" encoding="utf-8"?>
<!-- Generator: Adobe Illustrator 22.1.0, SVG Export Plug-In . SVG Version: 6.00 Build 0)  -->
<!DOCTYPE svg PUBLIC "-//W3C//DTD SVG 1.1//EN" "http://www.w3.org/Graphics/SVG/1.1/DTD/svg11.dtd">
<svg version="1.1" xmlns="http://www.w3.org/2000/svg" xmlns:xlink="http://www.w3.org/1999/xlink" x="0px" y="0px"
	 viewBox="0 0 50 40" style="enable-background:new 0 0 50 40;" xml:space="preserve">
<style type="text/css">
	.st0{fill:#DBF0F4;}
	.st1{fill:#194A77;}
	.st2{fill:#F69E24;}
	.st3{fill:#F7C6C9;}
	.st4{fill:#FFFFFF;}
	.st5{fill:#53BA82;}
	.st6{fill:#C12629;}
	.st7{fill:#FDBE13;}
	.st8{fill:none;stroke:#194A77;stroke-width:2;stroke-linecap:round;stroke-linejoin:round;stroke-miterlimit:10;}
	.st9{fill:#56C8E9;}
	.st10{fill:#1BB7EB;}
	.st11{fill:#4367B2;}
	.st12{fill:#FAAE28;}
	.st13{fill:#F89E28;}
	.st14{fill:#F68E27;}
	.st15{fill:#F47F25;}
	.st16{fill:#F26E24;}
	.st17{fill:#F05B24;}
	.st18{fill:#EE4524;}
	.st19{fill:#ED2724;}
	.st20{fill:#E62E35;}
	.st21{fill:#E03348;}
	.st22{fill:#DB3758;}
	.st23{fill:#D63B68;}
	.st24{fill:#D03D77;}
	.st25{fill:#CA4186;}
	.st26{fill:#C14397;}
	.st27{fill:#F05669;}
	.st28{fill:#F5887E;}
	.st29{display:none;}
	.st30{display:inline;}
</style>
<g id="Layer_1">
	<g>
		<g>
			<g>
				<path class="st0" d="M21.1,29.5c0.7-0.6,1.6-1,2.6-1H26c0-0.1,0-0.2,0-0.3c0-2.6,1.3-5,3.2-6.4c-2.6,0.5-5.7,0.8-9.2,0.8
					c-11,0-18-2.7-18-6v7c0,3.3,7,6,18,6C20.4,29.5,20.7,29.5,21.1,29.5z"/>
			</g>
			<path class="st0" d="M38,9.5c0,3.3-7,6-18,6c-6.3,0-10-0.9-13.7-2.3c-1.6-0.6,5-4.5,15.7-5.5C29.5,7,38,8.7,38,9.5z"/>
			<path class="st1" d="M20,16.5c-11.4,0-19-2.8-19-7s7.6-7,19-7s19,2.8,19,7S31.4,16.5,20,16.5z M20,4.5c-11.7,0-17,2.9-17,5
				s5.3,5,17,5s17-2.9,17-5S31.7,4.5,20,4.5z"/>
			<path class="st1" d="M20,23.5c-11.4,0-19-2.8-19-7v-7c0-0.6,0.4-1,1-1s1,0.4,1,1v7c0,2.1,5.3,5,17,5c1.3,0,2.6,0,3.9-0.1
				c0.6,0,1,0.4,1.1,0.9c0,0.6-0.4,1-0.9,1.1C22.7,23.5,21.4,23.5,20,23.5z"/>
			<path class="st1" d="M38,17.5c-0.6,0-1-0.4-1-1v-7c0-0.6,0.4-1,1-1s1,0.4,1,1v7C39,17.1,38.6,17.5,38,17.5z"/>
			<path class="st1" d="M14.5,37.3C14.5,37.3,14.5,37.3,14.5,37.3C6,36.5,1,33.9,1,30.5v-7c0-0.6,0.4-1,1-1s1,0.4,1,1v7
				c0,1.8,4,4,11.6,4.8c0.5,0.1,1,0.5,0.9,1.1C15.5,36.9,15,37.3,14.5,37.3z"/>
			<path class="st1" d="M15.6,30.3C15.6,30.3,15.6,30.3,15.6,30.3C6.6,29.7,1,27.1,1,23.5v-7c0-0.6,0.4-1,1-1s1,0.4,1,1v7
				c0,2,4.4,4.3,12.7,4.9c0.6,0,1,0.5,0.9,1.1C16.6,29.9,16.1,30.3,15.6,30.3z"/>
		</g>
		<path class="st9" d="M43,37.5H23.7c-2.8,0-5-2.2-5-5s2.2-5,5-5H25c0.3-4.7,4.2-8.3,9-8.3c4,0,7.4,2.6,8.6,6.3H43c3.3,0,6,2.7,6,6
			S46.3,37.5,43,37.5z M23.7,29.5c-1.7,0-3,1.3-3,3s1.3,3,3,3H43c2.2,0,4-1.8,4-4s-1.8-4-4-4h-1.2c-0.5,0-0.9-0.3-1-0.8
			c-0.7-3.2-3.6-5.6-6.8-5.6c-3.9,0-7,3.1-7,7l0,0.3c0,0.3-0.1,0.5-0.3,0.7c-0.2,0.2-0.4,0.3-0.7,0.3H23.7z"/>
	</g>
</g>
<g id="nyt_x5F_exporter_x5F_info" class="st29">
</g>
</svg>
