<?xml version="1.0" encoding="utf-8"?>
<!-- Generator: Adobe Illustrator 22.1.0, SVG Export Plug-In . SVG Version: 6.00 Build 0)  -->
<!DOCTYPE svg PUBLIC "-//W3C//DTD SVG 1.1//EN" "http://www.w3.org/Graphics/SVG/1.1/DTD/svg11.dtd">
<svg version="1.1" xmlns="http://www.w3.org/2000/svg" xmlns:xlink="http://www.w3.org/1999/xlink" x="0px" y="0px"
	 viewBox="0 0 50 40" style="enable-background:new 0 0 50 40;" xml:space="preserve">
<style type="text/css">
	.st0{fill:#DBF0F4;}
	.st1{fill:#194A77;}
	.st2{fill:#F69E24;}
	.st3{fill:#F7C6C9;}
	.st4{fill:#FFFFFF;}
	.st5{fill:#53BA82;}
	.st6{fill:#C12629;}
	.st7{fill:#FDBE13;}
	.st8{fill:none;stroke:#194A77;stroke-width:2;stroke-linecap:round;stroke-linejoin:round;stroke-miterlimit:10;}
	.st9{fill:#56C8E9;}
	.st10{fill:#1BB7EB;}
	.st11{fill:#4367B2;}
	.st12{fill:#FAAE28;}
	.st13{fill:#F89E28;}
	.st14{fill:#F68E27;}
	.st15{fill:#F47F25;}
	.st16{fill:#F26E24;}
	.st17{fill:#F05B24;}
	.st18{fill:#EE4524;}
	.st19{fill:#ED2724;}
	.st20{fill:#E62E35;}
	.st21{fill:#E03348;}
	.st22{fill:#DB3758;}
	.st23{fill:#D63B68;}
	.st24{fill:#D03D77;}
	.st25{fill:#CA4186;}
	.st26{fill:#C14397;}
	.st27{fill:#F05669;}
	.st28{fill:#F5887E;}
	.st29{display:none;}
	.st30{display:inline;}
	.st31{font-family:'MyriadPro-Regular';}
	.st32{font-size:12px;}
</style>
<g id="Layer_1">
	<g>
		<g>
			<path class="st3" d="M24.5,20V9c0,0,0,0,0,0c-3,0-5.8,1.2-7.8,3.2L24.5,20z"/>
			<path class="st1" d="M24.5,21c-0.6,0-1-0.4-1-1V9.7c0-0.6,0.4-1,1-1s1,0.4,1,1V20C25.5,20.6,25.1,21,24.5,21z"/>
			<path class="st1" d="M24.5,21c-0.3,0-0.5-0.1-0.7-0.3l-4-4c-0.4-0.4-0.4-1,0-1.4c0.4-0.4,1-0.4,1.4,0l4,4c0.4,0.4,0.4,1,0,1.4
				C25,20.9,24.8,21,24.5,21z"/>
			<circle class="st1" cx="24.5" cy="20" r="2.4"/>
			<circle class="st4" cx="24.5" cy="20" r="1"/>
			<g>
				<path class="st1" d="M24.5,7.4c-0.6,0-1-0.4-1-1V3.7c0-0.6,0.4-1,1-1s1,0.4,1,1v2.7C25.5,6.9,25.1,7.4,24.5,7.4z"/>
				<g>
					<path class="st1" d="M10.9,21H8.2c-0.6,0-1-0.4-1-1s0.4-1,1-1h2.7c0.6,0,1,0.4,1,1S11.4,21,10.9,21z"/>
					<path class="st1" d="M40.8,21h-2.7c-0.6,0-1-0.4-1-1s0.4-1,1-1h2.7c0.6,0,1,0.4,1,1S41.3,21,40.8,21z"/>
				</g>
				<path class="st1" d="M14.9,11.4c-0.3,0-0.5-0.1-0.7-0.3l-1.9-1.9c-0.4-0.4-0.4-1,0-1.4s1-0.4,1.4,0l1.9,1.9c0.4,0.4,0.4,1,0,1.4
					C15.4,11.3,15.1,11.4,14.9,11.4z"/>
				<g>
					<path class="st1" d="M13,32.5c-0.3,0-0.5-0.1-0.7-0.3c-0.4-0.4-0.4-1,0-1.4l1.9-1.9c0.4-0.4,1-0.4,1.4,0s0.4,1,0,1.4l-1.9,1.9
						C13.5,32.4,13.2,32.5,13,32.5z"/>
					<path class="st1" d="M34.1,11.4c-0.3,0-0.5-0.1-0.7-0.3c-0.4-0.4-0.4-1,0-1.4l1.9-1.9c0.4-0.4,1-0.4,1.4,0s0.4,1,0,1.4
						l-1.9,1.9C34.6,11.3,34.4,11.4,34.1,11.4z"/>
				</g>
			</g>
			<path class="st1" d="M15.7,35.6c-0.2,0-0.4,0-0.5-0.1C9.7,32.1,6.5,26.4,6.5,20c0-9.9,8.1-18,18-18s18,8.1,18,18
				c0,2.2-0.4,4.3-1.1,6.3c-0.2,0.5-0.8,0.8-1.3,0.6c-0.5-0.2-0.8-0.8-0.6-1.3c0.7-1.8,1-3.7,1-5.6c0-8.8-7.2-16-16-16
				s-16,7.2-16,16c0,5.6,2.9,10.8,7.7,13.7c0.5,0.3,0.6,0.9,0.3,1.4C16.4,35.4,16,35.6,15.7,35.6z"/>
		</g>
		<path class="st6" d="M42.5,38h-22c-0.4,0-0.7-0.2-0.9-0.5c-0.2-0.3-0.2-0.7,0-1l11-18c0.4-0.6,1.3-0.6,1.7,0l11,18
			c0.2,0.3,0.2,0.7,0,1C43.2,37.8,42.9,38,42.5,38z M22.3,36h18.4l-9.2-15.1L22.3,36z"/>
		<path class="st6" d="M31.5,31c-0.6,0-1-0.4-1-1v-4c0-0.6,0.4-1,1-1s1,0.4,1,1v4C32.5,30.6,32.1,31,31.5,31z"/>
		<circle class="st6" cx="31.5" cy="33" r="1"/>
	</g>
</g>
<g id="nyt_x5F_exporter_x5F_info" class="st29">
	<text transform="matrix(1 0 0 1 -60 -100)" class="st30"><tspan x="0" y="0" class="st31 st32">&lt;nyt_prefs&gt;</tspan><tspan x="0" y="14.4" class="st31 st32">  &lt;nyt_prefix/&gt;</tspan><tspan x="0" y="28.8" class="st31 st32">  &lt;nyt_suffix/&gt;</tspan><tspan x="0" y="43.2" class="st31 st32">  &lt;nyt_base_path&gt;~/Desktop&lt;/nyt_base_path&gt;</tspan><tspan x="0" y="57.6" class="st31 st32">  &lt;nyt_scaling&gt;100%&lt;/nyt_scaling&gt;</tspan><tspan x="0" y="72" class="st31 st32">  &lt;nyt_transparency&gt;true&lt;/nyt_transparency&gt;</tspan><tspan x="0" y="86.4" class="st31 st32">  &lt;nyt_format&gt;PNG 24&lt;/nyt_format&gt;</tspan><tspan x="0" y="100.8" class="st31 st32">  &lt;nyt_export_code&gt;artboards&lt;/nyt_export_code&gt;</tspan><tspan x="0" y="115.2" class="st31 st32">&lt;/nyt_prefs&gt;</tspan></text>
</g>
</svg>
