<?xml version="1.0" encoding="utf-8"?>
<!-- Generator: Adobe Illustrator 22.1.0, SVG Export Plug-In . SVG Version: 6.00 Build 0)  -->
<!DOCTYPE svg PUBLIC "-//W3C//DTD SVG 1.1//EN" "http://www.w3.org/Graphics/SVG/1.1/DTD/svg11.dtd">
<svg version="1.1" xmlns="http://www.w3.org/2000/svg" xmlns:xlink="http://www.w3.org/1999/xlink" x="0px" y="0px"
	 viewBox="0 0 50 40" style="enable-background:new 0 0 50 40;" xml:space="preserve">
<style type="text/css">
	.st0{fill:#DBF0F4;}
	.st1{fill:#194A77;}
	.st2{fill:#F69E24;}
	.st3{fill:#F7C6C9;}
	.st4{fill:#FFFFFF;}
	.st5{fill:#53BA82;}
	.st6{fill:#C12629;}
	.st7{fill:#FDBE13;}
	.st8{fill:none;stroke:#194A77;stroke-width:2;stroke-linecap:round;stroke-linejoin:round;stroke-miterlimit:10;}
	.st9{fill:#56C8E9;}
	.st10{fill:#1BB7EB;}
	.st11{fill:#4367B2;}
	.st12{fill:#FAAE28;}
	.st13{fill:#F89E28;}
	.st14{fill:#F68E27;}
	.st15{fill:#F47F25;}
	.st16{fill:#F26E24;}
	.st17{fill:#F05B24;}
	.st18{fill:#EE4524;}
	.st19{fill:#ED2724;}
	.st20{fill:#E62E35;}
	.st21{fill:#E03348;}
	.st22{fill:#DB3758;}
	.st23{fill:#D63B68;}
	.st24{fill:#D03D77;}
	.st25{fill:#CA4186;}
	.st26{fill:#C14397;}
	.st27{fill:#F05669;}
	.st28{fill:#F5887E;}
	.st29{display:none;}
	.st30{display:inline;}
</style>
<g id="Layer_1">
	<g>
		<g>
			<path class="st0" d="M18,37.7c0-0.3-0.3-3.6-0.1-3.8c0.2-0.2,0.6-0.3,0.9-0.2l2,0.1l0.1-4.9c-2.6-2.1-4.9-5.9-5-9.1
				c-0.7-1.3-3.3-8.1-1.7-13.5C10.4,9.7,7,15.6,7,21.1c0,6.9,3.9,12.8,9.5,15.8L18,37.7z"/>
			<path class="st0" d="M36.9,7.6c0.1,0.3-1.4-1-1.4-0.7c0.9,7.5-0.9,11.2-2.2,12.1v2.5c0,3.4-1.5,6.4-3.9,8.1v4.1l2.4,0.1
				c0.3-0.1,0.4-0.2,0.6,0c0.2,0.2,0,2.8,0,3.2h1.1c5.7-3,9.5-9,9.5-15.8C43,15.7,40.6,10.9,36.9,7.6z"/>
		</g>
		<g>
			<g>
				<path class="st1" d="M29.4,31.6c-0.6,0-1-0.4-1-1v-1.7c0-0.6,0.4-1,1-1s1,0.4,1,1v1.7C30.4,31.2,29.9,31.6,29.4,31.6z"/>
				<path class="st1" d="M20.8,32.7c-0.6,0-1-0.4-1-1v-2.8c0-0.6,0.4-1,1-1s1,0.4,1,1v2.8C21.8,32.3,21.4,32.7,20.8,32.7z"/>
				<path class="st1" d="M25.1,30.9c-5.5,0-9.7-5.7-9.7-10.9c0-0.6,0.4-1,1-1s1,0.4,1,1c0,4.1,3.3,8.9,7.7,8.9c4.2,0,7.1-3,7.1-7.3
					c0-0.6,0.4-1,1-1s1,0.4,1,1C34.3,27,30.4,30.9,25.1,30.9z"/>
				<path class="st1" d="M16.5,21.1c-0.4,0-0.7-0.2-0.9-0.5c-0.3-0.5-6.4-11.3,0.4-17.4c2.6-2.3,5.3-3.3,8-3.2
					c3.5,0.2,6.1,2.4,6.9,3.2c0,0,0,0,0,0c2.1,0,5.4,1,5.9,5.1c1.1,9.6-2.9,11-3.4,11.2c-0.3,0.1-0.6,0-0.9-0.2s-0.4-0.5-0.4-0.8
					c0-6-1.4-8-2.2-8.7c-2.2,3-6,2.9-7.9,2.4c0,0-0.3-0.1-0.9-0.1c-0.9,0-2.4,0.2-2.9,1.4c-0.8,1.7-0.9,5.2-0.9,6.4
					c0,0.5-0.3,0.9-0.7,1C16.7,21.1,16.6,21.1,16.5,21.1z M29.7,7.6c0,0,0.1,0,0.1,0c0.4,0.1,3.9,0.7,4.4,8.7
					c0.7-1.2,1.2-3.5,0.7-7.7c-0.4-3.6-3.9-3.4-4.2-3.4c-0.3,0-0.6-0.1-0.8-0.3l0,0c-0.2-0.3-5.7-6.3-12.5-0.2
					c-3.4,3-2.7,7.8-1.6,11.2c0.2-1.1,0.4-2.1,0.8-3c1.5-3.4,5.9-2.5,6.1-2.5c0.2,0.1,4.4,1.1,6.1-2.2C29,7.8,29.3,7.6,29.7,7.6z"/>
			</g>
			<path class="st1" d="M25.1,25.9c-1.3,0-2.7-0.4-3.8-1.1c-0.5-0.3-0.6-0.9-0.3-1.4c0.3-0.5,0.9-0.6,1.4-0.3
				c1.6,1.1,3.7,1.1,5.3,0.1l0.1-0.1c0.5-0.3,1.1-0.2,1.4,0.3c0.3,0.5,0.2,1.1-0.3,1.4l-0.1,0.1C27.7,25.6,26.4,25.9,25.1,25.9z"/>
		</g>
		<g>
			<path class="st9" d="M27,39.4h-4.2c-0.6,0-1-0.4-1-1v-4.2c0-0.6,0.4-1,1-1H27c0.6,0,1,0.4,1,1v4.2C28,39,27.5,39.4,27,39.4z
				 M23.7,37.4H26v-2.2h-2.2V37.4z"/>
			<path class="st9" d="M17.6,40c-0.2,0-0.5-0.1-0.6-0.2c-0.2-0.2-0.4-0.5-0.4-0.8v-5.3c0-0.3,0.1-0.6,0.4-0.8s0.5-0.3,0.8-0.2
				l5.3,1.1c0.5,0.1,0.8,0.5,0.8,1v3.2c0,0.5-0.3,0.9-0.8,1L17.8,40C17.7,40,17.7,40,17.6,40z M22.9,37.9L22.9,37.9L22.9,37.9z
				 M18.6,34.9v2.8l3.3-0.7v-1.5L18.6,34.9z"/>
			<path class="st9" d="M32.4,40c-0.1,0-0.1,0-0.2,0l-5.3-1.1c-0.5-0.1-0.8-0.5-0.8-1v-3.2c0-0.5,0.3-0.9,0.8-1l5.3-1.1
				c0.3-0.1,0.6,0,0.8,0.2c0.2,0.2,0.4,0.5,0.4,0.8V39c0,0.3-0.1,0.6-0.4,0.8C32.9,39.9,32.6,40,32.4,40z M28.1,37.1l3.3,0.7v-2.8
				l-3.3,0.7V37.1z"/>
		</g>
		<g>
			<path class="st1" d="M13.9,36.2c-0.2,0-0.4-0.1-0.6-0.2c-5.6-4.4-8.3-11.4-7-18.4c0.5-2.5,1.4-4.9,2.8-7c0.3-0.5,0.9-0.6,1.4-0.3
				c0.5,0.3,0.6,0.9,0.3,1.4c-1.3,1.9-2.1,4-2.5,6.2c-1.2,6.2,1.2,12.5,6.2,16.4c0.4,0.3,0.5,1,0.2,1.4
				C14.5,36.1,14.2,36.2,13.9,36.2z"/>
			<path class="st1" d="M36.2,36.1c-0.3,0-0.6-0.1-0.8-0.4c-0.3-0.4-0.3-1.1,0.2-1.4c3.2-2.5,5.4-6.2,6.1-10.2
				c0.8-4.4-0.1-9-2.7-12.7c-0.3-0.5-0.2-1.1,0.3-1.4c0.5-0.3,1.1-0.2,1.4,0.3c2.9,4.2,3.9,9.2,3,14.2c-0.8,4.5-3.3,8.5-6.9,11.4
				C36.6,36,36.4,36.1,36.2,36.1z"/>
		</g>
	</g>
</g>
<g id="nyt_x5F_exporter_x5F_info" class="st29">
</g>
</svg>
