<?xml version="1.0" encoding="utf-8"?>
<!-- Generator: Adobe Illustrator 22.1.0, SVG Export Plug-In . SVG Version: 6.00 Build 0)  -->
<!DOCTYPE svg PUBLIC "-//W3C//DTD SVG 1.1//EN" "http://www.w3.org/Graphics/SVG/1.1/DTD/svg11.dtd">
<svg version="1.1" xmlns="http://www.w3.org/2000/svg" xmlns:xlink="http://www.w3.org/1999/xlink" x="0px" y="0px"
	 viewBox="0 0 50 40" style="enable-background:new 0 0 50 40;" xml:space="preserve">
<style type="text/css">
	.st0{fill:#DBF0F4;}
	.st1{fill:#194A77;}
	.st2{fill:#F69E24;}
	.st3{fill:#F7C6C9;}
	.st4{fill:#FFFFFF;}
	.st5{fill:#53BA82;}
	.st6{fill:#C12629;}
	.st7{fill:#FDBE13;}
	.st8{fill:none;stroke:#194A77;stroke-width:2;stroke-linecap:round;stroke-linejoin:round;stroke-miterlimit:10;}
	.st9{fill:#56C8E9;}
	.st10{fill:#1BB7EB;}
	.st11{fill:#4367B2;}
	.st12{fill:#FAAE28;}
	.st13{fill:#F89E28;}
	.st14{fill:#F68E27;}
	.st15{fill:#F47F25;}
	.st16{fill:#F26E24;}
	.st17{fill:#F05B24;}
	.st18{fill:#EE4524;}
	.st19{fill:#ED2724;}
	.st20{fill:#E62E35;}
	.st21{fill:#E03348;}
	.st22{fill:#DB3758;}
	.st23{fill:#D63B68;}
	.st24{fill:#D03D77;}
	.st25{fill:#CA4186;}
	.st26{fill:#C14397;}
	.st27{fill:#F05669;}
	.st28{fill:#F5887E;}
	.st29{display:none;}
	.st30{display:inline;}
	.st31{font-family:'MyriadPro-Regular';}
	.st32{font-size:12px;}
</style>
<g id="Layer_1">
	<g>
		<path class="st7" d="M33.1,27.8L25,20v11.2C28.2,31.2,31,29.9,33.1,27.8z"/>
		<path class="st0" d="M33.1,27.8c1.9-2,3.1-4.7,3.1-7.8c0-6.2-5-11.2-11.2-11.2V20L33.1,27.8z"/>
		<path class="st1" d="M25,21c-0.6,0-1-0.4-1-1V9.7c0-0.6,0.4-1,1-1s1,0.4,1,1V20C26,20.6,25.6,21,25,21z"/>
		<path class="st1" d="M30.4,26.4c-0.3,0-0.5-0.1-0.7-0.3l-5.4-5.4c-0.4-0.4-0.4-1,0-1.4s1-0.4,1.4,0l5.4,5.4c0.4,0.4,0.4,1,0,1.4
			C30.9,26.3,30.6,26.4,30.4,26.4z"/>
		<circle class="st1" cx="25" cy="20" r="2.4"/>
		<circle class="st4" cx="25" cy="20" r="1"/>
		<g>
			<path class="st1" d="M25,37.3c-0.6,0-1-0.4-1-1v-2.7c0-0.6,0.4-1,1-1s1,0.4,1,1v2.7C26,36.8,25.6,37.3,25,37.3z"/>
			<path class="st1" d="M25,7.4c-0.6,0-1-0.4-1-1V3.7c0-0.6,0.4-1,1-1s1,0.4,1,1v2.7C26,6.9,25.6,7.4,25,7.4z"/>
			<g>
				<path class="st1" d="M11.4,21H8.7c-0.6,0-1-0.4-1-1s0.4-1,1-1h2.7c0.6,0,1,0.4,1,1S11.9,21,11.4,21z"/>
				<path class="st1" d="M41.3,21h-2.7c-0.6,0-1-0.4-1-1s0.4-1,1-1h2.7c0.6,0,1,0.4,1,1S41.8,21,41.3,21z"/>
			</g>
			<g>
				<path class="st1" d="M36.5,32.5c-0.3,0-0.5-0.1-0.7-0.3l-1.9-1.9c-0.4-0.4-0.4-1,0-1.4s1-0.4,1.4,0l1.9,1.9c0.4,0.4,0.4,1,0,1.4
					C37,32.4,36.8,32.5,36.5,32.5z"/>
				<path class="st1" d="M15.4,11.4c-0.3,0-0.5-0.1-0.7-0.3l-1.9-1.9c-0.4-0.4-0.4-1,0-1.4s1-0.4,1.4,0l1.9,1.9c0.4,0.4,0.4,1,0,1.4
					C15.9,11.3,15.6,11.4,15.4,11.4z"/>
				<g>
					<path class="st1" d="M13.5,32.5c-0.3,0-0.5-0.1-0.7-0.3c-0.4-0.4-0.4-1,0-1.4l1.9-1.9c0.4-0.4,1-0.4,1.4,0s0.4,1,0,1.4
						l-1.9,1.9C14,32.4,13.7,32.5,13.5,32.5z"/>
					<path class="st1" d="M34.6,11.4c-0.3,0-0.5-0.1-0.7-0.3c-0.4-0.4-0.4-1,0-1.4l1.9-1.9c0.4-0.4,1-0.4,1.4,0s0.4,1,0,1.4
						l-1.9,1.9C35.1,11.3,34.9,11.4,34.6,11.4z"/>
				</g>
			</g>
		</g>
		<path class="st1" d="M25,4c8.8,0,16,7.2,16,16s-7.2,16-16,16S9,28.8,9,20S16.2,4,25,4 M25,2C15.1,2,7,10.1,7,20s8.1,18,18,18
			s18-8.1,18-18S34.9,2,25,2L25,2z"/>
	</g>
</g>
<g id="nyt_x5F_exporter_x5F_info" class="st29">
	<text transform="matrix(1 0 0 1 0 -50)" class="st30"><tspan x="0" y="0" class="st31 st32">&lt;nyt_prefs&gt;</tspan><tspan x="0" y="14.4" class="st31 st32">  &lt;nyt_prefix/&gt;</tspan><tspan x="0" y="28.8" class="st31 st32">  &lt;nyt_suffix/&gt;</tspan><tspan x="0" y="43.2" class="st31 st32">  &lt;nyt_base_path&gt;~/Desktop&lt;/nyt_base_path&gt;</tspan><tspan x="0" y="57.6" class="st31 st32">  &lt;nyt_scaling&gt;100%&lt;/nyt_scaling&gt;</tspan><tspan x="0" y="72" class="st31 st32">  &lt;nyt_transparency&gt;true&lt;/nyt_transparency&gt;</tspan><tspan x="0" y="86.4" class="st31 st32">  &lt;nyt_format&gt;PNG 24&lt;/nyt_format&gt;</tspan><tspan x="0" y="100.8" class="st31 st32">  &lt;nyt_export_code&gt;artboards&lt;/nyt_export_code&gt;</tspan><tspan x="0" y="115.2" class="st31 st32">&lt;/nyt_prefs&gt;</tspan></text>
</g>
</svg>
