<?xml version="1.0" encoding="utf-8"?>
<!-- Generator: Adobe Illustrator 22.1.0, SVG Export Plug-In . SVG Version: 6.00 Build 0)  -->
<!DOCTYPE svg PUBLIC "-//W3C//DTD SVG 1.1//EN" "http://www.w3.org/Graphics/SVG/1.1/DTD/svg11.dtd">
<svg version="1.1" xmlns="http://www.w3.org/2000/svg" xmlns:xlink="http://www.w3.org/1999/xlink" x="0px" y="0px"
	 viewBox="0 0 50 40" style="enable-background:new 0 0 50 40;" xml:space="preserve">
<style type="text/css">
	.st0{fill:#DBF0F4;}
	.st1{fill:#194A77;}
	.st2{fill:#F69E24;}
	.st3{fill:#F7C6C9;}
	.st4{fill:#FFFFFF;}
	.st5{fill:#53BA82;}
	.st6{fill:#C12629;}
	.st7{fill:#FDBE13;}
	.st8{fill:none;stroke:#194A77;stroke-width:2;stroke-linecap:round;stroke-linejoin:round;stroke-miterlimit:10;}
	.st9{fill:#56C8E9;}
	.st10{fill:#1BB7EB;}
	.st11{fill:#4367B2;}
	.st12{fill:#FAAE28;}
	.st13{fill:#F89E28;}
	.st14{fill:#F68E27;}
	.st15{fill:#F47F25;}
	.st16{fill:#F26E24;}
	.st17{fill:#F05B24;}
	.st18{fill:#EE4524;}
	.st19{fill:#ED2724;}
	.st20{fill:#E62E35;}
	.st21{fill:#E03348;}
	.st22{fill:#DB3758;}
	.st23{fill:#D63B68;}
	.st24{fill:#D03D77;}
	.st25{fill:#CA4186;}
	.st26{fill:#C14397;}
	.st27{fill:#F05669;}
	.st28{fill:#F5887E;}
	.st29{display:none;}
	.st30{display:inline;}
	.st31{font-family:'MyriadPro-Regular';}
	.st32{font-size:12px;}
</style>
<g id="Layer_1">
	<g>
		<polygon class="st0" points="7.5,33.5 32.5,3.5 32.5,17.7 22.5,17.7 22.5,33.5 		"/>
		<path class="st1" d="M32.5,14.9c-0.6,0-1-0.4-1-1v-1.5c0-0.6,0.4-1,1-1s1,0.4,1,1v1.5C33.5,14.5,33.1,14.9,32.5,14.9z"/>
		<path class="st1" d="M18.5,34.5h-11c-0.6,0-1-0.4-1-1v-30c0-0.6,0.4-1,1-1h25c0.6,0,1,0.4,1,1v4.9c0,0.6-0.4,1-1,1s-1-0.4-1-1V4.5
			h-23v28h10c0.6,0,1,0.4,1,1S19.1,34.5,18.5,34.5z"/>
		<path class="st1" d="M28,8.6h-5.7c-0.6,0-1-0.4-1-1s0.4-1,1-1H28c0.6,0,1,0.4,1,1S28.6,8.6,28,8.6z"/>
		<g>
			<path class="st1" d="M18.5,18.7H12c-0.6,0-1-0.4-1-1s0.4-1,1-1h6.5c0.6,0,1,0.4,1,1S19.1,18.7,18.5,18.7z"/>
			<path class="st1" d="M18.5,22.8H12c-0.6,0-1-0.4-1-1s0.4-1,1-1h6.5c0.6,0,1,0.4,1,1S19.1,22.8,18.5,22.8z"/>
			<path class="st1" d="M18.5,26.9H12c-0.6,0-1-0.4-1-1s0.4-1,1-1h6.5c0.6,0,1,0.4,1,1S19.1,26.9,18.5,26.9z"/>
		</g>
		<path class="st1" d="M28,11.6h-3.7c-0.6,0-1-0.4-1-1s0.4-1,1-1H28c0.6,0,1,0.4,1,1S28.6,11.6,28,11.6z"/>
		<g>
			<path class="st1" d="M27.5,19.7c-0.6,0-1-0.4-1-1v-2c0-0.6,0.4-1,1-1s1,0.4,1,1v2C28.5,19.3,28.1,19.7,27.5,19.7z"/>
			<path class="st1" d="M37.5,19.7c-0.6,0-1-0.4-1-1v-2c0-0.6,0.4-1,1-1s1,0.4,1,1v2C38.5,19.3,38.1,19.7,37.5,19.7z"/>
			<path class="st7" d="M35,18.7h-5c-0.6,0-1-0.4-1-1s0.4-1,1-1h5c0.6,0,1,0.4,1,1S35.6,18.7,35,18.7z"/>
			<path class="st1" d="M42.5,37.5h-20c-0.6,0-1-0.4-1-1V25.3c0-0.6,0.4-1,1-1s1,0.4,1,1v10.2h18V25.3c0-0.6,0.4-1,1-1s1,0.4,1,1
				v11.2C43.5,37.1,43.1,37.5,42.5,37.5z"/>
			<path class="st7" d="M42.5,23.3h-20c-0.6,0-1-0.4-1-1v-4.6c0-0.6,0.4-1,1-1H25c0.6,0,1,0.4,1,1s-0.4,1-1,1h-1.5v2.6h18v-2.6H40
				c-0.6,0-1-0.4-1-1s0.4-1,1-1h2.5c0.6,0,1,0.4,1,1v4.6C43.5,22.8,43.1,23.3,42.5,23.3z"/>
			<path class="st1" d="M27,26.8h-1c-0.6,0-1-0.4-1-1s0.4-1,1-1h1c0.6,0,1,0.4,1,1S27.6,26.8,27,26.8z"/>
			<path class="st1" d="M27,30.4h-1c-0.6,0-1-0.4-1-1s0.4-1,1-1h1c0.6,0,1,0.4,1,1S27.6,30.4,27,30.4z"/>
			<path class="st1" d="M27,33.9h-1c-0.6,0-1-0.4-1-1s0.4-1,1-1h1c0.6,0,1,0.4,1,1S27.6,33.9,27,33.9z"/>
			<path class="st1" d="M31,26.8h-1c-0.6,0-1-0.4-1-1s0.4-1,1-1h1c0.6,0,1,0.4,1,1S31.6,26.8,31,26.8z"/>
			<path class="st1" d="M31,30.4h-1c-0.6,0-1-0.4-1-1s0.4-1,1-1h1c0.6,0,1,0.4,1,1S31.6,30.4,31,30.4z"/>
			<path class="st1" d="M31,33.9h-1c-0.6,0-1-0.4-1-1s0.4-1,1-1h1c0.6,0,1,0.4,1,1S31.6,33.9,31,33.9z"/>
			<path class="st1" d="M35,26.8h-1c-0.6,0-1-0.4-1-1s0.4-1,1-1h1c0.6,0,1,0.4,1,1S35.6,26.8,35,26.8z"/>
			<path class="st1" d="M35,30.4h-1c-0.6,0-1-0.4-1-1s0.4-1,1-1h1c0.6,0,1,0.4,1,1S35.6,30.4,35,30.4z"/>
			<path class="st1" d="M35,33.9h-1c-0.6,0-1-0.4-1-1s0.4-1,1-1h1c0.6,0,1,0.4,1,1S35.6,33.9,35,33.9z"/>
			<path class="st1" d="M39,26.8h-1c-0.6,0-1-0.4-1-1s0.4-1,1-1h1c0.6,0,1,0.4,1,1S39.6,26.8,39,26.8z"/>
			<path class="st1" d="M39,30.4h-1c-0.6,0-1-0.4-1-1s0.4-1,1-1h1c0.6,0,1,0.4,1,1S39.6,30.4,39,30.4z"/>
		</g>
	</g>
</g>
<g id="nyt_x5F_exporter_x5F_info" class="st29">
	<text class="st30"><tspan x="0" y="0" class="st31 st32">&lt;nyt_prefs&gt;</tspan><tspan x="0" y="14.4" class="st31 st32">  &lt;nyt_prefix/&gt;</tspan><tspan x="0" y="28.8" class="st31 st32">  &lt;nyt_suffix/&gt;</tspan><tspan x="0" y="43.2" class="st31 st32">  &lt;nyt_base_path&gt;~/Desktop&lt;/nyt_base_path&gt;</tspan><tspan x="0" y="57.6" class="st31 st32">  &lt;nyt_scaling&gt;100%&lt;/nyt_scaling&gt;</tspan><tspan x="0" y="72" class="st31 st32">  &lt;nyt_transparency&gt;true&lt;/nyt_transparency&gt;</tspan><tspan x="0" y="86.4" class="st31 st32">  &lt;nyt_format&gt;PNG 24&lt;/nyt_format&gt;</tspan><tspan x="0" y="100.8" class="st31 st32">  &lt;nyt_export_code&gt;artboards&lt;/nyt_export_code&gt;</tspan><tspan x="0" y="115.2" class="st31 st32">&lt;/nyt_prefs&gt;</tspan></text>
</g>
</svg>
