<?xml version="1.0" encoding="utf-8"?>
<!-- Generator: Adobe Illustrator 22.1.0, SVG Export Plug-In . SVG Version: 6.00 Build 0)  -->
<!DOCTYPE svg PUBLIC "-//W3C//DTD SVG 1.1//EN" "http://www.w3.org/Graphics/SVG/1.1/DTD/svg11.dtd">
<svg version="1.1" xmlns="http://www.w3.org/2000/svg" xmlns:xlink="http://www.w3.org/1999/xlink" x="0px" y="0px"
	 viewBox="0 0 50 40" style="enable-background:new 0 0 50 40;" xml:space="preserve">
<style type="text/css">
	.st0{fill:#DBF0F4;}
	.st1{fill:#194A77;}
	.st2{fill:#F69E24;}
	.st3{fill:#F7C6C9;}
	.st4{fill:#FFFFFF;}
	.st5{fill:#53BA82;}
	.st6{fill:#C12629;}
	.st7{fill:#FDBE13;}
	.st8{fill:none;stroke:#194A77;stroke-width:2;stroke-linecap:round;stroke-linejoin:round;stroke-miterlimit:10;}
	.st9{fill:#56C8E9;}
	.st10{fill:#1BB7EB;}
	.st11{fill:#4367B2;}
	.st12{fill:#FAAE28;}
	.st13{fill:#F89E28;}
	.st14{fill:#F68E27;}
	.st15{fill:#F47F25;}
	.st16{fill:#F26E24;}
	.st17{fill:#F05B24;}
	.st18{fill:#EE4524;}
	.st19{fill:#ED2724;}
	.st20{fill:#E62E35;}
	.st21{fill:#E03348;}
	.st22{fill:#DB3758;}
	.st23{fill:#D63B68;}
	.st24{fill:#D03D77;}
	.st25{fill:#CA4186;}
	.st26{fill:#C14397;}
	.st27{fill:#F05669;}
	.st28{fill:#F5887E;}
	.st29{display:none;}
	.st30{display:inline;}
</style>
<g id="Layer_1">
	<g>
		<rect x="8" y="4" class="st0" width="8" height="8"/>
		<path class="st1" d="M16,13H8c-0.6,0-1-0.4-1-1V4c0-0.6,0.4-1,1-1h8c0.6,0,1,0.4,1,1v8C17,12.6,16.6,13,16,13z M9,11h6V5H9V11z"/>
		<rect x="8" y="28" class="st0" width="8" height="8"/>
		<path class="st1" d="M16,37H8c-0.6,0-1-0.4-1-1v-8c0-0.6,0.4-1,1-1h8c0.6,0,1,0.4,1,1v8C17,36.6,16.6,37,16,37z M9,35h6v-6H9V35z"
			/>
		<g>
			<path class="st1" d="M32,11H20c-0.6,0-1-0.4-1-1s0.4-1,1-1h12c0.6,0,1,0.4,1,1S32.6,11,32,11z"/>
			<path class="st1" d="M42,7H20c-0.6,0-1-0.4-1-1s0.4-1,1-1h22c0.6,0,1,0.4,1,1S42.6,7,42,7z"/>
		</g>
		<g>
			<path class="st1" d="M26,23h-6c-0.6,0-1-0.4-1-1s0.4-1,1-1h6c0.6,0,1,0.4,1,1S26.6,23,26,23z"/>
			<path class="st1" d="M42,19H20c-0.6,0-1-0.4-1-1s0.4-1,1-1h22c0.6,0,1,0.4,1,1S42.6,19,42,19z"/>
		</g>
		<g>
			<path class="st1" d="M36,35H20c-0.6,0-1-0.4-1-1s0.4-1,1-1h16c0.6,0,1,0.4,1,1S36.6,35,36,35z"/>
			<path class="st1" d="M42,31H20c-0.6,0-1-0.4-1-1s0.4-1,1-1h22c0.6,0,1,0.4,1,1S42.6,31,42,31z"/>
		</g>
		<path class="st5" d="M12.2,23.5c-0.3,0-0.6-0.1-0.7-0.3l-2.2-2.5c-0.4-0.4-0.3-1,0.1-1.4c0.4-0.4,1-0.3,1.4,0.1l1.4,1.6l3-4
			c0.3-0.4,1-0.5,1.4-0.2c0.4,0.3,0.5,1,0.2,1.4l-3.8,5C12.9,23.3,12.6,23.5,12.2,23.5C12.3,23.5,12.3,23.5,12.2,23.5z"/>
	</g>
</g>
<g id="nyt_x5F_exporter_x5F_info" class="st29">
</g>
</svg>
