<?xml version="1.0" encoding="utf-8"?>
<!-- Generator: Adobe Illustrator 22.1.0, SVG Export Plug-In . SVG Version: 6.00 Build 0)  -->
<!DOCTYPE svg PUBLIC "-//W3C//DTD SVG 1.1//EN" "http://www.w3.org/Graphics/SVG/1.1/DTD/svg11.dtd">
<svg version="1.1" xmlns="http://www.w3.org/2000/svg" xmlns:xlink="http://www.w3.org/1999/xlink" x="0px" y="0px"
	 viewBox="0 0 50 40" style="enable-background:new 0 0 50 40;" xml:space="preserve">
<style type="text/css">
	.st0{fill:#DBF0F4;}
	.st1{fill:#194A77;}
	.st2{fill:#F69E24;}
	.st3{fill:#F7C6C9;}
	.st4{fill:#FFFFFF;}
	.st5{fill:#53BA82;}
	.st6{fill:#C12629;}
	.st7{fill:#FDBE13;}
	.st8{fill:none;stroke:#194A77;stroke-width:2;stroke-linecap:round;stroke-linejoin:round;stroke-miterlimit:10;}
	.st9{fill:#56C8E9;}
	.st10{fill:#1BB7EB;}
	.st11{fill:#4367B2;}
	.st12{fill:#FAAE28;}
	.st13{fill:#F89E28;}
	.st14{fill:#F68E27;}
	.st15{fill:#F47F25;}
	.st16{fill:#F26E24;}
	.st17{fill:#F05B24;}
	.st18{fill:#EE4524;}
	.st19{fill:#ED2724;}
	.st20{fill:#E62E35;}
	.st21{fill:#E03348;}
	.st22{fill:#DB3758;}
	.st23{fill:#D63B68;}
	.st24{fill:#D03D77;}
	.st25{fill:#CA4186;}
	.st26{fill:#C14397;}
	.st27{fill:#F05669;}
	.st28{fill:#F5887E;}
	.st29{display:none;}
	.st30{display:inline;}
	.st31{font-family:'MyriadPro-Regular';}
	.st32{font-size:12px;}
</style>
<g id="Layer_1">
	<g>
		<path class="st0" d="M7.5,23.5v3.7c0,1.3,1,2.3,2.3,2.3h30.5c1.3,0,2.3-1,2.3-2.3v-3.7H7.5z"/>
		<path class="st0" d="M7.5,5.2v3.3h35V5.2c0-1-0.8-1.7-1.7-1.7H9.2C8.3,3.5,7.5,4.3,7.5,5.2z"/>
		<path class="st1" d="M40.5,30.5h-31c-1.7,0-3-1.3-3-3v-22c0-1.7,1.3-3,3-3h31c1.7,0,3,1.3,3,3v22C43.5,29.2,42.2,30.5,40.5,30.5z
			 M9.5,4.5c-0.6,0-1,0.4-1,1v22c0,0.6,0.4,1,1,1h31c0.6,0,1-0.4,1-1v-22c0-0.6-0.4-1-1-1H9.5z"/>
		<g>
			<circle class="st1" cx="25" cy="26.5" r="1"/>
		</g>
		<path class="st1" d="M42.5,9.5h-5c-0.6,0-1-0.4-1-1s0.4-1,1-1h5c0.6,0,1,0.4,1,1S43.1,9.5,42.5,9.5z"/>
		<path class="st1" d="M32,9.5H7.5c-0.6,0-1-0.4-1-1s0.4-1,1-1H32c0.6,0,1,0.4,1,1S32.6,9.5,32,9.5z"/>
		<path class="st1" d="M42.5,24.5h-35c-0.6,0-1-0.4-1-1s0.4-1,1-1h35c0.6,0,1,0.4,1,1S43.1,24.5,42.5,24.5z"/>
		<path class="st1" d="M33,34.5H17c-0.6,0-1-0.4-1-1s0.4-1,1-1h16c0.6,0,1,0.4,1,1S33.6,34.5,33,34.5z"/>
		<g>
			<path class="st1" d="M21,34.5c-0.6,0-1-0.4-1-1v-4c0-0.6,0.4-1,1-1s1,0.4,1,1v4C22,34.1,21.6,34.5,21,34.5z"/>
			<path class="st1" d="M29,34.5c-0.6,0-1-0.4-1-1v-4c0-0.6,0.4-1,1-1s1,0.4,1,1v4C30,34.1,29.6,34.5,29,34.5z"/>
		</g>
		<path class="st1" d="M38,37.5H12c-0.6,0-1-0.4-1-1s0.4-1,1-1h26c0.6,0,1,0.4,1,1S38.6,37.5,38,37.5z"/>
		<g>
			<path class="st5" d="M17,21c-0.6,0-1-0.4-1-1v-1c0-0.6,0.4-1,1-1s1,0.4,1,1v1C18,20.6,17.6,21,17,21z"/>
			<path class="st5" d="M25,21c-0.6,0-1-0.4-1-1v-5c0-0.6,0.4-1,1-1s1,0.4,1,1v5C26,20.6,25.6,21,25,21z"/>
			<path class="st5" d="M33,21c-0.6,0-1-0.4-1-1v-5c0-0.6,0.4-1,1-1s1,0.4,1,1v5C34,20.6,33.6,21,33,21z"/>
			<path class="st5" d="M29,21c-0.6,0-1-0.4-1-1v-7c0-0.6,0.4-1,1-1s1,0.4,1,1v7C30,20.6,29.6,21,29,21z"/>
			<path class="st5" d="M21,21c-0.6,0-1-0.4-1-1v-3c0-0.6,0.4-1,1-1s1,0.4,1,1v3C22,20.6,21.6,21,21,21z"/>
		</g>
	</g>
</g>
<g id="nyt_x5F_exporter_x5F_info" class="st29">
	<text transform="matrix(1 0 0 1 -240 -50)" class="st30"><tspan x="0" y="0" class="st31 st32">&lt;nyt_prefs&gt;</tspan><tspan x="0" y="14.4" class="st31 st32">  &lt;nyt_prefix/&gt;</tspan><tspan x="0" y="28.8" class="st31 st32">  &lt;nyt_suffix/&gt;</tspan><tspan x="0" y="43.2" class="st31 st32">  &lt;nyt_base_path&gt;~/Desktop&lt;/nyt_base_path&gt;</tspan><tspan x="0" y="57.6" class="st31 st32">  &lt;nyt_scaling&gt;100%&lt;/nyt_scaling&gt;</tspan><tspan x="0" y="72" class="st31 st32">  &lt;nyt_transparency&gt;true&lt;/nyt_transparency&gt;</tspan><tspan x="0" y="86.4" class="st31 st32">  &lt;nyt_format&gt;PNG 24&lt;/nyt_format&gt;</tspan><tspan x="0" y="100.8" class="st31 st32">  &lt;nyt_export_code&gt;artboards&lt;/nyt_export_code&gt;</tspan><tspan x="0" y="115.2" class="st31 st32">&lt;/nyt_prefs&gt;</tspan></text>
</g>
</svg>
