<?xml version="1.0" encoding="utf-8"?>
<!-- Generator: Adobe Illustrator 22.1.0, SVG Export Plug-In . SVG Version: 6.00 Build 0)  -->
<!DOCTYPE svg PUBLIC "-//W3C//DTD SVG 1.1//EN" "http://www.w3.org/Graphics/SVG/1.1/DTD/svg11.dtd">
<svg version="1.1" xmlns="http://www.w3.org/2000/svg" xmlns:xlink="http://www.w3.org/1999/xlink" x="0px" y="0px"
	 viewBox="0 0 50 40" style="enable-background:new 0 0 50 40;" xml:space="preserve">
<style type="text/css">
	.st0{fill:#DBF0F4;}
	.st1{fill:#194A77;}
	.st2{fill:#F69E24;}
	.st3{fill:#F7C6C9;}
	.st4{fill:#FFFFFF;}
	.st5{fill:#53BA82;}
	.st6{fill:#C12629;}
	.st7{fill:#FDBE13;}
	.st8{fill:none;stroke:#194A77;stroke-width:2;stroke-linecap:round;stroke-linejoin:round;stroke-miterlimit:10;}
	.st9{fill:#56C8E9;}
	.st10{fill:#1BB7EB;}
	.st11{fill:#4367B2;}
	.st12{fill:#FAAE28;}
	.st13{fill:#F89E28;}
	.st14{fill:#F68E27;}
	.st15{fill:#F47F25;}
	.st16{fill:#F26E24;}
	.st17{fill:#F05B24;}
	.st18{fill:#EE4524;}
	.st19{fill:#ED2724;}
	.st20{fill:#E62E35;}
	.st21{fill:#E03348;}
	.st22{fill:#DB3758;}
	.st23{fill:#D63B68;}
	.st24{fill:#D03D77;}
	.st25{fill:#CA4186;}
	.st26{fill:#C14397;}
	.st27{fill:#F05669;}
	.st28{fill:#F5887E;}
	.st29{display:none;}
	.st30{display:inline;}
</style>
<g id="Layer_1">
	<g>
		<circle class="st0" cx="25" cy="20" r="17"/>
		<path class="st4" d="M17.1,30c-0.6,0-1.1-0.2-1.5-0.6C15.2,29,15,28.5,15,27.9V12.1c0-0.6,0.2-1.1,0.6-1.5
			c0.4-0.4,0.9-0.6,1.5-0.6h15.7c0.6,0,1.1,0.2,1.5,0.6s0.6,0.9,0.6,1.5v15.7c0,0.6-0.2,1.1-0.6,1.5S33.5,30,32.9,30H17.1z"/>
		<path class="st1" d="M25,38c-9.9,0-18-8.1-18-18S15.1,2,25,2c2.4,0,4.8,0.5,7,1.4c0.5,0.2,0.7,0.8,0.5,1.3s-0.8,0.7-1.3,0.5
			C29.3,4.4,27.2,4,25,4C16.2,4,9,11.2,9,20s7.2,16,16,16s16-7.2,16-16c0-0.7,0-1.3-0.1-2c-0.1-0.5,0.3-1,0.9-1.1
			c0.5-0.1,1,0.3,1.1,0.9C43,18.5,43,19.2,43,20C43,29.9,34.9,38,25,38z"/>
		<path class="st1" d="M40,13c-0.4,0-0.7-0.2-0.9-0.5c-0.9-1.6-2-3.1-3.3-4.3c-0.4-0.4-0.4-1-0.1-1.4c0.4-0.4,1-0.4,1.4-0.1
			c1.5,1.4,2.8,3,3.7,4.8c0.3,0.5,0.1,1.1-0.4,1.4C40.3,13,40.2,13,40,13z"/>
		<path class="st11" d="M33,26.3c0,0.5-0.2,0.9-0.5,1.2S31.8,28,31.3,28h-3v-6.3h2.1l0.3-2.4h-2.5v-1.5c0-0.4,0.1-0.7,0.2-0.9
			c0.2-0.2,0.5-0.3,1-0.3h1.3v-2.1c-0.5-0.1-1.1-0.1-1.9-0.1c-1,0-1.7,0.3-2.3,0.8c-0.6,0.6-0.8,1.3-0.8,2.3v1.8h-2.2v2.4h2.2V28h-7
			c-0.5,0-0.9-0.2-1.2-0.5S17,26.8,17,26.3V13.7c0-0.5,0.2-0.9,0.5-1.2s0.7-0.5,1.2-0.5h12.6c0.5,0,0.9,0.2,1.2,0.5s0.5,0.7,0.5,1.2
			V26.3z"/>
	</g>
</g>
<g id="nyt_x5F_exporter_x5F_info" class="st29">
</g>
</svg>
