<?xml version="1.0" encoding="utf-8"?>
<!-- Generator: Adobe Illustrator 22.1.0, SVG Export Plug-In . SVG Version: 6.00 Build 0)  -->
<!DOCTYPE svg PUBLIC "-//W3C//DTD SVG 1.1//EN" "http://www.w3.org/Graphics/SVG/1.1/DTD/svg11.dtd">
<svg version="1.1" xmlns="http://www.w3.org/2000/svg" xmlns:xlink="http://www.w3.org/1999/xlink" x="0px" y="0px"
	 viewBox="0 0 50 40" style="enable-background:new 0 0 50 40;" xml:space="preserve">
<style type="text/css">
	.st0{fill:#DBF0F4;}
	.st1{fill:#194A77;}
	.st2{fill:#F69E24;}
	.st3{fill:#F7C6C9;}
	.st4{fill:#FFFFFF;}
	.st5{fill:#53BA82;}
	.st6{fill:#C12629;}
	.st7{fill:#FDBE13;}
	.st8{fill:none;stroke:#194A77;stroke-width:2;stroke-linecap:round;stroke-linejoin:round;stroke-miterlimit:10;}
	.st9{fill:#56C8E9;}
	.st10{fill:#1BB7EB;}
	.st11{fill:#4367B2;}
	.st12{fill:#FAAE28;}
	.st13{fill:#F89E28;}
	.st14{fill:#F68E27;}
	.st15{fill:#F47F25;}
	.st16{fill:#F26E24;}
	.st17{fill:#F05B24;}
	.st18{fill:#EE4524;}
	.st19{fill:#ED2724;}
	.st20{fill:#E62E35;}
	.st21{fill:#E03348;}
	.st22{fill:#DB3758;}
	.st23{fill:#D63B68;}
	.st24{fill:#D03D77;}
	.st25{fill:#CA4186;}
	.st26{fill:#C14397;}
	.st27{fill:#F05669;}
	.st28{fill:#F5887E;}
	.st29{display:none;}
	.st30{display:inline;}
</style>
<g id="Layer_1">
	<g>
		<path class="st0" d="M12.6,27c0-0.6,0-1.2,0.1-1.6c-2.4-0.7-4.2-3-4.2-6.8c0-4.7,0-8.5,6-8.5c4.6,0,5.7,2.2,5.9,5.4l0.1,3.1
			c0,3.8-1.8,6.1-4.2,6.8c0.1,0.2,0.1,0.4,0.1,0.7l0,0.9c4,0.6,7.4,2.9,9.6,6.2V4H6.3C4.5,4,3,5.5,3,7.3v25.4c0,0.2,0,0.3,0,0.5
			C5.2,29.9,8.6,27.6,12.6,27z"/>
		<path class="st1" d="M44,37H6c-2.2,0-4-1.8-4-4V7c0-2.2,1.8-4,4-4h38c2.2,0,4,1.8,4,4v26C48,35.2,46.2,37,44,37z M6,5
			C4.9,5,4,5.9,4,7v26c0,1.1,0.9,2,2,2h38c1.1,0,2-0.9,2-2V7c0-1.1-0.9-2-2-2H6z"/>
		<g>
			<g>
				<g>
					<path class="st9" d="M14.5,31C14.5,31,14.5,31,14.5,31c-0.3,0-1.3-0.1-2.2-0.9c-1.1-1-1.6-2.7-1.6-5.1c0-0.6,0.4-1,1-1
						s1,0.4,1,1c0,3.2,1.1,4,1.8,4c0.7,0,1.8-0.9,1.8-4c0-0.6,0.4-1,1-1s1,0.4,1,1c0,2.4-0.5,4.1-1.6,5.1C15.8,30.9,14.8,31,14.5,31
						z"/>
				</g>
				<path class="st9" d="M14.5,26.6c-3.5,0-7-2.5-7-8.1c0-4.7,0-9.5,7-9.5c5.7,0,6.7,3.4,6.9,6.3c0,0.6-0.4,1-0.9,1.1
					c-0.6,0-1-0.4-1.1-0.9c-0.2-2.9-1.1-4.5-4.9-4.5c-4.8,0-5,2.3-5,7.5c0,3.8,1.9,6.1,5,6.1s5-2.3,5-6.1c0-0.6,0.4-1,1-1s1,0.4,1,1
					C21.5,24.1,18,26.6,14.5,26.6z"/>
			</g>
			<path class="st9" d="M23.2,31.1c-0.3,0-0.5-0.1-0.7-0.3c-1.3-1.3-3-2.2-4.9-2.7c-0.5-0.1-0.9-0.7-0.7-1.2s0.7-0.9,1.2-0.7
				c2.3,0.6,4.3,1.7,5.9,3.2c0.4,0.4,0.4,1,0,1.4C23.7,31,23.4,31.1,23.2,31.1z"/>
			<path class="st9" d="M5.9,31.1c-0.3,0-0.5-0.1-0.7-0.3c-0.4-0.4-0.4-1,0-1.4c1.6-1.6,3.7-2.7,6.1-3.2c0.5-0.1,1.1,0.2,1.2,0.8
				c0.1,0.5-0.2,1.1-0.8,1.2c-2,0.5-3.8,1.4-5.2,2.7C6.4,31,6.1,31.1,5.9,31.1z"/>
		</g>
		<g>
			<path class="st1" d="M38.5,23.5h-8c-0.6,0-1-0.4-1-1s0.4-1,1-1h8c0.6,0,1,0.4,1,1S39.1,23.5,38.5,23.5z"/>
			<path class="st1" d="M36.3,13.5h-5.8c-0.6,0-1-0.4-1-1s0.4-1,1-1h5.8c0.6,0,1,0.4,1,1S36.9,13.5,36.3,13.5z"/>
			<path class="st1" d="M36.3,28.5h-5.8c-0.6,0-1-0.4-1-1s0.4-1,1-1h5.8c0.6,0,1,0.4,1,1S36.9,28.5,36.3,28.5z"/>
			<path class="st1" d="M41.5,18.5h-11c-0.6,0-1-0.4-1-1s0.4-1,1-1h11c0.6,0,1,0.4,1,1S42.1,18.5,41.5,18.5z"/>
		</g>
	</g>
</g>
<g id="nyt_x5F_exporter_x5F_info" class="st29">
</g>
</svg>
