<?xml version="1.0" encoding="utf-8"?>
<!-- Generator: Adobe Illustrator 22.1.0, SVG Export Plug-In . SVG Version: 6.00 Build 0)  -->
<!DOCTYPE svg PUBLIC "-//W3C//DTD SVG 1.1//EN" "http://www.w3.org/Graphics/SVG/1.1/DTD/svg11.dtd">
<svg version="1.1" xmlns="http://www.w3.org/2000/svg" xmlns:xlink="http://www.w3.org/1999/xlink" x="0px" y="0px"
	 viewBox="0 0 50 40" style="enable-background:new 0 0 50 40;" xml:space="preserve">
<style type="text/css">
	.st0{fill:#DBF0F4;}
	.st1{fill:#194A77;}
	.st2{fill:#F69E24;}
	.st3{fill:#F7C6C9;}
	.st4{fill:#FFFFFF;}
	.st5{fill:#53BA82;}
	.st6{fill:#C12629;}
	.st7{fill:#FDBE13;}
	.st8{fill:none;stroke:#194A77;stroke-width:2;stroke-linecap:round;stroke-linejoin:round;stroke-miterlimit:10;}
	.st9{fill:#56C8E9;}
	.st10{fill:#1BB7EB;}
	.st11{fill:#4367B2;}
	.st12{fill:#FAAE28;}
	.st13{fill:#F89E28;}
	.st14{fill:#F68E27;}
	.st15{fill:#F47F25;}
	.st16{fill:#F26E24;}
	.st17{fill:#F05B24;}
	.st18{fill:#EE4524;}
	.st19{fill:#ED2724;}
	.st20{fill:#E62E35;}
	.st21{fill:#E03348;}
	.st22{fill:#DB3758;}
	.st23{fill:#D63B68;}
	.st24{fill:#D03D77;}
	.st25{fill:#CA4186;}
	.st26{fill:#C14397;}
	.st27{fill:#F05669;}
	.st28{fill:#F5887E;}
	.st29{display:none;}
	.st30{display:inline;}
</style>
<g id="Layer_1">
	<g>
		<circle class="st0" cx="25" cy="20" r="17"/>
		<path class="st4" d="M17.1,30c-0.6,0-1.1-0.2-1.5-0.6C15.2,29,15,28.5,15,27.9V12.1c0-0.6,0.2-1.1,0.6-1.5
			c0.4-0.4,0.9-0.6,1.5-0.6h15.7c0.6,0,1.1,0.2,1.5,0.6s0.6,0.9,0.6,1.5v15.7c0,0.6-0.2,1.1-0.6,1.5S33.5,30,32.9,30H17.1z"/>
		<path class="st1" d="M25,38c-4.6,0-9.2-1.8-12.7-5.3c-7-7-7-18.4,0-25.5c7-7,18.4-7,25.5,0c1.7,1.7,3,3.7,4,6
			c0.2,0.5,0,1.1-0.6,1.3c-0.5,0.2-1.1,0-1.3-0.6c-0.8-2-2-3.8-3.5-5.3c-6.2-6.2-16.4-6.2-22.6,0c-6.2,6.2-6.2,16.4,0,22.6
			c6.2,6.2,16.4,6.2,22.6,0c0.5-0.5,0.9-1,1.3-1.5c0.3-0.4,1-0.5,1.4-0.2c0.4,0.3,0.5,1,0.2,1.4c-0.5,0.6-1,1.2-1.5,1.7
			C34.2,36.2,29.6,38,25,38z"/>
		<path class="st10" d="M31.3,12c0.5,0,0.9,0.2,1.2,0.5s0.5,0.7,0.5,1.2v12.6c0,0.5-0.2,0.9-0.5,1.2S31.8,28,31.3,28H18.7
			c-0.5,0-0.9-0.2-1.2-0.5S17,26.8,17,26.3V13.7c0-0.5,0.2-0.9,0.5-1.2s0.7-0.5,1.2-0.5H31.3z M29.5,17.7c0.5-0.3,0.8-0.7,1.2-1.2
			c-0.5,0.2-0.9,0.3-1.4,0.4c0.5-0.3,0.8-0.7,1-1.3c-0.5,0.3-1,0.5-1.5,0.6c-0.5-0.5-1-0.8-1.7-0.8c-0.5,0-0.9,0.1-1.3,0.4
			c-0.4,0.3-0.7,0.6-0.9,1.1c-0.2,0.4-0.2,0.9-0.1,1.4c-1,0-1.9-0.3-2.7-0.7c-0.8-0.4-1.5-1-2.1-1.7c-0.2,0.4-0.3,0.7-0.3,1.2
			s0.1,0.8,0.3,1.1c0.2,0.3,0.5,0.6,0.8,0.8c-0.4,0-0.7-0.1-1.1-0.3v0c0,0.6,0.2,1.1,0.5,1.5c0.4,0.4,0.8,0.7,1.4,0.8
			C21.3,21,21,21,20.6,21c0.1,0.5,0.4,0.9,0.8,1.2c0.4,0.3,0.9,0.4,1.4,0.4c-0.9,0.7-1.8,1-2.9,1h-0.6c1.1,0.7,2.3,1,3.6,1
			c1.4,0,2.6-0.3,3.6-1c1-0.6,1.7-1.5,2.2-2.5c0.5-1,0.8-2,0.8-3.1V17.7z"/>
		<path class="st1" d="M41.3,26c-0.1,0-0.2,0-0.3,0c-0.5-0.2-0.8-0.7-0.7-1.2c0.5-1.7,0.8-3.6,0.7-5.4c0-0.6,0.4-1,1-1
			c0.5,0,1,0.4,1,1c0.1,2.1-0.2,4.1-0.8,6.1C42.1,25.7,41.7,26,41.3,26z"/>
	</g>
</g>
<g id="nyt_x5F_exporter_x5F_info" class="st29">
</g>
</svg>
