<?xml version="1.0" encoding="utf-8"?>
<!-- Generator: Adobe Illustrator 22.1.0, SVG Export Plug-In . SVG Version: 6.00 Build 0)  -->
<!DOCTYPE svg PUBLIC "-//W3C//DTD SVG 1.1//EN" "http://www.w3.org/Graphics/SVG/1.1/DTD/svg11.dtd">
<svg version="1.1" xmlns="http://www.w3.org/2000/svg" xmlns:xlink="http://www.w3.org/1999/xlink" x="0px" y="0px"
	 viewBox="0 0 50 40" style="enable-background:new 0 0 50 40;" xml:space="preserve">
<style type="text/css">
	.st0{fill:#DBF0F4;}
	.st1{fill:#194A77;}
	.st2{fill:#F69E24;}
	.st3{fill:#F7C6C9;}
	.st4{fill:#FFFFFF;}
	.st5{fill:#53BA82;}
	.st6{fill:#C12629;}
	.st7{fill:#FDBE13;}
	.st8{fill:none;stroke:#194A77;stroke-width:2;stroke-linecap:round;stroke-linejoin:round;stroke-miterlimit:10;}
	.st9{fill:#56C8E9;}
	.st10{fill:#1BB7EB;}
	.st11{fill:#4367B2;}
	.st12{fill:#FAAE28;}
	.st13{fill:#F89E28;}
	.st14{fill:#F68E27;}
	.st15{fill:#F47F25;}
	.st16{fill:#F26E24;}
	.st17{fill:#F05B24;}
	.st18{fill:#EE4524;}
	.st19{fill:#ED2724;}
	.st20{fill:#E62E35;}
	.st21{fill:#E03348;}
	.st22{fill:#DB3758;}
	.st23{fill:#D63B68;}
	.st24{fill:#D03D77;}
	.st25{fill:#CA4186;}
	.st26{fill:#C14397;}
	.st27{fill:#F05669;}
	.st28{fill:#F5887E;}
	.st29{display:none;}
	.st30{display:inline;}
</style>
<g id="Layer_1">
	<path class="st3" d="M13,20c0-6.6,5.4-12,12-12c3.1,0,5.9,1.2,8,3.1c2.5,2.2,4,5.4,4,8.9c0,6.6-5.4,12-12,12c-2.9,0-5.6-1-7.6-2.7
		c-1.7-1.4-3-3.2-3.7-5.3C13.2,22.7,13,21.4,13,20z"/>
	<path class="st4" d="M18,20c0-3.9,3.1-7,7-7c1.8,0,3.4,0.7,4.7,1.8c1.4,1.3,2.3,3.1,2.3,5.2c0,3.9-3.1,7-7,7
		c-1.7,0-3.2-0.6-4.5-1.6c-1-0.8-1.7-1.9-2.1-3.1C18.1,21.6,18,20.8,18,20z"/>
	<path class="st1" d="M15.2,27.9c-0.3,0-0.6-0.1-0.8-0.4c-0.7-1-1.2-2-1.6-3.1C12.2,22.9,12,21.5,12,20c0-7.2,5.8-13,13-13
		c3.2,0,6.3,1.2,8.7,3.3c2.8,2.5,4.3,6,4.3,9.7c0,0.6-0.4,1-1,1s-1-0.4-1-1c0-3.1-1.3-6.1-3.7-8.2C30.3,10,27.7,9,25,9
		c-6.1,0-11,4.9-11,11c0,1.3,0.2,2.5,0.6,3.7c0.3,0.9,0.8,1.8,1.4,2.7c0.3,0.5,0.2,1.1-0.2,1.4C15.6,27.8,15.4,27.9,15.2,27.9z"/>
	<g>
		<g>
			<path class="st1" d="M45.1,9H34.9c-0.6,0-1-0.4-1-1s0.4-1,1-1h10.2c0.6,0,1,0.4,1,1S45.6,9,45.1,9z"/>
			<path class="st1" d="M40.1,13.1c-0.3,0-0.6-0.1-0.8-0.4c-0.4-0.4-0.3-1.1,0.1-1.4L43.5,8l-4.1-3.3c-0.4-0.4-0.5-1-0.1-1.4
				c0.4-0.4,1-0.5,1.4-0.1l5,4.1C46,7.4,46.1,7.7,46.1,8S46,8.6,45.7,8.8l-5,4.1C40.5,13,40.3,13.1,40.1,13.1z"/>
		</g>
	</g>
	<g>
		<g>
			<path class="st6" d="M25,33H4.9c-0.6,0-1-0.4-1-1s0.4-1,1-1H25c3.2,0,6.2-1.4,8.3-3.8c0.4-0.4,1-0.5,1.4-0.1
				c0.4,0.4,0.5,1,0.1,1.4C32.4,31.4,28.8,33,25,33z"/>
			<path class="st6" d="M9.9,37.1c-0.2,0-0.4-0.1-0.6-0.2l-5-4.1C4,32.6,3.9,32.3,3.9,32s0.1-0.6,0.4-0.8l5-4.1
				c0.4-0.4,1.1-0.3,1.4,0.1c0.4,0.4,0.3,1.1-0.1,1.4L6.5,32l4.1,3.3c0.4,0.4,0.5,1,0.1,1.4C10.5,37,10.2,37.1,9.9,37.1z"/>
		</g>
		<path class="st6" d="M36.3,25c-0.1,0-0.2,0-0.3-0.1c-0.5-0.2-0.8-0.8-0.6-1.3c0.1-0.3,0.2-0.5,0.3-0.8c0.1-0.5,0.7-0.8,1.2-0.7
			c0.5,0.1,0.9,0.7,0.7,1.2c-0.1,0.3-0.2,0.7-0.3,1C37.1,24.7,36.7,25,36.3,25z"/>
	</g>
	<path class="st1" d="M25,28c-1.9,0-3.7-0.6-5.1-1.8c-0.4-0.4-0.5-1-0.1-1.4c0.4-0.4,1-0.5,1.4-0.1c1.1,0.9,2.4,1.4,3.8,1.4
		c3.3,0,6-2.7,6-6c0-0.6,0.4-1,1-1s1,0.4,1,1C33,24.4,29.4,28,25,28z"/>
	<path class="st1" d="M18.4,23.3c-0.4,0-0.8-0.3-0.9-0.7C17.2,21.8,17,20.9,17,20c0-4.4,3.6-8,8-8c2,0,3.9,0.7,5.3,2
		c0.4,0.4,0.4,1,0.1,1.4c-0.4,0.4-1,0.4-1.4,0.1c-1.1-1-2.5-1.5-4-1.5c-3.3,0-6,2.7-6,6c0,0.7,0.1,1.4,0.3,2
		c0.2,0.5-0.1,1.1-0.6,1.3C18.6,23.3,18.5,23.3,18.4,23.3z"/>
</g>
<g id="nyt_x5F_exporter_x5F_info" class="st29">
</g>
</svg>
