<?xml version="1.0" encoding="utf-8"?>
<!-- Generator: Adobe Illustrator 22.1.0, SVG Export Plug-In . SVG Version: 6.00 Build 0)  -->
<!DOCTYPE svg PUBLIC "-//W3C//DTD SVG 1.1//EN" "http://www.w3.org/Graphics/SVG/1.1/DTD/svg11.dtd">
<svg version="1.1" xmlns="http://www.w3.org/2000/svg" xmlns:xlink="http://www.w3.org/1999/xlink" x="0px" y="0px"
	 viewBox="0 0 50 40" style="enable-background:new 0 0 50 40;" xml:space="preserve">
<style type="text/css">
	.st0{fill:#DBF0F4;}
	.st1{fill:#194A77;}
	.st2{fill:#F69E24;}
	.st3{fill:#F7C6C9;}
	.st4{fill:#FFFFFF;}
	.st5{fill:#53BA82;}
	.st6{fill:#C12629;}
	.st7{fill:#FDBE13;}
	.st8{fill:none;stroke:#194A77;stroke-width:2;stroke-linecap:round;stroke-linejoin:round;stroke-miterlimit:10;}
	.st9{fill:#56C8E9;}
	.st10{fill:#1BB7EB;}
	.st11{fill:#4367B2;}
	.st12{fill:#FAAE28;}
	.st13{fill:#F89E28;}
	.st14{fill:#F68E27;}
	.st15{fill:#F47F25;}
	.st16{fill:#F26E24;}
	.st17{fill:#F05B24;}
	.st18{fill:#EE4524;}
	.st19{fill:#ED2724;}
	.st20{fill:#E62E35;}
	.st21{fill:#E03348;}
	.st22{fill:#DB3758;}
	.st23{fill:#D63B68;}
	.st24{fill:#D03D77;}
	.st25{fill:#CA4186;}
	.st26{fill:#C14397;}
	.st27{fill:#F05669;}
	.st28{fill:#F5887E;}
	.st29{display:none;}
	.st30{display:inline;}
</style>
<g id="Layer_1">
	<g>
		<g>
			<path class="st0" d="M25.2,30c-0.7-0.7-1.2-1.5-1.6-2.4c-0.1-0.2-0.2-0.5-0.3-0.7L20,26.5v-4.1l3.4-0.4c0.4-1.2,1-2.2,1.8-3.1
				l-0.3-0.8l-0.4-1L8,25.6c0,2.7,2.2,4.9,4.9,4.9h1.6v5l5.8-5H25L25.2,30z"/>
			<path class="st0" d="M28.4,15.3l1,1.4c0.5-0.1,1-0.2,1.6-0.2s1.1,0.1,1.6,0.2l2.3-3.2l3.3,2L36.8,19c0.8,0.9,1.5,1.9,1.8,3.1
				l3.4,0.4V8.4L28.4,15.3z"/>
		</g>
		<path class="st1" d="M14.5,36.5c-0.1,0-0.3,0-0.4-0.1c-0.4-0.2-0.6-0.5-0.6-0.9v-4h-0.6c-3.2,0-5.9-2.6-5.9-5.9V9.4
			c0-3.2,2.6-5.9,5.9-5.9h24.3c3.2,0,5.9,2.6,5.9,5.9v5.8c0,0.6-0.4,1-1,1s-1-0.4-1-1V9.4c0-2.1-1.7-3.9-3.9-3.9H12.9
			C10.7,5.5,9,7.2,9,9.4v16.3c0,2.1,1.7,3.9,3.9,3.9h1.6c0.6,0,1,0.4,1,1v2.8l4.2-3.6c0.2-0.2,0.4-0.2,0.7-0.2h1.1c0.6,0,1,0.4,1,1
			s-0.4,1-1,1h-0.8l-5.6,4.8C15,36.4,14.7,36.5,14.5,36.5z"/>
		<path class="st1" d="M42,20.7c-0.6,0-1-0.4-1-1V19c0-0.6,0.4-1,1-1s1,0.4,1,1v0.8C43,20.3,42.6,20.7,42,20.7z"/>
		<path class="st9" d="M34.8,36.5c-0.3,0-0.6-0.1-0.8-0.4l-1.9-2.7c-0.7,0.1-1.5,0.1-2.2,0L28,36.1c-0.3,0.4-0.9,0.5-1.3,0.3l-3.3-2
			c-0.4-0.3-0.6-0.8-0.4-1.2l1.2-2.9c-0.5-0.7-1-1.4-1.3-2.2c0-0.1-0.1-0.1-0.1-0.2l-2.8-0.4c-0.5-0.1-0.9-0.5-0.9-1v-4.1
			c0-0.5,0.4-0.9,0.9-1l2.8-0.4c0.3-0.8,0.8-1.6,1.4-2.4l-1.2-2.9c-0.2-0.5,0-1,0.4-1.2l3.3-2c0.4-0.3,1-0.2,1.3,0.3l1.9,2.7
			c0.7-0.1,1.5-0.1,2.2,0l1.9-2.7c0.3-0.4,0.9-0.5,1.3-0.3l3.3,2c0.4,0.3,0.6,0.8,0.4,1.2l-1.2,2.9c0.6,0.7,1.1,1.5,1.4,2.4l2.8,0.4
			c0.5,0.1,0.9,0.5,0.9,1v4.1c0,0.5-0.4,0.9-0.9,1l-2.8,0.4c-0.3,0.8-0.8,1.6-1.4,2.4l1.2,2.9c0.2,0.5,0,1-0.4,1.2l-3.3,2
			C35.2,36.5,35,36.5,34.8,36.5z M32.6,31.3c0.3,0,0.6,0.2,0.8,0.4l1.7,2.4l1.8-1.1l-1.1-2.7c-0.1-0.4-0.1-0.8,0.2-1.1
			c0.7-0.8,1.3-1.7,1.6-2.7c0.1-0.4,0.4-0.6,0.8-0.7l2.5-0.3v-2.3L38.5,23c-0.4,0-0.7-0.3-0.8-0.7c-0.3-1-0.9-1.9-1.6-2.7
			c-0.3-0.3-0.4-0.7-0.2-1.1l1.1-2.7l-1.8-1.1l-1.7,2.4c-0.2,0.3-0.6,0.5-1,0.4c-0.9-0.2-1.8-0.2-2.7,0c-0.4,0.1-0.8-0.1-1-0.4
			l-1.7-2.4l-1.8,1.1l1.1,2.7c0.1,0.4,0.1,0.8-0.2,1.1c-0.7,0.8-1.3,1.7-1.6,2.7c-0.1,0.4-0.4,0.6-0.8,0.7L21,23.4v2.3l2.5,0.3
			c0.4,0,0.7,0.3,0.8,0.7c0.1,0.2,0.1,0.4,0.2,0.6c0.3,0.8,0.8,1.5,1.4,2.1c0.3,0.3,0.4,0.7,0.2,1.1l-1.1,2.7l1.8,1.1l1.7-2.4
			c0.2-0.3,0.6-0.5,1-0.4c0.9,0.2,1.8,0.2,2.7,0C32.4,31.4,32.5,31.3,32.6,31.3z M42,26.5L42,26.5L42,26.5z"/>
		<path class="st9" d="M31,29c-2.5,0-4.5-2-4.5-4.5s2-4.5,4.5-4.5s4.5,2,4.5,4.5S33.5,29,31,29z M31,22c-1.4,0-2.5,1.1-2.5,2.5
			S29.6,27,31,27s2.5-1.1,2.5-2.5S32.4,22,31,22z"/>
	</g>
</g>
<g id="nyt_x5F_exporter_x5F_info" class="st29">
</g>
</svg>
