<?xml version="1.0" encoding="utf-8"?>
<!-- Generator: Adobe Illustrator 22.1.0, SVG Export Plug-In . SVG Version: 6.00 Build 0)  -->
<!DOCTYPE svg PUBLIC "-//W3C//DTD SVG 1.1//EN" "http://www.w3.org/Graphics/SVG/1.1/DTD/svg11.dtd">
<svg version="1.1" xmlns="http://www.w3.org/2000/svg" xmlns:xlink="http://www.w3.org/1999/xlink" x="0px" y="0px"
	 viewBox="0 0 50 40" style="enable-background:new 0 0 50 40;" xml:space="preserve">
<style type="text/css">
	.st0{fill:#DBF0F4;}
	.st1{fill:#194A77;}
	.st2{fill:#F69E24;}
	.st3{fill:#F7C6C9;}
	.st4{fill:#FFFFFF;}
	.st5{fill:#53BA82;}
	.st6{fill:#C12629;}
	.st7{fill:#FDBE13;}
	.st8{fill:none;stroke:#194A77;stroke-width:2;stroke-linecap:round;stroke-linejoin:round;stroke-miterlimit:10;}
	.st9{fill:#56C8E9;}
	.st10{fill:#1BB7EB;}
	.st11{fill:#4367B2;}
	.st12{fill:#FAAE28;}
	.st13{fill:#F89E28;}
	.st14{fill:#F68E27;}
	.st15{fill:#F47F25;}
	.st16{fill:#F26E24;}
	.st17{fill:#F05B24;}
	.st18{fill:#EE4524;}
	.st19{fill:#ED2724;}
	.st20{fill:#E62E35;}
	.st21{fill:#E03348;}
	.st22{fill:#DB3758;}
	.st23{fill:#D63B68;}
	.st24{fill:#D03D77;}
	.st25{fill:#CA4186;}
	.st26{fill:#C14397;}
	.st27{fill:#F05669;}
	.st28{fill:#F5887E;}
	.st29{display:none;}
	.st30{display:inline;}
</style>
<g id="Layer_1">
	<g>
		<path class="st0" d="M43,27.5h-5.7c-2.1,0-4.1-1.3-4.9-3.3l-2.4-6c-1.8-4.4-8-4.4-9.8,0.1l-2.3,5.9c-0.8,2-2.7,3.3-4.9,3.3H7v8h36
			V27.5z"/>
		<polygon class="st2" points="25,9.9 26.4,12.6 29.5,13 27.2,15.1 27.8,18.1 25,16.7 22.2,18.1 22.8,15.1 20.5,13 23.6,12.6 		"/>
		<path class="st1" d="M43,36.5H7c-0.6,0-1-0.4-1-1v-29c0-0.6,0.4-1,1-1s1,0.4,1,1v28h35c0.6,0,1,0.4,1,1S43.6,36.5,43,36.5z"/>
		<path class="st1" d="M43,28.5h-5.7c-2.6,0-4.8-1.5-5.8-3.9l-1-2.6c-0.2-0.5,0-1.1,0.6-1.3c0.5-0.2,1.1,0,1.3,0.6l1,2.6
			c0.7,1.6,2.2,2.7,4,2.7H43c0.6,0,1,0.4,1,1S43.6,28.5,43,28.5z"/>
		<path class="st1" d="M30.3,20.1c-0.4,0-0.8-0.2-0.9-0.6L29,18.6c-0.2-0.5,0-1.1,0.6-1.3c0.5-0.2,1.1,0,1.3,0.6l0.3,0.8
			c0.2,0.5,0,1.1-0.6,1.3C30.5,20,30.4,20.1,30.3,20.1z"/>
		<path class="st1" d="M13,28.5H7c-0.6,0-1-0.4-1-1s0.4-1,1-1h6c1.8,0,3.3-1.1,4-2.7l2.3-5.9c0.2-0.5,0.8-0.8,1.3-0.6
			c0.5,0.2,0.8,0.8,0.6,1.3l-2.3,5.9C17.9,27,15.6,28.5,13,28.5z"/>
		<circle class="st1" cx="25" cy="19.3" r="1"/>
		<circle class="st1" cx="25" cy="31.3" r="1"/>
		<circle class="st1" cx="25" cy="23.3" r="1"/>
		<circle class="st1" cx="25" cy="27.3" r="1"/>
	</g>
</g>
<g id="nyt_x5F_exporter_x5F_info" class="st29">
</g>
</svg>
