<?xml version="1.0" encoding="utf-8"?>
<!-- Generator: Adobe Illustrator 22.1.0, SVG Export Plug-In . SVG Version: 6.00 Build 0)  -->
<!DOCTYPE svg PUBLIC "-//W3C//DTD SVG 1.1//EN" "http://www.w3.org/Graphics/SVG/1.1/DTD/svg11.dtd">
<svg version="1.1" xmlns="http://www.w3.org/2000/svg" xmlns:xlink="http://www.w3.org/1999/xlink" x="0px" y="0px"
	 viewBox="0 0 50 40" style="enable-background:new 0 0 50 40;" xml:space="preserve">
<style type="text/css">
	.st0{fill:#DBF0F4;}
	.st1{fill:#194A77;}
	.st2{fill:#F69E24;}
	.st3{fill:#F7C6C9;}
	.st4{fill:#FFFFFF;}
	.st5{fill:#53BA82;}
	.st6{fill:#C12629;}
	.st7{fill:#FDBE13;}
	.st8{fill:none;stroke:#194A77;stroke-width:2;stroke-linecap:round;stroke-linejoin:round;stroke-miterlimit:10;}
	.st9{fill:#56C8E9;}
	.st10{fill:#1BB7EB;}
	.st11{fill:#4367B2;}
	.st12{fill:#FAAE28;}
	.st13{fill:#F89E28;}
	.st14{fill:#F68E27;}
	.st15{fill:#F47F25;}
	.st16{fill:#F26E24;}
	.st17{fill:#F05B24;}
	.st18{fill:#EE4524;}
	.st19{fill:#ED2724;}
	.st20{fill:#E62E35;}
	.st21{fill:#E03348;}
	.st22{fill:#DB3758;}
	.st23{fill:#D63B68;}
	.st24{fill:#D03D77;}
	.st25{fill:#CA4186;}
	.st26{fill:#C14397;}
	.st27{fill:#F05669;}
	.st28{fill:#F5887E;}
	.st29{display:none;}
	.st30{display:inline;}
</style>
<g id="Layer_1">
	<g>
		<g>
			<g>
				<path class="st0" d="M9,16.7l16,10.6l16-10.6L28.3,5.2c-1.9-1.7-4.7-1.7-6.6,0L9,16.7z"/>
				<g>
					<g>
						<path class="st1" d="M41,37H9c-0.6,0-1-0.4-1-1V16.7c0-0.3,0.1-0.6,0.3-0.7L21,4.6c2.3-2,5.8-2,8.1,0L41.7,16
							c0.2,0.2,0.3,0.5,0.3,0.7V36C42,36.6,41.6,37,41,37z M10,35h30V17.2L27.7,6.1c-1.5-1.4-3.9-1.4-5.4,0L10,17.2V35z"/>
					</g>
				</g>
				<path class="st1" d="M25,28.4c-0.2,0-0.4-0.1-0.6-0.2l-16-10.6c-0.5-0.3-0.6-0.9-0.3-1.4c0.3-0.5,0.9-0.6,1.4-0.3L25,26.2
					l15.4-10.2c0.5-0.3,1.1-0.2,1.4,0.3c0.3,0.5,0.2,1.1-0.3,1.4l-16,10.6C25.4,28.3,25.2,28.4,25,28.4z"/>
			</g>
		</g>
		<g>
			<path class="st5" d="M25,21.5c-0.6,0-1-0.4-1-1V9.3c0-0.6,0.4-1,1-1s1,0.4,1,1v11.2C26,21.1,25.5,21.5,25,21.5z"/>
			<path class="st5" d="M25,21.5L25,21.5c-0.3,0-0.6-0.1-0.8-0.4l-4.1-5c-0.4-0.4-0.3-1.1,0.1-1.4c0.4-0.4,1.1-0.3,1.4,0.1l3.3,4.1
				l3.3-4.1c0.4-0.4,1-0.5,1.4-0.1c0.4,0.4,0.5,1,0.1,1.4l-4.1,5C25.6,21.4,25.3,21.5,25,21.5z"/>
		</g>
	</g>
</g>
<g id="nyt_x5F_exporter_x5F_info" class="st29">
</g>
</svg>
