<?xml version="1.0" encoding="utf-8"?>
<!-- Generator: Adobe Illustrator 22.1.0, SVG Export Plug-In . SVG Version: 6.00 Build 0)  -->
<!DOCTYPE svg PUBLIC "-//W3C//DTD SVG 1.1//EN" "http://www.w3.org/Graphics/SVG/1.1/DTD/svg11.dtd">
<svg version="1.1" xmlns="http://www.w3.org/2000/svg" xmlns:xlink="http://www.w3.org/1999/xlink" x="0px" y="0px"
	 viewBox="0 0 50 40" style="enable-background:new 0 0 50 40;" xml:space="preserve">
<style type="text/css">
	.st0{fill:#DBF0F4;}
	.st1{fill:#194A77;}
	.st2{fill:#F69E24;}
	.st3{fill:#F7C6C9;}
	.st4{fill:#FFFFFF;}
	.st5{fill:#53BA82;}
	.st6{fill:#C12629;}
	.st7{fill:#FDBE13;}
	.st8{fill:none;stroke:#194A77;stroke-width:2;stroke-linecap:round;stroke-linejoin:round;stroke-miterlimit:10;}
	.st9{fill:#56C8E9;}
	.st10{fill:#1BB7EB;}
	.st11{fill:#4367B2;}
	.st12{fill:#FAAE28;}
	.st13{fill:#F89E28;}
	.st14{fill:#F68E27;}
	.st15{fill:#F47F25;}
	.st16{fill:#F26E24;}
	.st17{fill:#F05B24;}
	.st18{fill:#EE4524;}
	.st19{fill:#ED2724;}
	.st20{fill:#E62E35;}
	.st21{fill:#E03348;}
	.st22{fill:#DB3758;}
	.st23{fill:#D63B68;}
	.st24{fill:#D03D77;}
	.st25{fill:#CA4186;}
	.st26{fill:#C14397;}
	.st27{fill:#F05669;}
	.st28{fill:#F5887E;}
	.st29{display:none;}
	.st30{display:inline;}
</style>
<g id="Layer_1">
	<g>
		<path class="st0" d="M8,25.6c0,2.7,2.2,4.9,4.9,4.9h1.6v5l5.8-5h16.8c2.7,0,4.9-2.2,4.9-4.9V13.4L8,25.6z"/>
		<path class="st1" d="M33.6,5.5h-1.8c-0.6,0-1-0.4-1-1s0.4-1,1-1h1.8c0.6,0,1,0.4,1,1S34.2,5.5,33.6,5.5z"/>
		<path class="st1" d="M14.5,36.5c-0.1,0-0.3,0-0.4-0.1c-0.4-0.2-0.6-0.5-0.6-0.9v-4h-0.6c-3.2,0-5.9-2.6-5.9-5.9V9.4
			c0-3.2,2.6-5.9,5.9-5.9h15.9c0.6,0,1,0.4,1,1s-0.4,1-1,1H12.9C10.7,5.5,9,7.2,9,9.4v16.3c0,2.1,1.7,3.9,3.9,3.9h1.6
			c0.6,0,1,0.4,1,1v2.8l4.2-3.6c0.2-0.2,0.4-0.2,0.7-0.2h16.8c2.1,0,3.9-1.7,3.9-3.9V9.4c0-2.1-1.7-3.9-3.9-3.9h-0.6
			c-0.6,0-1-0.4-1-1s0.4-1,1-1h0.6c3.2,0,5.9,2.6,5.9,5.9v16.3c0,3.2-2.6,5.9-5.9,5.9H20.7l-5.6,4.8C15,36.4,14.7,36.5,14.5,36.5z"
			/>
		<path class="st9" d="M26,24H14c-0.6,0-1-0.4-1-1s0.4-1,1-1h12c0.6,0,1,0.4,1,1S26.6,24,26,24z"/>
		<path class="st1" d="M29.8,14H14c-0.6,0-1-0.4-1-1s0.4-1,1-1h15.8c0.6,0,1,0.4,1,1S30.4,14,29.8,14z"/>
		<path class="st9" d="M36,19H14c-0.6,0-1-0.4-1-1s0.4-1,1-1h22c0.6,0,1,0.4,1,1S36.6,19,36,19z"/>
	</g>
</g>
<g id="nyt_x5F_exporter_x5F_info" class="st29">
</g>
</svg>
