<?xml version="1.0" encoding="utf-8"?>
<!-- Generator: Adobe Illustrator 22.1.0, SVG Export Plug-In . SVG Version: 6.00 Build 0)  -->
<!DOCTYPE svg PUBLIC "-//W3C//DTD SVG 1.1//EN" "http://www.w3.org/Graphics/SVG/1.1/DTD/svg11.dtd">
<svg version="1.1" xmlns="http://www.w3.org/2000/svg" xmlns:xlink="http://www.w3.org/1999/xlink" x="0px" y="0px"
	 viewBox="0 0 50 40" style="enable-background:new 0 0 50 40;" xml:space="preserve">
<style type="text/css">
	.st0{fill:#DBF0F4;}
	.st1{fill:#194A77;}
	.st2{fill:#F69E24;}
	.st3{fill:#F7C6C9;}
	.st4{fill:#FFFFFF;}
	.st5{fill:#53BA82;}
	.st6{fill:#C12629;}
	.st7{fill:#FDBE13;}
	.st8{fill:none;stroke:#194A77;stroke-width:2;stroke-linecap:round;stroke-linejoin:round;stroke-miterlimit:10;}
	.st9{fill:#56C8E9;}
	.st10{fill:#1BB7EB;}
	.st11{fill:#4367B2;}
	.st12{fill:#FAAE28;}
	.st13{fill:#F89E28;}
	.st14{fill:#F68E27;}
	.st15{fill:#F47F25;}
	.st16{fill:#F26E24;}
	.st17{fill:#F05B24;}
	.st18{fill:#EE4524;}
	.st19{fill:#ED2724;}
	.st20{fill:#E62E35;}
	.st21{fill:#E03348;}
	.st22{fill:#DB3758;}
	.st23{fill:#D63B68;}
	.st24{fill:#D03D77;}
	.st25{fill:#CA4186;}
	.st26{fill:#C14397;}
	.st27{fill:#F05669;}
	.st28{fill:#F5887E;}
	.st29{display:none;}
	.st30{display:inline;}
	.st31{font-family:'MyriadPro-Regular';}
	.st32{font-size:12px;}
</style>
<g id="Layer_1">
	<g>
		<g>
			<path class="st0" d="M30.6,6.1c0,0-5.9-6.7-13.1-0.3c-5.9,5.3-0.2,15.3-0.2,15.3s-0.1-4.2,0.9-6.4c1.1-2.5,4.7-1.8,4.7-1.8
				s4.8,1.3,6.8-2.6c0,0,3.4,0.4,3.4,9.4c0,0,3.5-1,2.5-9.6C35.1,5.7,30.6,6.1,30.6,6.1z"/>
			<path class="st1" d="M25.4,37.8C25.4,37.8,25.3,37.8,25.4,37.8c-0.5,0-1.7-0.1-2.8-1.2c-1.5-1.4-2.2-3.8-2.2-7.1c0-0.6,0.4-1,1-1
				s1,0.4,1,1c0,3.4,0.8,4.9,1.6,5.6c0.7,0.7,1.4,0.7,1.4,0.7c0.1,0,0.8,0,1.5-0.7c0.7-0.7,1.6-2.2,1.6-5.6c0-0.6,0.4-1,1-1
				s1,0.4,1,1c0,3.3-0.7,5.7-2.2,7.1C27,37.7,25.8,37.8,25.4,37.8z"/>
			<g>
				<path class="st1" d="M11.7,37.6c-0.3,0-0.6-0.1-0.8-0.3c-0.4-0.4-0.3-1.1,0.1-1.4c2.1-1.8,5.5-3.3,9.3-4.2
					c0.5-0.1,1.1,0.2,1.2,0.8c0.1,0.5-0.2,1.1-0.8,1.2c-3.4,0.8-6.6,2.2-8.4,3.8C12.2,37.5,11.9,37.6,11.7,37.6z"/>
				<path class="st1" d="M33,34.6c-0.1,0-0.2,0-0.3-0.1c-1-0.4-2-0.7-3.1-0.9c-0.5-0.1-0.9-0.7-0.7-1.2c0.1-0.5,0.7-0.9,1.2-0.7
					c1.1,0.3,2.3,0.6,3.3,1c0.5,0.2,0.8,0.8,0.6,1.3C33.8,34.3,33.4,34.6,33,34.6z"/>
				<path class="st1" d="M39,38c-0.2,0-0.5-0.1-0.7-0.3c-0.6-0.6-1.3-1.1-2.2-1.6c-0.5-0.3-0.6-0.9-0.4-1.4c0.3-0.5,0.9-0.6,1.4-0.4
					c1,0.6,1.9,1.2,2.6,1.9c0.4,0.4,0.4,1,0,1.4C39.5,37.9,39.3,38,39,38z"/>
			</g>
			<path class="st1" d="M25.4,31.4c-5.3,0-9.2-5.5-9.2-10.3c0-0.6,0.4-1,1-1s1,0.4,1,1c0,3.9,3.1,8.3,7.2,8.3c3.9,0,6.7-2.8,6.7-6.8
				c0-0.6,0.4-1,1-1s1,0.4,1,1C34.1,27.7,30.4,31.4,25.4,31.4z"/>
			<path class="st1" d="M17.2,22.1c-0.4,0-0.7-0.2-0.9-0.5c-0.2-0.4-6-10.8,0.4-16.5c2.4-2.2,5-3.2,7.6-3c3.3,0.2,5.7,2.2,6.6,3.1
				c0,0,0,0,0,0c2,0,5.1,1,5.6,4.9c1.1,9.1-2.8,10.5-3.2,10.6c-0.3,0.1-0.6,0-0.9-0.2c-0.3-0.2-0.4-0.5-0.4-0.8
				c0-5.5-1.3-7.5-2.1-8.1c-2.1,2.8-5.7,2.7-7.4,2.3l0,0c0,0-2.8-0.5-3.6,1.3c-0.7,1.6-0.8,4.9-0.8,6c0,0.5-0.3,0.9-0.7,1
				C17.4,22.1,17.3,22.1,17.2,22.1z M29.7,9.2c0,0,0.1,0,0.1,0c0.4,0,3.6,0.7,4.2,8.1c0.6-1.2,1.1-3.3,0.6-7.1
				c-0.4-3.4-3.8-3.2-3.9-3.1c-0.3,0-0.6-0.1-0.8-0.3c0,0-2.3-2.5-5.6-2.7c-2.1-0.1-4.1,0.7-6.1,2.5c-3.1,2.8-2.6,7.2-1.6,10.3
				c0.1-0.9,0.4-1.8,0.7-2.6c1.4-3.2,5.7-2.4,5.8-2.4c0.2,0.1,4.1,1,5.7-2.1C28.9,9.4,29.3,9.2,29.7,9.2z"/>
		</g>
		<path class="st1" d="M25.3,26.7c-1.3,0-2.5-0.4-3.6-1.1c-0.5-0.3-0.6-0.9-0.3-1.4c0.3-0.5,0.9-0.6,1.4-0.3c1.5,1,3.5,1,5,0.1
			l0.1-0.1c0.5-0.3,1.1-0.2,1.4,0.3c0.3,0.5,0.2,1.1-0.3,1.4l-0.1,0.1C27.8,26.3,26.6,26.7,25.3,26.7z"/>
		<g>
			<path class="st5" d="M10.4,29.8c-0.6,0-1-0.4-1-1v-4c0-0.6,0.4-1,1-1s1,0.4,1,1v4C11.4,29.3,10.9,29.8,10.4,29.8z"/>
			<path class="st5" d="M12.3,27.8H8.4c-0.6,0-1-0.4-1-1s0.4-1,1-1h3.9c0.6,0,1,0.4,1,1S12.9,27.8,12.3,27.8z"/>
		</g>
		<g>
			<path class="st5" d="M7,17.8c-0.6,0-1-0.4-1-1v-4c0-0.6,0.4-1,1-1s1,0.4,1,1v4C8,17.4,7.5,17.8,7,17.8z"/>
			<path class="st5" d="M8.9,15.8H5c-0.6,0-1-0.4-1-1s0.4-1,1-1h3.9c0.6,0,1,0.4,1,1S9.5,15.8,8.9,15.8z"/>
		</g>
		<g>
			<path class="st5" d="M41.6,27c-0.6,0-1-0.4-1-1v-7c0-0.6,0.4-1,1-1s1,0.4,1,1v7C42.6,26.6,42.1,27,41.6,27z"/>
			<path class="st5" d="M45,23.5h-6.9c-0.6,0-1-0.4-1-1s0.4-1,1-1H45c0.6,0,1,0.4,1,1S45.6,23.5,45,23.5z"/>
		</g>
	</g>
</g>
<g id="nyt_x5F_exporter_x5F_info" class="st29">
	<text transform="matrix(1 0 0 1 -240 0)" class="st30"><tspan x="0" y="0" class="st31 st32">&lt;nyt_prefs&gt;</tspan><tspan x="0" y="14.4" class="st31 st32">  &lt;nyt_prefix/&gt;</tspan><tspan x="0" y="28.8" class="st31 st32">  &lt;nyt_suffix/&gt;</tspan><tspan x="0" y="43.2" class="st31 st32">  &lt;nyt_base_path&gt;~/Desktop&lt;/nyt_base_path&gt;</tspan><tspan x="0" y="57.6" class="st31 st32">  &lt;nyt_scaling&gt;100%&lt;/nyt_scaling&gt;</tspan><tspan x="0" y="72" class="st31 st32">  &lt;nyt_transparency&gt;true&lt;/nyt_transparency&gt;</tspan><tspan x="0" y="86.4" class="st31 st32">  &lt;nyt_format&gt;PNG 24&lt;/nyt_format&gt;</tspan><tspan x="0" y="100.8" class="st31 st32">  &lt;nyt_export_code&gt;artboards&lt;/nyt_export_code&gt;</tspan><tspan x="0" y="115.2" class="st31 st32">&lt;/nyt_prefs&gt;</tspan></text>
</g>
</svg>
