<?xml version="1.0" encoding="utf-8"?>
<!-- Generator: Adobe Illustrator 22.1.0, SVG Export Plug-In . SVG Version: 6.00 Build 0)  -->
<!DOCTYPE svg PUBLIC "-//W3C//DTD SVG 1.1//EN" "http://www.w3.org/Graphics/SVG/1.1/DTD/svg11.dtd">
<svg version="1.1" xmlns="http://www.w3.org/2000/svg" xmlns:xlink="http://www.w3.org/1999/xlink" x="0px" y="0px"
	 viewBox="0 0 50 40" style="enable-background:new 0 0 50 40;" xml:space="preserve">
<style type="text/css">
	.st0{fill:#DBF0F4;}
	.st1{fill:#194A77;}
	.st2{fill:#F69E24;}
	.st3{fill:#F7C6C9;}
	.st4{fill:#FFFFFF;}
	.st5{fill:#53BA82;}
	.st6{fill:#C12629;}
	.st7{fill:#FDBE13;}
	.st8{fill:none;stroke:#194A77;stroke-width:2;stroke-linecap:round;stroke-linejoin:round;stroke-miterlimit:10;}
	.st9{fill:#56C8E9;}
	.st10{fill:#1BB7EB;}
	.st11{fill:#4367B2;}
	.st12{fill:#FAAE28;}
	.st13{fill:#F89E28;}
	.st14{fill:#F68E27;}
	.st15{fill:#F47F25;}
	.st16{fill:#F26E24;}
	.st17{fill:#F05B24;}
	.st18{fill:#EE4524;}
	.st19{fill:#ED2724;}
	.st20{fill:#E62E35;}
	.st21{fill:#E03348;}
	.st22{fill:#DB3758;}
	.st23{fill:#D63B68;}
	.st24{fill:#D03D77;}
	.st25{fill:#CA4186;}
	.st26{fill:#C14397;}
	.st27{fill:#F05669;}
	.st28{fill:#F5887E;}
	.st29{display:none;}
	.st30{display:inline;}
</style>
<g id="Layer_1">
	<g>
		<polygon class="st3" points="7.9,10.5 37.4,34.2 7.9,34.2 		"/>
		<path class="st1" d="M42.1,35.2h-34c-0.6,0-1-0.4-1-1V10.5c0-0.6,0.4-1,1-1s1,0.4,1,1v22.7h33c0.6,0,1,0.4,1,1
			S42.6,35.2,42.1,35.2z"/>
		<g>
			<path class="st6" d="M33.7,27.1c-0.5,0-1-0.4-1-0.9c0-0.6,0.4-1,0.9-1l4-0.2l-0.2-4c0-0.6,0.4-1,0.9-1c0.5,0,1,0.4,1,0.9l0.3,5
				c0,0.6-0.4,1-0.9,1L33.7,27.1C33.8,27.1,33.8,27.1,33.7,27.1z"/>
			<path class="st6" d="M38.7,26.9c-0.2,0-0.4-0.1-0.6-0.2L13.8,6.6c-0.4-0.4-0.5-1-0.1-1.4C14,4.7,14.6,4.7,15,5l24.3,20.1
				c0.4,0.4,0.5,1,0.1,1.4C39.3,26.8,39,26.9,38.7,26.9z"/>
		</g>
		<path class="st1" d="M12.9,20.3c-0.6,0-1-0.4-1-1v-5.2c0-0.6,0.4-1,1-1s1,0.4,1,1v5.2C13.9,19.8,13.5,20.3,12.9,20.3z"/>
		<path class="st1" d="M12.9,34.5c-0.6,0-1-0.4-1-1v-9.4c0-0.6,0.4-1,1-1s1,0.4,1,1v9.4C13.9,34,13.5,34.5,12.9,34.5z"/>
		<path class="st1" d="M22.9,25.1c-0.6,0-1-0.4-1-1v-2c0-0.6,0.4-1,1-1s1,0.4,1,1v2C23.9,24.7,23.5,25.1,22.9,25.1z"/>
		<path class="st1" d="M22.9,34.5c-0.6,0-1-0.4-1-1v-5.7c0-0.6,0.4-1,1-1s1,0.4,1,1v5.7C23.9,34,23.5,34.5,22.9,34.5z"/>
		<path class="st1" d="M32.9,34.5c-0.6,0-1-0.4-1-1v-3c0-0.6,0.4-1,1-1s1,0.4,1,1v3C33.9,34,33.5,34.5,32.9,34.5z"/>
		<path class="st1" d="M27.9,34.5c-0.6,0-1-0.4-1-1V32c0-0.6,0.4-1,1-1s1,0.4,1,1v1.5C28.9,34,28.5,34.5,27.9,34.5z"/>
		<path class="st1" d="M27.9,28.8c-0.6,0-1-0.4-1-1v-1.3c0-0.6,0.4-1,1-1s1,0.4,1,1v1.3C28.9,28.4,28.5,28.8,27.9,28.8z"/>
		<path class="st1" d="M17.9,34.5c-0.6,0-1-0.4-1-1V31c0-0.6,0.4-1,1-1s1,0.4,1,1v2.5C18.9,34,18.5,34.5,17.9,34.5z"/>
		<path class="st1" d="M17.9,27.5c-0.6,0-1-0.4-1-1v-9c0-0.6,0.4-1,1-1s1,0.4,1,1v9C18.9,27,18.5,27.5,17.9,27.5z"/>
	</g>
</g>
<g id="nyt_x5F_exporter_x5F_info" class="st29">
</g>
</svg>
