<?xml version="1.0" encoding="utf-8"?>
<!-- Generator: Adobe Illustrator 22.1.0, SVG Export Plug-In . SVG Version: 6.00 Build 0)  -->
<!DOCTYPE svg PUBLIC "-//W3C//DTD SVG 1.1//EN" "http://www.w3.org/Graphics/SVG/1.1/DTD/svg11.dtd">
<svg version="1.1" xmlns="http://www.w3.org/2000/svg" xmlns:xlink="http://www.w3.org/1999/xlink" x="0px" y="0px"
	 viewBox="0 0 50 40" style="enable-background:new 0 0 50 40;" xml:space="preserve">
<style type="text/css">
	.st0{fill:#DBF0F4;}
	.st1{fill:#194A77;}
	.st2{fill:#F69E24;}
	.st3{fill:#F7C6C9;}
	.st4{fill:#FFFFFF;}
	.st5{fill:#53BA82;}
	.st6{fill:#C12629;}
	.st7{fill:#FDBE13;}
	.st8{fill:none;stroke:#194A77;stroke-width:2;stroke-linecap:round;stroke-linejoin:round;stroke-miterlimit:10;}
	.st9{fill:#56C8E9;}
	.st10{fill:#1BB7EB;}
	.st11{fill:#4367B2;}
	.st12{fill:#FAAE28;}
	.st13{fill:#F89E28;}
	.st14{fill:#F68E27;}
	.st15{fill:#F47F25;}
	.st16{fill:#F26E24;}
	.st17{fill:#F05B24;}
	.st18{fill:#EE4524;}
	.st19{fill:#ED2724;}
	.st20{fill:#E62E35;}
	.st21{fill:#E03348;}
	.st22{fill:#DB3758;}
	.st23{fill:#D63B68;}
	.st24{fill:#D03D77;}
	.st25{fill:#CA4186;}
	.st26{fill:#C14397;}
	.st27{fill:#F05669;}
	.st28{fill:#F5887E;}
	.st29{display:none;}
	.st30{display:inline;}
</style>
<g id="Layer_1">
	<g>
		<g>
			<g>
				<path class="st0" d="M9,12.3V6.5c0-1.1,0.9-2,2-2h28c1.1,0,2,0.9,2,2v5.8H9z"/>
				<path class="st1" d="M39,35.5h-3.4c-0.6,0-1-0.4-1-1s0.4-1,1-1H39c0.6,0,1-0.4,1-1v-26c0-0.6-0.4-1-1-1H11c-0.6,0-1,0.4-1,1v26
					c0,0.6,0.4,1,1,1h3c0.6,0,1,0.4,1,1s-0.4,1-1,1h-3c-1.7,0-3-1.3-3-3v-26c0-1.7,1.3-3,3-3h28c1.7,0,3,1.3,3,3v26
					C42,34.2,40.7,35.5,39,35.5z"/>
				<g>
					<circle class="st1" cx="13" cy="8.5" r="1"/>
					<circle class="st1" cx="21" cy="8.5" r="1"/>
					<circle class="st1" cx="17" cy="8.5" r="1"/>
				</g>
				<path class="st1" d="M31.5,13.3H9c-0.6,0-1-0.4-1-1s0.4-1,1-1h22.5c0.6,0,1,0.4,1,1S32.1,13.3,31.5,13.3z"/>
				<path class="st1" d="M41,13.3h-4.8c-0.6,0-1-0.4-1-1s0.4-1,1-1H41c0.6,0,1,0.4,1,1S41.6,13.3,41,13.3z"/>
			</g>
		</g>
		<g>
			<path class="st9" d="M21.9,36.5c-0.2,0-0.4,0-0.5-0.1l-2.7-1.7c-0.4-0.3-0.6-0.8-0.4-1.2l0.9-2.2c-0.4-0.5-0.8-1.1-1-1.7
				c0,0,0,0,0-0.1l-2.2-0.3c-0.5-0.1-0.9-0.5-0.9-1v-3.3c0-0.5,0.4-0.9,0.9-1l2.2-0.3c0.3-0.6,0.6-1.2,1.1-1.8l-0.9-2.2
				c-0.2-0.5,0-1,0.4-1.2l2.7-1.7c0.4-0.3,1-0.2,1.3,0.3l1.5,2.1c0.6-0.1,1.1-0.1,1.7,0l1.5-2.1c0.3-0.4,0.9-0.5,1.3-0.3l2.7,1.7
				c0.4,0.3,0.6,0.8,0.4,1.2l-0.9,2.2c0.4,0.5,0.8,1.2,1.1,1.8l2.2,0.3c0.5,0.1,0.9,0.5,0.9,1v3.3c0,0.5-0.4,0.9-0.9,1L32,29.4
				c-0.3,0.6-0.6,1.2-1.1,1.8l0.9,2.2c0.2,0.5,0,1-0.4,1.2l-2.7,1.7c-0.4,0.3-1,0.2-1.3-0.3L25.8,34c-0.6,0.1-1.1,0.1-1.7,0
				l-1.5,2.1C22.5,36.4,22.2,36.5,21.9,36.5z M20.4,33.4l1.2,0.7l1.3-1.8c0.2-0.3,0.6-0.5,1-0.4c0.7,0.1,1.5,0.1,2.2,0
				c0.4-0.1,0.8,0.1,1,0.4l1.3,1.8l1.2-0.7l-0.8-2c-0.1-0.4-0.1-0.8,0.2-1.1c0.6-0.6,1-1.3,1.3-2.1c0.1-0.4,0.4-0.6,0.8-0.7l1.9-0.2
				v-1.6l-1.9-0.2c-0.4,0-0.7-0.3-0.8-0.7C30,24,29.6,23.3,29,22.7c-0.3-0.3-0.4-0.7-0.2-1.1l0.8-2l-1.2-0.7l-1.3,1.8
				c-0.2,0.3-0.6,0.5-1,0.4c-0.7-0.1-1.5-0.1-2.2,0c-0.4,0.1-0.8-0.1-1-0.4l-1.3-1.8l-1.2,0.7l0.8,2c0.1,0.4,0.1,0.8-0.2,1.1
				c-0.6,0.6-1,1.3-1.3,2.1c-0.1,0.4-0.4,0.6-0.8,0.7L17,25.7v1.6l1.9,0.2c0.4,0,0.7,0.3,0.8,0.7c0.1,0.2,0.1,0.3,0.2,0.5
				c0.3,0.6,0.6,1.2,1.1,1.6c0.3,0.3,0.4,0.7,0.2,1.1L20.4,33.4z M34,28.2L34,28.2L34,28.2z"/>
			<path class="st9" d="M25,25.6c0.5,0,0.9,0.4,0.9,0.9s-0.4,0.9-0.9,0.9s-0.9-0.4-0.9-0.9S24.5,25.6,25,25.6 M25,23.6
				c-1.6,0-2.9,1.3-2.9,2.9s1.3,2.9,2.9,2.9s2.9-1.3,2.9-2.9S26.6,23.6,25,23.6L25,23.6z"/>
		</g>
	</g>
</g>
<g id="nyt_x5F_exporter_x5F_info" class="st29">
</g>
</svg>
