<?xml version="1.0" encoding="utf-8"?>
<!-- Generator: Adobe Illustrator 22.1.0, SVG Export Plug-In . SVG Version: 6.00 Build 0)  -->
<!DOCTYPE svg PUBLIC "-//W3C//DTD SVG 1.1//EN" "http://www.w3.org/Graphics/SVG/1.1/DTD/svg11.dtd">
<svg version="1.1" xmlns="http://www.w3.org/2000/svg" xmlns:xlink="http://www.w3.org/1999/xlink" x="0px" y="0px"
	 viewBox="0 0 50 40" style="enable-background:new 0 0 50 40;" xml:space="preserve">
<style type="text/css">
	.st0{fill:#DBF0F4;}
	.st1{fill:#194A77;}
	.st2{fill:#F69E24;}
	.st3{fill:#F7C6C9;}
	.st4{fill:#FFFFFF;}
	.st5{fill:#53BA82;}
	.st6{fill:#C12629;}
	.st7{fill:#FDBE13;}
	.st8{fill:none;stroke:#194A77;stroke-width:2;stroke-linecap:round;stroke-linejoin:round;stroke-miterlimit:10;}
	.st9{fill:#56C8E9;}
	.st10{fill:#1BB7EB;}
	.st11{fill:#4367B2;}
	.st12{fill:#FAAE28;}
	.st13{fill:#F89E28;}
	.st14{fill:#F68E27;}
	.st15{fill:#F47F25;}
	.st16{fill:#F26E24;}
	.st17{fill:#F05B24;}
	.st18{fill:#EE4524;}
	.st19{fill:#ED2724;}
	.st20{fill:#E62E35;}
	.st21{fill:#E03348;}
	.st22{fill:#DB3758;}
	.st23{fill:#D63B68;}
	.st24{fill:#D03D77;}
	.st25{fill:#CA4186;}
	.st26{fill:#C14397;}
	.st27{fill:#F05669;}
	.st28{fill:#F5887E;}
	.st29{display:none;}
	.st30{display:inline;}
</style>
<g id="Layer_1">
	<g>
		<circle class="st0" cx="25" cy="20" r="17"/>
		<path class="st4" d="M35,15.8c0,0.8,0,2.2,0,4.2s0,3.3-0.1,4.2c0,0.8-0.2,1.6-0.4,2.2c-0.3,0.7-0.7,1.4-1.2,1.9
			c-0.6,0.6-1.2,1-1.9,1.2c-0.6,0.2-1.4,0.3-2.2,0.4C28.3,30,26.9,30,25,30s-3.3,0-4.2-0.1c-0.8,0-1.6-0.2-2.2-0.4
			c-0.7-0.2-1.4-0.6-1.9-1.2c-0.6-0.6-1-1.2-1.2-1.9c-0.2-0.6-0.3-1.4-0.4-2.2c0-0.8-0.1-2.2-0.1-4.2s0-3.3,0.1-4.2
			c0-0.8,0.2-1.6,0.4-2.2c0.3-0.7,0.7-1.4,1.2-1.9c0.6-0.6,1.2-1,1.9-1.2c0.6-0.2,1.4-0.3,2.2-0.4c0.8,0,2.2-0.1,4.2-0.1
			s3.3,0,4.2,0.1c0.8,0,1.6,0.2,2.2,0.4c0.7,0.3,1.4,0.7,1.9,1.2s1,1.2,1.2,1.9C34.8,14.2,34.9,15,35,15.8z"/>
		<path class="st1" d="M25,38c-9.9,0-18-8.1-18-18c0-2.4,0.5-4.8,1.4-7c0.2-0.5,0.8-0.7,1.3-0.5c0.5,0.2,0.7,0.8,0.5,1.3
			C9.4,15.7,9,17.8,9,20c0,8.8,7.2,16,16,16s16-7.2,16-16S33.8,4,25,4c-0.7,0-1.3,0-2,0.1c-0.5,0.1-1-0.3-1.1-0.9
			c-0.1-0.5,0.3-1,0.9-1.1C23.5,2,24.2,2,25,2c9.9,0,18,8.1,18,18S34.9,38,25,38z"/>
		<path class="st1" d="M12.5,9.5c-0.2,0-0.5-0.1-0.7-0.3c-0.4-0.4-0.4-1-0.1-1.4c1.4-1.5,3-2.8,4.8-3.7C17,3.8,17.6,4,17.9,4.5
			C18.2,5,18,5.6,17.5,5.9c-1.6,0.9-3.1,2-4.3,3.3C13,9.4,12.7,9.5,12.5,9.5z"/>
		<g>
			<path class="st12" d="M21.9,26.5c-0.3,0-0.6,0-0.8-0.1c0,0-0.1,0-0.1,0c-0.3-0.1-0.5-0.1-0.7-0.2c-0.3-0.1-0.6-0.3-0.9-0.6
				s-0.5-0.6-0.6-0.9c-0.1-0.2-0.1-0.4-0.2-0.7c0,0,0-0.1,0-0.1c0-0.2-0.1-0.5-0.1-0.8L17,21.7c0,0.3,0,0.6,0,0.8c0,0.3,0,0.6,0,0.8
				c0,0.4,0.1,0.7,0.1,1.1c0.2,0.9,0.6,1.7,1.2,2.3c0.6,0.6,1.3,1,2.3,1.2c0.3,0.1,0.7,0.1,1.1,0.1c0.2,0,0.5,0,0.8,0
				c0.2,0,0.5,0,0.8,0L21.9,26.5z"/>
			<path class="st13" d="M23.6,26.6h-0.5c-0.1,0-0.2,0-0.3,0c-0.2,0-0.4,0-0.7,0c-0.1,0-0.2,0-0.2,0c-0.3,0-0.6,0-0.8-0.1
				c0,0-0.1,0-0.1,0c-0.3-0.1-0.5-0.1-0.7-0.2c-0.3-0.1-0.6-0.3-0.9-0.6s-0.5-0.6-0.6-0.9c-0.1-0.2-0.1-0.4-0.2-0.7c0,0,0-0.1,0-0.1
				c0-0.2-0.1-0.5-0.1-0.8c0-0.1,0-0.2,0-0.2c0-0.3,0-0.5,0-0.7c0-0.1,0-0.2,0-0.3v-0.5L17,19.9v0.8c0,0.3,0,0.6,0,0.9
				c0,0.3,0,0.6,0,0.8c0,0.3,0,0.6,0,0.8c0,0.4,0.1,0.7,0.1,1.1l3.4,3.4c0.3,0.1,0.7,0.1,1.1,0.1c0.2,0,0.5,0,0.8,0
				c0.2,0,0.5,0,0.8,0c0.3,0,0.6,0,0.9,0h0.8L23.6,26.6z"/>
			<path class="st14" d="M18.6,24C18.6,24,18.6,24,18.6,24L17,22.5c0-0.2,0-0.5,0-0.8c0-0.3,0-0.6,0-0.9v-0.8c0-0.3,0-0.6,0-0.9
				c0-0.3,0-0.6,0-0.8l1.4,1.4V20c0,0,0,0.2,0,0.5v1.4c0,0.1,0,0.2,0,0.3c0,0.2,0,0.4,0,0.7c0,0.1,0,0.2,0,0.2
				C18.5,23.5,18.5,23.7,18.6,24z"/>
			<path class="st14" d="M26.8,28c-0.2,0-0.5,0-0.8,0c-0.3,0-0.6,0-0.9,0h-0.8c-0.3,0-0.6,0-0.9,0c-0.3,0-0.6,0-0.8,0l-1.6-1.6
				c0,0,0.1,0,0.1,0c0.2,0,0.5,0.1,0.8,0.1c0.1,0,0.2,0,0.2,0c0.3,0,0.5,0,0.7,0c0.1,0,0.2,0,0.3,0h1.4c0.3,0,0.4,0,0.5,0h0.3
				L26.8,28z"/>
			<path class="st15" d="M18.4,19.2c0,0.2,0,0.3,0,0.5V20c0,0,0,0.2,0,0.5v1.4c0,0.1,0,0.2,0,0.3L17,20.8v-0.8c0-0.3,0-0.6,0-0.9
				c0-0.3,0-0.6,0-0.8c0-0.3,0-0.6,0-0.9c0-0.3,0-0.5,0-0.7c0,0,0-0.1,0-0.1l1.4,1.4c0,0.1,0,0.1,0,0.2V19.2z"/>
			<path class="st15" d="M23.5,23.8c-0.5-0.2-1-0.5-1.4-0.9c-0.4-0.4-0.7-0.9-0.9-1.4c-0.1-0.3-0.2-0.7-0.2-1.1l3.7,3.7
				C24.2,24,23.9,24,23.5,23.8z"/>
			<path class="st15" d="M28.4,27.9c0,0-0.1,0-0.1,0c-0.2,0-0.4,0-0.7,0c-0.3,0-0.5,0-0.9,0c-0.2,0-0.5,0-0.8,0c-0.3,0-0.6,0-0.9,0
				h-0.8l-1.4-1.4c0.1,0,0.2,0,0.3,0h1.4c0.3,0,0.4,0,0.5,0h0.3c0.1,0,0.3,0,0.5,0h1.3L28.4,27.9z"/>
			<path class="st16" d="M17.3,15.1l1.2,1.2c0,0.2,0,0.5-0.1,0.8v0c0,0.3,0,0.6,0,0.8c0,0.1,0,0.1,0,0.2v1.1c0,0.2,0,0.3,0,0.5V20
				c0,0,0,0.2,0,0.5L17,19c0-0.3,0-0.6,0-0.8c0-0.3,0-0.6,0-0.9c0-0.3,0-0.5,0-0.7c0,0,0-0.1,0-0.1c0-0.3,0-0.5,0.1-0.8
				C17.2,15.5,17.2,15.3,17.3,15.1z"/>
			<path class="st16" d="M26.2,24c-0.2,0.1-0.5,0.1-0.7,0.1c-0.2,0-0.3,0-0.5,0c-0.1,0-0.3,0-0.4,0c-0.4,0-0.7-0.1-1.1-0.2
				c-0.5-0.2-1-0.5-1.4-0.9c-0.4-0.4-0.7-0.9-0.9-1.4c-0.1-0.3-0.2-0.7-0.2-1.1c0-0.1,0-0.3,0-0.4c0-0.2,0-0.3,0-0.5
				c0-0.2,0.1-0.5,0.1-0.7l1.3,1.3c0,0.4,0.1,0.8,0.3,1.1c0,0,0,0,0,0c0.1,0.2,0.3,0.4,0.5,0.6c0.2,0.2,0.4,0.4,0.6,0.5c0,0,0,0,0,0
				c0.3,0.2,0.7,0.3,1.1,0.3L26.2,24z"/>
			<path class="st16" d="M29.9,27.7c-0.2,0.1-0.4,0.1-0.7,0.2c-0.3,0-0.5,0.1-0.8,0.1c0,0-0.1,0-0.1,0c-0.2,0-0.4,0-0.7,0
				c-0.3,0-0.5,0-0.9,0c-0.2,0-0.5,0-0.8,0l-1.4-1.4c0.3,0,0.4,0,0.5,0h0.3c0.1,0,0.3,0,0.5,0h1.3c0.2,0,0.5,0,0.8,0h0
				c0.3,0,0.5,0,0.8-0.1L29.9,27.7z"/>
			<path class="st17" d="M17.9,13.9l1,1c-0.1,0.1-0.1,0.2-0.2,0.3c0,0.1-0.1,0.2-0.1,0.3c0,0.1-0.1,0.3-0.1,0.5c0,0.1,0,0.2,0,0.3
				c0,0.2,0,0.5-0.1,0.8v0c0,0.3,0,0.6,0,0.8c0,0.1,0,0.1,0,0.2v0.6L17,17.4c0-0.3,0-0.5,0-0.7c0,0,0-0.1,0-0.1c0-0.3,0-0.5,0.1-0.8
				c0-0.2,0.1-0.5,0.2-0.7c0.1-0.2,0.2-0.4,0.3-0.6C17.6,14.3,17.8,14.1,17.9,13.9z"/>
			<path class="st17" d="M27.3,23.4c-0.2,0.1-0.3,0.2-0.5,0.3c-0.2,0.1-0.4,0.2-0.6,0.3c-0.2,0.1-0.5,0.1-0.7,0.1
				c-0.2,0-0.3,0-0.5,0c-0.1,0-0.3,0-0.4,0c-0.4,0-0.7-0.1-1.1-0.2l-2.4-2.4c-0.1-0.3-0.2-0.7-0.2-1.1c0-0.1,0-0.3,0-0.4
				c0-0.2,0-0.3,0-0.5c0-0.2,0.1-0.5,0.1-0.7c0.1-0.2,0.1-0.4,0.3-0.6c0.1-0.2,0.2-0.4,0.3-0.5l1,1c-0.1,0.2-0.2,0.4-0.2,0.6
				c-0.1,0.2-0.1,0.4-0.1,0.7c0,0,0,0.1,0,0.1c0,0.4,0.1,0.8,0.3,1.1c0,0,0,0,0,0c0.1,0.2,0.3,0.4,0.5,0.6c0.2,0.2,0.4,0.4,0.6,0.5
				c0,0,0,0,0,0c0.3,0.2,0.7,0.3,1.1,0.3c0,0,0.1,0,0.1,0c0.2,0,0.5,0,0.7-0.1c0.2,0,0.4-0.1,0.6-0.2L27.3,23.4z"/>
			<path class="st17" d="M31.1,27.1c-0.2,0.1-0.3,0.2-0.5,0.3c-0.2,0.1-0.4,0.2-0.6,0.3c-0.2,0.1-0.4,0.1-0.7,0.2
				c-0.3,0-0.5,0.1-0.8,0.1c0,0-0.1,0-0.1,0c-0.2,0-0.4,0-0.7,0l-1.4-1.4h0.8c0.2,0,0.5,0,0.8,0h0c0.3,0,0.5,0,0.8-0.1
				c0.1,0,0.2,0,0.3,0c0.2,0,0.3-0.1,0.5-0.1c0.1,0,0.2-0.1,0.3-0.1c0.1,0,0.2-0.1,0.3-0.2L31.1,27.1z"/>
			<path class="st18" d="M18.7,13l1,1c-0.1,0.1-0.2,0.2-0.4,0.3c0,0-0.1,0.1-0.1,0.1c-0.2,0.2-0.3,0.3-0.4,0.5
				c-0.1,0.1-0.1,0.2-0.2,0.3c0,0.1-0.1,0.2-0.1,0.3c0,0.1-0.1,0.3-0.1,0.5c0,0.1,0,0.2,0,0.3c0,0.2,0,0.5-0.1,0.8l-1.3-1.3
				c0-0.2,0.1-0.5,0.2-0.7c0.1-0.2,0.2-0.4,0.3-0.6c0.1-0.2,0.2-0.4,0.3-0.5c0.1-0.2,0.2-0.3,0.4-0.5c0,0,0-0.1,0.1-0.1
				C18.5,13.2,18.6,13.1,18.7,13z"/>
			<path class="st18" d="M22.4,16.8l1,1c-0.1,0.1-0.2,0.2-0.4,0.3c0,0-0.1,0.1-0.1,0.1c-0.1,0.2-0.3,0.3-0.4,0.5
				c-0.1,0.2-0.2,0.4-0.2,0.6c-0.1,0.2-0.1,0.4-0.1,0.7c0,0,0,0.1,0,0.1c0,0.4,0.1,0.8,0.3,1.1l-1.7-1.7c0-0.2,0.1-0.5,0.1-0.7
				c0.1-0.2,0.1-0.4,0.3-0.6c0.1-0.2,0.2-0.4,0.3-0.5c0.1-0.2,0.2-0.3,0.4-0.5c0,0,0.1-0.1,0.1-0.1C22.2,17,22.3,16.9,22.4,16.8z"/>
			<path class="st18" d="M28.2,22.6c-0.1,0.1-0.2,0.2-0.3,0.3L27.8,23c-0.2,0.1-0.3,0.3-0.5,0.4c-0.2,0.1-0.3,0.2-0.5,0.3
				c-0.2,0.1-0.4,0.2-0.6,0.3c-0.2,0.1-0.5,0.1-0.7,0.1l-1.7-1.7c0.3,0.2,0.7,0.3,1.1,0.3c0,0,0.1,0,0.1,0c0.2,0,0.5,0,0.7-0.1
				c0.2,0,0.4-0.1,0.6-0.2c0.2-0.1,0.4-0.2,0.5-0.4c0,0,0.1-0.1,0.1-0.1c0.1-0.1,0.2-0.2,0.3-0.4L28.2,22.6z"/>
			<path class="st18" d="M32,26.3c-0.1,0.1-0.2,0.2-0.3,0.3c0,0-0.1,0.1-0.1,0.1c-0.2,0.2-0.3,0.3-0.5,0.4c-0.2,0.1-0.3,0.2-0.5,0.3
				c-0.2,0.1-0.4,0.2-0.6,0.3c-0.2,0.1-0.4,0.1-0.7,0.2l-1.3-1.3c0.3,0,0.5,0,0.8-0.1c0.1,0,0.2,0,0.3,0c0.2,0,0.3-0.1,0.5-0.1
				c0.1,0,0.2-0.1,0.3-0.1c0.1,0,0.2-0.1,0.3-0.2c0.2-0.1,0.4-0.2,0.5-0.4c0,0,0.1-0.1,0.1-0.1c0.1-0.1,0.2-0.2,0.3-0.4L32,26.3z"/>
			<path class="st19" d="M19.8,12.4l1.2,1.2c-0.2,0-0.5,0.1-0.6,0.2c0,0,0,0,0,0c-0.2,0.1-0.4,0.2-0.6,0.3c-0.1,0.1-0.2,0.2-0.4,0.3
				c0,0-0.1,0.1-0.1,0.1c-0.2,0.2-0.3,0.3-0.4,0.5c-0.1,0.1-0.1,0.2-0.2,0.3c0,0.1-0.1,0.2-0.1,0.3l-1.1-1.1
				c0.1-0.2,0.2-0.4,0.3-0.5c0.1-0.2,0.2-0.3,0.4-0.5c0,0,0-0.1,0.1-0.1c0.1-0.1,0.2-0.2,0.3-0.3c0.2-0.1,0.4-0.3,0.5-0.4
				C19.4,12.6,19.6,12.5,19.8,12.4L19.8,12.4z"/>
			<path class="st19" d="M23.5,16.2l1.2,1.2c-0.2,0-0.5,0.1-0.7,0.2c-0.2,0.1-0.4,0.2-0.6,0.3c-0.1,0.1-0.2,0.2-0.4,0.3
				c0,0-0.1,0.1-0.1,0.1c-0.1,0.2-0.3,0.3-0.4,0.5c-0.1,0.2-0.2,0.4-0.2,0.6l-1.1-1.1c0.1-0.2,0.2-0.4,0.3-0.5
				c0.1-0.2,0.2-0.3,0.4-0.5c0,0,0.1-0.1,0.1-0.1c0.1-0.1,0.2-0.2,0.3-0.3c0.2-0.1,0.3-0.3,0.5-0.4C23.1,16.3,23.3,16.2,23.5,16.2z"
				/>
			<path class="st19" d="M28.8,21.5c-0.1,0.2-0.2,0.4-0.3,0.6c-0.1,0.2-0.2,0.4-0.4,0.5c-0.1,0.1-0.2,0.2-0.3,0.3L27.8,23
				c-0.2,0.1-0.3,0.3-0.5,0.4c-0.2,0.1-0.3,0.2-0.5,0.3l-1.1-1.1c0.2,0,0.4-0.1,0.6-0.2c0.2-0.1,0.4-0.2,0.5-0.4
				c0,0,0.1-0.1,0.1-0.1c0.1-0.1,0.2-0.2,0.3-0.4c0.1-0.2,0.2-0.4,0.3-0.6c0.1-0.2,0.1-0.4,0.2-0.7L28.8,21.5z"/>
			<path class="st19" d="M32.6,25.2L32.6,25.2c-0.1,0.2-0.2,0.4-0.3,0.6c-0.1,0.2-0.2,0.4-0.4,0.5c-0.1,0.1-0.2,0.2-0.3,0.3
				c0,0-0.1,0.1-0.1,0.1c-0.2,0.2-0.3,0.3-0.5,0.4c-0.2,0.1-0.3,0.2-0.5,0.3l-1.1-1.1c0.1,0,0.2-0.1,0.3-0.1c0.1,0,0.2-0.1,0.3-0.2
				c0.2-0.1,0.4-0.2,0.5-0.4c0,0,0.1-0.1,0.1-0.1c0.1-0.1,0.2-0.2,0.3-0.4c0.1-0.2,0.2-0.4,0.3-0.6c0,0,0,0,0,0
				c0.1-0.2,0.1-0.4,0.2-0.6L32.6,25.2z"/>
			<path class="st20" d="M22.1,13.5c-0.1,0-0.2,0-0.4,0c-0.3,0-0.5,0-0.7,0.1c0,0-0.1,0-0.1,0c-0.2,0-0.5,0.1-0.6,0.2c0,0,0,0,0,0
				c-0.2,0.1-0.4,0.2-0.6,0.3c-0.1,0.1-0.2,0.2-0.4,0.3c0,0-0.1,0.1-0.1,0.1l-1-1c0,0,0-0.1,0.1-0.1c0.1-0.1,0.2-0.2,0.3-0.3
				c0.2-0.1,0.4-0.3,0.5-0.4c0.2-0.1,0.4-0.2,0.5-0.3h0c0.2-0.1,0.4-0.2,0.7-0.2c0.2-0.1,0.4-0.1,0.7-0.1l1.4,1.4
				C22.4,13.5,22.3,13.5,22.1,13.5z"/>
			<path class="st20" d="M29.1,20c0,0.3,0,0.5-0.1,0.8c0,0.2-0.1,0.5-0.2,0.7c-0.1,0.2-0.2,0.4-0.3,0.6c-0.1,0.2-0.2,0.4-0.4,0.5
				c-0.1,0.1-0.2,0.2-0.3,0.3L27.8,23l-1-1c0,0,0.1-0.1,0.1-0.1c0.1-0.1,0.2-0.2,0.3-0.4c0.1-0.2,0.2-0.4,0.3-0.6
				c0.1-0.2,0.1-0.4,0.2-0.7c0-0.1,0-0.2,0-0.3c0-0.2,0-0.5-0.1-0.7c-0.1-0.5-0.3-0.9-0.7-1.2c-0.4-0.4-0.8-0.6-1.2-0.7
				c-0.2-0.1-0.4-0.1-0.7-0.1c-0.1,0-0.2,0-0.3,0c-0.2,0-0.5,0.1-0.7,0.2c-0.2,0.1-0.4,0.2-0.6,0.3c-0.1,0.1-0.2,0.2-0.4,0.3
				c0,0-0.1,0.1-0.1,0.1l-1-1c0,0,0.1-0.1,0.1-0.1c0.1-0.1,0.2-0.2,0.3-0.3c0.2-0.1,0.3-0.3,0.5-0.4c0.2-0.1,0.4-0.2,0.6-0.3
				c0.2-0.1,0.5-0.2,0.7-0.2c0.2,0,0.5-0.1,0.8-0.1L29.1,20z"/>
			<path class="st20" d="M32.9,23.8c0,0.2-0.1,0.5-0.1,0.7c-0.1,0.2-0.1,0.5-0.2,0.7v0c-0.1,0.2-0.2,0.4-0.3,0.5
				c-0.1,0.2-0.2,0.4-0.4,0.5c-0.1,0.1-0.2,0.2-0.3,0.3c0,0-0.1,0.1-0.1,0.1l-1-1c0,0,0.1-0.1,0.1-0.1c0.1-0.1,0.2-0.2,0.3-0.4
				c0.1-0.2,0.2-0.4,0.3-0.6c0,0,0,0,0,0c0.1-0.2,0.1-0.4,0.2-0.6c0,0,0-0.1,0-0.1c0-0.2,0.1-0.4,0.1-0.7c0-0.1,0-0.2,0-0.4
				c0-0.2,0-0.3,0-0.4L32.9,23.8z"/>
			<path class="st21" d="M23.1,13.4c-0.2,0-0.4,0-0.6,0c-0.1,0-0.3,0-0.4,0c-0.1,0-0.2,0-0.4,0c-0.3,0-0.5,0-0.7,0.1
				c0,0-0.1,0-0.1,0c-0.2,0-0.5,0.1-0.6,0.2l-1.1-1.1c0.2-0.1,0.4-0.2,0.5-0.3h0c0.2-0.1,0.4-0.2,0.7-0.2c0.2-0.1,0.4-0.1,0.7-0.1
				c0.2,0,0.4,0,0.5,0c0.1,0,0.2,0,0.3,0c0.2,0,0.5,0,0.8,0l1.4,1.4c0,0,0,0,0,0H23.1z"/>
			<path class="st21" d="M29.1,20L29.1,20c0,0.3,0,0.5-0.1,0.8c0,0.2-0.1,0.5-0.2,0.7c-0.1,0.2-0.2,0.4-0.3,0.6L27.5,21
				c0.1-0.2,0.1-0.4,0.2-0.7c0-0.1,0-0.2,0-0.3c0-0.2,0-0.5-0.1-0.7c-0.1-0.5-0.3-0.9-0.7-1.2c-0.4-0.4-0.8-0.6-1.2-0.7
				c-0.2-0.1-0.4-0.1-0.7-0.1c-0.1,0-0.2,0-0.3,0c-0.2,0-0.5,0.1-0.7,0.2L23,16.4c0.2-0.1,0.4-0.2,0.6-0.3c0.2-0.1,0.5-0.2,0.7-0.2
				c0.2,0,0.5-0.1,0.8-0.1h0c0.3,0,0.7,0,1,0.1c0.6,0.1,1.1,0.4,1.6,0.8c0,0,0.1,0.1,0.1,0.1l0.4,0.4c0,0,0.1,0.1,0.1,0.1
				c0.4,0.5,0.7,1,0.8,1.6C29.1,19.3,29.1,19.7,29.1,20z"/>
			<path class="st21" d="M33,22.2c0,0.3,0,0.6,0,0.8c0,0.1,0,0.2,0,0.3c0,0.2,0,0.4,0,0.5c0,0.2-0.1,0.5-0.1,0.7
				c-0.1,0.2-0.1,0.5-0.2,0.7v0c-0.1,0.2-0.2,0.4-0.3,0.5l-1.1-1.1c0.1-0.2,0.1-0.4,0.2-0.6c0,0,0-0.1,0-0.1c0-0.2,0.1-0.4,0.1-0.7
				c0-0.1,0-0.2,0-0.4c0-0.2,0-0.3,0-0.4c0-0.2,0-0.4,0-0.6c0-0.1,0-0.2,0-0.3c0-0.2,0-0.5,0-0.8v0L33,22.2z"/>
			<path class="st22" d="M24.2,13.4C24.2,13.4,24.2,13.4,24.2,13.4h-1.1c-0.2,0-0.4,0-0.6,0c-0.1,0-0.3,0-0.4,0c-0.1,0-0.2,0-0.4,0
				l-1.3-1.3c0.2-0.1,0.4-0.1,0.7-0.1c0.2,0,0.4,0,0.5,0c0.1,0,0.2,0,0.3,0c0.2,0,0.5,0,0.8,0c0.3,0,0.6,0,0.9,0c0.2,0,0.5,0,0.8,0
				l1.4,1.4h-0.1c-0.3,0-0.5,0-0.7,0H25C25,13.4,24.7,13.4,24.2,13.4z"/>
			<path class="st22" d="M29.1,20L29.1,20c0,0.3,0,0.5-0.1,0.8l-1.5-1.5c-0.1-0.5-0.3-0.9-0.7-1.2c-0.4-0.4-0.8-0.6-1.2-0.7L24.2,16
				c0.2,0,0.5-0.1,0.8-0.1h0c0.3,0,0.7,0,1,0.1c0.6,0.1,1.1,0.4,1.6,0.8c0,0,0.1,0.1,0.1,0.1c0.1,0.1,0.1,0.1,0.2,0.2
				c0.1,0.1,0.1,0.1,0.2,0.2c0,0,0.1,0.1,0.1,0.1c0.4,0.5,0.7,1,0.8,1.6C29.1,19.3,29.1,19.7,29.1,20z"/>
			<path class="st22" d="M28.3,15.8l0.9,0.9c-0.2,0-0.4-0.1-0.6-0.3C28.4,16.2,28.3,16,28.3,15.8z"/>
			<path class="st22" d="M33,20.5c0,0.3,0,0.6,0,0.8c0,0.3,0,0.6,0,0.9c0,0.3,0,0.6,0,0.8c0,0.1,0,0.2,0,0.3c0,0.2,0,0.4,0,0.5
				c0,0.2-0.1,0.5-0.1,0.7l-1.3-1.3c0-0.1,0-0.2,0-0.4c0-0.2,0-0.3,0-0.4c0-0.2,0-0.4,0-0.6c0-0.1,0-0.2,0-0.3c0-0.2,0-0.5,0-0.8v0
				c0-0.5,0-0.7,0-0.8v-0.1c0-0.1,0-0.4,0-0.7v-0.1L33,20.5z"/>
			<path class="st23" d="M25.8,13.4c-0.3,0-0.5,0-0.7,0H25c0,0-0.3,0-0.8,0c0,0,0,0,0,0h-0.8L22,12c0.2,0,0.5,0,0.8,0
				c0.3,0,0.6,0,0.9,0c0.2,0,0.5,0,0.8,0h0.9c0.3,0,0.6,0,0.8,0l1.4,1.4c-0.3,0-0.6,0-0.8,0H25.8z"/>
			<path class="st23" d="M28.2,17.4c0.4,0.5,0.7,1,0.8,1.6l-3-3c0.6,0.1,1.1,0.4,1.6,0.8c0,0,0.1,0.1,0.1,0.1
				c0.1,0.1,0.1,0.1,0.2,0.2c0.1,0.1,0.1,0.1,0.2,0.2C28.1,17.3,28.2,17.4,28.2,17.4z"/>
			<path class="st23" d="M29,14.8l1.2,1.2c0,0.2-0.1,0.3-0.2,0.4c0,0,0,0-0.1,0.1c-0.2,0.1-0.4,0.2-0.6,0.2c0,0-0.1,0-0.1,0
				c-0.2,0-0.4-0.1-0.6-0.3c-0.2-0.2-0.3-0.4-0.3-0.6c0,0,0-0.1,0-0.1c0-0.2,0.1-0.4,0.2-0.6c0,0,0-0.1,0.1-0.1
				C28.7,14.9,28.9,14.8,29,14.8z"/>
			<path class="st23" d="M33,19.6v0.9c0,0.3,0,0.6,0,0.8c0,0.3,0,0.6,0,0.9c0,0.3,0,0.6,0,0.8l-1.4-1.4c0-0.2,0-0.5,0-0.8v0
				c0-0.5,0-0.7,0-0.8v-0.1c0-0.1,0-0.4,0-0.7v-0.1c0-0.4,0-0.7,0-0.9v-0.1c0-0.2,0-0.5,0-0.8l1.4,1.4C33,19,33,19.3,33,19.6z"/>
			<path class="st24" d="M28.6,13.5c-0.2,0-0.5,0-0.7-0.1c-0.1,0-0.2,0-0.2,0c-0.3,0-0.6,0-0.8,0h-1.1c-0.3,0-0.5,0-0.7,0L23.7,12
				c0.2,0,0.5,0,0.8,0h0.9c0.3,0,0.6,0,0.8,0c0.3,0,0.6,0,0.9,0c0.3,0,0.6,0,0.8,0l1.7,1.7c-0.2-0.1-0.4-0.1-0.7-0.2
				C28.9,13.6,28.8,13.5,28.6,13.5z"/>
			<path class="st24" d="M30,15c0.2,0.2,0.3,0.4,0.3,0.7c0,0.1,0,0.2,0,0.2c0,0.2-0.1,0.3-0.2,0.4c0,0,0,0-0.1,0.1
				c-0.2,0.1-0.4,0.2-0.6,0.2c0,0-0.1,0-0.1,0c-0.2,0-0.4-0.1-0.6-0.3c-0.2-0.2-0.3-0.4-0.3-0.6c0,0,0-0.1,0-0.1
				c0-0.2,0.1-0.4,0.2-0.6c0,0,0-0.1,0.1-0.1c0.1-0.1,0.3-0.2,0.4-0.2c0.1,0,0.2,0,0.2,0C29.5,14.8,29.8,14.9,30,15z"/>
			<path class="st24" d="M33,19.6v0.9c0,0.3,0,0.6,0,0.8l-1.4-1.4c0-0.1,0-0.4,0-0.7v-0.1c0-0.4,0-0.7,0-0.9v-0.1c0-0.2,0-0.5,0-0.8
				c0-0.1,0-0.1,0-0.2c0-0.3,0-0.5-0.1-0.7c0-0.1,0-0.2,0-0.3c0-0.3-0.1-0.5-0.2-0.7L33,17c0,0.2,0,0.5,0,0.8c0,0.3,0,0.6,0,0.9
				C33,19,33,19.3,33,19.6z"/>
			<path class="st25" d="M30,15c-0.2-0.2-0.4-0.3-0.7-0.3c-0.1,0-0.2,0-0.2,0c-0.2,0-0.3,0.1-0.4,0.2c0,0,0,0-0.1,0.1l1.3,1.3
				c0,0,0,0,0.1-0.1c0.1-0.1,0.2-0.3,0.2-0.4c0-0.1,0-0.2,0-0.2C30.2,15.5,30.1,15.2,30,15z M33,19.6c0-0.3,0-0.6,0-0.8
				c0-0.3,0-0.6,0-0.9c0-0.3,0-0.6,0-0.8c0-0.1,0-0.2,0-0.3c0-0.6-0.1-1.2-0.3-1.7L30,12.4c-0.5-0.2-1.1-0.3-1.7-0.3
				c-0.1,0-0.2,0-0.3,0c-0.2,0-0.5,0-0.8,0c-0.3,0-0.6,0-0.9,0c-0.3,0-0.5,0-0.8,0l1.4,1.4h0.1c0.2,0,0.5,0,0.8,0c0.1,0,0.1,0,0.2,0
				c0.3,0,0.5,0,0.7,0.1c0.1,0,0.2,0,0.3,0c0.3,0,0.5,0.1,0.7,0.2c0,0,0,0,0,0c0.3,0.1,0.7,0.3,0.9,0.6c0.3,0.3,0.5,0.6,0.6,0.9
				c0,0,0,0,0,0c0.1,0.2,0.1,0.4,0.2,0.7c0,0.1,0,0.2,0,0.3c0,0.2,0,0.5,0.1,0.7c0,0.1,0,0.2,0,0.2c0,0.3,0,0.6,0,0.8v0.1L33,19.6z"
				/>
			<path class="st26" d="M33,17c0-0.1,0-0.2,0-0.3c0-0.6-0.1-1.2-0.3-1.7c-0.2-0.6-0.6-1.2-1-1.6s-1-0.8-1.6-1
				c-0.5-0.2-1.1-0.3-1.7-0.3c-0.1,0-0.2,0-0.3,0c-0.2,0-0.5,0-0.8,0l1.5,1.5c0.1,0,0.2,0,0.3,0c0.3,0,0.5,0.1,0.7,0.2c0,0,0,0,0,0
				c0.3,0.1,0.7,0.3,0.9,0.6c0.3,0.3,0.5,0.6,0.6,0.9c0,0,0,0,0,0c0.1,0.2,0.1,0.4,0.2,0.7c0,0.1,0,0.2,0,0.3l1.5,1.5
				C33,17.5,33,17.3,33,17z"/>
		</g>
	</g>
</g>
<g id="nyt_x5F_exporter_x5F_info" class="st29">
</g>
</svg>
