<?xml version="1.0" encoding="utf-8"?>
<!-- Generator: Adobe Illustrator 22.1.0, SVG Export Plug-In . SVG Version: 6.00 Build 0)  -->
<!DOCTYPE svg PUBLIC "-//W3C//DTD SVG 1.1//EN" "http://www.w3.org/Graphics/SVG/1.1/DTD/svg11.dtd">
<svg version="1.1" xmlns="http://www.w3.org/2000/svg" xmlns:xlink="http://www.w3.org/1999/xlink" x="0px" y="0px"
	 viewBox="0 0 50 40" style="enable-background:new 0 0 50 40;" xml:space="preserve">
<style type="text/css">
	.st0{fill:#DBF0F4;}
	.st1{fill:#194A77;}
	.st2{fill:#F69E24;}
	.st3{fill:#F7C6C9;}
	.st4{fill:#FFFFFF;}
	.st5{fill:#53BA82;}
	.st6{fill:#C12629;}
	.st7{fill:#FDBE13;}
	.st8{fill:none;stroke:#194A77;stroke-width:2;stroke-linecap:round;stroke-linejoin:round;stroke-miterlimit:10;}
	.st9{fill:#56C8E9;}
	.st10{fill:#1BB7EB;}
	.st11{fill:#4367B2;}
	.st12{fill:#FAAE28;}
	.st13{fill:#F89E28;}
	.st14{fill:#F68E27;}
	.st15{fill:#F47F25;}
	.st16{fill:#F26E24;}
	.st17{fill:#F05B24;}
	.st18{fill:#EE4524;}
	.st19{fill:#ED2724;}
	.st20{fill:#E62E35;}
	.st21{fill:#E03348;}
	.st22{fill:#DB3758;}
	.st23{fill:#D63B68;}
	.st24{fill:#D03D77;}
	.st25{fill:#CA4186;}
	.st26{fill:#C14397;}
	.st27{fill:#F05669;}
	.st28{fill:#F5887E;}
	.st29{display:none;}
	.st30{display:inline;}
</style>
<g id="Layer_1">
	<g>
		<g>
			<g>
				<path class="st0" d="M30.5,12.4c0.4,1.1,0.7,2.3,0.7,3.6c0,4.4-2.7,8-6,8c-2.9,0-5.3-2.8-5.9-6.4L3.2,25c0,0-0.9,3,0,3h44V4.7
					L30.5,12.4z"/>
				<path class="st1" d="M47.2,29h-44c-0.6,0-1-0.4-1-1V4c0-0.6,0.4-1,1-1h44c0.6,0,1,0.4,1,1v24C48.2,28.6,47.8,29,47.2,29z
					 M4.2,27h42V5h-42V27z"/>
				<path class="st1" d="M41.5,23.7H29.2c-0.6,0-1-0.4-1-1s0.4-1,1-1h11.3V9.3c0-0.6,0.4-1,1-1s1,0.4,1,1v13.3
					C42.5,23.2,42.1,23.7,41.5,23.7z"/>
				<path class="st1" d="M21.2,23.7H8.9c-0.6,0-1-0.4-1-1V9.3c0-0.6,0.4-1,1-1h13c0.6,0,1,0.4,1,1s-0.4,1-1,1h-12v11.3h11.3
					c0.6,0,1,0.4,1,1S21.8,23.7,21.2,23.7z"/>
				<path class="st1" d="M33.9,10.3h-5.3c-0.6,0-1-0.4-1-1s0.4-1,1-1h5.3c0.6,0,1,0.4,1,1S34.4,10.3,33.9,10.3z"/>
				<path class="st1" d="M25.2,25c-3.9,0-7-4-7-9c0-0.6,0.4-1,1-1s1,0.4,1,1c0,3.9,2.2,7,5,7s5-3.1,5-7s-2.2-7-5-7c-1.6,0-3,1-4,2.8
					c-0.3,0.5-0.9,0.7-1.4,0.4c-0.5-0.3-0.7-0.9-0.4-1.4C20.8,8.4,22.9,7,25.2,7c3.9,0,7,4,7,9S29.1,25,25.2,25z"/>
				<g>
					<path class="st5" d="M24.8,20c-1.1-0.1-2-0.6-2.6-1.2l0.8-1.2c0.4,0.4,1,0.9,1.7,1v-1.8c-1.1-0.3-2.3-0.7-2.3-2.3
						c0-1.2,0.9-2.2,2.3-2.3V11h1v1.1c0.9,0.1,1.6,0.5,2.2,1l-0.9,1.2c-0.4-0.4-0.9-0.6-1.4-0.7v1.6c1.1,0.3,2.4,0.8,2.4,2.3
						c0,1.3-0.8,2.3-2.4,2.4v1h-1V20z M24.8,14.9v-1.4c-0.5,0.1-0.8,0.4-0.8,0.7C24,14.6,24.3,14.8,24.8,14.9z M25.8,17v1.5
						c0.5-0.1,0.8-0.4,0.8-0.8C26.6,17.3,26.3,17.1,25.8,17z"/>
				</g>
			</g>
		</g>
		<path class="st1" d="M42.2,33H36c-0.6,0-1-0.4-1-1s0.4-1,1-1h6.2c0.6,0,1,0.4,1,1S42.8,33,42.2,33z"/>
		<path class="st1" d="M30,33H8.2c-0.6,0-1-0.4-1-1s0.4-1,1-1H30c0.6,0,1,0.4,1,1S30.6,33,30,33z"/>
		<path class="st1" d="M37.2,37h-24c-0.6,0-1-0.4-1-1s0.4-1,1-1h24c0.6,0,1,0.4,1,1S37.8,37,37.2,37z"/>
	</g>
</g>
<g id="nyt_x5F_exporter_x5F_info" class="st29">
</g>
</svg>
