<?xml version="1.0" encoding="utf-8"?>
<!-- Generator: Adobe Illustrator 22.1.0, SVG Export Plug-In . SVG Version: 6.00 Build 0)  -->
<!DOCTYPE svg PUBLIC "-//W3C//DTD SVG 1.1//EN" "http://www.w3.org/Graphics/SVG/1.1/DTD/svg11.dtd">
<svg version="1.1" xmlns="http://www.w3.org/2000/svg" xmlns:xlink="http://www.w3.org/1999/xlink" x="0px" y="0px"
	 viewBox="0 0 50 40" style="enable-background:new 0 0 50 40;" xml:space="preserve">
<style type="text/css">
	.st0{fill:#DBF0F4;}
	.st1{fill:#194A77;}
	.st2{fill:#F69E24;}
	.st3{fill:#F7C6C9;}
	.st4{fill:#FFFFFF;}
	.st5{fill:#53BA82;}
	.st6{fill:#C12629;}
	.st7{fill:#FDBE13;}
	.st8{fill:none;stroke:#194A77;stroke-width:2;stroke-linecap:round;stroke-linejoin:round;stroke-miterlimit:10;}
	.st9{fill:#56C8E9;}
	.st10{fill:#1BB7EB;}
	.st11{fill:#4367B2;}
	.st12{fill:#FAAE28;}
	.st13{fill:#F89E28;}
	.st14{fill:#F68E27;}
	.st15{fill:#F47F25;}
	.st16{fill:#F26E24;}
	.st17{fill:#F05B24;}
	.st18{fill:#EE4524;}
	.st19{fill:#ED2724;}
	.st20{fill:#E62E35;}
	.st21{fill:#E03348;}
	.st22{fill:#DB3758;}
	.st23{fill:#D63B68;}
	.st24{fill:#D03D77;}
	.st25{fill:#CA4186;}
	.st26{fill:#C14397;}
	.st27{fill:#F05669;}
	.st28{fill:#F5887E;}
	.st29{display:none;}
	.st30{display:inline;}
</style>
<g id="Layer_1">
	<g>
		<polygon class="st0" points="28.5,28 36.5,20 36.5,28 		"/>
		<path class="st1" d="M9.5,36c-0.6,0-1-0.4-1-1V15c0-0.6,0.4-1,1-1s1,0.4,1,1v20C10.5,35.6,10.1,36,9.5,36z"/>
		<g>
			<polygon class="st0" points="11.5,15 14.5,5.5 21.5,5.5 20.5,15 			"/>
			<polygon class="st0" points="35.5,5.5 38.5,15 29.5,15 28.5,5.5 			"/>
			<path class="st1" d="M42,16H8c-1.1,0-2.1-0.6-2.7-1.5c-0.6-0.9-0.6-2.1-0.1-3.1l3.4-6.9C8.8,4.2,9.1,4,9.5,4h31
				c0.4,0,0.7,0.2,0.9,0.6l3.4,6.9c0.5,1,0.4,2.1-0.1,3.1C44.1,15.4,43.1,16,42,16z M10.1,6L7,12.3c-0.2,0.4-0.2,0.8,0.1,1.1
				C7.2,13.8,7.6,14,8,14h34c0.4,0,0.8-0.2,1-0.5c0.2-0.3,0.2-0.8,0.1-1.1L39.9,6H10.1z"/>
			<path class="st1" d="M11.5,16c-0.1,0-0.2,0-0.3,0c-0.5-0.2-0.8-0.7-0.7-1.3l0.9-3c0.2-0.5,0.7-0.8,1.3-0.7
				c0.5,0.2,0.8,0.7,0.7,1.3l-0.9,3C12.3,15.7,11.9,16,11.5,16z"/>
			<path class="st1" d="M13.4,10c-0.1,0-0.2,0-0.3,0c-0.5-0.2-0.8-0.7-0.7-1.3l1.1-3.5c0.2-0.5,0.7-0.8,1.3-0.7
				c0.5,0.2,0.8,0.7,0.7,1.3l-1.1,3.5C14.2,9.8,13.8,10,13.4,10z"/>
			<path class="st1" d="M38.5,16c-0.4,0-0.8-0.3-1-0.7l-3-9.5c-0.2-0.5,0.1-1.1,0.7-1.3c0.5-0.2,1.1,0.1,1.3,0.7l3,9.5
				c0.2,0.5-0.1,1.1-0.7,1.3C38.7,16,38.6,16,38.5,16z"/>
			<g>
				<path class="st1" d="M29.5,16c-0.5,0-0.9-0.4-1-0.9l-0.3-2.6c-0.1-0.5,0.3-1,0.9-1.1c0.5-0.1,1,0.3,1.1,0.9l0.3,2.6
					c0.1,0.5-0.3,1-0.9,1.1C29.6,16,29.5,16,29.5,16z"/>
				<path class="st1" d="M28.9,9.5c-0.5,0-0.9-0.4-1-0.9l-0.4-3c-0.1-0.5,0.3-1.1,0.9-1.1c0.5-0.1,1.1,0.3,1.1,0.9l0.4,3
					c0.1,0.5-0.3,1.1-0.9,1.1C29,9.5,29,9.5,28.9,9.5z"/>
				<path class="st1" d="M20.5,16c0,0-0.1,0-0.1,0c-0.5-0.1-0.9-0.6-0.9-1.1l1-9.5c0.1-0.5,0.6-0.9,1.1-0.9c0.5,0.1,0.9,0.6,0.9,1.1
					l-1,9.5C21.4,15.6,21,16,20.5,16z"/>
			</g>
		</g>
		<path class="st1" d="M40.5,36H28.8c-0.6,0-1-0.4-1-1s0.4-1,1-1h10.8V15c0-0.6,0.4-1,1-1s1,0.4,1,1v20C41.5,35.6,41.1,36,40.5,36z"
			/>
		<path class="st1" d="M23.5,33c-0.6,0-1-0.4-1-1V21h-7v11c0,0.6-0.4,1-1,1s-1-0.4-1-1V20c0-0.6,0.4-1,1-1h9c0.6,0,1,0.4,1,1v12
			C24.5,32.6,24.1,33,23.5,33z"/>
		<path class="st1" d="M24.5,34h-11c-0.6,0-1-0.4-1-1s0.4-1,1-1h11c0.6,0,1,0.4,1,1S25,34,24.5,34z"/>
		<path class="st1" d="M25.5,37h-13c-0.6,0-1-0.4-1-1s0.4-1,1-1h13c0.6,0,1,0.4,1,1S26,37,25.5,37z"/>
		<path class="st1" d="M36.5,29h-8c-0.6,0-1-0.4-1-1v-8c0-0.6,0.4-1,1-1h8c0.6,0,1,0.4,1,1v8C37.5,28.6,37.1,29,36.5,29z M29.5,27h6
			v-6h-6V27z"/>
		<path class="st9" d="M20.5,26h-3c-0.6,0-1-0.4-1-1s0.4-1,1-1h3c0.6,0,1,0.4,1,1S21,26,20.5,26z"/>
		<path class="st9" d="M19.5,29h-1c-0.6,0-1-0.4-1-1s0.4-1,1-1h1c0.6,0,1,0.4,1,1S20,29,19.5,29z"/>
	</g>
</g>
<g id="nyt_x5F_exporter_x5F_info" class="st29">
</g>
</svg>
