<?xml version="1.0" encoding="utf-8"?>
<!-- Generator: Adobe Illustrator 22.1.0, SVG Export Plug-In . SVG Version: 6.00 Build 0)  -->
<!DOCTYPE svg PUBLIC "-//W3C//DTD SVG 1.1//EN" "http://www.w3.org/Graphics/SVG/1.1/DTD/svg11.dtd">
<svg version="1.1" xmlns="http://www.w3.org/2000/svg" xmlns:xlink="http://www.w3.org/1999/xlink" x="0px" y="0px"
	 viewBox="0 0 50 40" style="enable-background:new 0 0 50 40;" xml:space="preserve">
<style type="text/css">
	.st0{fill:#DBF0F4;}
	.st1{fill:#194A77;}
	.st2{fill:#F69E24;}
	.st3{fill:#F7C6C9;}
	.st4{fill:#FFFFFF;}
	.st5{fill:#53BA82;}
	.st6{fill:#C12629;}
	.st7{fill:#FDBE13;}
	.st8{fill:none;stroke:#194A77;stroke-width:2;stroke-linecap:round;stroke-linejoin:round;stroke-miterlimit:10;}
	.st9{fill:#56C8E9;}
	.st10{fill:#1BB7EB;}
	.st11{fill:#4367B2;}
	.st12{fill:#FAAE28;}
	.st13{fill:#F89E28;}
	.st14{fill:#F68E27;}
	.st15{fill:#F47F25;}
	.st16{fill:#F26E24;}
	.st17{fill:#F05B24;}
	.st18{fill:#EE4524;}
	.st19{fill:#ED2724;}
	.st20{fill:#E62E35;}
	.st21{fill:#E03348;}
	.st22{fill:#DB3758;}
	.st23{fill:#D63B68;}
	.st24{fill:#D03D77;}
	.st25{fill:#CA4186;}
	.st26{fill:#C14397;}
	.st27{fill:#F05669;}
	.st28{fill:#F5887E;}
	.st29{display:none;}
	.st30{display:inline;}
</style>
<g id="Layer_1">
	<g>
		<g>
			<rect x="35" y="19.7" class="st0" width="11.2" height="1.7"/>
			<rect x="3.7" y="19.7" class="st0" width="11.2" height="1.7"/>
		</g>
		<g>
			<rect x="35" y="12.8" class="st0" width="11.2" height="1.7"/>
			<rect x="3.7" y="12.8" class="st0" width="11.2" height="1.7"/>
		</g>
		<g>
			<rect x="35" y="26.7" class="st0" width="11.2" height="1.7"/>
			<rect x="3.7" y="26.7" class="st0" width="11.2" height="1.7"/>
		</g>
		<g>
			<path class="st1" d="M9.1,17.5H2.3c-0.6,0-1-0.4-1-1s0.4-1,1-1h6.8c0.6,0,1,0.4,1,1S9.6,17.5,9.1,17.5z"/>
			<path class="st1" d="M16,17.5h-3.3c-0.6,0-1-0.4-1-1s0.4-1,1-1H16c0.6,0,1,0.4,1,1S16.5,17.5,16,17.5z"/>
			<path class="st1" d="M47.7,17.5h-3.3c-0.6,0-1-0.4-1-1s0.4-1,1-1h3.3c0.6,0,1,0.4,1,1S48.3,17.5,47.7,17.5z"/>
			<path class="st1" d="M37.9,17.5h-4.5c-0.6,0-1-0.4-1-1s0.4-1,1-1h4.5c0.6,0,1,0.4,1,1S38.5,17.5,37.9,17.5z"/>
		</g>
		<g>
			<path class="st1" d="M11.4,24.5H2.3c-0.6,0-1-0.4-1-1s0.4-1,1-1h9.1c0.6,0,1,0.4,1,1S11.9,24.5,11.4,24.5z"/>
			<path class="st1" d="M35.6,24.5H34c-0.6,0-1-0.4-1-1s0.4-1,1-1h1.6c0.6,0,1,0.4,1,1S36.2,24.5,35.6,24.5z"/>
			<path class="st1" d="M47.7,24.5h-6.8c-0.6,0-1-0.4-1-1s0.4-1,1-1h6.8c0.6,0,1,0.4,1,1S48.3,24.5,47.7,24.5z"/>
		</g>
		<g>
			<path class="st1" d="M48,31.4H36.8c-0.6,0-1-0.4-1-1s0.4-1,1-1H47V10.6H36.8c-0.6,0-1-0.4-1-1s0.4-1,1-1H48c0.6,0,1,0.4,1,1v20.8
				C49,31,48.6,31.4,48,31.4z"/>
			<path class="st1" d="M13.2,31.4H2c-0.6,0-1-0.4-1-1V9.6c0-0.6,0.4-1,1-1h11.2c0.6,0,1,0.4,1,1s-0.4,1-1,1H3v18.8h10.2
				c0.6,0,1,0.4,1,1S13.8,31.4,13.2,31.4z"/>
		</g>
		<g>
			<path class="st5" d="M33.3,32H16.6c-0.6,0-1-0.4-1-1V9c0-0.6,0.4-1,1-1h16.7c0.6,0,1,0.4,1,1v22C34.3,31.6,33.9,32,33.3,32z
				 M17.6,30h14.7V10H17.6V30z"/>
		</g>
		<g>
			<path class="st5" d="M24.3,25.7c-1.7-0.2-3-0.8-3.9-1.7l1.3-1.8c0.6,0.7,1.5,1.2,2.6,1.4V21c-1.7-0.4-3.6-1.1-3.6-3.3
				c0-1.7,1.3-3.1,3.6-3.4v-1.6h1.6v1.6c1.3,0.1,2.5,0.7,3.4,1.5L28,17.6c-0.6-0.6-1.3-0.9-2.1-1.1v2.4c1.7,0.4,3.6,1.1,3.6,3.4
				c0,1.9-1.2,3.3-3.6,3.5v1.5h-1.6V25.7z M24.3,18.4v-2c-0.7,0.1-1.2,0.5-1.2,1.1C23.2,17.9,23.6,18.2,24.3,18.4z M25.9,21.4v2.2
				c0.8-0.2,1.2-0.7,1.2-1.2C27.1,21.9,26.6,21.6,25.9,21.4z"/>
		</g>
	</g>
</g>
<g id="nyt_x5F_exporter_x5F_info" class="st29">
</g>
</svg>
