<?xml version="1.0" encoding="utf-8"?>
<!-- Generator: Adobe Illustrator 22.1.0, SVG Export Plug-In . SVG Version: 6.00 Build 0)  -->
<!DOCTYPE svg PUBLIC "-//W3C//DTD SVG 1.1//EN" "http://www.w3.org/Graphics/SVG/1.1/DTD/svg11.dtd">
<svg version="1.1" xmlns="http://www.w3.org/2000/svg" xmlns:xlink="http://www.w3.org/1999/xlink" x="0px" y="0px"
	 viewBox="0 0 50 40" style="enable-background:new 0 0 50 40;" xml:space="preserve">
<style type="text/css">
	.st0{fill:#DBF0F4;}
	.st1{fill:#194A77;}
	.st2{fill:#F69E24;}
	.st3{fill:#F7C6C9;}
	.st4{fill:#FFFFFF;}
	.st5{fill:#53BA82;}
	.st6{fill:#C12629;}
	.st7{fill:#FDBE13;}
	.st8{fill:none;stroke:#194A77;stroke-width:2;stroke-linecap:round;stroke-linejoin:round;stroke-miterlimit:10;}
	.st9{fill:#56C8E9;}
	.st10{fill:#1BB7EB;}
	.st11{fill:#4367B2;}
	.st12{fill:#FAAE28;}
	.st13{fill:#F89E28;}
	.st14{fill:#F68E27;}
	.st15{fill:#F47F25;}
	.st16{fill:#F26E24;}
	.st17{fill:#F05B24;}
	.st18{fill:#EE4524;}
	.st19{fill:#ED2724;}
	.st20{fill:#E62E35;}
	.st21{fill:#E03348;}
	.st22{fill:#DB3758;}
	.st23{fill:#D63B68;}
	.st24{fill:#D03D77;}
	.st25{fill:#CA4186;}
	.st26{fill:#C14397;}
	.st27{fill:#F05669;}
	.st28{fill:#F5887E;}
	.st29{display:none;}
	.st30{display:inline;}
</style>
<g id="Layer_1">
	<g>
		<g>
			<path class="st0" d="M23.9,8.1v9.4l1.9,5.2h-1.9v7.2c4.5,0,8.2-3.3,8.2-9.9C32.1,13.4,32.1,8.1,23.9,8.1z"/>
			<g>
				<path class="st1" d="M23.9,36.8C23.9,36.8,23.9,36.8,23.9,36.8c-0.4,0-1.6-0.1-2.7-1.1c-1.4-1.3-2.1-3.6-2.1-6.8
					c0-0.6,0.4-1,1-1s1,0.4,1,1c0,3.2,0.8,4.7,1.5,5.3c0.7,0.6,1.3,0.6,1.3,0.6c0.1,0,0.8,0,1.4-0.6c0.7-0.7,1.5-2.1,1.5-5.3
					c0-0.6,0.4-1,1-1s1,0.4,1,1c0,3.2-0.7,5.5-2.1,6.8C25.5,36.7,24.3,36.8,23.9,36.8z"/>
				<g>
					<path class="st1" d="M10.9,36.6c-0.3,0-0.6-0.1-0.8-0.3c-0.4-0.4-0.3-1.1,0.1-1.4c2-1.7,5.3-3.2,8.9-4c0.5-0.1,1.1,0.2,1.2,0.8
						c0.1,0.5-0.2,1.1-0.8,1.2c-3.3,0.7-6.3,2.1-8,3.6C11.3,36.6,11.1,36.6,10.9,36.6z"/>
					<path class="st1" d="M31.2,33.8c-0.1,0-0.2,0-0.3-0.1c-1-0.4-1.9-0.7-2.9-0.9c-0.5-0.1-0.9-0.7-0.7-1.2s0.7-0.9,1.2-0.7
						c1.1,0.3,2.2,0.6,3.2,1c0.5,0.2,0.8,0.8,0.6,1.3C32,33.5,31.6,33.8,31.2,33.8z"/>
					<path class="st1" d="M36.9,37.1c-0.2,0-0.5-0.1-0.7-0.3c-0.6-0.5-1.3-1.1-2.1-1.5c-0.5-0.3-0.6-0.9-0.4-1.4
						c0.3-0.5,0.9-0.6,1.4-0.4c1,0.6,1.8,1.2,2.5,1.8c0.4,0.4,0.4,1,0,1.4C37.4,37,37.1,37.1,36.9,37.1z"/>
				</g>
			</g>
			<path class="st1" d="M23.9,30.8c-5.6,0-9.2-4.3-9.2-10.9c0-6.6,0-12.9,9.2-12.9c7.4,0,8.8,4.3,9.1,8.4c0,0.6-0.4,1-0.9,1.1
				c-0.6,0-1-0.4-1.1-0.9c-0.3-4.2-1.6-6.6-7.1-6.6c-6.9,0-7.2,3.7-7.2,10.9c0,5.5,2.8,8.9,7.2,8.9c4.4,0,7.2-3.4,7.2-8.9
				c0-0.6,0.4-1,1-1s1,0.4,1,1C33.1,26.5,29.5,30.8,23.9,30.8z"/>
		</g>
		<path class="st1" d="M9.6,10.9H6.4C5.1,10.9,4,9.8,4,8.5V5.4C4,4,5.1,2.9,6.4,2.9h3.1C10.9,2.9,12,4,12,5.4v3.1
			C12,9.8,10.9,10.9,9.6,10.9z M6.4,4.9C6.2,4.9,6,5.1,6,5.4v3.1c0,0.2,0.2,0.4,0.4,0.4h3.1c0.2,0,0.4-0.2,0.4-0.4V5.4
			c0-0.2-0.2-0.4-0.4-0.4H6.4z"/>
		<path class="st1" d="M41.6,30.9h-3.1c-1.3,0-2.4-1.1-2.4-2.4v-3.1c0-1.4,1.1-2.4,2.4-2.4h3.1c1.4,0,2.4,1.1,2.4,2.4v3.1
			C44,29.8,42.9,30.9,41.6,30.9z M38.4,24.9c-0.2,0-0.4,0.2-0.4,0.4v3.1c0,0.2,0.2,0.4,0.4,0.4h3.1c0.2,0,0.4-0.2,0.4-0.4v-3.1
			c0-0.2-0.2-0.4-0.4-0.4H38.4z"/>
		<path class="st9" d="M9,26.9H5c-1.7,0-3-1.3-3-3v-4c0-1.7,1.3-3,3-3h4c1.7,0,3,1.3,3,3v4C12,25.6,10.7,26.9,9,26.9z M5,18.9
			c-0.6,0-1,0.4-1,1v4c0,0.6,0.4,1,1,1h4c0.6,0,1-0.4,1-1v-4c0-0.6-0.4-1-1-1H5z"/>
		<path class="st9" d="M44.5,14.9h-5c-1.9,0-3.5-1.6-3.5-3.5v-5c0-1.9,1.6-3.5,3.5-3.5h5c1.9,0,3.5,1.6,3.5,3.5v5
			C48,13.4,46.4,14.9,44.5,14.9z M39.5,4.9c-0.8,0-1.5,0.7-1.5,1.5v5c0,0.8,0.7,1.5,1.5,1.5h5c0.8,0,1.5-0.7,1.5-1.5v-5
			c0-0.8-0.7-1.5-1.5-1.5H39.5z"/>
	</g>
</g>
<g id="nyt_x5F_exporter_x5F_info" class="st29">
</g>
</svg>
