<?xml version="1.0" encoding="utf-8"?>
<!-- Generator: Adobe Illustrator 22.1.0, SVG Export Plug-In . SVG Version: 6.00 Build 0)  -->
<!DOCTYPE svg PUBLIC "-//W3C//DTD SVG 1.1//EN" "http://www.w3.org/Graphics/SVG/1.1/DTD/svg11.dtd">
<svg version="1.1" xmlns="http://www.w3.org/2000/svg" xmlns:xlink="http://www.w3.org/1999/xlink" x="0px" y="0px"
	 viewBox="0 0 50 40" style="enable-background:new 0 0 50 40;" xml:space="preserve">
<style type="text/css">
	.st0{fill:#DBF0F4;}
	.st1{fill:#194A77;}
	.st2{fill:#F69E24;}
	.st3{fill:#F7C6C9;}
	.st4{fill:#FFFFFF;}
	.st5{fill:#53BA82;}
	.st6{fill:#C12629;}
	.st7{fill:#FDBE13;}
	.st8{fill:none;stroke:#194A77;stroke-width:2;stroke-linecap:round;stroke-linejoin:round;stroke-miterlimit:10;}
	.st9{fill:#56C8E9;}
	.st10{fill:#1BB7EB;}
	.st11{fill:#4367B2;}
	.st12{fill:#FAAE28;}
	.st13{fill:#F89E28;}
	.st14{fill:#F68E27;}
	.st15{fill:#F47F25;}
	.st16{fill:#F26E24;}
	.st17{fill:#F05B24;}
	.st18{fill:#EE4524;}
	.st19{fill:#ED2724;}
	.st20{fill:#E62E35;}
	.st21{fill:#E03348;}
	.st22{fill:#DB3758;}
	.st23{fill:#D63B68;}
	.st24{fill:#D03D77;}
	.st25{fill:#CA4186;}
	.st26{fill:#C14397;}
	.st27{fill:#F05669;}
	.st28{fill:#F5887E;}
	.st29{display:none;}
	.st30{display:inline;}
</style>
<g id="Layer_1">
	<g>
		<g>
			<path class="st0" d="M37.8,13.8l-3-2.7l-7.3,7.3l-5.7,2.8l2.8-5.7l7.2-7.2l-3.4-3.1c-1.9-1.7-4.8-1.7-6.7,0L9,16.7l16,10.6
				l16-10.6L37.8,13.8z"/>
			<g>
				<g>
					<path class="st1" d="M41,37H9c-0.6,0-1-0.4-1-1V16.7c0-0.3,0.1-0.6,0.3-0.7L21,4.5c2.3-2,5.8-2,8.1,0c0.4,0.4,0.4,1,0.1,1.4
						c-0.4,0.4-1,0.4-1.4,0.1c-1.5-1.4-3.9-1.4-5.4,0L10,17.2V35h30V17.2l-2.9-2.6c-0.4-0.4-0.4-1-0.1-1.4c0.4-0.4,1-0.4,1.4-0.1
						l3.2,2.9c0.2,0.2,0.3,0.5,0.3,0.7V36C42,36.6,41.6,37,41,37z"/>
				</g>
			</g>
			<path class="st1" d="M25,28.3c-0.2,0-0.4-0.1-0.6-0.2l-16-10.6c-0.5-0.3-0.6-0.9-0.3-1.4s0.9-0.6,1.4-0.3L25,26.1l15.4-10.2
				c0.5-0.3,1.1-0.2,1.4,0.3c0.3,0.5,0.2,1.1-0.3,1.4l-16,10.6C25.4,28.3,25.2,28.3,25,28.3z"/>
		</g>
		<g>
			<path class="st9" d="M21.8,22.2c-0.3,0-0.5-0.1-0.7-0.3c-0.3-0.3-0.4-0.8-0.2-1.2l2.8-5.7c0-0.1,0.1-0.2,0.2-0.3L34.2,4.5
				c1.2-1.2,3.1-1.2,4.2,0c0,0,0,0,0,0c1.2,1.2,1.2,3.1,0,4.2L28.2,19.1c-0.1,0.1-0.2,0.1-0.3,0.2l-5.7,2.8
				C22.1,22.2,22,22.2,21.8,22.2z M25.5,16.1L24,19l2.8-1.4L37.1,7.3c0.4-0.4,0.4-1,0-1.4c-0.4-0.4-1-0.4-1.4,0L25.5,16.1z"/>
		</g>
		<path class="st9" d="M34.8,12c-0.2,0-0.5-0.1-0.7-0.3l-3-2.7c-0.4-0.4-0.4-1-0.1-1.4c0.4-0.4,1-0.4,1.4-0.1l3,2.7
			c0.4,0.4,0.4,1,0.1,1.4C35.3,11.9,35.1,12,34.8,12z"/>
		<path class="st9" d="M36.8,10c-0.2,0-0.5-0.1-0.7-0.3l-3-2.7c-0.4-0.4-0.4-1-0.1-1.4c0.4-0.4,1-0.4,1.4-0.1l3,2.7
			c0.4,0.4,0.4,1,0.1,1.4C37.3,9.9,37.1,10,36.8,10z"/>
	</g>
</g>
<g id="nyt_x5F_exporter_x5F_info" class="st29">
</g>
</svg>
