<?xml version="1.0" encoding="utf-8"?>
<!-- Generator: Adobe Illustrator 22.1.0, SVG Export Plug-In . SVG Version: 6.00 Build 0)  -->
<!DOCTYPE svg PUBLIC "-//W3C//DTD SVG 1.1//EN" "http://www.w3.org/Graphics/SVG/1.1/DTD/svg11.dtd">
<svg version="1.1" xmlns="http://www.w3.org/2000/svg" xmlns:xlink="http://www.w3.org/1999/xlink" x="0px" y="0px"
	 viewBox="0 0 50 40" style="enable-background:new 0 0 50 40;" xml:space="preserve">
<style type="text/css">
	.st0{fill:#DBF0F4;}
	.st1{fill:#194A77;}
	.st2{fill:#F69E24;}
	.st3{fill:#F7C6C9;}
	.st4{fill:#FFFFFF;}
	.st5{fill:#53BA82;}
	.st6{fill:#C12629;}
	.st7{fill:#FDBE13;}
	.st8{fill:none;stroke:#194A77;stroke-width:2;stroke-linecap:round;stroke-linejoin:round;stroke-miterlimit:10;}
	.st9{fill:#56C8E9;}
	.st10{fill:#1BB7EB;}
	.st11{fill:#4367B2;}
	.st12{fill:#FAAE28;}
	.st13{fill:#F89E28;}
	.st14{fill:#F68E27;}
	.st15{fill:#F47F25;}
	.st16{fill:#F26E24;}
	.st17{fill:#F05B24;}
	.st18{fill:#EE4524;}
	.st19{fill:#ED2724;}
	.st20{fill:#E62E35;}
	.st21{fill:#E03348;}
	.st22{fill:#DB3758;}
	.st23{fill:#D63B68;}
	.st24{fill:#D03D77;}
	.st25{fill:#CA4186;}
	.st26{fill:#C14397;}
	.st27{fill:#F05669;}
	.st28{fill:#F5887E;}
	.st29{display:none;}
	.st30{display:inline;}
</style>
<g id="Layer_1">
	<g>
		<g>
			<polygon class="st0" points="37.7,13 35.8,14 3.7,14 3.7,9 39.7,9 39.7,14 			"/>
			<path class="st1" d="M19.1,28.1H7.4c-2.6,0-4.7-2.1-4.7-4.7V6.9c0-2.6,2.1-4.7,4.7-4.7H36c2.6,0,4.7,2.1,4.7,4.7v3.5
				c0,0.6-0.4,1-1,1s-1-0.4-1-1V6.9c0-1.5-1.2-2.7-2.7-2.7H7.4c-1.5,0-2.7,1.2-2.7,2.7v16.5c0,1.5,1.2,2.7,2.7,2.7h11.7
				c0.6,0,1,0.4,1,1S19.6,28.1,19.1,28.1z"/>
			<path class="st1" d="M16.4,15H3.7c-0.6,0-1-0.4-1-1V9c0-0.6,0.4-1,1-1h29.5c0.6,0,1,0.4,1,1s-0.4,1-1,1H4.7v3h11.8
				c0.6,0,1,0.4,1,1S17,15,16.4,15z"/>
			<path class="st1" d="M39.7,10h-2.8c-0.6,0-1-0.4-1-1s0.4-1,1-1h2.8c0.6,0,1,0.4,1,1S40.2,10,39.7,10z"/>
			<path class="st1" d="M31.8,15h-6c-0.6,0-1-0.4-1-1s0.4-1,1-1h6c0.6,0,1,0.4,1,1S32.3,15,31.8,15z"/>
			<path class="st1" d="M22.2,15h-2.5c-0.6,0-1-0.4-1-1s0.4-1,1-1h2.5c0.6,0,1,0.4,1,1S22.7,15,22.2,15z"/>
		</g>
		<g>
			<path class="st9" d="M39.5,37.7c-0.8,0-1.6,0-2.4-0.2c-1.1-0.2-2.1-0.5-3.3-0.9c-0.6-0.2-1.2-0.4-1.8-0.6l-0.7-0.2
				c-0.6-0.2-2-0.8-2-0.8l0.7-1.9c0,0,1.4,0.5,1.9,0.7l0.8,0.3c0.6,0.2,1.1,0.4,1.7,0.5c1.1,0.3,2.1,0.6,3.2,0.8
				c1,0.2,2,0.2,3.1,0.2l0.6,0c0.3,0,0.6,0,0.8-0.1c0.7-0.2,0.9-0.6,1-0.9c0.1-0.4,0.1-0.8,0-1.3c-0.1-0.4,0.1-0.9,0.5-1.1
				c0.5-0.4,0.7-1.1,0.4-1.7c-0.2-0.5-0.1-1,0.3-1.4c0.6-0.6,0.4-1.4,0.3-1.7c0-0.1-0.1-0.2-0.2-0.3l-0.1-0.2
				c-0.2-0.4-0.1-1,0.3-1.3c0.1,0,0.1-0.1,0.2-0.1c0,0,0,0,0.1,0c0.1-0.1,0.2-0.3,0.3-0.5c0.2-0.4,0.2-0.7,0.1-0.9
				c-0.1-0.4-0.6-0.9-1.2-0.9c-1.3,0-2.5,0-3.8,0l-1.8,0c-0.6,0-1-0.4-1-1c0-0.1,0-0.2,0-0.2c0.1-0.8,0.3-1.6,0.6-2.2
				c0.1-0.3,0.2-0.5,0.3-0.8l0.3-0.7c0.3-0.8,0.4-1.6,0.2-2.5c-0.2-0.7-0.3-0.7-0.4-0.7c-0.2,0-0.3-0.1-0.5-0.1
				c-0.1,0.1-0.1,0.2-0.1,0.3c-0.1,0.5-0.2,0.9-0.3,1.4l-0.1,0.6c-0.2,1-0.7,1.9-1.4,2.6c-0.5,0.6-1,1.2-1.4,1.7
				c-1.6,2.8-4.5,3.8-4.7,3.9c-0.5,0.2-1.1-0.1-1.3-0.6c-0.2-0.5,0.1-1.1,0.6-1.3c0,0,2.4-0.9,3.6-3c0,0,0.1-0.1,0.1-0.1
				c0.5-0.6,1-1.2,1.5-1.9c0.5-0.5,0.8-1.1,0.9-1.8l0.1-0.6c0.1-0.5,0.2-1,0.4-1.5c0.1-0.4,0.3-0.7,0.4-0.9l0.1-0.2
				c0.2-0.4,0.7-0.8,1.2-0.7l0.3,0c0.4,0,0.8,0.1,1.2,0.2c1.4,0.4,1.7,1.8,1.8,2.2c0.3,1.3,0.2,2.6-0.3,3.7l-0.3,0.7
				c-0.1,0.3-0.2,0.5-0.3,0.8c-0.1,0.2-0.2,0.5-0.3,0.7l0.7,0c1.2,0,2.5,0,3.7,0c1.4,0,2.7,0.9,3.1,2.3c0.2,0.7,0.1,1.5-0.2,2.3
				c-0.2,0.3-0.4,0.7-0.6,1c0,0,0,0,0,0c0.5,1.2,0.3,2.5-0.4,3.5c0.4,1.2,0,2.5-0.9,3.4c0,0.6,0,1.1-0.1,1.7
				c-0.3,1.3-1.2,2.1-2.5,2.4c-0.4,0.1-0.8,0.1-1.3,0.2l-0.6,0C40.2,37.7,39.9,37.7,39.5,37.7z M45.1,33.1
				C45.1,33.1,45.1,33.1,45.1,33.1C45.1,33.1,45.1,33.1,45.1,33.1z M44.9,25.3L44.9,25.3L44.9,25.3z M37.4,14.7
				C37.4,14.7,37.4,14.7,37.4,14.7L37.4,14.7z M38.2,14.3L38.2,14.3C38.2,14.3,38.2,14.3,38.2,14.3z"/>
			<g>
				<polygon class="st0" points="29.4,34.8 23,34.8 29.4,23.3 				"/>
				<path class="st1" d="M29.4,35.8H23c-0.6,0-1-0.4-1-1V23.3c0-0.6,0.4-1,1-1h6.5c0.6,0,1,0.4,1,1V26c0,0.6-0.4,1-1,1s-1-0.4-1-1
					v-1.7H24v9.5h4.5v-5.1c0-0.6,0.4-1,1-1s1,0.4,1,1v6.1C30.4,35.4,30,35.8,29.4,35.8z"/>
				<circle class="st1" cx="27.2" cy="32.1" r="0.8"/>
			</g>
		</g>
	</g>
</g>
<g id="nyt_x5F_exporter_x5F_info" class="st29">
</g>
</svg>
