<?xml version="1.0" encoding="utf-8"?>
<!-- Generator: Adobe Illustrator 22.1.0, SVG Export Plug-In . SVG Version: 6.00 Build 0)  -->
<!DOCTYPE svg PUBLIC "-//W3C//DTD SVG 1.1//EN" "http://www.w3.org/Graphics/SVG/1.1/DTD/svg11.dtd">
<svg version="1.1" xmlns="http://www.w3.org/2000/svg" xmlns:xlink="http://www.w3.org/1999/xlink" x="0px" y="0px"
	 viewBox="0 0 50 40" style="enable-background:new 0 0 50 40;" xml:space="preserve">
<style type="text/css">
	.st0{fill:#DBF0F4;}
	.st1{fill:#194A77;}
	.st2{fill:#F69E24;}
	.st3{fill:#F7C6C9;}
	.st4{fill:#FFFFFF;}
	.st5{fill:#53BA82;}
	.st6{fill:#C12629;}
	.st7{fill:#FDBE13;}
	.st8{fill:none;stroke:#194A77;stroke-width:2;stroke-linecap:round;stroke-linejoin:round;stroke-miterlimit:10;}
	.st9{fill:#56C8E9;}
	.st10{fill:#1BB7EB;}
	.st11{fill:#4367B2;}
	.st12{fill:#FAAE28;}
	.st13{fill:#F89E28;}
	.st14{fill:#F68E27;}
	.st15{fill:#F47F25;}
	.st16{fill:#F26E24;}
	.st17{fill:#F05B24;}
	.st18{fill:#EE4524;}
	.st19{fill:#ED2724;}
	.st20{fill:#E62E35;}
	.st21{fill:#E03348;}
	.st22{fill:#DB3758;}
	.st23{fill:#D63B68;}
	.st24{fill:#D03D77;}
	.st25{fill:#CA4186;}
	.st26{fill:#C14397;}
	.st27{fill:#F05669;}
	.st28{fill:#F5887E;}
	.st29{display:none;}
	.st30{display:inline;}
</style>
<g id="Layer_1">
	<g>
		<g>
			<g>
				<path class="st0" d="M16.5,17.3h17v4.5l7.5-5L28.3,5.2c-1.9-1.7-4.7-1.7-6.6,0L9,16.8l7.5,5V17.3z"/>
				<g>
					<g>
						<path class="st1" d="M41,37.1h-3.5c-0.6,0-1-0.4-1-1s0.4-1,1-1H40V17.2L27.7,6.1c-1.5-1.4-3.9-1.4-5.4,0L10,17.2v17.8h2.5
							c0.6,0,1,0.4,1,1s-0.4,1-1,1H9c-0.6,0-1-0.4-1-1V16.8c0-0.3,0.1-0.6,0.3-0.7L21,4.6c2.3-2,5.8-2,8.1,0L41.7,16
							c0.2,0.2,0.3,0.5,0.3,0.7v19.3C42,36.6,41.6,37.1,41,37.1z"/>
					</g>
				</g>
				<path class="st1" d="M14,21.1c-0.2,0-0.4-0.1-0.6-0.2l-5-3.3c-0.5-0.3-0.6-0.9-0.3-1.4c0.3-0.5,0.9-0.6,1.4-0.3l5,3.3
					c0.5,0.3,0.6,0.9,0.3,1.4C14.6,20.9,14.3,21.1,14,21.1z"/>
				<path class="st1" d="M36,21.1c-0.3,0-0.6-0.2-0.8-0.4c-0.3-0.5-0.2-1.1,0.3-1.4l5-3.3c0.5-0.3,1.1-0.2,1.4,0.3
					c0.3,0.5,0.2,1.1-0.3,1.4l-5,3.3C36.4,21,36.2,21.1,36,21.1z"/>
			</g>
		</g>
		<g>
			<path class="st1" d="M21.5,19.3c-0.6,0-1-0.4-1-1v-2c0-0.6,0.4-1,1-1s1,0.4,1,1v2C22.5,18.9,22.1,19.3,21.5,19.3z"/>
			<path class="st1" d="M28.5,19.3c-0.6,0-1-0.4-1-1v-2c0-0.6,0.4-1,1-1s1,0.4,1,1v2C29.5,18.9,29.1,19.3,28.5,19.3z"/>
			<path class="st7" d="M26,18.3h-2c-0.6,0-1-0.4-1-1s0.4-1,1-1h2c0.6,0,1,0.4,1,1S26.6,18.3,26,18.3z"/>
			<path class="st1" d="M33.5,37.1h-17c-0.6,0-1-0.4-1-1V24.9c0-0.6,0.4-1,1-1s1,0.4,1,1v10.2h15V24.9c0-0.6,0.4-1,1-1s1,0.4,1,1
				v11.2C34.5,36.6,34.1,37.1,33.5,37.1z"/>
			<path class="st7" d="M33.5,22.9h-17c-0.6,0-1-0.4-1-1v-4.6c0-0.6,0.4-1,1-1H19c0.6,0,1,0.4,1,1s-0.4,1-1,1h-1.5v2.6h15v-2.6H31
				c-0.6,0-1-0.4-1-1s0.4-1,1-1h2.5c0.6,0,1,0.4,1,1v4.6C34.5,22.4,34.1,22.9,33.5,22.9z"/>
			<g>
				<path class="st1" d="M21.5,26.4h-1c-0.6,0-1-0.4-1-1s0.4-1,1-1h1c0.6,0,1,0.4,1,1S22.1,26.4,21.5,26.4z"/>
				<path class="st1" d="M21.5,30h-1c-0.6,0-1-0.4-1-1s0.4-1,1-1h1c0.6,0,1,0.4,1,1S22.1,30,21.5,30z"/>
				<path class="st1" d="M21.5,33.5h-1c-0.6,0-1-0.4-1-1s0.4-1,1-1h1c0.6,0,1,0.4,1,1S22.1,33.5,21.5,33.5z"/>
				<path class="st1" d="M25.5,26.4h-1c-0.6,0-1-0.4-1-1s0.4-1,1-1h1c0.6,0,1,0.4,1,1S26.1,26.4,25.5,26.4z"/>
				<path class="st1" d="M25.5,30h-1c-0.6,0-1-0.4-1-1s0.4-1,1-1h1c0.6,0,1,0.4,1,1S26.1,30,25.5,30z"/>
				<path class="st1" d="M25.5,33.5h-1c-0.6,0-1-0.4-1-1s0.4-1,1-1h1c0.6,0,1,0.4,1,1S26.1,33.5,25.5,33.5z"/>
				<path class="st1" d="M29.5,26.4h-1c-0.6,0-1-0.4-1-1s0.4-1,1-1h1c0.6,0,1,0.4,1,1S30.1,26.4,29.5,26.4z"/>
				<path class="st1" d="M29.5,30h-1c-0.6,0-1-0.4-1-1s0.4-1,1-1h1c0.6,0,1,0.4,1,1S30.1,30,29.5,30z"/>
			</g>
		</g>
	</g>
</g>
<g id="nyt_x5F_exporter_x5F_info" class="st29">
</g>
</svg>
