<?xml version="1.0" encoding="utf-8"?>
<!-- Generator: Adobe Illustrator 22.1.0, SVG Export Plug-In . SVG Version: 6.00 Build 0)  -->
<!DOCTYPE svg PUBLIC "-//W3C//DTD SVG 1.1//EN" "http://www.w3.org/Graphics/SVG/1.1/DTD/svg11.dtd">
<svg version="1.1" xmlns="http://www.w3.org/2000/svg" xmlns:xlink="http://www.w3.org/1999/xlink" x="0px" y="0px"
	 viewBox="0 0 50 40" style="enable-background:new 0 0 50 40;" xml:space="preserve">
<style type="text/css">
	.st0{fill:#DBF0F4;}
	.st1{fill:#194A77;}
	.st2{fill:#F69E24;}
	.st3{fill:#F7C6C9;}
	.st4{fill:#FFFFFF;}
	.st5{fill:#53BA82;}
	.st6{fill:#C12629;}
	.st7{fill:#FDBE13;}
	.st8{fill:none;stroke:#194A77;stroke-width:2;stroke-linecap:round;stroke-linejoin:round;stroke-miterlimit:10;}
	.st9{fill:#56C8E9;}
	.st10{fill:#1BB7EB;}
	.st11{fill:#4367B2;}
	.st12{fill:#FAAE28;}
	.st13{fill:#F89E28;}
	.st14{fill:#F68E27;}
	.st15{fill:#F47F25;}
	.st16{fill:#F26E24;}
	.st17{fill:#F05B24;}
	.st18{fill:#EE4524;}
	.st19{fill:#ED2724;}
	.st20{fill:#E62E35;}
	.st21{fill:#E03348;}
	.st22{fill:#DB3758;}
	.st23{fill:#D63B68;}
	.st24{fill:#D03D77;}
	.st25{fill:#CA4186;}
	.st26{fill:#C14397;}
	.st27{fill:#F05669;}
	.st28{fill:#F5887E;}
	.st29{display:none;}
	.st30{display:inline;}
</style>
<g id="Layer_1">
	<g>
		<rect x="6" y="29" class="st0" width="38" height="6"/>
		<g>
			<path class="st0" d="M38.1,8.1v12H11.9v-2.7L7,21.1c0,2.1,1.8,3.9,3.9,3.9h28.1c2.2,0,3.9-1.7,3.9-3.9V4.5L38.1,8.1z"/>
			<path class="st1" d="M7,15.2c-0.6,0-1-0.4-1-1v-2.5c0-0.6,0.4-1,1-1s1,0.4,1,1v2.5C8,14.8,7.6,15.2,7,15.2z"/>
			<path class="st1" d="M40,26H10c-2.2,0-4-1.8-4-4v-4.5c0-0.6,0.4-1,1-1s1,0.4,1,1V22c0,1.1,0.9,2,2,2H40c1.1,0,2-0.9,2-2V4
				c0-1.1-0.9-2-2-2H10C8.9,2,8,2.9,8,4v4.5c0,0.6-0.4,1-1,1s-1-0.4-1-1V4c0-2.2,1.8-4,4-4H40c2.2,0,4,1.8,4,4V22
				C44,24.2,42.2,26,40,26z"/>
			<g>
				<path class="st1" d="M38,21.2H12c-0.6,0-1-0.4-1-1V5.4c0-0.6,0.4-1,1-1h26c0.6,0,1,0.4,1,1v14.7C39,20.7,38.6,21.2,38,21.2z
					 M13,19.2h24V6.4H13V19.2z"/>
			</g>
			<g>
				<path class="st5" d="M24.6,16.8c-1.1-0.1-2-0.6-2.6-1.2l0.8-1.2c0.4,0.4,1,0.9,1.7,1v-1.8c-1.1-0.3-2.3-0.7-2.3-2.3
					c0-1.2,0.9-2.2,2.3-2.3V7.8h1v1.1c0.9,0.1,1.6,0.5,2.2,1L27,11.1c-0.4-0.4-0.9-0.6-1.4-0.7V12c1.1,0.3,2.4,0.8,2.4,2.3
					c0,1.3-0.8,2.3-2.4,2.4v1h-1V16.8z M24.6,11.7v-1.4c-0.5,0.1-0.8,0.4-0.8,0.7C23.8,11.4,24.1,11.6,24.6,11.7z M25.6,13.8v1.5
					c0.5-0.1,0.8-0.4,0.8-0.8C26.4,14.1,26.1,13.9,25.6,13.8z"/>
			</g>
		</g>
		<path class="st1" d="M49,40H1c-0.6,0-1-0.4-1-1V25c0-0.6,0.4-1,1-1h3c0.6,0,1,0.4,1,1s-0.4,1-1,1H2v12h46V26h-2c-0.6,0-1-0.4-1-1
			s0.4-1,1-1h3c0.6,0,1,0.4,1,1v14C50,39.6,49.6,40,49,40z"/>
		<path class="st1" d="M32.4,30h-4.7c-0.6,0-1-0.4-1-1s0.4-1,1-1h4.7c0.6,0,1,0.4,1,1S32.9,30,32.4,30z"/>
		<path class="st1" d="M44,36H6c-0.6,0-1-0.4-1-1v-6c0-0.6,0.4-1,1-1h17.2c0.6,0,1,0.4,1,1s-0.4,1-1,1H7v4h36v-4h-6
			c-0.6,0-1-0.4-1-1s0.4-1,1-1h7c0.6,0,1,0.4,1,1v6C45,35.6,44.6,36,44,36z"/>
		<g>
			<circle class="st1" cx="25" cy="32" r="1"/>
		</g>
	</g>
</g>
<g id="nyt_x5F_exporter_x5F_info" class="st29">
</g>
</svg>
