<?xml version="1.0" encoding="utf-8"?>
<!-- Generator: Adobe Illustrator 22.1.0, SVG Export Plug-In . SVG Version: 6.00 Build 0)  -->
<!DOCTYPE svg PUBLIC "-//W3C//DTD SVG 1.1//EN" "http://www.w3.org/Graphics/SVG/1.1/DTD/svg11.dtd">
<svg version="1.1" xmlns="http://www.w3.org/2000/svg" xmlns:xlink="http://www.w3.org/1999/xlink" x="0px" y="0px"
	 viewBox="0 0 50 40" style="enable-background:new 0 0 50 40;" xml:space="preserve">
<style type="text/css">
	.st0{fill:#DBF0F4;}
	.st1{fill:#194A77;}
	.st2{fill:#F69E24;}
	.st3{fill:#F7C6C9;}
	.st4{fill:#FFFFFF;}
	.st5{fill:#53BA82;}
	.st6{fill:#C12629;}
	.st7{fill:#FDBE13;}
	.st8{fill:none;stroke:#194A77;stroke-width:2;stroke-linecap:round;stroke-linejoin:round;stroke-miterlimit:10;}
	.st9{fill:#56C8E9;}
	.st10{fill:#1BB7EB;}
	.st11{fill:#4367B2;}
	.st12{fill:#FAAE28;}
	.st13{fill:#F89E28;}
	.st14{fill:#F68E27;}
	.st15{fill:#F47F25;}
	.st16{fill:#F26E24;}
	.st17{fill:#F05B24;}
	.st18{fill:#EE4524;}
	.st19{fill:#ED2724;}
	.st20{fill:#E62E35;}
	.st21{fill:#E03348;}
	.st22{fill:#DB3758;}
	.st23{fill:#D63B68;}
	.st24{fill:#D03D77;}
	.st25{fill:#CA4186;}
	.st26{fill:#C14397;}
	.st27{fill:#F05669;}
	.st28{fill:#F5887E;}
	.st29{display:none;}
	.st30{display:inline;}
	.st31{font-family:'MyriadPro-Regular';}
	.st32{font-size:12px;}
</style>
<g id="Layer_1">
	<g>
		<path class="st1" d="M39.3,30.9c-0.6,0-1-0.4-1-1s0.4-1,1-1c1.5,0,2.7-1.2,2.7-2.7V9.7C42,8.2,40.8,7,39.3,7H10.7
			C9.2,7,8,8.2,8,9.7v16.5c0,1.5,1.2,2.7,2.7,2.7c0.6,0,1,0.4,1,1s-0.4,1-1,1c-2.6,0-4.7-2.1-4.7-4.7V9.7C6,7.1,8.1,5,10.7,5h28.6
			C41.9,5,44,7.1,44,9.7v16.5C44,28.8,41.9,30.9,39.3,30.9z"/>
		<rect x="7" y="11.8" class="st0" width="36" height="5"/>
		<path class="st1" d="M19.8,17.8H7c-0.6,0-1-0.4-1-1v-5c0-0.6,0.4-1,1-1h29.5c0.6,0,1,0.4,1,1s-0.4,1-1,1H8v3h11.8c0.6,0,1,0.4,1,1
			S20.3,17.8,19.8,17.8z"/>
		<path class="st1" d="M43,17.8H29.1c-0.6,0-1-0.4-1-1s0.4-1,1-1H42v-3h-1.8c-0.6,0-1-0.4-1-1s0.4-1,1-1H43c0.6,0,1,0.4,1,1v5
			C44,17.3,43.6,17.8,43,17.8z"/>
		<path class="st1" d="M25.5,17.8H23c-0.6,0-1-0.4-1-1s0.4-1,1-1h2.5c0.6,0,1,0.4,1,1S26.1,17.8,25.5,17.8z"/>
		<path class="st6" d="M34.6,30.9H14.4c-0.6,0-1-0.4-1-1s0.4-1,1-1h20.2c0.6,0,1,0.4,1,1S35.1,30.9,34.6,30.9z"/>
		<path class="st6" d="M19.4,35c-0.2,0-0.4-0.1-0.6-0.2l-5-4.1c-0.2-0.2-0.4-0.5-0.4-0.8s0.1-0.6,0.4-0.8l5-4.1
			c0.4-0.4,1.1-0.3,1.4,0.1c0.4,0.4,0.3,1.1-0.1,1.4l-4.1,3.3l4.1,3.3c0.4,0.4,0.5,1,0.1,1.4C19.9,34.9,19.7,35,19.4,35z"/>
	</g>
</g>
<g id="nyt_x5F_exporter_x5F_info" class="st29">
	<text transform="matrix(1 0 0 1 -180 0)" class="st30"><tspan x="0" y="0" class="st31 st32">&lt;nyt_prefs&gt;</tspan><tspan x="0" y="14.4" class="st31 st32">  &lt;nyt_prefix/&gt;</tspan><tspan x="0" y="28.8" class="st31 st32">  &lt;nyt_suffix/&gt;</tspan><tspan x="0" y="43.2" class="st31 st32">  &lt;nyt_base_path&gt;~/Desktop&lt;/nyt_base_path&gt;</tspan><tspan x="0" y="57.6" class="st31 st32">  &lt;nyt_scaling&gt;100%&lt;/nyt_scaling&gt;</tspan><tspan x="0" y="72" class="st31 st32">  &lt;nyt_transparency&gt;true&lt;/nyt_transparency&gt;</tspan><tspan x="0" y="86.4" class="st31 st32">  &lt;nyt_format&gt;PNG 24&lt;/nyt_format&gt;</tspan><tspan x="0" y="100.8" class="st31 st32">  &lt;nyt_export_code&gt;artboards&lt;/nyt_export_code&gt;</tspan><tspan x="0" y="115.2" class="st31 st32">&lt;/nyt_prefs&gt;</tspan></text>
</g>
</svg>
