<?xml version="1.0" encoding="utf-8"?>
<!-- Generator: Adobe Illustrator 22.1.0, SVG Export Plug-In . SVG Version: 6.00 Build 0)  -->
<!DOCTYPE svg PUBLIC "-//W3C//DTD SVG 1.1//EN" "http://www.w3.org/Graphics/SVG/1.1/DTD/svg11.dtd">
<svg version="1.1" xmlns="http://www.w3.org/2000/svg" xmlns:xlink="http://www.w3.org/1999/xlink" x="0px" y="0px"
	 viewBox="0 0 50 40" style="enable-background:new 0 0 50 40;" xml:space="preserve">
<style type="text/css">
	.st0{fill:#DBF0F4;}
	.st1{fill:#194A77;}
	.st2{fill:#F69E24;}
	.st3{fill:#F7C6C9;}
	.st4{fill:#FFFFFF;}
	.st5{fill:#53BA82;}
	.st6{fill:#C12629;}
	.st7{fill:#FDBE13;}
	.st8{fill:none;stroke:#194A77;stroke-width:2;stroke-linecap:round;stroke-linejoin:round;stroke-miterlimit:10;}
	.st9{fill:#56C8E9;}
	.st10{fill:#1BB7EB;}
	.st11{fill:#4367B2;}
	.st12{fill:#FAAE28;}
	.st13{fill:#F89E28;}
	.st14{fill:#F68E27;}
	.st15{fill:#F47F25;}
	.st16{fill:#F26E24;}
	.st17{fill:#F05B24;}
	.st18{fill:#EE4524;}
	.st19{fill:#ED2724;}
	.st20{fill:#E62E35;}
	.st21{fill:#E03348;}
	.st22{fill:#DB3758;}
	.st23{fill:#D63B68;}
	.st24{fill:#D03D77;}
	.st25{fill:#CA4186;}
	.st26{fill:#C14397;}
	.st27{fill:#F05669;}
	.st28{fill:#F5887E;}
	.st29{display:none;}
	.st30{display:inline;}
	.st31{font-family:'MyriadPro-Regular';}
	.st32{font-size:12px;}
</style>
<g id="Layer_1">
	<g>
		<g>
			<g>
				<path class="st0" d="M19,30v3.7c0,1.3,1,2.3,2.3,2.3h16.5c1.3,0,2.3-1,2.3-2.3V30H19z"/>
				<path class="st0" d="M19,5.7V9h21V5.7c0-1-0.8-1.7-1.7-1.7H20.7C19.8,4,19,4.8,19,5.7z"/>
				<path class="st1" d="M38,37H26.5c-0.6,0-1-0.4-1-1s0.4-1,1-1H38c0.6,0,1-0.4,1-1V6c0-0.6-0.4-1-1-1H21c-0.6,0-1,0.4-1,1v7
					c0,0.6-0.4,1-1,1s-1-0.4-1-1V6c0-1.7,1.3-3,3-3h17c1.7,0,3,1.3,3,3v28C41,35.7,39.7,37,38,37z"/>
				<g>
					<circle class="st1" cx="29.5" cy="33" r="1"/>
				</g>
				<path class="st1" d="M39.8,10H19.3c-0.6,0-1-0.4-1-1s0.4-1,1-1h20.5c0.6,0,1,0.4,1,1S40.3,10,39.8,10z"/>
				<path class="st1" d="M40,31H26.5c-0.6,0-1-0.4-1-1s0.4-1,1-1H40c0.6,0,1,0.4,1,1S40.6,31,40,31z"/>
			</g>
			<g>
				<path class="st0" d="M10,30l0,3.7c0,1.3,1,2.3,2.3,2.3l8.5,0c1.3,0,2.3-1,2.3-2.3l0-3.7L10,30z"/>
				<path class="st0" d="M10,14.7l0,3.3l13,0l0-3.3c0-1-0.8-1.7-1.7-1.7l-9.6,0C10.8,13,10,13.8,10,14.7z"/>
				<path class="st1" d="M12,37c-0.8,0-1.5-0.3-2.1-0.9C9.4,35.6,9,34.8,9,34l0-19c0-0.8,0.3-1.6,0.9-2.1c0.6-0.6,1.3-0.9,2.1-0.9
					l9,0c0,0,0,0,0,0c1.7,0,3,1.3,3,3l0,3c0,0.3-0.1,0.5-0.3,0.7C23.5,18.8,23.3,19,23,19l-10,0c0,0,0,0,0,0c-0.6,0-1-0.4-1-1
					c0-0.6,0.4-1,1-1l9,0l0-2c0-0.6-0.4-1-1-1c0,0,0,0,0,0l-9,0c-0.6,0-1,0.5-1,1l0,19c0,0.6,0.4,1,1,1c0,0,0,0,0,0l9,0
					c0.6,0,1-0.5,1-1l0-4c0-0.6,0.4-1,1-1c0,0,0,0,0,0c0.6,0,1,0.4,1,1l0,4c0,0.8-0.3,1.6-0.9,2.1C22.6,36.7,21.8,37,21,37L12,37
					C12,37,12,37,12,37z"/>
				<g>
					<circle class="st1" cx="16.5" cy="33" r="1"/>
				</g>
				<path class="st1" d="M10,31c-0.6,0-1-0.4-1-1c0-0.6,0.4-1,1-1l13,0c0,0,0,0,0,0c0.6,0,1,0.4,1,1c0,0.6-0.4,1-1,1L10,31
					C10,31,10,31,10,31z"/>
			</g>
		</g>
		<g>
			<path class="st5" d="M16.5,27.8c-0.6,0-1-0.4-1-1v-1c0-0.6,0.4-1,1-1s1,0.4,1,1v1C17.5,27.3,17.1,27.8,16.5,27.8z"/>
			<path class="st5" d="M24.5,27.8c-0.6,0-1-0.4-1-1v-5c0-0.6,0.4-1,1-1s1,0.4,1,1v5C25.5,27.3,25.1,27.8,24.5,27.8z"/>
			<path class="st5" d="M32.5,27.8c-0.6,0-1-0.4-1-1v-9.5c0-0.6,0.4-1,1-1s1,0.4,1,1v9.5C33.5,27.3,33.1,27.8,32.5,27.8z"/>
			<path class="st5" d="M28.5,27.8c-0.6,0-1-0.4-1-1v-7c0-0.6,0.4-1,1-1s1,0.4,1,1v7C29.5,27.3,29.1,27.8,28.5,27.8z"/>
			<path class="st5" d="M20.5,27.8c-0.6,0-1-0.4-1-1v-3c0-0.6,0.4-1,1-1s1,0.4,1,1v3C21.5,27.3,21.1,27.8,20.5,27.8z"/>
		</g>
	</g>
</g>
<g id="nyt_x5F_exporter_x5F_info" class="st29">
	<text transform="matrix(1 0 0 1 0 -100)" class="st30"><tspan x="0" y="0" class="st31 st32">&lt;nyt_prefs&gt;</tspan><tspan x="0" y="14.4" class="st31 st32">  &lt;nyt_prefix/&gt;</tspan><tspan x="0" y="28.8" class="st31 st32">  &lt;nyt_suffix/&gt;</tspan><tspan x="0" y="43.2" class="st31 st32">  &lt;nyt_base_path&gt;~/Desktop&lt;/nyt_base_path&gt;</tspan><tspan x="0" y="57.6" class="st31 st32">  &lt;nyt_scaling&gt;100%&lt;/nyt_scaling&gt;</tspan><tspan x="0" y="72" class="st31 st32">  &lt;nyt_transparency&gt;true&lt;/nyt_transparency&gt;</tspan><tspan x="0" y="86.4" class="st31 st32">  &lt;nyt_format&gt;PNG 24&lt;/nyt_format&gt;</tspan><tspan x="0" y="100.8" class="st31 st32">  &lt;nyt_export_code&gt;artboards&lt;/nyt_export_code&gt;</tspan><tspan x="0" y="115.2" class="st31 st32">&lt;/nyt_prefs&gt;</tspan></text>
</g>
</svg>
