<?xml version="1.0" encoding="utf-8"?>
<!-- Generator: Adobe Illustrator 22.1.0, SVG Export Plug-In . SVG Version: 6.00 Build 0)  -->
<!DOCTYPE svg PUBLIC "-//W3C//DTD SVG 1.1//EN" "http://www.w3.org/Graphics/SVG/1.1/DTD/svg11.dtd">
<svg version="1.1" xmlns="http://www.w3.org/2000/svg" xmlns:xlink="http://www.w3.org/1999/xlink" x="0px" y="0px"
	 viewBox="0 0 50 40" style="enable-background:new 0 0 50 40;" xml:space="preserve">
<style type="text/css">
	.st0{fill:#DBF0F4;}
	.st1{fill:#194A77;}
	.st2{fill:#F69E24;}
	.st3{fill:#F7C6C9;}
	.st4{fill:#FFFFFF;}
	.st5{fill:#53BA82;}
	.st6{fill:#C12629;}
	.st7{fill:#FDBE13;}
	.st8{fill:none;stroke:#194A77;stroke-width:2;stroke-linecap:round;stroke-linejoin:round;stroke-miterlimit:10;}
	.st9{fill:#56C8E9;}
	.st10{fill:#1BB7EB;}
	.st11{fill:#4367B2;}
	.st12{fill:#FAAE28;}
	.st13{fill:#F89E28;}
	.st14{fill:#F68E27;}
	.st15{fill:#F47F25;}
	.st16{fill:#F26E24;}
	.st17{fill:#F05B24;}
	.st18{fill:#EE4524;}
	.st19{fill:#ED2724;}
	.st20{fill:#E62E35;}
	.st21{fill:#E03348;}
	.st22{fill:#DB3758;}
	.st23{fill:#D63B68;}
	.st24{fill:#D03D77;}
	.st25{fill:#CA4186;}
	.st26{fill:#C14397;}
	.st27{fill:#F05669;}
	.st28{fill:#F5887E;}
	.st29{display:none;}
	.st30{display:inline;}
	.st31{font-family:'MyriadPro-Regular';}
	.st32{font-size:12px;}
</style>
<g id="Layer_1">
	<g>
		<g>
			<g>
				<g>
					<path class="st0" d="M37.1,16.3c3.1,3.1,4.9,7.3,4.9,12H25L37.1,16.3z"/>
				</g>
				<path class="st1" d="M25,29.2c-0.3,0-0.5-0.1-0.7-0.3c-0.4-0.4-0.4-1,0-1.4l6-6c0.4-0.4,1-0.4,1.4,0s0.4,1,0,1.4l-6,6
					C25.5,29.2,25.3,29.2,25,29.2z"/>
				<path class="st1" d="M25,27.9c0.2,0,0.4,0.2,0.4,0.4s-0.2,0.4-0.4,0.4s-0.4-0.2-0.4-0.4S24.8,27.9,25,27.9 M25,25.9
					c-1.3,0-2.4,1.1-2.4,2.4s1.1,2.4,2.4,2.4s2.4-1.1,2.4-2.4S26.3,25.9,25,25.9L25,25.9z"/>
				<circle class="st4" cx="25" cy="28.2" r="1"/>
				<path class="st1" d="M25,15.6c-0.6,0-1-0.4-1-1V12c0-0.6,0.4-1,1-1s1,0.4,1,1v2.7C26,15.2,25.6,15.6,25,15.6z"/>
				<g>
					<path class="st1" d="M42,29.2h-3.4c-0.6,0-1-0.4-1-1s0.4-1,1-1H41c-0.5-8.4-7.5-15-16-15s-15.5,6.6-16,15h2.3c0.6,0,1,0.4,1,1
						s-0.4,1-1,1H8c-0.6,0-1-0.4-1-1c0-9.9,8.1-18,18-18s18,8.1,18,18C43,28.8,42.6,29.2,42,29.2z"/>
				</g>
				<g>
					<path class="st1" d="M15.4,19.6c-0.3,0-0.5-0.1-0.7-0.3l-1.9-1.9c-0.4-0.4-0.4-1,0-1.4s1-0.4,1.4,0l1.9,1.9
						c0.4,0.4,0.4,1,0,1.4C15.9,19.5,15.6,19.6,15.4,19.6z"/>
					<g>
						<path class="st1" d="M34.6,19.6c-0.3,0-0.5-0.1-0.7-0.3c-0.4-0.4-0.4-1,0-1.4l1.9-1.9c0.4-0.4,1-0.4,1.4,0s0.4,1,0,1.4
							l-1.9,1.9C35.1,19.5,34.9,19.6,34.6,19.6z"/>
					</g>
				</g>
			</g>
			<path class="st1" d="M31,35.2H19c-0.6,0-1-0.4-1-1s0.4-1,1-1h12c0.6,0,1,0.4,1,1S31.6,35.2,31,35.2z"/>
		</g>
		<path class="st9" d="M9.1,13.3c-0.3,0-0.5-0.1-0.7-0.3c-0.4-0.4-0.4-1,0-1.4C12.8,7.2,18.7,4.8,25,4.8c5.4,0,10.6,1.9,14.8,5.2
			c0.4,0.3,0.5,1,0.1,1.4c-0.3,0.4-1,0.5-1.4,0.1C34.7,8.4,29.9,6.8,25,6.8C19.3,6.8,13.9,9,9.8,13C9.6,13.2,9.3,13.3,9.1,13.3z"/>
		<path class="st9" d="M35.8,13c-0.5,0-1-0.4-1-0.9c0-0.6,0.4-1,0.9-1.1l3.2-0.2l-0.8-3.1c-0.1-0.5,0.2-1.1,0.7-1.2
			c0.5-0.1,1.1,0.2,1.2,0.7l1.1,4.3c0.1,0.3,0,0.6-0.2,0.8c-0.2,0.2-0.4,0.4-0.7,0.4L35.8,13C35.8,13,35.8,13,35.8,13z"/>
	</g>
</g>
<g id="nyt_x5F_exporter_x5F_info" class="st29">
	<text transform="matrix(1 0 0 1 -180 -50)" class="st30"><tspan x="0" y="0" class="st31 st32">&lt;nyt_prefs&gt;</tspan><tspan x="0" y="14.4" class="st31 st32">  &lt;nyt_prefix/&gt;</tspan><tspan x="0" y="28.8" class="st31 st32">  &lt;nyt_suffix/&gt;</tspan><tspan x="0" y="43.2" class="st31 st32">  &lt;nyt_base_path&gt;~/Desktop&lt;/nyt_base_path&gt;</tspan><tspan x="0" y="57.6" class="st31 st32">  &lt;nyt_scaling&gt;100%&lt;/nyt_scaling&gt;</tspan><tspan x="0" y="72" class="st31 st32">  &lt;nyt_transparency&gt;true&lt;/nyt_transparency&gt;</tspan><tspan x="0" y="86.4" class="st31 st32">  &lt;nyt_format&gt;PNG 24&lt;/nyt_format&gt;</tspan><tspan x="0" y="100.8" class="st31 st32">  &lt;nyt_export_code&gt;artboards&lt;/nyt_export_code&gt;</tspan><tspan x="0" y="115.2" class="st31 st32">&lt;/nyt_prefs&gt;</tspan></text>
</g>
</svg>
