<?xml version="1.0" encoding="utf-8"?>
<!-- Generator: Adobe Illustrator 22.1.0, SVG Export Plug-In . SVG Version: 6.00 Build 0)  -->
<!DOCTYPE svg PUBLIC "-//W3C//DTD SVG 1.1//EN" "http://www.w3.org/Graphics/SVG/1.1/DTD/svg11.dtd">
<svg version="1.1" xmlns="http://www.w3.org/2000/svg" xmlns:xlink="http://www.w3.org/1999/xlink" x="0px" y="0px"
	 viewBox="0 0 50 40" style="enable-background:new 0 0 50 40;" xml:space="preserve">
<style type="text/css">
	.st0{fill:#DBF0F4;}
	.st1{fill:#194A77;}
	.st2{fill:#F69E24;}
	.st3{fill:#F7C6C9;}
	.st4{fill:#FFFFFF;}
	.st5{fill:#53BA82;}
	.st6{fill:#C12629;}
	.st7{fill:#FDBE13;}
	.st8{fill:none;stroke:#194A77;stroke-width:2;stroke-linecap:round;stroke-linejoin:round;stroke-miterlimit:10;}
	.st9{fill:#56C8E9;}
	.st10{fill:#1BB7EB;}
	.st11{fill:#4367B2;}
	.st12{fill:#FAAE28;}
	.st13{fill:#F89E28;}
	.st14{fill:#F68E27;}
	.st15{fill:#F47F25;}
	.st16{fill:#F26E24;}
	.st17{fill:#F05B24;}
	.st18{fill:#EE4524;}
	.st19{fill:#ED2724;}
	.st20{fill:#E62E35;}
	.st21{fill:#E03348;}
	.st22{fill:#DB3758;}
	.st23{fill:#D63B68;}
	.st24{fill:#D03D77;}
	.st25{fill:#CA4186;}
	.st26{fill:#C14397;}
	.st27{fill:#F05669;}
	.st28{fill:#F5887E;}
	.st29{display:none;}
	.st30{display:inline;}
	.st31{font-family:'MyriadPro-Regular';}
	.st32{font-size:12px;}
</style>
<g id="Layer_1">
	<g>
		<path class="st0" d="M26,7c-6.4,0-11.5,5.1-11.5,11.5C14.5,24.9,19.6,30,26,30s11.5-5.1,11.5-11.5C37.5,12.1,32.4,7,26,7z
			 M26,24.2c-3.1,0-5.7-2.5-5.7-5.7s2.5-5.7,5.7-5.7s5.7,2.5,5.7,5.7S29.1,24.2,26,24.2z"/>
		<g>
			<path class="st1" d="M41,35H11c-1.4,0-2.5-1.1-2.5-2.5v-28C8.5,3.1,9.6,2,11,2h30c1.4,0,2.5,1.1,2.5,2.5v28
				C43.5,33.9,42.4,35,41,35z M11,4c-0.3,0-0.5,0.2-0.5,0.5v28c0,0.3,0.2,0.5,0.5,0.5h30c0.3,0,0.5-0.2,0.5-0.5v-28
				C41.5,4.2,41.3,4,41,4H11z"/>
			<path class="st1" d="M7.5,13.5c-0.6,0-1-0.4-1-1V8c0-0.6,0.4-1,1-1s1,0.4,1,1v4.5C8.5,13.1,8.1,13.5,7.5,13.5z"/>
			<path class="st1" d="M7.5,30c-0.6,0-1-0.4-1-1v-4.5c0-0.6,0.4-1,1-1s1,0.4,1,1V29C8.5,29.6,8.1,30,7.5,30z"/>
			<path class="st1" d="M14.5,38c-0.1,0-0.2,0-0.3-0.1c-0.5-0.2-0.8-0.8-0.6-1.3l1-2.8c0.2-0.5,0.8-0.8,1.3-0.6
				c0.5,0.2,0.8,0.8,0.6,1.3l-1,2.8C15.3,37.7,14.9,38,14.5,38z"/>
			<path class="st1" d="M37.5,38c-0.4,0-0.8-0.3-0.9-0.7l-1-2.8c-0.2-0.5,0.1-1.1,0.6-1.3c0.5-0.2,1.1,0.1,1.3,0.6l1,2.8
				c0.2,0.5-0.1,1.1-0.6,1.3C37.7,38,37.6,38,37.5,38z"/>
			<g>
				<path class="st1" d="M26,31c-0.3,0-0.7,0-1,0c-3.3-0.3-6.4-1.8-8.5-4.4c-2.2-2.5-3.2-5.8-2.9-9.1c0.3-3.3,1.8-6.4,4.4-8.5
					C20.4,6.8,23.7,5.8,27,6c2,0.2,4,0.8,5.6,1.9c0.5,0.3,0.6,0.9,0.3,1.4c-0.3,0.5-0.9,0.6-1.4,0.3c-1.4-0.9-3-1.4-4.7-1.6
					c-2.8-0.2-5.5,0.7-7.6,2.5c-2.1,1.8-3.4,4.4-3.7,7.2c-0.2,2.8,0.7,5.5,2.5,7.6c1.8,2.1,4.4,3.4,7.2,3.7c2.8,0.2,5.5-0.7,7.6-2.5
					c2.1-1.8,3.4-4.4,3.7-7.2c0.2-2.4-0.5-4.8-1.9-6.8c-0.3-0.5-0.2-1.1,0.2-1.4c0.5-0.3,1.1-0.2,1.4,0.2c1.7,2.4,2.4,5.3,2.2,8.1
					c-0.3,3.3-1.8,6.4-4.4,8.5C31.8,30,29,31,26,31z"/>
				<g>
					<g>
						<path class="st9" d="M28.1,17.5c-0.2,0-0.5-0.1-0.7-0.3c-0.4-0.4-0.4-1,0-1.4l1.5-1.6c0.4-0.4,1-0.4,1.4,0
							c0.4,0.4,0.4,1,0,1.4l-1.5,1.6C28.6,17.4,28.4,17.5,28.1,17.5z"/>
					</g>
					<path class="st9" d="M26,22.2c-2.1,0-3.8-1.7-3.8-3.8s1.7-3.8,3.8-3.8s3.8,1.7,3.8,3.8S28.1,22.2,26,22.2z M26,16.8
						c-1,0-1.8,0.8-1.8,1.8s0.8,1.8,1.8,1.8s1.8-0.8,1.8-1.8S27,16.8,26,16.8z"/>
				</g>
				<path class="st9" d="M26,25.6c-0.2,0-0.4,0-0.6,0c-3.9-0.3-6.8-3.7-6.5-7.6c0.3-3.9,3.7-6.8,7.6-6.5c0.4,0,0.8,0.1,1.2,0.2
					c0.5,0.1,0.9,0.7,0.7,1.2c-0.1,0.5-0.7,0.9-1.2,0.7c-0.3-0.1-0.6-0.1-0.9-0.2c-2.8-0.2-5.2,1.9-5.5,4.7
					c-0.2,2.8,1.9,5.2,4.7,5.5c2.8,0.2,5.2-1.9,5.5-4.7c0-0.6,0-1.2-0.2-1.8c-0.1-0.5,0.2-1.1,0.7-1.2c0.5-0.1,1.1,0.2,1.2,0.7
					c0.2,0.8,0.3,1.6,0.2,2.5C32.8,22.8,29.7,25.6,26,25.6z"/>
			</g>
		</g>
	</g>
</g>
<g id="nyt_x5F_exporter_x5F_info" class="st29">
	<text transform="matrix(1 0 0 1 -60 0)" class="st30"><tspan x="0" y="0" class="st31 st32">&lt;nyt_prefs&gt;</tspan><tspan x="0" y="14.4" class="st31 st32">  &lt;nyt_prefix/&gt;</tspan><tspan x="0" y="28.8" class="st31 st32">  &lt;nyt_suffix/&gt;</tspan><tspan x="0" y="43.2" class="st31 st32">  &lt;nyt_base_path&gt;~/Desktop&lt;/nyt_base_path&gt;</tspan><tspan x="0" y="57.6" class="st31 st32">  &lt;nyt_scaling&gt;100%&lt;/nyt_scaling&gt;</tspan><tspan x="0" y="72" class="st31 st32">  &lt;nyt_transparency&gt;true&lt;/nyt_transparency&gt;</tspan><tspan x="0" y="86.4" class="st31 st32">  &lt;nyt_format&gt;PNG 24&lt;/nyt_format&gt;</tspan><tspan x="0" y="100.8" class="st31 st32">  &lt;nyt_export_code&gt;artboards&lt;/nyt_export_code&gt;</tspan><tspan x="0" y="115.2" class="st31 st32">&lt;/nyt_prefs&gt;</tspan></text>
</g>
</svg>
