<?xml version="1.0" encoding="utf-8"?>
<!-- Generator: Adobe Illustrator 22.1.0, SVG Export Plug-In . SVG Version: 6.00 Build 0)  -->
<!DOCTYPE svg PUBLIC "-//W3C//DTD SVG 1.1//EN" "http://www.w3.org/Graphics/SVG/1.1/DTD/svg11.dtd">
<svg version="1.1" xmlns="http://www.w3.org/2000/svg" xmlns:xlink="http://www.w3.org/1999/xlink" x="0px" y="0px"
	 viewBox="0 0 50 40" style="enable-background:new 0 0 50 40;" xml:space="preserve">
<style type="text/css">
	.st0{fill:#DBF0F4;}
	.st1{fill:#194A77;}
	.st2{fill:#F69E24;}
	.st3{fill:#F7C6C9;}
	.st4{fill:#FFFFFF;}
	.st5{fill:#53BA82;}
	.st6{fill:#C12629;}
	.st7{fill:#FDBE13;}
	.st8{fill:none;stroke:#194A77;stroke-width:2;stroke-linecap:round;stroke-linejoin:round;stroke-miterlimit:10;}
	.st9{fill:#56C8E9;}
	.st10{fill:#1BB7EB;}
	.st11{fill:#4367B2;}
	.st12{fill:#FAAE28;}
	.st13{fill:#F89E28;}
	.st14{fill:#F68E27;}
	.st15{fill:#F47F25;}
	.st16{fill:#F26E24;}
	.st17{fill:#F05B24;}
	.st18{fill:#EE4524;}
	.st19{fill:#ED2724;}
	.st20{fill:#E62E35;}
	.st21{fill:#E03348;}
	.st22{fill:#DB3758;}
	.st23{fill:#D63B68;}
	.st24{fill:#D03D77;}
	.st25{fill:#CA4186;}
	.st26{fill:#C14397;}
	.st27{fill:#F05669;}
	.st28{fill:#F5887E;}
	.st29{display:none;}
	.st30{display:inline;}
</style>
<g id="Layer_1">
	<g>
		<path class="st0" d="M41.1,11v20.2H8.9v-2.8L2,32.3c0,2.2,1.8,3.9,3.9,3.9h38.1c2.2,0,3.9-1.8,3.9-3.9v-25L41.1,11z"/>
		<path class="st1" d="M44.1,36.8H5.9c-2.7,0-4.9-2.2-4.9-4.9V7.7C1,5,3.2,2.8,5.9,2.8h38.2C46.8,2.8,49,5,49,7.7v24.2
			C49,34.6,46.8,36.8,44.1,36.8z M5.9,4.8C4.3,4.8,3,6.1,3,7.7v24.2c0,1.6,1.3,2.9,2.9,2.9h38.2c1.6,0,2.9-1.3,2.9-2.9V7.7
			c0-1.6-1.3-2.9-2.9-2.9H5.9z"/>
		<g>
			<path class="st1" d="M41,32.3H9c-0.6,0-1-0.4-1-1v-23c0-0.6,0.4-1,1-1h32c0.6,0,1,0.4,1,1v8.8c0,0.6-0.4,1-1,1s-1-0.4-1-1V9.3H10
				v21h30v-1.6c0-0.6,0.4-1,1-1s1,0.4,1,1v2.6C42,31.8,41.6,32.3,41,32.3z"/>
			<path class="st1" d="M41,24.7c-0.6,0-1-0.4-1-1v-1.8c0-0.6,0.4-1,1-1s1,0.4,1,1v1.8C42,24.2,41.6,24.7,41,24.7z"/>
		</g>
		<g>
			<path class="st5" d="M24.3,26.1C22.4,26,21,25.2,20,24.2l1.4-2c0.7,0.7,1.7,1.4,2.9,1.6v-2.9c-1.9-0.5-3.9-1.2-3.9-3.7
				c0-1.9,1.5-3.4,3.9-3.7v-1.7H26v1.8c1.5,0.2,2.7,0.7,3.7,1.6l-1.4,1.9c-0.7-0.6-1.4-1-2.3-1.2v2.6c1.9,0.5,4,1.2,4,3.7
				c0,2-1.3,3.6-4,3.9v1.7h-1.7V26.1z M24.3,18v-2.2C23.5,15.9,23,16.4,23,17C23,17.5,23.5,17.8,24.3,18z M26,21.3v2.5
				c0.9-0.2,1.3-0.7,1.3-1.3C27.4,21.9,26.8,21.6,26,21.3z"/>
		</g>
	</g>
</g>
<g id="nyt_x5F_exporter_x5F_info" class="st29">
</g>
</svg>
