<?xml version="1.0" encoding="utf-8"?>
<!-- Generator: Adobe Illustrator 22.1.0, SVG Export Plug-In . SVG Version: 6.00 Build 0)  -->
<!DOCTYPE svg PUBLIC "-//W3C//DTD SVG 1.1//EN" "http://www.w3.org/Graphics/SVG/1.1/DTD/svg11.dtd">
<svg version="1.1" xmlns="http://www.w3.org/2000/svg" xmlns:xlink="http://www.w3.org/1999/xlink" x="0px" y="0px"
	 viewBox="0 0 50 40" style="enable-background:new 0 0 50 40;" xml:space="preserve">
<style type="text/css">
	.st0{fill:#DBF0F4;}
	.st1{fill:#194A77;}
	.st2{fill:#F69E24;}
	.st3{fill:#F7C6C9;}
	.st4{fill:#FFFFFF;}
	.st5{fill:#53BA82;}
	.st6{fill:#C12629;}
	.st7{fill:#FDBE13;}
	.st8{fill:none;stroke:#194A77;stroke-width:2;stroke-linecap:round;stroke-linejoin:round;stroke-miterlimit:10;}
	.st9{fill:#56C8E9;}
	.st10{fill:#1BB7EB;}
	.st11{fill:#4367B2;}
	.st12{fill:#FAAE28;}
	.st13{fill:#F89E28;}
	.st14{fill:#F68E27;}
	.st15{fill:#F47F25;}
	.st16{fill:#F26E24;}
	.st17{fill:#F05B24;}
	.st18{fill:#EE4524;}
	.st19{fill:#ED2724;}
	.st20{fill:#E62E35;}
	.st21{fill:#E03348;}
	.st22{fill:#DB3758;}
	.st23{fill:#D63B68;}
	.st24{fill:#D03D77;}
	.st25{fill:#CA4186;}
	.st26{fill:#C14397;}
	.st27{fill:#F05669;}
	.st28{fill:#F5887E;}
	.st29{display:none;}
	.st30{display:inline;}
</style>
<g id="Layer_1">
	<g>
		<path class="st1" d="M31.3,38.5c-1,0-2.1-0.1-3.1-0.3c-1.4-0.3-2.8-0.7-4.3-1.1c-0.8-0.2-1.6-0.5-2.3-0.8L20.6,36
			c-0.7-0.2-2.5-1-2.6-1c-0.5-0.2-0.8-0.8-0.6-1.3c0.2-0.5,0.8-0.8,1.3-0.6c0,0,1.8,0.7,2.5,0.9l1,0.3c0.7,0.3,1.5,0.5,2.2,0.7
			c1.5,0.4,2.8,0.8,4.1,1.1c1.3,0.3,2.7,0.2,4.2,0.2l0.7,0c0.4,0,0.8-0.1,1.2-0.1c0.9-0.2,1.4-0.6,1.6-1.4c0.1-0.5,0.2-1.1,0.1-1.8
			c-0.1-0.5,0.1-0.9,0.5-1.2c0.8-0.6,1.1-1.7,0.7-2.6c-0.2-0.4-0.3-1,0.3-1.6c0.7-0.7,0.8-1.6,0.4-2.6c-0.1-0.2-0.2-0.3-0.2-0.5
			l-0.1-0.2c-0.2-0.4-0.1-1,0.3-1.3c0.1-0.1,0.2-0.1,0.3-0.2c0.1,0,0.1-0.1,0.2-0.1c0.1-0.2,0.3-0.4,0.4-0.7c0.2-0.6,0.3-1,0.2-1.4
			c-0.2-0.7-0.9-1.3-1.8-1.3c-1.6,0-3.3,0-4.9,0l-2.4,0c-0.6,0-1-0.4-1-1c0-0.2,0-0.2,0-0.3c0.1-1.1,0.4-2,0.8-2.8
			c0.1-0.3,0.3-0.7,0.4-1l0.4-0.9c0.5-1.1,0.5-2.2,0.3-3.5c-0.2-0.9-0.4-1.1-0.8-1.2c-0.3-0.1-0.6-0.1-0.9-0.2
			C29,8.8,28.9,9,28.9,9.2c-0.2,0.6-0.3,1.2-0.5,1.8l-0.2,0.7c-0.3,1.3-0.9,2.4-1.7,3.3c-0.7,0.7-1.3,1.5-1.9,2.3
			c-2.1,3.6-5.8,4.9-5.9,4.9c-0.5,0.2-1.1-0.1-1.3-0.6s0.1-1.1,0.6-1.3c0,0,3.2-1.2,4.9-4.1c0,0,0.1-0.1,0.1-0.1
			c0.6-0.8,1.3-1.6,2-2.4c0.6-0.7,1-1.5,1.3-2.4l0.2-0.7c0.1-0.7,0.3-1.3,0.5-1.9c0.1-0.4,0.3-0.8,0.5-1.2l0.1-0.3
			c0.2-0.4,0.7-0.8,1.3-0.7l0.4,0c0.5,0.1,1,0.1,1.5,0.3c1.5,0.5,1.9,1.7,2.1,2.7c0.4,1.6,0.3,3.2-0.4,4.7c-0.1,0.3-0.2,0.6-0.4,0.9
			c-0.1,0.3-0.3,0.7-0.4,1c-0.2,0.4-0.4,0.9-0.5,1.3l1.3,0c1.6,0,3.3,0,4.9,0c1.7,0,3.3,1.1,3.8,2.8c0.3,0.9,0.2,1.8-0.3,2.7
			c-0.2,0.4-0.4,0.8-0.7,1.2c0,0-0.1,0.1-0.1,0.1c0,0,0,0.1,0,0.1c0.6,1.6,0.4,3.2-0.6,4.4c0.5,1.6,0.1,3.3-1.1,4.4
			c0.1,0.8,0,1.5-0.2,2.2c-0.4,1.5-1.5,2.5-3.1,2.9c-0.5,0.1-1,0.2-1.6,0.2l-0.7,0C32.3,38.5,31.8,38.5,31.3,38.5z M38.3,32.8
			C38.3,32.8,38.3,32.8,38.3,32.8C38.3,32.8,38.3,32.8,38.3,32.8z M28.6,8.5C28.6,8.5,28.6,8.5,28.6,8.5L28.6,8.5z M29.4,8.1
			L29.4,8.1C29.4,8.1,29.4,8.1,29.4,8.1z"/>
		<g>
			<polygon class="st0" points="18.2,35 9.8,35 18.2,20 			"/>
			<path class="st1" d="M18.2,36H9.8c-0.6,0-1-0.4-1-1V20c0-0.6,0.4-1,1-1h8.4c0.6,0,1,0.4,1,1v3.5c0,0.6-0.4,1-1,1s-1-0.4-1-1V21
				h-6.4v13h6.4v-7c0-0.6,0.4-1,1-1s1,0.4,1,1v8C19.2,35.5,18.7,36,18.2,36z"/>
			<circle class="st1" cx="15.3" cy="31.5" r="1"/>
		</g>
		<path class="st5" d="M24.3,11.5h-3.5c-0.6,0-1-0.4-1-1s0.4-1,1-1h3.5c0.6,0,1,0.4,1,1S24.8,11.5,24.3,11.5z"/>
		<path class="st5" d="M34.1,7.2c-0.3,0-0.5-0.1-0.7-0.3c-0.4-0.4-0.4-1,0-1.4l2-2c0.4-0.4,1-0.4,1.4,0s0.4,1,0,1.4l-2,2
			C34.6,7.1,34.3,7.2,34.1,7.2z"/>
		<path class="st5" d="M25.7,7.5c-0.3,0-0.5-0.1-0.7-0.3l-2.3-2.3c-0.4-0.4-0.4-1,0-1.4s1-0.4,1.4,0l2.3,2.3c0.4,0.4,0.4,1,0,1.4
			C26.2,7.4,25.9,7.5,25.7,7.5z"/>
		<path class="st5" d="M29.7,5.6c-0.6,0-1-0.4-1-1V1.5c0-0.6,0.4-1,1-1s1,0.4,1,1v3.1C30.7,5.2,30.3,5.6,29.7,5.6z"/>
		<path class="st5" d="M38.7,11.5H35c-0.6,0-1-0.4-1-1s0.4-1,1-1h3.7c0.6,0,1,0.4,1,1S39.3,11.5,38.7,11.5z"/>
	</g>
</g>
<g id="nyt_x5F_exporter_x5F_info" class="st29">
</g>
</svg>
