<?xml version="1.0" encoding="utf-8"?>
<!-- Generator: Adobe Illustrator 22.1.0, SVG Export Plug-In . SVG Version: 6.00 Build 0)  -->
<!DOCTYPE svg PUBLIC "-//W3C//DTD SVG 1.1//EN" "http://www.w3.org/Graphics/SVG/1.1/DTD/svg11.dtd">
<svg version="1.1" xmlns="http://www.w3.org/2000/svg" xmlns:xlink="http://www.w3.org/1999/xlink" x="0px" y="0px"
	 viewBox="0 0 50 40" style="enable-background:new 0 0 50 40;" xml:space="preserve">
<style type="text/css">
	.st0{fill:#DBF0F4;}
	.st1{fill:#194A77;}
	.st2{fill:#F69E24;}
	.st3{fill:#F7C6C9;}
	.st4{fill:#FFFFFF;}
	.st5{fill:#53BA82;}
	.st6{fill:#C12629;}
	.st7{fill:#FDBE13;}
	.st8{fill:none;stroke:#194A77;stroke-width:2;stroke-linecap:round;stroke-linejoin:round;stroke-miterlimit:10;}
	.st9{fill:#56C8E9;}
	.st10{fill:#1BB7EB;}
	.st11{fill:#4367B2;}
	.st12{fill:#FAAE28;}
	.st13{fill:#F89E28;}
	.st14{fill:#F68E27;}
	.st15{fill:#F47F25;}
	.st16{fill:#F26E24;}
	.st17{fill:#F05B24;}
	.st18{fill:#EE4524;}
	.st19{fill:#ED2724;}
	.st20{fill:#E62E35;}
	.st21{fill:#E03348;}
	.st22{fill:#DB3758;}
	.st23{fill:#D63B68;}
	.st24{fill:#D03D77;}
	.st25{fill:#CA4186;}
	.st26{fill:#C14397;}
	.st27{fill:#F05669;}
	.st28{fill:#F5887E;}
	.st29{display:none;}
	.st30{display:inline;}
</style>
<g id="Layer_1">
	<g>
		<polygon class="st3" points="17.5,3.5 17.5,11.5 33.5,11.5 33.5,27.5 41.5,27.5 41.5,3.5 		"/>
		<path class="st6" d="M41.5,28.5h-5c-0.6,0-1-0.4-1-1s0.4-1,1-1h4v-22h-22v4c0,0.6-0.4,1-1,1s-1-0.4-1-1v-5c0-0.6,0.4-1,1-1h24
			c0.6,0,1,0.4,1,1v24C42.5,28.1,42.1,28.5,41.5,28.5z"/>
		<path class="st1" d="M33.5,36.5h-24c-0.6,0-1-0.4-1-1v-24c0-0.6,0.4-1,1-1h24c0.6,0,1,0.4,1,1v24C34.5,36.1,34.1,36.5,33.5,36.5z
			 M10.5,34.5h22v-22h-22V34.5z"/>
		<g>
			<path class="st1" d="M24,29.5H14c-0.6,0-1-0.4-1-1s0.4-1,1-1h10c0.6,0,1,0.4,1,1S24.6,29.5,24,29.5z"/>
			<path class="st1" d="M19.8,19.5H14c-0.6,0-1-0.4-1-1s0.4-1,1-1h5.8c0.6,0,1,0.4,1,1S20.4,19.5,19.8,19.5z"/>
			<path class="st1" d="M29,24.5H14c-0.6,0-1-0.4-1-1s0.4-1,1-1h15c0.6,0,1,0.4,1,1S29.6,24.5,29,24.5z"/>
		</g>
	</g>
</g>
<g id="nyt_x5F_exporter_x5F_info" class="st29">
</g>
</svg>
