<?xml version="1.0" encoding="utf-8"?>
<!-- Generator: Adobe Illustrator 22.1.0, SVG Export Plug-In . SVG Version: 6.00 Build 0)  -->
<!DOCTYPE svg PUBLIC "-//W3C//DTD SVG 1.1//EN" "http://www.w3.org/Graphics/SVG/1.1/DTD/svg11.dtd">
<svg version="1.1" xmlns="http://www.w3.org/2000/svg" xmlns:xlink="http://www.w3.org/1999/xlink" x="0px" y="0px"
	 viewBox="0 0 50 40" style="enable-background:new 0 0 50 40;" xml:space="preserve">
<style type="text/css">
	.st0{fill:#DBF0F4;}
	.st1{fill:#194A77;}
	.st2{fill:#F69E24;}
	.st3{fill:#F7C6C9;}
	.st4{fill:#FFFFFF;}
	.st5{fill:#53BA82;}
	.st6{fill:#C12629;}
	.st7{fill:#FDBE13;}
	.st8{fill:none;stroke:#194A77;stroke-width:2;stroke-linecap:round;stroke-linejoin:round;stroke-miterlimit:10;}
	.st9{fill:#56C8E9;}
	.st10{fill:#1BB7EB;}
	.st11{fill:#4367B2;}
	.st12{fill:#FAAE28;}
	.st13{fill:#F89E28;}
	.st14{fill:#F68E27;}
	.st15{fill:#F47F25;}
	.st16{fill:#F26E24;}
	.st17{fill:#F05B24;}
	.st18{fill:#EE4524;}
	.st19{fill:#ED2724;}
	.st20{fill:#E62E35;}
	.st21{fill:#E03348;}
	.st22{fill:#DB3758;}
	.st23{fill:#D63B68;}
	.st24{fill:#D03D77;}
	.st25{fill:#CA4186;}
	.st26{fill:#C14397;}
	.st27{fill:#F05669;}
	.st28{fill:#F5887E;}
	.st29{display:none;}
	.st30{display:inline;}
</style>
<g id="Layer_1">
	<g>
		<g>
			<polygon class="st3" points="22.5,38.2 7.3,23 41.6,17.9 41.6,18.8 			"/>
			<path class="st1" d="M22.5,39.2c-0.3,0-0.5-0.1-0.7-0.3L4.1,21.2c-0.4-0.4-0.4-1,0-1.4L22.5,1.1c0.2-0.2,0.4-0.3,0.7-0.3h10.6
				c0.3,0,0.5,0.1,0.7,0.3l7.8,7.4c0.4,0.4,0.4,1,0,1.4c-0.4,0.4-1,0.4-1.4,0l-7.5-7.1h-9.8L6.2,20.5l16.3,16.3l18.4-18.7
				c0.4-0.4,1-0.4,1.4,0c0.4,0.4,0.4,1,0,1.4L23.2,38.9C23,39.1,22.8,39.2,22.5,39.2C22.5,39.2,22.5,39.2,22.5,39.2z"/>
			<path class="st1" d="M32.6,14.4c-1.3,0-2.6-0.6-3.3-1.8c-1.2-1.8-0.7-4.3,1.1-5.6c1.1-0.7,2.5-0.9,3.7-0.4
				c0.5,0.2,0.8,0.8,0.6,1.3c-0.2,0.5-0.8,0.8-1.3,0.6c-0.6-0.2-1.3-0.2-1.9,0.2C31,9.1,30.7,9.5,30.6,10s0,1.1,0.3,1.5
				c0.4,0.7,1.2,1,2,0.8c0.5-0.1,1.1,0.2,1.2,0.8c0.1,0.5-0.2,1.1-0.8,1.2C33.1,14.4,32.8,14.4,32.6,14.4z"/>
			<path class="st6" d="M20.4,18.1c-0.7,0-1.4-0.2-1.8-0.7c-1.2-1.2-0.9-3.4,0.7-5c1.6-1.6,3.8-1.9,4.9-0.7c1.2,1.2,0.9,3.4-0.7,5
				l0,0C22.6,17.6,21.5,18.1,20.4,18.1z M22.4,13c-0.4,0-1.1,0.2-1.7,0.8c-0.9,0.9-1,1.8-0.7,2.1c0.3,0.3,1.3,0.1,2.1-0.7
				c0.9-0.9,1-1.8,0.7-2.1C22.8,13,22.6,13,22.4,13z M22.8,15.9L22.8,15.9L22.8,15.9z"/>
			<path class="st6" d="M21.9,30.8c-0.7,0-1.4-0.2-1.8-0.7c-0.6-0.6-0.9-1.5-0.7-2.5c0.2-0.9,0.7-1.7,1.4-2.4
				c1.6-1.6,3.8-1.9,4.9-0.7c0.6,0.6,0.9,1.5,0.7,2.5c-0.2,0.9-0.7,1.7-1.4,2.4C24,30.3,22.9,30.8,21.9,30.8z M23.8,25.7
				c-0.4,0-1.1,0.2-1.7,0.8c-0.4,0.4-0.7,0.9-0.8,1.4c-0.1,0.3,0,0.6,0.1,0.7c0.3,0.3,1.3,0.2,2.1-0.7c0.4-0.4,0.7-0.9,0.8-1.4
				c0.1-0.3,0-0.6-0.1-0.7C24.2,25.7,24,25.7,23.8,25.7z"/>
			<path class="st6" d="M12.2,23.3c-0.5,0-0.9-0.4-1-0.9c-0.1-0.5,0.3-1.1,0.8-1.1l19.8-2.8c0.5-0.1,1.1,0.3,1.1,0.8
				s-0.3,1.1-0.8,1.1l-19.8,2.8C12.3,23.3,12.3,23.3,12.2,23.3z"/>
		</g>
		<path class="st1" d="M41.7,25.8c-0.7,0-1.5-0.2-2.2-0.6c-0.5-0.3-0.7-0.9-0.4-1.4c0.3-0.5,0.9-0.7,1.4-0.4c0.8,0.4,1.7,0.4,2.5,0
			c0.8-0.4,1.2-1.2,1.2-2.1c0-4.1-2.8-7.7-6.8-8.7l-5-1.2c-0.5-0.1-0.9-0.7-0.7-1.2c0.1-0.5,0.7-0.9,1.2-0.7l5,1.2
			c4.9,1.2,8.3,5.6,8.3,10.6c0,1.6-0.8,3-2.2,3.9C43.3,25.6,42.5,25.8,41.7,25.8z"/>
	</g>
</g>
<g id="nyt_x5F_exporter_x5F_info" class="st29">
</g>
</svg>
