<?xml version="1.0" encoding="utf-8"?>
<!-- Generator: Adobe Illustrator 22.1.0, SVG Export Plug-In . SVG Version: 6.00 Build 0)  -->
<!DOCTYPE svg PUBLIC "-//W3C//DTD SVG 1.1//EN" "http://www.w3.org/Graphics/SVG/1.1/DTD/svg11.dtd">
<svg version="1.1" xmlns="http://www.w3.org/2000/svg" xmlns:xlink="http://www.w3.org/1999/xlink" x="0px" y="0px"
	 viewBox="0 0 50 40" style="enable-background:new 0 0 50 40;" xml:space="preserve">
<style type="text/css">
	.st0{fill:#DBF0F4;}
	.st1{fill:#194A77;}
	.st2{fill:#F69E24;}
	.st3{fill:#F7C6C9;}
	.st4{fill:#FFFFFF;}
	.st5{fill:#53BA82;}
	.st6{fill:#C12629;}
	.st7{fill:#FDBE13;}
	.st8{fill:none;stroke:#194A77;stroke-width:2;stroke-linecap:round;stroke-linejoin:round;stroke-miterlimit:10;}
	.st9{fill:#56C8E9;}
	.st10{fill:#1BB7EB;}
	.st11{fill:#4367B2;}
	.st12{fill:#FAAE28;}
	.st13{fill:#F89E28;}
	.st14{fill:#F68E27;}
	.st15{fill:#F47F25;}
	.st16{fill:#F26E24;}
	.st17{fill:#F05B24;}
	.st18{fill:#EE4524;}
	.st19{fill:#ED2724;}
	.st20{fill:#E62E35;}
	.st21{fill:#E03348;}
	.st22{fill:#DB3758;}
	.st23{fill:#D63B68;}
	.st24{fill:#D03D77;}
	.st25{fill:#CA4186;}
	.st26{fill:#C14397;}
	.st27{fill:#F05669;}
	.st28{fill:#F5887E;}
	.st29{display:none;}
	.st30{display:inline;}
</style>
<g id="Layer_1">
	<g>
		<g>
			<g>
				<polygon class="st0" points="16.2,36.3 5,36.3 16.2,22.7 				"/>
				<path class="st1" d="M32,30.9h-8.9c-0.6,0-1-0.4-1-1s0.4-1,1-1H32c0.4,0,0.8-0.3,0.8-0.8c0-0.8-0.6-1.4-1.4-1.4h-4.5
					c-0.2,0-0.4,0-0.5-0.1c0,0-0.5-0.3-1-0.6c-0.7-0.4-1.4-0.8-2.2-1c-0.8-0.2-1.8-0.3-2.8-0.1l-4,0.5c-0.6,0.1-1-0.3-1.1-0.9
					c-0.1-0.5,0.3-1,0.9-1.1l4-0.5c1.3-0.2,2.5-0.1,3.6,0.2c1,0.3,1.9,0.7,2.8,1.2c0.2,0.2,0.5,0.3,0.7,0.4h4.2
					c1.9,0,3.4,1.5,3.4,3.4C34.7,29.7,33.5,30.9,32,30.9z"/>
				<path class="st1" d="M28.1,37.7c-1.3,0-2.6-0.2-3.8-0.7l-8.4-3.2c-0.5-0.2-0.8-0.8-0.6-1.3c0.2-0.5,0.8-0.8,1.3-0.6l8.4,3.2
					c2.3,0.9,4.9,0.7,7.1-0.4l11.3-5.8c0.6-0.3,0.9-1.1,0.6-1.7c-0.3-0.6-1.1-0.9-1.7-0.6L33,30.8c-0.1,0.1-0.3,0.1-0.4,0.1h-1.2
					c-0.6,0-1-0.4-1-1s0.4-1,1-1h1l9-4.2c1.7-0.7,3.6,0,4.4,1.6c0.7,1.6,0.1,3.5-1.5,4.3l-11.3,5.8C31.4,37.3,29.7,37.7,28.1,37.7z"
					/>
				<path class="st1" d="M16.2,37.3H5c-0.6,0-1-0.4-1-1V22.7c0-0.6,0.4-1,1-1h11.2c0.6,0,1,0.4,1,1v13.7
					C17.2,36.9,16.8,37.3,16.2,37.3z M6,35.3h9.2V23.7H6V35.3z"/>
				<ellipse class="st1" cx="12.5" cy="32" rx="1.3" ry="1.2"/>
			</g>
		</g>
		<g>
			<path class="st27" d="M30,22c-0.4,0-0.7-0.1-1.1-0.4l-6.5-5.3c-0.6-0.5-1.1-1-1.4-1.4c-1.3-1.7-2-3.8-2-5.9c0-3.8,2.9-7,6.5-7
				c1.5,0,2.9,0.6,4,1.8C29.6,4,29.8,4.3,30,4.6C31,3,32.7,2,34.5,2C38.1,2,41,5.1,41,9c0,2.2-0.7,4.3-2,5.9
				c-0.4,0.5-0.8,0.9-1.4,1.4l-6.5,5.3C30.7,21.9,30.4,22,30,22z M25.5,4C23,4,21,6.2,21,9c0,1.7,0.6,3.4,1.6,4.7
				c0.3,0.4,0.6,0.7,1.1,1.1l6.3,5.1l6.3-5.1c0.5-0.4,0.8-0.8,1.1-1.1c1-1.3,1.6-3,1.6-4.7c0-2.7-2-5-4.5-5c-1.6,0-3,1.2-3.4,2.9
				C30.9,7.9,30.3,8,30,8c-0.4,0-0.9-0.2-1.1-1.1c-0.2-0.7-0.5-1.3-0.9-1.8C27.3,4.4,26.4,4,25.5,4z"/>
			<path class="st27" d="M27.6,14.1c-0.2,0-0.5-0.1-0.7-0.3c-0.4-0.4-0.4-1,0-1.4l2-2.1c0.4-0.4,1-0.4,1.4,0c0.4,0.4,0.4,1,0,1.4
				l-2,2.1C28.1,14,27.9,14.1,27.6,14.1z"/>
			<path class="st27" d="M30.3,15.9c-0.2,0-0.5-0.1-0.7-0.3c-0.4-0.4-0.4-1,0-1.4l4.4-4.6c0.4-0.4,1-0.4,1.4,0c0.4,0.4,0.4,1,0,1.4
				L31,15.6C30.8,15.8,30.5,15.9,30.3,15.9z"/>
		</g>
	</g>
</g>
<g id="nyt_x5F_exporter_x5F_info" class="st29">
</g>
</svg>
