<?xml version="1.0" encoding="utf-8"?>
<!-- Generator: Adobe Illustrator 22.1.0, SVG Export Plug-In . SVG Version: 6.00 Build 0)  -->
<!DOCTYPE svg PUBLIC "-//W3C//DTD SVG 1.1//EN" "http://www.w3.org/Graphics/SVG/1.1/DTD/svg11.dtd">
<svg version="1.1" xmlns="http://www.w3.org/2000/svg" xmlns:xlink="http://www.w3.org/1999/xlink" x="0px" y="0px"
	 viewBox="0 0 50 40" style="enable-background:new 0 0 50 40;" xml:space="preserve">
<style type="text/css">
	.st0{fill:#DBF0F4;}
	.st1{fill:#194A77;}
	.st2{fill:#F69E24;}
	.st3{fill:#F7C6C9;}
	.st4{fill:#FFFFFF;}
	.st5{fill:#53BA82;}
	.st6{fill:#C12629;}
	.st7{fill:#FDBE13;}
	.st8{fill:none;stroke:#194A77;stroke-width:2;stroke-linecap:round;stroke-linejoin:round;stroke-miterlimit:10;}
	.st9{fill:#56C8E9;}
	.st10{fill:#1BB7EB;}
	.st11{fill:#4367B2;}
	.st12{fill:#FAAE28;}
	.st13{fill:#F89E28;}
	.st14{fill:#F68E27;}
	.st15{fill:#F47F25;}
	.st16{fill:#F26E24;}
	.st17{fill:#F05B24;}
	.st18{fill:#EE4524;}
	.st19{fill:#ED2724;}
	.st20{fill:#E62E35;}
	.st21{fill:#E03348;}
	.st22{fill:#DB3758;}
	.st23{fill:#D63B68;}
	.st24{fill:#D03D77;}
	.st25{fill:#CA4186;}
	.st26{fill:#C14397;}
	.st27{fill:#F05669;}
	.st28{fill:#F5887E;}
	.st29{display:none;}
	.st30{display:inline;}
</style>
<g id="Layer_1">
	<g>
		<g>
			<path class="st0" d="M39.3,5.2C34.5,4,31.5,4.1,26.8,5.5C26.2,5.7,25,6.1,25,6.1l0,25H25c0.5-0.2,0.9-0.3,1.4-0.5
				c4.8-1.5,7.9-1.7,12.8-0.4l3.8,0.9v-25L39.3,5.2z"/>
			<path class="st1" d="M43,32.1c-0.1,0-0.2,0-0.2,0L39,31.2c-5-1.3-8.5-1-13.6,0.9c-0.2,0.1-0.5,0.1-0.7,0
				c-5.2-1.9-8.6-2.2-13.6-0.9l-3.8,0.9c-0.3,0.1-0.6,0-0.9-0.2C6.1,31.7,6,31.5,6,31.1v-25c0-0.5,0.3-0.9,0.8-1l3.7-0.9
				c5.3-1.3,9.2-1.1,14.5,0.8c5.3-2,9.2-2.2,14.5-0.8l3.7,0.9c0.4,0.1,0.8,0.5,0.8,1v25c0,0.3-0.1,0.6-0.4,0.8
				C43.4,32.1,43.2,32.1,43,32.1z M16.6,28.4c2.7,0,5.3,0.5,8.4,1.7c5.4-2,9.2-2.2,14.5-0.8l2.5,0.6V6.9l-3-0.7l0,0
				c-5.1-1.3-8.5-1-13.6,0.9c-0.2,0.1-0.5,0.1-0.8,0C19.5,5.1,16,4.9,11,6.2L8,6.9v22.9l2.5-0.6C12.7,28.7,14.7,28.4,16.6,28.4z"/>
			<path class="st1" d="M25,15.4c-0.6,0-1-0.4-1-1V6.6c0-0.6,0.4-1,1-1s1,0.4,1,1v7.7C26,14.9,25.6,15.4,25,15.4z"/>
			<path class="st1" d="M25,32c-0.6,0-1-0.4-1-1v-5.7c0-0.6,0.4-1,1-1s1,0.4,1,1V31C26,31.5,25.6,32,25,32z"/>
			<path class="st1" d="M25,23c-0.6,0-1-0.4-1-1v-3.7c0-0.6,0.4-1,1-1s1,0.4,1,1V22C26,22.5,25.6,23,25,23z"/>
			<g>
				<path class="st1" d="M39,23.7c-0.1,0-0.2,0-0.2,0c-3.9-1-5.8-1-9.6-0.3c-0.5,0.1-1.1-0.2-1.2-0.8c-0.1-0.5,0.2-1.1,0.8-1.2
					c4.1-0.8,6.3-0.8,10.5,0.3c0.5,0.1,0.9,0.7,0.7,1.2C39.9,23.4,39.4,23.7,39,23.7z"/>
				<path class="st1" d="M39,13.7c-0.1,0-0.2,0-0.2,0c-3.9-1-5.8-1-9.6-0.3c-0.5,0.1-1.1-0.2-1.2-0.8c-0.1-0.5,0.2-1.1,0.8-1.2
					c4.1-0.8,6.3-0.8,10.5,0.3c0.5,0.1,0.9,0.7,0.7,1.2C39.9,13.4,39.4,13.7,39,13.7z"/>
				<path class="st1" d="M39,18.7c-0.1,0-0.2,0-0.2,0c-3.9-1-5.8-1-9.6-0.3c-0.5,0.1-1.1-0.2-1.2-0.8c-0.1-0.5,0.2-1.1,0.8-1.2
					c4.1-0.8,6.3-0.8,10.5,0.3c0.5,0.1,0.9,0.7,0.7,1.2C39.9,18.4,39.4,18.7,39,18.7z"/>
			</g>
			<path class="st1" d="M4.3,36.6c-0.5,0-1-0.2-1.4-0.5c-0.6-0.4-1-1.1-1-1.9V10.1c0-0.6,0.4-1,1-1s1,0.4,1,1v24.1
				c0,0.2,0.1,0.2,0.1,0.3c0.1,0,0.2,0.1,0.3,0.1c3.6-1.2,12.9-3.5,20.6-0.5c7.9-3,17-0.6,20.5,0.5c0.1,0,0.3,0,0.3,0
				c0.1,0,0.1-0.1,0.1-0.3V10.1c0-0.6,0.4-1,1-1s1,0.4,1,1v24.1c0,0.8-0.4,1.5-1,1.9c-0.6,0.4-1.4,0.6-2.1,0.3
				c-3.4-1.1-12.1-3.3-19.5-0.4c-0.2,0.1-0.5,0.1-0.8,0c-7.2-2.9-16.1-0.7-19.6,0.4C4.8,36.6,4.6,36.6,4.3,36.6z"/>
		</g>
		<g>
			<path class="st9" d="M10.8,23.7c-0.4,0-0.9-0.3-1-0.8c-0.1-0.5,0.2-1.1,0.7-1.2c4.2-1,6.4-1.1,10.5-0.3c0.5,0.1,0.9,0.6,0.8,1.2
				c-0.1,0.5-0.6,0.9-1.2,0.8c-3.8-0.8-5.7-0.7-9.6,0.3C10.9,23.7,10.8,23.7,10.8,23.7z"/>
			<path class="st9" d="M10.8,13.7c-0.4,0-0.9-0.3-1-0.8c-0.1-0.5,0.2-1.1,0.7-1.2c4.2-1,6.4-1.1,10.5-0.3c0.5,0.1,0.9,0.6,0.8,1.2
				c-0.1,0.5-0.6,0.9-1.2,0.8c-3.8-0.8-5.7-0.7-9.6,0.3C10.9,13.7,10.8,13.7,10.8,13.7z"/>
			<path class="st9" d="M10.8,18.7c-0.4,0-0.9-0.3-1-0.8c-0.1-0.5,0.2-1.1,0.7-1.2c4.2-1,6.4-1.1,10.5-0.3c0.5,0.1,0.9,0.6,0.8,1.2
				c-0.1,0.5-0.6,0.9-1.2,0.8c-3.8-0.8-5.7-0.7-9.6,0.3C10.9,18.7,10.8,18.7,10.8,18.7z"/>
		</g>
	</g>
</g>
<g id="nyt_x5F_exporter_x5F_info" class="st29">
</g>
</svg>
