<?xml version="1.0" encoding="utf-8"?>
<!-- Generator: Adobe Illustrator 22.1.0, SVG Export Plug-In . SVG Version: 6.00 Build 0)  -->
<!DOCTYPE svg PUBLIC "-//W3C//DTD SVG 1.1//EN" "http://www.w3.org/Graphics/SVG/1.1/DTD/svg11.dtd">
<svg version="1.1" xmlns="http://www.w3.org/2000/svg" xmlns:xlink="http://www.w3.org/1999/xlink" x="0px" y="0px"
	 viewBox="0 0 50 40" style="enable-background:new 0 0 50 40;" xml:space="preserve">
<style type="text/css">
	.st0{fill:#DBF0F4;}
	.st1{fill:#194A77;}
	.st2{fill:#F69E24;}
	.st3{fill:#F7C6C9;}
	.st4{fill:#FFFFFF;}
	.st5{fill:#53BA82;}
	.st6{fill:#C12629;}
	.st7{fill:#FDBE13;}
	.st8{fill:none;stroke:#194A77;stroke-width:2;stroke-linecap:round;stroke-linejoin:round;stroke-miterlimit:10;}
	.st9{fill:#56C8E9;}
	.st10{fill:#1BB7EB;}
	.st11{fill:#4367B2;}
	.st12{fill:#FAAE28;}
	.st13{fill:#F89E28;}
	.st14{fill:#F68E27;}
	.st15{fill:#F47F25;}
	.st16{fill:#F26E24;}
	.st17{fill:#F05B24;}
	.st18{fill:#EE4524;}
	.st19{fill:#ED2724;}
	.st20{fill:#E62E35;}
	.st21{fill:#E03348;}
	.st22{fill:#DB3758;}
	.st23{fill:#D63B68;}
	.st24{fill:#D03D77;}
	.st25{fill:#CA4186;}
	.st26{fill:#C14397;}
	.st27{fill:#F05669;}
	.st28{fill:#F5887E;}
	.st29{display:none;}
	.st30{display:inline;}
	.st31{font-family:'MyriadPro-Regular';}
	.st32{font-size:12px;}
</style>
<g id="Layer_1">
	<g>
		<polygon class="st0" points="7.7,35 33.1,5 33.1,35 		"/>
		<g>
			<path class="st1" d="M7.7,29.9c-0.6,0-1-0.4-1-1V5c0-0.6,0.4-1,1-1h25.4c0.6,0,1,0.4,1,1v14.2c0,0.6-0.4,1-1,1s-1-0.4-1-1V6H8.7
				v22.9C8.7,29.5,8.2,29.9,7.7,29.9z"/>
			<path class="st1" d="M33.1,36H12.9c-0.6,0-1-0.4-1-1s0.4-1,1-1h19.2v-2.7c0-0.6,0.4-1,1-1s1,0.4,1,1V35
				C34.1,35.6,33.6,36,33.1,36z"/>
			<g>
				<g>
					<path class="st1" d="M20.9,17.7h-8.6c-0.6,0-1-0.4-1-1s0.4-1,1-1h8.6c0.6,0,1,0.4,1,1S21.4,17.7,20.9,17.7z"/>
					<path class="st1" d="M17.8,21.8h-5.6c-0.6,0-1-0.4-1-1s0.4-1,1-1h5.6c0.6,0,1,0.4,1,1S18.4,21.8,17.8,21.8z"/>
				</g>
				<g>
					<path class="st1" d="M28.5,17.7h-2c-0.6,0-1-0.4-1-1s0.4-1,1-1h2c0.6,0,1,0.4,1,1S29.1,17.7,28.5,17.7z"/>
				</g>
			</g>
		</g>
		<path class="st1" d="M23.2,9.6h-5.8c-0.6,0-1-0.4-1-1s0.4-1,1-1h5.8c0.6,0,1,0.4,1,1S23.8,9.6,23.2,9.6z"/>
		<path class="st1" d="M27.3,12.6H13.4c-0.6,0-1-0.4-1-1s0.4-1,1-1h13.9c0.6,0,1,0.4,1,1S27.9,12.6,27.3,12.6z"/>
		<path class="st5" d="M7.7,36c-0.2,0-0.5-0.1-0.6-0.2c-0.4-0.4-0.5-1-0.1-1.4l8-9.5c0.2-0.2,0.4-0.3,0.7-0.4c0.3,0,0.5,0.1,0.7,0.2
			l4.3,3.8l5.5-8c0.2-0.2,0.4-0.4,0.7-0.4c0.3,0,0.6,0,0.8,0.2l5.3,4.6l8-9.6c0.4-0.4,1-0.5,1.4-0.1c0.4,0.4,0.5,1,0.1,1.4L33.8,27
			c-0.2,0.2-0.4,0.3-0.7,0.4c-0.3,0-0.5-0.1-0.7-0.2l-5.3-4.5l-5.5,8C21.5,30.8,21.2,31,21,31c-0.3,0-0.6-0.1-0.8-0.2l-4.4-3.9
			l-7.4,8.7C8.2,35.9,7.9,36,7.7,36z"/>
		<path class="st5" d="M42.3,21.2c-0.5,0-1-0.4-1-0.9L41.1,17L38,17.9c-0.5,0.1-1.1-0.2-1.2-0.7c-0.1-0.5,0.2-1.1,0.7-1.2l4.3-1.1
			c0.3-0.1,0.6,0,0.8,0.2c0.2,0.2,0.4,0.4,0.4,0.7l0.3,4.4C43.4,20.7,43,21.2,42.3,21.2C42.4,21.2,42.4,21.2,42.3,21.2z"/>
	</g>
</g>
<g id="nyt_x5F_exporter_x5F_info" class="st29">
	<text transform="matrix(1 0 0 1 -120 0)" class="st30"><tspan x="0" y="0" class="st31 st32">&lt;nyt_prefs&gt;</tspan><tspan x="0" y="14.4" class="st31 st32">  &lt;nyt_prefix/&gt;</tspan><tspan x="0" y="28.8" class="st31 st32">  &lt;nyt_suffix/&gt;</tspan><tspan x="0" y="43.2" class="st31 st32">  &lt;nyt_base_path&gt;~/Desktop&lt;/nyt_base_path&gt;</tspan><tspan x="0" y="57.6" class="st31 st32">  &lt;nyt_scaling&gt;100%&lt;/nyt_scaling&gt;</tspan><tspan x="0" y="72" class="st31 st32">  &lt;nyt_transparency&gt;true&lt;/nyt_transparency&gt;</tspan><tspan x="0" y="86.4" class="st31 st32">  &lt;nyt_format&gt;PNG 24&lt;/nyt_format&gt;</tspan><tspan x="0" y="100.8" class="st31 st32">  &lt;nyt_export_code&gt;artboards&lt;/nyt_export_code&gt;</tspan><tspan x="0" y="115.2" class="st31 st32">&lt;/nyt_prefs&gt;</tspan></text>
</g>
</svg>
