<?xml version="1.0" encoding="utf-8"?>
<!-- Generator: Adobe Illustrator 22.1.0, SVG Export Plug-In . SVG Version: 6.00 Build 0)  -->
<!DOCTYPE svg PUBLIC "-//W3C//DTD SVG 1.1//EN" "http://www.w3.org/Graphics/SVG/1.1/DTD/svg11.dtd">
<svg version="1.1" xmlns="http://www.w3.org/2000/svg" xmlns:xlink="http://www.w3.org/1999/xlink" x="0px" y="0px"
	 viewBox="0 0 50 40" style="enable-background:new 0 0 50 40;" xml:space="preserve">
<style type="text/css">
	.st0{fill:#DBF0F4;}
	.st1{fill:#194A77;}
	.st2{fill:#F69E24;}
	.st3{fill:#F7C6C9;}
	.st4{fill:#FFFFFF;}
	.st5{fill:#53BA82;}
	.st6{fill:#C12629;}
	.st7{fill:#FDBE13;}
	.st8{fill:none;stroke:#194A77;stroke-width:2;stroke-linecap:round;stroke-linejoin:round;stroke-miterlimit:10;}
	.st9{fill:#56C8E9;}
	.st10{fill:#1BB7EB;}
	.st11{fill:#4367B2;}
	.st12{fill:#FAAE28;}
	.st13{fill:#F89E28;}
	.st14{fill:#F68E27;}
	.st15{fill:#F47F25;}
	.st16{fill:#F26E24;}
	.st17{fill:#F05B24;}
	.st18{fill:#EE4524;}
	.st19{fill:#ED2724;}
	.st20{fill:#E62E35;}
	.st21{fill:#E03348;}
	.st22{fill:#DB3758;}
	.st23{fill:#D63B68;}
	.st24{fill:#D03D77;}
	.st25{fill:#CA4186;}
	.st26{fill:#C14397;}
	.st27{fill:#F05669;}
	.st28{fill:#F5887E;}
	.st29{display:none;}
	.st30{display:inline;}
</style>
<g id="Layer_1">
	<g>
		<g>
			<path class="st0" d="M13.9,34.2l1.3-1.6l-1.6-8.9c0,0-2-13.3,0.7-17.3C10.4,9.7,7,15.6,7,21.1c0,5.1,2.2,9.8,5.6,13
				C13.8,35.2,13.6,34.1,13.9,34.2z"/>
			<path class="st0" d="M35.5,6.8c0.9,7.5,0.7,17.7,0.7,17.7l-0.4,7.6l0,0.9l1,1.6c0,0,0.4-0.3,0.6-0.5c3.5-3.3,6.1-7.9,5.6-13
				C42,9.4,35.5,6.6,35.5,6.8z"/>
		</g>
		<g>
			<path class="st1" d="M11.1,33.5c-0.3,0-0.6-0.1-0.8-0.4c-3.6-4.3-5.1-10-4-15.5c0.5-2.5,1.4-4.9,2.8-7c0.3-0.5,0.9-0.6,1.4-0.3
				c0.5,0.3,0.6,0.9,0.3,1.4c-1.3,1.9-2.1,4-2.5,6.2c-0.9,5,0.4,10,3.6,13.9c0.4,0.4,0.3,1.1-0.1,1.4C11.6,33.4,11.4,33.5,11.1,33.5
				z"/>
			<path class="st1" d="M38.6,33.9c-0.2,0-0.5-0.1-0.7-0.2c-0.4-0.4-0.5-1-0.1-1.4c2-2.3,3.4-5.1,3.9-8.1c0.8-4.4-0.1-9-2.7-12.7
				c-0.3-0.5-0.2-1.1,0.3-1.4c0.5-0.3,1.1-0.2,1.4,0.3c2.9,4.2,3.9,9.2,3,14.2c-0.6,3.3-2.1,6.5-4.4,9
				C39.1,33.7,38.8,33.9,38.6,33.9z"/>
		</g>
		<g>
			<g>
				<path class="st1" d="M29.4,31.6c-0.6,0-1-0.4-1-1v-1.7c0-0.6,0.4-1,1-1s1,0.4,1,1v1.7C30.4,31.2,29.9,31.6,29.4,31.6z"/>
				<path class="st1" d="M20.8,32.7c-0.6,0-1-0.4-1-1v-2.8c0-0.6,0.4-1,1-1s1,0.4,1,1v2.8C21.8,32.3,21.4,32.7,20.8,32.7z"/>
				<path class="st1" d="M25.1,30.9c-5.5,0-9.7-5.7-9.7-10.9v-4c0-0.6,0.4-1,1-1s1,0.4,1,1v4c0,4.1,3.3,8.9,7.7,8.9
					c4.2,0,7.1-3,7.1-7.3c0-0.6,0.4-1,1-1s1,0.4,1,1C34.3,27,30.4,30.9,25.1,30.9z"/>
				<path class="st1" d="M14.6,32.4c-0.5,0-1-0.4-1-1c-0.1-2.5-0.5-4.9-0.9-7.1c-0.2-1.1-0.4-2.1-0.5-3.1c-0.5-3.3-0.5-5.3-0.5-8.6
					c0-4,1.8-7.1,3.4-8.5c4-3.6,9.5-4.8,14.5-3.1c3.8,1.3,6.7,4,7.4,7.2c1.5,6.7,1,11.6,0.3,16.8c-0.3,2-0.4,4.1-0.4,6.1
					c0,0.6-0.4,1-1,1c0,0,0,0,0,0c-0.5,0-1-0.4-1-1c0-2.1,0.1-4.3,0.4-6.4c0.7-5.2,1.2-9.7-0.2-16.1c-0.5-2.5-2.8-4.7-6-5.7
					c-4.4-1.4-9.1-0.4-12.6,2.7c-0.3,0.2-2.7,2.6-2.7,7c0,3.3,0.1,5.2,0.5,8.4c0.1,0.9,0.3,1.9,0.5,3c0.4,2.2,0.9,4.7,0.9,7.4
					C15.6,31.9,15.2,32.4,14.6,32.4C14.6,32.4,14.6,32.4,14.6,32.4z"/>
				<path class="st1" d="M33.3,19.6c-0.6,0-1-0.4-1-1c0-8.1-2.7-9-2.7-9C29,9.5,28.6,9,28.7,8.5c0.1-0.5,0.6-0.9,1.1-0.9
					c0.5,0.1,4.5,0.8,4.5,11C34.3,19.1,33.8,19.6,33.3,19.6z"/>
				<path class="st1" d="M29.4,32.7c-0.6,0-1-0.4-1-1v-2.8c0-0.6,0.4-1,1-1s1,0.4,1,1v2.8C30.4,32.3,29.9,32.7,29.4,32.7z"/>
				<path class="st28" d="M24.8,38.5c-0.2,0-0.4-0.1-0.6-0.2l-6.6-4.7L17,33.8c-1.5,0.6-2.8,1.4-4,2.4c-0.4,0.4-1.1,0.3-1.4-0.1
					c-0.4-0.4-0.3-1.1,0.1-1.4c1.3-1.1,2.8-2,4.5-2.7l1.1-0.4c0.3-0.1,0.7-0.1,0.9,0.1l6.5,4.6l6.8-4.6c0.2-0.2,0.6-0.2,0.8-0.1
					l1.1,0.3c0.4,0.1,0.8,0.3,1.1,0.4c1.4,0.7,2.7,1.5,3.8,2.4c0.4,0.4,0.5,1,0.1,1.4c-0.4,0.4-1,0.5-1.4,0.1
					c-1-0.8-2.1-1.5-3.4-2.1c-0.2-0.1-0.5-0.2-0.8-0.3l-0.6-0.2l-7,4.7C25.1,38.4,25,38.5,24.8,38.5z"/>
			</g>
			<path class="st1" d="M25.1,25.9c-1.1,0-2.1-0.4-3-1.2c-0.4-0.4-0.4-1-0.1-1.4c0.4-0.4,1-0.4,1.4-0.1c1,0.9,2.3,1,3.3,0.1
				c0.4-0.4,1.1-0.4,1.4,0.1c0.4,0.4,0.4,1-0.1,1.4C27.2,25.5,26.1,25.9,25.1,25.9z"/>
		</g>
		<path class="st1" d="M18.5,14.7c-1.1,0-1.9-0.1-2-0.1c-0.5-0.1-0.9-0.5-0.9-1.1s0.6-0.9,1.1-0.9c0.1,0,9.9,0.9,12.1-4.4
			c0.2-0.5,0.8-0.8,1.3-0.5c0.5,0.2,0.8,0.8,0.5,1.3C28.5,14,21.8,14.7,18.5,14.7z"/>
	</g>
</g>
<g id="nyt_x5F_exporter_x5F_info" class="st29">
</g>
</svg>
