<?xml version="1.0" encoding="utf-8"?>
<!-- Generator: Adobe Illustrator 22.1.0, SVG Export Plug-In . SVG Version: 6.00 Build 0)  -->
<!DOCTYPE svg PUBLIC "-//W3C//DTD SVG 1.1//EN" "http://www.w3.org/Graphics/SVG/1.1/DTD/svg11.dtd">
<svg version="1.1" xmlns="http://www.w3.org/2000/svg" xmlns:xlink="http://www.w3.org/1999/xlink" x="0px" y="0px"
	 viewBox="0 0 50 40" style="enable-background:new 0 0 50 40;" xml:space="preserve">
<style type="text/css">
	.st0{fill:#DBF0F4;}
	.st1{fill:#194A77;}
	.st2{fill:#F69E24;}
	.st3{fill:#F7C6C9;}
	.st4{fill:#FFFFFF;}
	.st5{fill:#53BA82;}
	.st6{fill:#C12629;}
	.st7{fill:#FDBE13;}
	.st8{fill:none;stroke:#194A77;stroke-width:2;stroke-linecap:round;stroke-linejoin:round;stroke-miterlimit:10;}
	.st9{fill:#56C8E9;}
	.st10{fill:#1BB7EB;}
	.st11{fill:#4367B2;}
	.st12{fill:#FAAE28;}
	.st13{fill:#F89E28;}
	.st14{fill:#F68E27;}
	.st15{fill:#F47F25;}
	.st16{fill:#F26E24;}
	.st17{fill:#F05B24;}
	.st18{fill:#EE4524;}
	.st19{fill:#ED2724;}
	.st20{fill:#E62E35;}
	.st21{fill:#E03348;}
	.st22{fill:#DB3758;}
	.st23{fill:#D63B68;}
	.st24{fill:#D03D77;}
	.st25{fill:#CA4186;}
	.st26{fill:#C14397;}
	.st27{fill:#F05669;}
	.st28{fill:#F5887E;}
	.st29{display:none;}
	.st30{display:inline;}
</style>
<g id="Layer_1">
	<g>
		<circle class="st0" cx="32" cy="26" r="6.5"/>
		<path class="st1" d="M32,33.5c-4.1,0-7.5-3.4-7.5-7.5s3.4-7.5,7.5-7.5c0.2,0,0.5,0,0.7,0l2.8-6.3c0.2-0.5,0.8-0.7,1.3-0.5
			c0.5,0.2,0.7,0.8,0.5,1.3l-3.1,7c-0.2,0.4-0.7,0.7-1.1,0.6c-0.4-0.1-0.7-0.1-1.1-0.1c-3,0-5.5,2.5-5.5,5.5s2.5,5.5,5.5,5.5
			s5.5-2.5,5.5-5.5c0-0.6,0.4-1,1-1s1,0.4,1,1C39.5,30.1,36.1,33.5,32,33.5z"/>
		<path class="st1" d="M37.7,23.9c-0.4,0-0.7-0.2-0.9-0.5c-0.3-0.6-0.7-1-1.1-1.5c-0.4-0.4-0.4-1-0.1-1.4c0.4-0.4,1-0.4,1.4-0.1
			c0.6,0.6,1.2,1.3,1.6,2c0.3,0.5,0.1,1.1-0.4,1.4C38.1,23.9,37.9,23.9,37.7,23.9z"/>
	</g>
	<path class="st9" d="M15,17c-3.3,0-6-2.7-6-6s2.7-6,6-6s6,2.7,6,6S18.3,17,15,17z M15,7c-2.2,0-4,1.8-4,4s1.8,4,4,4s4-1.8,4-4
		S17.2,7,15,7z"/>
	<path class="st1" d="M38,14c-2.8,0-5-2.2-5-5s2.2-5,5-5s5,2.2,5,5S40.8,14,38,14z M38,6c-1.7,0-3,1.3-3,3s1.3,3,3,3s3-1.3,3-3
		S39.7,6,38,6z"/>
	<path class="st1" d="M12,34c-2.8,0-5-2.2-5-5s2.2-5,5-5s5,2.2,5,5S14.8,34,12,34z M12,26c-1.7,0-3,1.3-3,3s1.3,3,3,3s3-1.3,3-3
		S13.7,26,12,26z"/>
	<path class="st1" d="M26.2,30h-9.7c-0.6,0-1-0.4-1-1s0.4-1,1-1h9.7c0.6,0,1,0.4,1,1S26.8,30,26.2,30z"/>
	<path class="st1" d="M27.2,22.1c-0.2,0-0.4-0.1-0.6-0.2l-5.3-3.8c-0.4-0.3-0.6-0.9-0.2-1.4c0.3-0.4,0.9-0.6,1.4-0.2l5.3,3.8
		c0.4,0.3,0.6,0.9,0.2,1.4C27.9,21.9,27.5,22.1,27.2,22.1z"/>
	<path class="st1" d="M24.2,11.4c-0.5,0-0.9-0.4-1-0.9c-0.1-0.5,0.3-1.1,0.8-1.1L33.9,8c0.5-0.1,1.1,0.3,1.1,0.8
		c0.1,0.5-0.3,1.1-0.8,1.1l-9.8,1.4C24.3,11.4,24.2,11.4,24.2,11.4z"/>
	<path class="st1" d="M12,26c0,0-0.1,0-0.1,0c-0.5-0.1-0.9-0.5-0.9-1.1l0.6-5.5c0.1-0.5,0.5-1,1.1-0.9c0.5,0.1,0.9,0.5,0.9,1.1
		L13,25.1C12.9,25.6,12.5,26,12,26z"/>
</g>
<g id="nyt_x5F_exporter_x5F_info" class="st29">
</g>
</svg>
