<?xml version="1.0" encoding="utf-8"?>
<!-- Generator: Adobe Illustrator 22.1.0, SVG Export Plug-In . SVG Version: 6.00 Build 0)  -->
<!DOCTYPE svg PUBLIC "-//W3C//DTD SVG 1.1//EN" "http://www.w3.org/Graphics/SVG/1.1/DTD/svg11.dtd">
<svg version="1.1" xmlns="http://www.w3.org/2000/svg" xmlns:xlink="http://www.w3.org/1999/xlink" x="0px" y="0px"
	 viewBox="0 0 50 40" style="enable-background:new 0 0 50 40;" xml:space="preserve">
<style type="text/css">
	.st0{fill:#DBF0F4;}
	.st1{fill:#194A77;}
	.st2{fill:#F69E24;}
	.st3{fill:#F7C6C9;}
	.st4{fill:#FFFFFF;}
	.st5{fill:#53BA82;}
	.st6{fill:#C12629;}
	.st7{fill:#FDBE13;}
	.st8{fill:none;stroke:#194A77;stroke-width:2;stroke-linecap:round;stroke-linejoin:round;stroke-miterlimit:10;}
	.st9{fill:#56C8E9;}
	.st10{fill:#1BB7EB;}
	.st11{fill:#4367B2;}
	.st12{fill:#FAAE28;}
	.st13{fill:#F89E28;}
	.st14{fill:#F68E27;}
	.st15{fill:#F47F25;}
	.st16{fill:#F26E24;}
	.st17{fill:#F05B24;}
	.st18{fill:#EE4524;}
	.st19{fill:#ED2724;}
	.st20{fill:#E62E35;}
	.st21{fill:#E03348;}
	.st22{fill:#DB3758;}
	.st23{fill:#D63B68;}
	.st24{fill:#D03D77;}
	.st25{fill:#CA4186;}
	.st26{fill:#C14397;}
	.st27{fill:#F05669;}
	.st28{fill:#F5887E;}
	.st29{display:none;}
	.st30{display:inline;}
	.st31{font-family:'MyriadPro-Regular';}
	.st32{font-size:12px;}
</style>
<g id="Layer_1">
	<g>
		<g>
			<path class="st0" d="M9,12.8V7c0-1.1,0.9-2,2-2h28c1.1,0,2,0.9,2,2v5.8H9z"/>
			<path class="st1" d="M39,36H11c-1.7,0-3-1.3-3-3V7c0-1.7,1.3-3,3-3h28c1.7,0,3,1.3,3,3v26C42,34.7,40.7,36,39,36z M11,6
				c-0.6,0-1,0.4-1,1v26c0,0.6,0.4,1,1,1h28c0.6,0,1-0.4,1-1V7c0-0.6-0.4-1-1-1H11z"/>
			<g>
				<circle class="st1" cx="13" cy="9" r="1"/>
				<circle class="st1" cx="21" cy="9" r="1"/>
				<circle class="st1" cx="17" cy="9" r="1"/>
			</g>
			<path class="st1" d="M31.5,13.8H9c-0.6,0-1-0.4-1-1s0.4-1,1-1h22.5c0.6,0,1,0.4,1,1S32.1,13.8,31.5,13.8z"/>
			<path class="st1" d="M41,13.8h-4.8c-0.6,0-1-0.4-1-1s0.4-1,1-1H41c0.6,0,1,0.4,1,1S41.6,13.8,41,13.8z"/>
		</g>
		<g>
			<path class="st5" d="M31,24c-0.6,0-1-0.4-1-1v-4h-4c-0.6,0-1-0.4-1-1s0.4-1,1-1h5c0.6,0,1,0.4,1,1v5C32,23.6,31.6,24,31,24z"/>
			<path class="st5" d="M19,31c-0.3,0-0.5-0.1-0.7-0.3c-0.4-0.4-0.4-1,0-1.4l12-12c0.4-0.4,1-0.4,1.4,0s0.4,1,0,1.4l-12,12
				C19.5,30.9,19.3,31,19,31z"/>
		</g>
	</g>
</g>
<g id="nyt_x5F_exporter_x5F_info" class="st29">
	<text transform="matrix(1 0 0 1 -60 -50)" class="st30"><tspan x="0" y="0" class="st31 st32">&lt;nyt_prefs&gt;</tspan><tspan x="0" y="14.4" class="st31 st32">  &lt;nyt_prefix/&gt;</tspan><tspan x="0" y="28.8" class="st31 st32">  &lt;nyt_suffix/&gt;</tspan><tspan x="0" y="43.2" class="st31 st32">  &lt;nyt_base_path&gt;~/Desktop&lt;/nyt_base_path&gt;</tspan><tspan x="0" y="57.6" class="st31 st32">  &lt;nyt_scaling&gt;100%&lt;/nyt_scaling&gt;</tspan><tspan x="0" y="72" class="st31 st32">  &lt;nyt_transparency&gt;true&lt;/nyt_transparency&gt;</tspan><tspan x="0" y="86.4" class="st31 st32">  &lt;nyt_format&gt;PNG 24&lt;/nyt_format&gt;</tspan><tspan x="0" y="100.8" class="st31 st32">  &lt;nyt_export_code&gt;artboards&lt;/nyt_export_code&gt;</tspan><tspan x="0" y="115.2" class="st31 st32">&lt;/nyt_prefs&gt;</tspan></text>
</g>
</svg>
