<?xml version="1.0" encoding="utf-8"?>
<!-- Generator: Adobe Illustrator 22.1.0, SVG Export Plug-In . SVG Version: 6.00 Build 0)  -->
<!DOCTYPE svg PUBLIC "-//W3C//DTD SVG 1.1//EN" "http://www.w3.org/Graphics/SVG/1.1/DTD/svg11.dtd">
<svg version="1.1" xmlns="http://www.w3.org/2000/svg" xmlns:xlink="http://www.w3.org/1999/xlink" x="0px" y="0px"
	 viewBox="0 0 50 40" style="enable-background:new 0 0 50 40;" xml:space="preserve">
<style type="text/css">
	.st0{fill:#DBF0F4;}
	.st1{fill:#194A77;}
	.st2{fill:#F69E24;}
	.st3{fill:#F7C6C9;}
	.st4{fill:#FFFFFF;}
	.st5{fill:#53BA82;}
	.st6{fill:#C12629;}
	.st7{fill:#FDBE13;}
	.st8{fill:none;stroke:#194A77;stroke-width:2;stroke-linecap:round;stroke-linejoin:round;stroke-miterlimit:10;}
	.st9{fill:#56C8E9;}
	.st10{fill:#1BB7EB;}
	.st11{fill:#4367B2;}
	.st12{fill:#FAAE28;}
	.st13{fill:#F89E28;}
	.st14{fill:#F68E27;}
	.st15{fill:#F47F25;}
	.st16{fill:#F26E24;}
	.st17{fill:#F05B24;}
	.st18{fill:#EE4524;}
	.st19{fill:#ED2724;}
	.st20{fill:#E62E35;}
	.st21{fill:#E03348;}
	.st22{fill:#DB3758;}
	.st23{fill:#D63B68;}
	.st24{fill:#D03D77;}
	.st25{fill:#CA4186;}
	.st26{fill:#C14397;}
	.st27{fill:#F05669;}
	.st28{fill:#F5887E;}
	.st29{display:none;}
	.st30{display:inline;}
</style>
<g id="Layer_1">
	<g>
		<g>
			<path class="st9" d="M34.7,17.8c-0.2-0.6-0.5-1.1-0.9-1.5l0.7-1.7l-1.6-1l-1.1,1.5c-0.2,0-0.5-0.1-0.8-0.1c-0.3,0-0.5,0-0.8,0.1
				l-1.1-1.5l-1.6,1l0.5,1.3l0.1,0.4c-0.4,0.4-0.7,0.9-0.9,1.5L25.7,18V20l1.6,0.2c0,0.1,0.1,0.2,0.1,0.3c0.2,0.4,0.4,0.8,0.8,1.1
				l-0.7,1.7l1.6,1l1.1-1.5c0.2,0,0.5,0.1,0.8,0.1c0.3,0,0.5,0,0.8-0.1l1.1,1.5l1.6-1l-0.7-1.7c0.4-0.4,0.7-0.9,0.9-1.5l1.6-0.2V18
				L34.7,17.8z M31,20.7c-0.9,0-1.7-0.8-1.7-1.7s0.8-1.7,1.7-1.7c0.9,0,1.7,0.8,1.7,1.7S31.9,20.7,31,20.7z"/>
			<g>
				<path class="st0" d="M19,30v3.7c0,1.3,1,2.3,2.3,2.3h19.5c1.3,0,2.3-1,2.3-2.3V30H19z"/>
				<path class="st0" d="M19,3.7V7h24V3.7c0-1-0.8-1.7-1.7-1.7H20.7C19.8,2,19,2.8,19,3.7z"/>
				<path class="st1" d="M41,37H26.5c-0.6,0-1-0.4-1-1s0.4-1,1-1H41c0.6,0,1-0.4,1-1V4c0-0.6-0.4-1-1-1H21c-0.6,0-1,0.4-1,1v7
					c0,0.6-0.4,1-1,1s-1-0.4-1-1V4c0-1.7,1.3-3,3-3h20c1.7,0,3,1.3,3,3v30C44,35.7,42.7,37,41,37z"/>
				<g>
					<circle class="st1" cx="29.5" cy="33" r="1"/>
				</g>
				<path class="st1" d="M42.8,8H19.3c-0.6,0-1-0.4-1-1s0.4-1,1-1h23.5c0.6,0,1,0.4,1,1S43.3,8,42.8,8z"/>
				<path class="st1" d="M43,31H26.5c-0.6,0-1-0.4-1-1s0.4-1,1-1H43c0.6,0,1,0.4,1,1S43.6,31,43,31z"/>
			</g>
			<g>
				<path class="st0" d="M10,30l0,3.7c0,1.3,1,2.3,2.3,2.3l8.5,0c1.3,0,2.3-1,2.3-2.3l0-3.7L10,30z"/>
				<path class="st0" d="M10,12.7l0,3.3l13,0l0-3.3c0-1-0.8-1.7-1.7-1.7l-9.6,0C10.8,11,10,11.8,10,12.7z"/>
				<path class="st1" d="M12,37c-1.7,0-3-1.3-3-3l0-21c0-1.7,1.3-3,3-3l9,0c0,0,0,0,0,0c0.8,0,1.5,0.3,2.1,0.9
					c0.6,0.6,0.9,1.3,0.9,2.1v3c0,0.6-0.4,1-1,1l-10,0c0,0,0,0,0,0c-0.6,0-1-0.4-1-1c0-0.6,0.4-1,1-1l9.1,0v-2
					c0-0.3-0.1-0.5-0.3-0.7C21.5,12.1,21.3,12,21,12c0,0,0,0,0,0l-9,0c-0.3,0-0.5,0.1-0.7,0.3C11.1,12.5,11,12.7,11,13l0,21
					c0,0.3,0.1,0.5,0.3,0.7c0.2,0.2,0.4,0.3,0.7,0.3c0,0,0,0,0,0l9,0c0.3,0,0.5-0.1,0.7-0.3S22,34.2,22,34l0-10c0-0.6,0.4-1,1-1
					c0,0,0,0,0,0c0.6,0,1,0.4,1,1l0,10c0,0.8-0.3,1.6-0.9,2.1C22.6,36.7,21.8,37,21,37L12,37C12,37,12,37,12,37z"/>
				<g>
					<circle class="st1" cx="16.5" cy="33" r="1"/>
				</g>
				<path class="st1" d="M10,31c-0.6,0-1-0.4-1-1c0-0.6,0.4-1,1-1l12,0c0,0,0,0,0,0c0.6,0,1,0.4,1,1c0,0.6-0.4,1-1,1L10,31
					C10,31,10,31,10,31z"/>
			</g>
			<path class="st9" d="M18.7,21.8c-0.1-0.3-0.3-0.6-0.5-0.9l0.4-1l-1-0.6L17,20.2c-0.1,0-0.3,0-0.5,0s-0.3,0-0.5,0l-0.7-0.9l-1,0.6
				l0.3,0.8l0.1,0.2c-0.2,0.3-0.4,0.6-0.5,0.9l-1,0.1v1.2l1,0.1c0,0.1,0,0.1,0.1,0.2c0.1,0.3,0.3,0.5,0.5,0.7l-0.4,1l1,0.6l0.7-0.9
				c0.1,0,0.3,0,0.5,0s0.3,0,0.5,0l0.7,0.9l1-0.6l-0.4-1c0.2-0.3,0.4-0.6,0.5-0.9l1-0.1v-1.2L18.7,21.8z M16.5,23.5
				c-0.6,0-1-0.5-1-1s0.5-1,1-1s1,0.5,1,1S17.1,23.5,16.5,23.5z"/>
			<path class="st1" d="M23,21c-0.6,0-1-0.4-1-1v-4c0-0.6,0.4-1,1-1s1,0.4,1,1v4C24,20.6,23.6,21,23,21z"/>
		</g>
	</g>
</g>
<g id="nyt_x5F_exporter_x5F_info" class="st29">
</g>
</svg>
