<?xml version="1.0" encoding="utf-8"?>
<!-- Generator: Adobe Illustrator 22.1.0, SVG Export Plug-In . SVG Version: 6.00 Build 0)  -->
<!DOCTYPE svg PUBLIC "-//W3C//DTD SVG 1.1//EN" "http://www.w3.org/Graphics/SVG/1.1/DTD/svg11.dtd">
<svg version="1.1" xmlns="http://www.w3.org/2000/svg" xmlns:xlink="http://www.w3.org/1999/xlink" x="0px" y="0px"
	 viewBox="0 0 50 40" style="enable-background:new 0 0 50 40;" xml:space="preserve">
<style type="text/css">
	.st0{fill:#DBF0F4;}
	.st1{fill:#194A77;}
	.st2{fill:#F69E24;}
	.st3{fill:#F7C6C9;}
	.st4{fill:#FFFFFF;}
	.st5{fill:#53BA82;}
	.st6{fill:#C12629;}
	.st7{fill:#FDBE13;}
	.st8{fill:none;stroke:#194A77;stroke-width:2;stroke-linecap:round;stroke-linejoin:round;stroke-miterlimit:10;}
	.st9{fill:#56C8E9;}
	.st10{fill:#1BB7EB;}
	.st11{fill:#4367B2;}
	.st12{fill:#FAAE28;}
	.st13{fill:#F89E28;}
	.st14{fill:#F68E27;}
	.st15{fill:#F47F25;}
	.st16{fill:#F26E24;}
	.st17{fill:#F05B24;}
	.st18{fill:#EE4524;}
	.st19{fill:#ED2724;}
	.st20{fill:#E62E35;}
	.st21{fill:#E03348;}
	.st22{fill:#DB3758;}
	.st23{fill:#D63B68;}
	.st24{fill:#D03D77;}
	.st25{fill:#CA4186;}
	.st26{fill:#C14397;}
	.st27{fill:#F05669;}
	.st28{fill:#F5887E;}
	.st29{display:none;}
	.st30{display:inline;}
</style>
<g id="Layer_1">
	<g>
		<rect x="21" y="16" class="st0" width="8" height="8"/>
		<rect x="9" y="4" class="st0" width="8" height="8"/>
		<rect x="33" y="4" class="st0" width="8" height="8"/>
		<path class="st1" d="M17,13H9c-0.6,0-1-0.4-1-1V4c0-0.6,0.4-1,1-1h8c0.6,0,1,0.4,1,1v8C18,12.6,17.6,13,17,13z M10,11h6V5h-6V11z"
			/>
		<path class="st1" d="M29,13h-8c-0.6,0-1-0.4-1-1V4c0-0.6,0.4-1,1-1h8c0.6,0,1,0.4,1,1v8C30,12.6,29.6,13,29,13z M22,11h6V5h-6V11z
			"/>
		<path class="st1" d="M41,13h-8c-0.6,0-1-0.4-1-1V4c0-0.6,0.4-1,1-1h8c0.6,0,1,0.4,1,1v8C42,12.6,41.6,13,41,13z M34,11h6V5h-6V11z
			"/>
		<rect x="33" y="28" class="st0" width="8" height="8"/>
		<path class="st1" d="M29,37h-8c-0.6,0-1-0.4-1-1v-8c0-0.6,0.4-1,1-1h8c0.6,0,1,0.4,1,1v8C30,36.6,29.6,37,29,37z M22,35h6v-6h-6
			V35z"/>
		<path class="st1" d="M41,37h-8c-0.6,0-1-0.4-1-1v-8c0-0.6,0.4-1,1-1h8c0.6,0,1,0.4,1,1v8C42,36.6,41.6,37,41,37z M34,35h6v-6h-6
			V35z"/>
		<rect x="9" y="28" class="st0" width="8" height="8"/>
		<path class="st1" d="M17,37H9c-0.6,0-1-0.4-1-1v-8c0-0.6,0.4-1,1-1h8c0.6,0,1,0.4,1,1v8C18,36.6,17.6,37,17,37z M10,35h6v-6h-6V35
			z"/>
		<path class="st1" d="M29,25h-8c-0.6,0-1-0.4-1-1v-8c0-0.6,0.4-1,1-1h8c0.6,0,1,0.4,1,1v8C30,24.6,29.6,25,29,25z M22,23h6v-6h-6
			V23z"/>
		<path class="st1" d="M41,25h-8c-0.6,0-1-0.4-1-1v-8c0-0.6,0.4-1,1-1h8c0.6,0,1,0.4,1,1v8C42,24.6,41.6,25,41,25z M34,23h6v-6h-6
			V23z"/>
		<path class="st1" d="M17,25H9c-0.6,0-1-0.4-1-1v-8c0-0.6,0.4-1,1-1h8c0.6,0,1,0.4,1,1v8C18,24.6,17.6,25,17,25z M10,23h6v-6h-6V23
			z"/>
	</g>
</g>
<g id="nyt_x5F_exporter_x5F_info" class="st29">
</g>
</svg>
